<?xml version="1.0" encoding="UTF-8"?>
<svg version="1.1" xmlns="http://www.w3.org/2000/svg" width="512" height="512">
<path d="M0 0 C3.94894429 2.35926536 7.92633432 4.66790284 11.90429688 6.9777832 C14.90187078 8.72015083 17.89442904 10.47088646 20.88623047 12.22314453 C27.2598501 15.95101469 33.65547289 19.6401448 40.05419922 23.32470703 C48.40225631 28.13309867 56.7366319 32.96376435 65.05419922 37.82470703 C77.69163375 45.20885596 90.3709522 52.51960838 103.05419922 59.82470703 C116.72832102 67.70051428 130.39156896 75.59326549 144.015625 83.55541992 C151.34732401 87.8371562 158.69702903 92.0869071 166.05419922 96.32470703 C174.40218381 101.13322547 182.73663106 105.96376386 191.05419922 110.82470703 C203.69163375 118.20885596 216.3709522 125.51960838 229.05419922 132.82470703 C242.17403077 140.38126283 255.28835358 147.94650314 268.36669922 155.57470703 C269.36910645 156.15937744 270.37151367 156.74404785 271.40429688 157.34643555 C278.77353895 161.64993539 278.77353895 161.64993539 281.71313477 163.48046875 C284.23821417 164.93036834 285.68262709 165.14915118 288.55419922 165.19970703 C292.11881616 165.49479121 292.89506012 165.69450232 295.80419922 168.07470703 C296.54669922 168.98220703 297.28919922 169.88970703 298.05419922 170.82470703 C300.81701027 173.66022364 303.60233939 176.2800344 306.67919922 178.76220703 C309.18102988 180.85064507 310.09625524 181.91232374 311.55419922 184.94970703 C313.37745448 188.44427962 315.02077119 189.09784746 318.40576172 190.84033203 C320.98464772 192.38033031 321.90853614 194.08784524 323.05419922 196.82470703 C323.39346869 199.15718464 323.72659988 201.49056174 324.05419922 203.82470703 C324.79669922 205.30970703 324.79669922 205.30970703 325.55419922 206.82470703 C327.27423076 210.26477012 327.84129723 212.99247116 328.05419922 216.82470703 C327.40490332 218.16658522 326.7368806 219.49950201 326.05419922 220.82470703 C324.89074791 228.06395963 327.6264615 231.80767049 331.44482422 237.85595703 C333.3514901 241.37310769 333.67840797 244.00587482 333.81982422 247.93017578 C334.19484352 250.96158176 336.04500697 252.63286095 338.05419922 254.82470703 C339.78640784 258.41766273 340.37387922 261.40969946 340.42919922 265.38720703 C340.45755859 266.31662109 340.48591797 267.24603516 340.51513672 268.20361328 C339.92590086 271.55426806 338.41664501 272.46226124 336.05419922 274.82470703 C335.4674985 277.52196119 335.4674985 277.52196119 335.49169922 280.44970703 C335.23900659 285.39526284 334.45565155 289.59738182 332.87060547 294.27783203 C330.42085483 301.92011631 329.86063125 308.16222299 330.22021484 316.11376953 C330.43866188 324.88178146 327.76504466 330.74038815 321.83154297 337.12548828 C319.21665707 339.62543415 316.78163834 341.82470703 313.05419922 341.82470703 C313.38419922 342.48470703 313.71419922 343.14470703 314.05419922 343.82470703 C315.09200523 356.14227343 315.09200523 356.14227343 312.30419922 360.44970703 C307.70807282 365.30117379 303.37884364 366.91920519 297.05419922 368.82470703 C297.15732422 369.97970703 297.26044922 371.13470703 297.36669922 372.32470703 C297.34832928 377.50503029 295.42747982 380.97439685 292.05419922 384.82470703 C287.37546021 388.86750093 282.98238871 389.24072033 277.05419922 388.82470703 C276.61720703 390.03707031 276.61720703 390.03707031 276.17138672 391.27392578 C273.70881383 397.69365195 271.94663821 402.10990854 266.05419922 405.82470703 C262.90489029 406.87447668 260.66605466 406.92602298 257.36669922 406.88720703 C256.37283203 406.87818359 255.37896484 406.86916016 254.35498047 406.85986328 C253.59572266 406.84826172 252.83646484 406.83666016 252.05419922 406.82470703 C251.97169922 407.89720703 251.88919922 408.96970703 251.80419922 410.07470703 C250.97814577 414.20497428 250.40032612 415.38293875 247.05419922 417.82470703 C238.70858475 421.38031448 228.88531749 421.04166685 219.953125 421.62548828 C217.53212409 421.79186328 215.1221252 422.00240086 212.70654297 422.23095703 C202.04052012 422.86977765 194.95283893 418.99583763 186.05419922 413.82470703 C183.9238773 412.62207847 181.79226374 411.42173628 179.65966797 410.22314453 C166.37154465 402.72933258 153.20672548 395.01883572 140.03857422 387.31689453 C130.49596989 381.74041547 120.91362129 376.23259212 111.33642578 370.71582031 C105.9075998 367.58790555 100.48100641 364.45612255 95.05419922 361.32470703 C92.88754339 360.07468824 90.72087672 358.82468825 88.55419922 357.57470703 C75.55419922 350.07470703 62.55419922 342.57470703 49.55419922 335.07470703 C48.48153809 334.45587646 47.40887695 333.8370459 46.30371094 333.19946289 C44.13862851 331.95035185 41.9735894 330.70116574 39.80859375 329.4519043 C34.36804216 326.31268394 28.92672706 323.1748014 23.48388672 320.03955078 C11.99971102 313.42247811 0.53223028 306.77836726 -10.91162109 300.09179688 C-21.4720036 293.9255165 -32.06706844 287.81974754 -42.66357422 281.71582031 C-48.0924002 278.58790555 -53.51899359 275.45612255 -58.94580078 272.32470703 C-61.11245661 271.07468824 -63.27912328 269.82468825 -65.44580078 268.57470703 C-71.94580078 264.82470703 -71.94580078 264.82470703 -78.44580078 261.07470703 C-79.51950928 260.4553125 -80.59321777 259.83591797 -81.69946289 259.19775391 C-83.85410702 257.95458403 -86.00856835 256.71109728 -88.1628418 255.46728516 C-93.17334199 252.57487556 -98.18542713 249.68535476 -103.20443726 246.80773926 C-104.96308827 245.79922389 -106.72113287 244.78965933 -108.47900391 243.77978516 C-110.67052309 242.52120185 -112.86314582 241.26453716 -115.05712891 240.01025391 C-133.24328402 229.55642679 -148.33222829 219.91867238 -155.32080078 199.07470703 C-157.45891213 193.01794111 -160.47690457 189.8765325 -165.54345703 186.02001953 C-170.40883423 181.573935 -172.1309701 177.76403523 -172.47705078 171.29736328 C-172.49414687 169.16068753 -172.48217774 167.0236415 -172.44580078 164.88720703 C-172.43371582 163.74348633 -172.42163086 162.59976563 -172.40917969 161.42138672 C-171.19249762 107.87262805 -145.72168154 54.03341431 -108.94580078 15.82470703 C-108.35798828 15.18533203 -107.77017578 14.54595703 -107.16455078 13.88720703 C-77.09771129 -17.94827008 -36.72601686 -21.97947737 0 0 Z " fill="#F3DE9D" transform="translate(171.94580078125,52.17529296875)"/>
<path d="M0 0 C4.22910589 -0.05907207 8.45810289 -0.09395041 12.6875 -0.125 C14.45577148 -0.15013672 14.45577148 -0.15013672 16.25976562 -0.17578125 C23.39167627 -0.21486021 30.10878734 0.33106973 37.13598633 1.54101562 C40.62592095 2.10030955 43.96947234 2.23413548 47.5 2.3125 C53.58723498 2.69674407 53.58723498 2.69674407 57.0625 5.25 C57.701875 6.1575 58.34125 7.065 59 8 C61.76281105 10.83551661 64.54814017 13.45532737 67.625 15.9375 C70.12683066 18.02593804 71.04205602 19.08761671 72.5 22.125 C74.32325526 25.61957259 75.96657197 26.27314043 79.3515625 28.015625 C81.9304485 29.55562328 82.85433692 31.26313821 84 34 C84.33926947 36.33247761 84.67240066 38.66585471 85 41 C85.7425 42.485 85.7425 42.485 86.5 44 C88.22003154 47.44006309 88.78709801 50.16776413 89 54 C88.3507041 55.34187818 87.68268138 56.67479497 87 58 C85.83654869 65.23925259 88.57226228 68.98296346 92.390625 75.03125 C94.29729088 78.54840065 94.62420875 81.18116779 94.765625 85.10546875 C95.1406443 88.13687473 96.99080776 89.80815392 99 92 C100.73220862 95.5929557 101.31968001 98.58499243 101.375 102.5625 C101.40335938 103.49191406 101.43171875 104.42132813 101.4609375 105.37890625 C100.87170164 108.72956103 99.36244579 109.63755421 97 112 C96.41329928 114.69725416 96.41329928 114.69725416 96.4375 117.625 C96.18480737 122.57055581 95.40145233 126.77267479 93.81640625 131.453125 C91.36665561 139.09540928 90.80643204 145.33751596 91.16601562 153.2890625 C91.38446266 162.05707443 88.71084544 167.91568112 82.77734375 174.30078125 C80.16245785 176.80072711 77.72743912 179 74 179 C74.33 179.66 74.66 180.32 75 181 C76.03780601 193.3175664 76.03780601 193.3175664 73.25 197.625 C68.6538736 202.47646676 64.32464442 204.09449816 58 206 C58.103125 207.155 58.20625 208.31 58.3125 209.5 C58.29413006 214.68032326 56.3732806 218.14968981 53 222 C48.32126099 226.0427939 43.92818949 226.4160133 38 226 C37.70867187 226.80824219 37.41734375 227.61648438 37.1171875 228.44921875 C34.65461461 234.86894492 32.89243899 239.28520151 27 243 C23.85069107 244.04976964 21.61185544 244.10131595 18.3125 244.0625 C17.31863281 244.05347656 16.32476562 244.04445313 15.30078125 244.03515625 C14.16189453 244.01775391 14.16189453 244.01775391 13 244 C12.9175 245.0725 12.835 246.145 12.75 247.25 C11.92394655 251.38026725 11.3461269 252.55823172 8 255 C-3.70222495 259.48065556 -24.28985748 260.93672208 -36.19140625 255.90234375 C-36.78824219 255.60457031 -37.38507813 255.30679688 -38 255 C-39.19625 254.443125 -40.3925 253.88625 -41.625 253.3125 C-53.39919493 246.02500753 -57.66625701 232.49039516 -60.75 219.75 C-65.1903937 200.11705459 -65.24674177 181.02594159 -65 161 C-62.85998738 163.1010527 -60.88933969 165.14152175 -59.0390625 167.5078125 C-53.16646426 174.68543257 -42.84797124 183.05067625 -34 186 C-34 186.66 -34 187.32 -34 188 C-30.0028574 189.42755093 -26.18893544 190.34877894 -22 191 C-20.66094733 189.2126038 -19.32890934 187.41995047 -18 185.625 C-16.88625 184.12839844 -16.88625 184.12839844 -15.75 182.6015625 C-13.8139515 180.24598283 -13.8139515 180.24598283 -14 178 C-14.87140625 177.5875 -15.7428125 177.175 -16.640625 176.75 C-33.33375085 168.71484078 -47.93148445 158.92825208 -58 143 C-58.56847656 142.10667969 -59.13695312 141.21335937 -59.72265625 140.29296875 C-62.69818813 132.62210216 -60.77978657 124.1956647 -59.375 116.3125 C-59.2011377 115.30662842 -59.02727539 114.30075684 -58.84814453 113.2644043 C-57.2703785 104.26597383 -55.58344649 95.28691538 -53.875 86.3125 C-53.74712097 85.63402008 -53.61924194 84.95554016 -53.48748779 84.25650024 C-53.11952138 82.3118848 -52.74349595 80.36879964 -52.3671875 78.42578125 C-52.15175293 77.30598877 -51.93631836 76.18619629 -51.71435547 75.0324707 C-51.04656873 72.19768635 -50.16167734 69.66540755 -49 67 C-47.37478005 67.29043855 -45.74983921 67.58243892 -44.125 67.875 C-42.60712891 68.14570313 -42.60712891 68.14570313 -41.05859375 68.421875 C-39.21026786 68.77123928 -37.36651051 69.14858391 -35.53515625 69.578125 C-17.04419893 73.88550274 5.38545584 69.84566952 21.765625 60.40625 C31.52336356 53.97899706 36.68511395 47.20060876 40 36 C40.99 37.98 40.99 37.98 42 40 C43.155 39.9175 44.31 39.835 45.5 39.75 C51.04911382 39.74014367 55.57929154 41.88529532 59.73046875 45.51171875 C61 47 61 47 61 49 C64.96 47.02 68.92 45.04 73 43 C71.70054644 36.50273218 69.15844287 30.76203911 64.0703125 26.3125 C58.05981877 22.3834613 51.22260686 19.90979519 44 21 C41.57577814 23.88509913 41.57577814 23.88509913 40 27 C39.67 27 39.34 27 39 27 C38.938125 25.989375 38.87625 24.97875 38.8125 23.9375 C37.95998252 18.37370169 35.29608432 14.72930315 30.83203125 11.3671875 C21.19559398 5.26972798 11.225183 2.48885499 0 1 C0 0.67 0 0.34 0 0 Z " fill="#EDA458" transform="translate(411,215)"/>
<path d="M0 0 C4.22910589 -0.05907207 8.45810289 -0.09395041 12.6875 -0.125 C14.45577148 -0.15013672 14.45577148 -0.15013672 16.25976562 -0.17578125 C23.39167627 -0.21486021 30.10878734 0.33106973 37.13598633 1.54101562 C40.62592095 2.10030955 43.96947234 2.23413548 47.5 2.3125 C53.58723498 2.69674407 53.58723498 2.69674407 57.0625 5.25 C57.701875 6.1575 58.34125 7.065 59 8 C61.76281105 10.83551661 64.54814017 13.45532737 67.625 15.9375 C70.12683066 18.02593804 71.04205602 19.08761671 72.5 22.125 C74.32325526 25.61957259 75.96657197 26.27314043 79.3515625 28.015625 C81.9304485 29.55562328 82.85433692 31.26313821 84 34 C84.33926947 36.33247761 84.67240066 38.66585471 85 41 C85.7425 42.485 85.7425 42.485 86.5 44 C88.22003154 47.44006309 88.78709801 50.16776413 89 54 C88.3507041 55.34187818 87.68268138 56.67479497 87 58 C86.69524873 61.45615644 86.41741238 64.83482477 88 68 C88.12082534 69.66345582 88.1753794 71.33220591 88.1875 73 C88.20167969 73.886875 88.21585938 74.77375 88.23046875 75.6875 C88 78 88 78 86 80 C83.03 76.7 80.06 73.4 77 70 C74.10622907 71.44688546 71.81466922 72.75081864 69.25 74.625 C68.32960938 75.29402344 68.32960938 75.29402344 67.390625 75.9765625 C66.70226562 76.48316406 66.70226562 76.48316406 66 77 C66.63808594 77.48210937 67.27617187 77.96421875 67.93359375 78.4609375 C69.17302734 79.40839844 69.17302734 79.40839844 70.4375 80.375 C71.26121094 81.00148438 72.08492187 81.62796875 72.93359375 82.2734375 C75 84 75 84 76 86 C72.7 86 69.4 86 66 86 C65.814375 87.36125 65.814375 87.36125 65.625 88.75 C64.68421053 93.64210526 64.68421053 93.64210526 63 96 C60.375 97.25 60.375 97.25 58 98 C58.495 96.515 58.495 96.515 59 95 C58.39414062 94.82984375 57.78828125 94.6596875 57.1640625 94.484375 C49.51291933 92.27142898 42.0950634 89.64472435 35 86 C32.70954986 90.81209901 32.70954986 90.81209901 32 96 C35.3 97.65 38.6 99.3 42 101 C40.77654147 107.11729267 38.42071948 109.78892289 34 114 C29.56102413 116.95931725 26.28916975 117.31735018 21 117 C22.32 116.34 23.64 115.68 25 115 C25 114.34 25 113.68 25 113 C24.360625 112.773125 23.72125 112.54625 23.0625 112.3125 C19.56180883 110.81220379 16.42383614 108.91934459 13.18359375 106.92578125 C10.5687252 105.81715183 9.63342222 106.10975403 7 107 C2.21312701 107.18063672 -2.27626141 106.77122263 -7 106 C-7 106.66 -7 107.32 -7 108 C-6.46761719 108.25007813 -5.93523437 108.50015625 -5.38671875 108.7578125 C-2.41366104 110.30516496 0.37158746 112.05717583 3.1875 113.875 C4.25355469 114.55304688 5.31960938 115.23109375 6.41796875 115.9296875 C9 118 9 118 10.03125 120.03125 C9.98855595 122.72097492 9.10636458 123.65305201 7.3125 125.625 C6.79300781 126.21539062 6.27351563 126.80578125 5.73828125 127.4140625 C3.08126288 129.83821858 1.17402624 130.99443589 -2.47265625 131.01171875 C-3.32730469 130.90472656 -4.18195313 130.79773438 -5.0625 130.6875 C-5.91972656 130.58824219 -6.77695312 130.48898437 -7.66015625 130.38671875 C-10 130 -10 130 -13 129 C-13 129.66 -13 130.32 -13 131 C-16.39037635 129.72361863 -19.4180524 128.25674434 -22.50390625 126.36328125 C-23.73850586 125.62174805 -23.73850586 125.62174805 -24.99804688 124.86523438 C-26.71574633 123.82519548 -28.4292759 122.7782401 -30.13867188 121.72460938 C-30.96044922 121.23412109 -31.78222656 120.74363281 -32.62890625 120.23828125 C-33.37213135 119.78493408 -34.11535645 119.33158691 -34.88110352 118.86450195 C-37.41894578 117.82907167 -38.47722329 118.03496495 -41 119 C-41.86625 119.495 -41.86625 119.495 -42.75 120 C-46.09613831 121.48717258 -49.36310804 121.6363108 -53 122 C-52.35675781 122.40089844 -51.71351563 122.80179687 -51.05078125 123.21484375 C-43.54796826 127.93487303 -36.25572144 132.91292026 -29 138 C-29.99 138.33 -30.98 138.66 -32 139 C-32.9075 138.443125 -33.815 137.88625 -34.75 137.3125 C-37.75506859 135.68414377 -37.75506859 135.68414377 -39.875 136.65234375 C-41.63593414 137.68322395 -43.32232433 138.83853223 -45 140 C-48.47998917 141.73999458 -52.19558194 141.43947588 -56 141 C-59.0625 139.625 -59.0625 139.625 -61 137 C-61.82428 130.07980589 -60.58691502 123.11333784 -59.375 116.3125 C-59.11420654 114.80369263 -59.11420654 114.80369263 -58.84814453 113.2644043 C-57.2703785 104.26597383 -55.58344649 95.28691538 -53.875 86.3125 C-53.74712097 85.63402008 -53.61924194 84.95554016 -53.48748779 84.25650024 C-53.11952138 82.3118848 -52.74349595 80.36879964 -52.3671875 78.42578125 C-52.15175293 77.30598877 -51.93631836 76.18619629 -51.71435547 75.0324707 C-51.04656873 72.19768635 -50.16167734 69.66540755 -49 67 C-47.37478005 67.29043855 -45.74983921 67.58243892 -44.125 67.875 C-42.60712891 68.14570313 -42.60712891 68.14570313 -41.05859375 68.421875 C-39.21026786 68.77123928 -37.36651051 69.14858391 -35.53515625 69.578125 C-17.04419893 73.88550274 5.38545584 69.84566952 21.765625 60.40625 C31.52336356 53.97899706 36.68511395 47.20060876 40 36 C40.99 37.98 40.99 37.98 42 40 C43.155 39.9175 44.31 39.835 45.5 39.75 C51.04911382 39.74014367 55.57929154 41.88529532 59.73046875 45.51171875 C61 47 61 47 61 49 C66.94 46.03 66.94 46.03 73 43 C71.70054644 36.50273218 69.15844287 30.76203911 64.0703125 26.3125 C58.05981877 22.3834613 51.22260686 19.90979519 44 21 C41.57577814 23.88509913 41.57577814 23.88509913 40 27 C39.67 27 39.34 27 39 27 C38.938125 25.989375 38.87625 24.97875 38.8125 23.9375 C37.95998252 18.37370169 35.29608432 14.72930315 30.83203125 11.3671875 C21.19559398 5.26972798 11.225183 2.48885499 0 1 C0 0.67 0 0.34 0 0 Z " fill="#71AB21" transform="translate(411,215)"/>
<path d="M0 0 C0.99 0.495 0.99 0.495 2 1 C1.835 2.216875 1.67 3.43375 1.5 4.6875 C1.03353084 8.68400604 1.02191388 12.54214117 1.125 16.5625 C1.15648807 25.58907926 -1.09151493 30.70299915 -7.22265625 37.30078125 C-9.83754215 39.80072711 -12.27256088 42 -16 42 C-15.67 42.66 -15.34 43.32 -15 44 C-13.96219399 56.3175664 -13.96219399 56.3175664 -16.75 60.625 C-21.3461264 65.47646676 -25.67535558 67.09449816 -32 69 C-31.896875 70.155 -31.79375 71.31 -31.6875 72.5 C-31.70586994 77.68032326 -33.6267194 81.14968981 -37 85 C-41.67873901 89.0427939 -46.07181051 89.4160133 -52 89 C-52.29132813 89.80824219 -52.58265625 90.61648438 -52.8828125 91.44921875 C-55.34538539 97.86894492 -57.10756101 102.28520151 -63 106 C-66.14930893 107.04976964 -68.38814456 107.10131595 -71.6875 107.0625 C-72.68136719 107.05347656 -73.67523438 107.04445313 -74.69921875 107.03515625 C-75.45847656 107.02355469 -76.21773438 107.01195312 -77 107 C-77.0825 108.0725 -77.165 109.145 -77.25 110.25 C-78.07605345 114.38026725 -78.6538731 115.55823172 -82 118 C-93.70222495 122.48065556 -114.28985748 123.93672208 -126.19140625 118.90234375 C-126.78824219 118.60457031 -127.38507813 118.30679688 -128 118 C-129.19625 117.443125 -130.3925 116.88625 -131.625 116.3125 C-143.43944622 109.00009449 -147.68478081 95.39451726 -150.8125 82.625 C-152.80705922 74.07996117 -153.85175375 65.77348241 -154 57 C-152.30078125 56.2421875 -152.30078125 56.2421875 -150 56 C-147.66796875 57.6953125 -147.66796875 57.6953125 -145.1875 60.125 C-137.99612589 66.8859415 -132.65905547 70.60546028 -123 73 C-122.4011499 73.17128418 -121.8022998 73.34256836 -121.18530273 73.51904297 C-107.07304121 76.62497026 -91.14025426 74.62712065 -78 69 C-77.02804687 68.59265625 -76.05609375 68.1853125 -75.0546875 67.765625 C-66.68947284 63.92012334 -61.12461902 59.24923804 -57 51 C-53.94255926 52.01914691 -52.20235223 52.77867725 -50 55.1875 C-48.16426176 57.25881478 -48.16426176 57.25881478 -45.6875 57 C-42.19600312 55.70083837 -39.21653211 53.88136784 -36 52 C-35.34 52 -34.68 52 -34 52 C-35.09677235 49.72532419 -36.20198422 47.45545476 -37.3125 45.1875 C-37.62123047 44.54490234 -37.92996094 43.90230469 -38.24804688 43.24023438 C-39.82136035 40.04392384 -41.22816208 37.29422893 -44 35 C-42.85850772 31.57552315 -42.15307687 30.6641239 -39 29 C-34.07416321 30.47113917 -30.4980703 33.51947331 -26.5 36.63671875 C-24.0954597 38.23774147 -24.0954597 38.23774147 -21.421875 37.828125 C-17.52266327 36.49484615 -12.91029251 34.82058502 -11 31 C-12.65 30.34 -14.3 29.68 -16 29 C-16 28.01 -16 27.02 -16 26 C-14.02 25.505 -14.02 25.505 -12 25 C-12.11859375 24.26136719 -12.2371875 23.52273438 -12.359375 22.76171875 C-13.36971689 14.8103281 -12.33125256 9.26298841 -9 2 C-7.02 3.485 -7.02 3.485 -5 5 C-2.525 2.525 -2.525 2.525 0 0 Z " fill="#6CA91E" transform="translate(501,352)"/>
<path d="M0 0 C1.53914063 0.10634766 1.53914063 0.10634766 3.109375 0.21484375 C13.91622983 1.36533428 23.78835039 5.8219846 32 13 C35.10551838 16.96816238 36.52155914 19.97637096 37 25 C37.515625 24.01 38.03125 23.02 38.5625 22 C41 19 41 19 44.0625 18.375 C51.17046083 19.50324775 58.99934702 21.57071962 64 27 C67.32686314 31.81455132 70.11967426 36.14164177 71 42 C69.40089132 43.00806851 67.79551738 44.00620385 66.1875 45 C65.29417969 45.556875 64.40085937 46.11375 63.48046875 46.6875 C61 48 61 48 58 48 C56.33333333 46.33333333 54.66666667 44.66666667 53 43 C49.53589939 40.84455962 46.69190174 39.85939233 42.6875 39.4375 C41.470625 39.293125 40.25375 39.14875 39 39 C38.67 38.34 38.34 37.68 38 37 C37.6596875 37.7734375 37.319375 38.546875 36.96875 39.34375 C30.57687601 53.07947922 21.46485385 60.28865591 7.4375 65.6875 C-12.99523086 72.56496641 -31.44253647 71.86239454 -52 66 C-51.36536049 57.75915862 -49.54199284 49.80724337 -47.72631836 41.76416016 C-47.19373722 39.4026563 -46.66951915 37.03941556 -46.14648438 34.67578125 C-45.29557056 30.85174266 -44.41888997 27.03444486 -43.52142334 23.22106934 C-43.17314103 21.73751633 -42.82944599 20.25287909 -42.49029541 18.76721191 C-42.00676356 16.66579153 -41.50102135 14.57102115 -40.98828125 12.4765625 C-40.70122314 11.27338379 -40.41416504 10.07020508 -40.1184082 8.83056641 C-39 6 -39 6 -37.18823242 4.66210938 C-25.60850325 1.15834663 -12.06418722 -1.11117514 0 0 Z " fill="#EF4C59" transform="translate(414,216)"/>
<path d="M0 0 C3.44428265 1.44781793 5.36130962 3.27694609 7.75 6.125 C8.36359375 6.84945313 8.9771875 7.57390625 9.609375 8.3203125 C10.29773438 9.15175781 10.29773438 9.15175781 11 10 C12.49743119 8.50256881 12.33202693 7.01175761 12.5625 4.9375 C12.706875 3.638125 12.85125 2.33875 13 1 C17.14310624 4.86689915 19.11810404 7.73638589 19.375 13.4375 C19.76532044 17.77360525 21.0273552 19.75711476 24 23 C25.73220862 26.5929557 26.31968001 29.58499243 26.375 33.5625 C26.40335938 34.49191406 26.43171875 35.42132813 26.4609375 36.37890625 C25.87170164 39.72956103 24.36244579 40.63755421 22 43 C21.41329928 45.69725416 21.41329928 45.69725416 21.4375 48.625 C21.14381613 54.47718831 19.92378551 59.49002736 18 65 C17.505 66.485 17.505 66.485 17 68 C15.15234375 69.60546875 15.15234375 69.60546875 12.9375 71.1875 C12.20402344 71.71730469 11.47054687 72.24710937 10.71484375 72.79296875 C10.14894531 73.19128906 9.58304687 73.58960938 9 74 C8.34 73.01 7.68 72.02 7 71 C3.29278005 78.48064025 2.48654491 84.69914269 3 93 C1.30397484 94.04115423 -0.40748937 95.05718378 -2.125 96.0625 C-3.07632813 96.63097656 -4.02765625 97.19945312 -5.0078125 97.78515625 C-9.64639101 99.66844335 -12.74579874 98.50650436 -17.25 96.6875 C-20.96267518 93.0592038 -20.90461355 90.073197 -21.51171875 85.05078125 C-22.42418066 79.34971925 -24.80773746 74.92949964 -29 71 C-27.35821735 66.22390502 -24.73453298 62.20617096 -22 58 C-22.99 58.33 -23.98 58.66 -25 59 C-37.99274604 59.75742466 -51.32712638 59.32354459 -63 53 C-56.19126189 47.8347504 -56.19126189 47.8347504 -51.8125 47.6875 C-45.38229472 47.09055912 -41.00744953 44.11310477 -36.625 39.5 C-35.03652311 37.0561894 -33.94366189 34.75234718 -33 32 C-33.86625 31.7525 -34.7325 31.505 -35.625 31.25 C-39.18302254 29.93221387 -41.9226155 28.19813178 -45 26 C-43.33333333 22.66666667 -41.66666667 19.33333333 -40 16 C-39.40574219 16.32613281 -38.81148438 16.65226562 -38.19921875 16.98828125 C-32.67764739 19.89934298 -27.42613739 21.89861814 -21.34765625 23.32421875 C-19 24 -19 24 -16 26 C-15.505 26.99 -15.505 26.99 -15 28 C-14.01 27.67 -13.02 27.34 -12 27 C-10.97299556 24.67108904 -10.97299556 24.67108904 -10.3125 21.9375 C-9.93544922 20.55884766 -9.93544922 20.55884766 -9.55078125 19.15234375 C-9.36902344 18.44207031 -9.18726563 17.73179687 -9 17 C-6.03 16.67 -3.06 16.34 0 16 C-3.3 13.36 -6.6 10.72 -10 8 C-8.68 7.01 -7.36 6.02 -6 5 C-4.90989733 4.1124164 -3.8259065 3.21723956 -2.75 2.3125 C-1.8425 1.549375 -0.935 0.78625 0 0 Z " fill="#F95763" transform="translate(486,284)"/>
<path d="M0 0 C4.22910589 -0.05907207 8.45810289 -0.09395041 12.6875 -0.125 C14.45577148 -0.15013672 14.45577148 -0.15013672 16.25976562 -0.17578125 C23.39167627 -0.21486021 30.10878734 0.33106973 37.13598633 1.54101562 C40.62592095 2.10030955 43.96947234 2.23413548 47.5 2.3125 C53.58723498 2.69674407 53.58723498 2.69674407 57.0625 5.25 C57.701875 6.1575 58.34125 7.065 59 8 C61.76281105 10.83551661 64.54814017 13.45532737 67.625 15.9375 C70.12683066 18.02593804 71.04205602 19.08761671 72.5 22.125 C74.32325526 25.61957259 75.96657197 26.27314043 79.3515625 28.015625 C81.9304485 29.55562328 82.85433692 31.26313821 84 34 C84.33926947 36.33247761 84.67240066 38.66585471 85 41 C85.495 41.99 85.99 42.98 86.5 44 C88.22003154 47.44006309 88.78709801 50.16776413 89 54 C88.3507041 55.34187818 87.68268138 56.67479497 87 58 C86.69524873 61.45615644 86.41741238 64.83482477 88 68 C88.12082534 69.66345582 88.1753794 71.33220591 88.1875 73 C88.20167969 73.886875 88.21585937 74.77375 88.23046875 75.6875 C88 78 88 78 86 80 C83.03 76.7 80.06 73.4 77 70 C73.25794199 71.70096101 73.25794199 71.70096101 71.28125 73.359375 C68.24838513 75.72713793 66.07653099 76.99258587 62.1640625 77.01953125 C57.02437427 76.24659613 52.45100166 74.87160879 47.6875 72.8125 C41.26110058 70.04657769 36.38789488 71.66296529 30 74 C30 73.34 30 72.68 30 72 C28.515 72.495 28.515 72.495 27 73 C22.89649463 71.34113613 19.80331963 69.45023955 17 66 C17 65.01 17 64.02 17 63 C19.16015625 61.421875 19.16015625 61.421875 22.0625 59.75 C30.77100857 54.39952815 35.29672307 49.49513184 39 40 C39.65279067 38.65981846 40.31545806 37.3242449 41 36 C41.495 37.98 41.495 37.98 42 40 C43.155 39.9175 44.31 39.835 45.5 39.75 C51.04911382 39.74014367 55.57929154 41.88529532 59.73046875 45.51171875 C61 47 61 47 61 49 C64.96 47.02 68.92 45.04 73 43 C71.70054644 36.50273218 69.15844287 30.76203911 64.0703125 26.3125 C58.05981877 22.3834613 51.22260686 19.90979519 44 21 C41.57577814 23.88509913 41.57577814 23.88509913 40 27 C39.67 27 39.34 27 39 27 C38.938125 25.989375 38.87625 24.97875 38.8125 23.9375 C37.95998252 18.37370169 35.29608432 14.72930315 30.83203125 11.3671875 C21.19559398 5.26972798 11.225183 2.48885499 0 1 C0 0.67 0 0.34 0 0 Z " fill="#76B222" transform="translate(411,215)"/>
<path d="M0 0 C3.05744074 1.01914691 4.79764777 1.77867725 7 4.1875 C8.83573824 6.25881478 8.83573824 6.25881478 11.3125 6 C13.66163764 5.12590227 15.54514142 4.14619202 17.6875 2.875 C19.3271875 1.946875 19.3271875 1.946875 21 1 C21.99 1.495 21.99 1.495 23 2 C15.69815656 8.98437199 9.10969097 12.22775067 -1.125 12.25 C-3.08408184 12.18665786 -5.04300741 12.11042591 -7 12 C-7.02578125 12.58007812 -7.0515625 13.16015625 -7.078125 13.7578125 C-7.5849265 20.73785129 -9.55752468 24.4964628 -14.5 29.5625 C-23.84691982 36.74168031 -33.628629 37.98636428 -45 37 C-45.99 36.67 -46.98 36.34 -48 36 C-48.38285156 36.87978516 -48.38285156 36.87978516 -48.7734375 37.77734375 C-51.8707393 43.38997027 -57.74256434 47.63159545 -63.796875 49.57421875 C-70.51525923 50.87262989 -77.30728494 50.09268817 -84 49 C-85.32 49 -86.64 49 -88 49 C-93.45593957 34.81024411 -96.38275254 21.19705823 -97 6 C-95.30078125 5.2421875 -95.30078125 5.2421875 -93 5 C-90.66796875 6.6953125 -90.66796875 6.6953125 -88.1875 9.125 C-80.99612589 15.8859415 -75.65905547 19.60546028 -66 22 C-65.10172485 22.25692627 -65.10172485 22.25692627 -64.18530273 22.51904297 C-50.07304121 25.62497026 -34.14025426 23.62712065 -21 18 C-20.02804687 17.59265625 -19.05609375 17.1853125 -18.0546875 16.765625 C-9.68947284 12.92012334 -4.12461902 8.24923804 0 0 Z " fill="#562C11" transform="translate(444,403)"/>
<path d="M0 0 C3.0625 0.25 3.0625 0.25 4.8828125 0.6328125 C11.8202122 1.83597776 19.08980969 1.04304759 26 0 C26 0.66 26 1.32 26 2 C27.051875 1.95875 28.10375 1.9175 29.1875 1.875 C32.74010173 1.99147875 34.84866641 2.47208068 38 4 C37.67465612 9.368174 34.72524332 12.44049843 31 16 C24.22488642 21.70608951 16.35774715 24.37273552 8 27 C6.9584375 27.37125 5.916875 27.7425 4.84375 28.125 C-0.58221067 29.36017804 -5.8289665 29.2892408 -11.375 29.25 C-12.46039063 29.25773437 -13.54578125 29.26546875 -14.6640625 29.2734375 C-30.52872746 29.23511705 -39.59120717 24.94121935 -51 14 C-48.67797488 12.83898744 -47.50660221 12.95828598 -44.9375 13.0625 C-39.23622191 13.12676561 -33.81308305 12.26292383 -28.58984375 9.91796875 C-25.58558388 8.85311042 -23.47797192 8.96350799 -20.3125 9.1875 C-13.85266729 9.30697903 -9.3226961 7.60274267 -4 4 C-3.278125 3.21625 -2.55625 2.4325 -1.8125 1.625 C-1.214375 1.08875 -0.61625 0.5525 0 0 Z " fill="#E94250" transform="translate(406,398)"/>
<path d="M0 0 C2.19362161 2.19362161 3.07927343 4.09406132 4.4375 6.875 C14.18852677 24.74410647 31.44589388 34.0550381 49 43 C47.65070536 46.83663072 45.92248975 49.65172569 43.375 52.8125 C42.42753906 53.99779297 42.42753906 53.99779297 41.4609375 55.20703125 C40.97882813 55.79871094 40.49671875 56.39039063 40 57 C35.43545749 56.45660208 32.0271824 55.20536179 28 53 C28 52.34 28 51.68 28 51 C27.21689453 50.89365234 27.21689453 50.89365234 26.41796875 50.78515625 C22.94461565 49.65729846 20.23115593 47.56923066 17.3125 45.4375 C16.38473755 44.76630127 16.38473755 44.76630127 15.43823242 44.08154297 C1.43231589 33.81819401 1.43231589 33.81819401 -2 28 C-3.14200405 18.69205299 -1.56159874 9.17439261 0 0 Z " fill="#F6DE41" transform="translate(349,350)"/>
<path d="M0 0 C4.14310624 3.86689915 6.11810404 6.73638589 6.375 12.4375 C6.76532044 16.77360525 8.0273552 18.75711476 11 22 C12.73220862 25.5929557 13.31968001 28.58499243 13.375 32.5625 C13.40335938 33.49191406 13.43171875 34.42132813 13.4609375 35.37890625 C12.87170164 38.72956103 11.36244579 39.63755421 9 42 C8.41329928 44.69725416 8.41329928 44.69725416 8.4375 47.625 C8.14381613 53.47718831 6.92378551 58.49002736 5 64 C4.67 64.99 4.34 65.98 4 67 C2.15234375 68.60546875 2.15234375 68.60546875 -0.0625 70.1875 C-0.79597656 70.71730469 -1.52945312 71.24710937 -2.28515625 71.79296875 C-2.85105469 72.19128906 -3.41695313 72.58960938 -4 73 C-4.51046875 72.23816406 -4.51046875 72.23816406 -5.03125 71.4609375 C-10.34957408 63.90778575 -16.36569246 59.23786533 -25 56 C-25 55.34 -25 54.68 -25 54 C-24.10861328 53.70609375 -24.10861328 53.70609375 -23.19921875 53.40625 C-13.98314327 50.0810097 -5.83115846 44.99039496 0 37 C0.56847656 36.23300781 1.13695312 35.46601563 1.72265625 34.67578125 C3.39351452 31.17566531 3.49035102 27.98922037 3.4375 24.1875 C3.43500244 23.47335937 3.43250488 22.75921875 3.42993164 22.0234375 C3.3033644 17.10025318 2.4311264 13.84787588 -0.17578125 9.75 C-1.72290497 6.46511172 -0.7378063 3.44309605 0 0 Z " fill="#ECA85A" transform="translate(499,285)"/>
<path d="M0 0 C7.79164734 1.99785829 14.67141022 6.4153277 19.078125 13.19140625 C20.52159821 16.02330497 21.20184679 18.93017997 22 22 C22.66 22.33 23.32 22.66 24 23 C24 26.96 24 30.92 24 35 C13.8533961 41.06321453 13.8533961 41.06321453 9.8359375 40.765625 C5.93495399 39.71246692 3.93194007 38.86530506 1 36 C0.23726416 33.02357682 -0.14311434 30.10014497 -0.51171875 27.05078125 C-1.42418066 21.34971925 -3.80773746 16.92949964 -8 13 C-6.40956621 7.91061189 -3.2553049 4.12543357 0 0 Z " fill="#D83C48" transform="translate(465,342)"/>
<path d="M0 0 C8.14904761 0.80132301 15.7577614 3.43663166 21.3046875 9.61328125 C28.875 19.9141791 28.875 19.9141791 28.875 25.75 C27.13377451 26.78572896 25.38163405 27.8031252 23.625 28.8125 C22.16320312 29.66521484 22.16320312 29.66521484 20.671875 30.53515625 C17.875 31.75 17.875 31.75 15.69140625 31.58203125 C13.27368876 30.47456066 11.50013499 28.75545655 9.5078125 27.0234375 C5.74061155 24.08538126 1.89951219 22.81945845 -2.8125 22.5 C-6.39999498 21.68773698 -6.7655678 21.48263922 -8.625 18.5625 C-10.34461353 14.8999465 -10.47871465 12.65188339 -9.125 8.75 C-7.20267855 4.04244836 -5.50492837 0.25650204 0 0 Z " fill="#F0ECF7" transform="translate(438.125,378.25)"/>
<path d="M0 0 C2.58455285 1.89533875 2.96275506 2.88826517 4 6 C5.07350494 15.43276476 2.52779258 23.78927714 -2.9375 31.5 C-5.3344196 34.41824962 -7.37927566 36.67534475 -11 38 C-14.53993611 37.87793324 -16.9831675 37.74567717 -19.875 35.625 C-23.049654 31.03938867 -22.59190086 25.30715602 -22 20 C-19.59440806 11.87488864 -16.21575182 5.43916596 -9.625 0.0625 C-6.02483118 -1.39471119 -3.72052908 -0.96458161 0 0 Z " fill="#EED290" transform="translate(202,204)"/>
<path d="M0 0 C6.85441674 3.63703746 11.32219016 9.22325639 14.26953125 16.296875 C15.73830623 21.73212785 15.91046081 27.45690034 15 33 C13.1796875 35.88671875 13.1796875 35.88671875 11 38 C6.92429137 38.67928477 4.67299501 38.31589562 0.9375 36.5625 C-5.80594851 30.67991726 -10.08942454 22.79137534 -11.28125 13.90234375 C-11.51456772 8.85684806 -10.3127221 5.35859165 -8 1 C-5.13391871 -0.43304064 -3.18699217 -0.30644155 0 0 Z " fill="#EED291" transform="translate(302,277)"/>
<path d="M0 0 C2.83400181 2.26720145 3.27630289 4.73535456 3.8125 8.1875 C4.46815368 16.71099778 1.92854459 24.06882779 -3 31 C-6.20363043 34.6470924 -9.01800077 36.66137957 -13.625 38.25 C-17 38 -17 38 -19.9375 35.875 C-23.43953636 30.88865684 -22.720841 24.77352842 -22 19 C-20.27191797 11.75222066 -16.54643082 5.962596 -11 1 C-7.07604585 -1.41119687 -4.47097026 -1.13806516 0 0 Z " fill="#EED291" transform="translate(62,121)"/>
<path d="M0 0 C4.73193313 0.28678383 10.03950319 2.42240393 14 5 C14.7421875 6.88671875 14.7421875 6.88671875 15 9 C15.09023438 9.66 15.18046875 10.32 15.2734375 11 C15.37959559 13.09049779 15.3829399 14.93900885 15 17 C12.8125 18.9375 12.8125 18.9375 10 21 C6.39956226 26.08649099 4.39629947 30.79130826 4 37 C-1.05002222 38.03590199 -5.87416389 38.10251672 -11 38 C-13.87807782 32.24384435 -13.69905925 22.4155378 -12.41796875 16.15625 C-9.76446404 9.74267266 -4.84200642 4.84200642 0 0 Z " fill="#EEECF6" transform="translate(389,296)"/>
<path d="M0 0 C2.14001262 2.1010527 4.11066031 4.14152175 5.9609375 6.5078125 C11.83353574 13.68543257 22.15202876 22.05067625 31 25 C31 25.66 31 26.32 31 27 C31.928125 27.268125 32.85625 27.53625 33.8125 27.8125 C36.76240366 28.91148371 38.05615186 29.62418561 40 32 C38.783125 31.938125 37.56625 31.87625 36.3125 31.8125 C32.31797376 31.79848412 30.37408833 32.83712287 27 35 C19.93282429 36.49497948 12.63785354 37.13454195 6 34 C5.0925 33.835 4.185 33.67 3.25 33.5 C2.5075 33.335 1.765 33.17 1 33 C-0.48679725 30.02640551 -0.11112605 27.33700821 -0.09765625 24.0234375 C-0.09553383 22.99556625 -0.09553383 22.99556625 -0.09336853 21.94692993 C-0.08776675 19.75624239 -0.07521406 17.5656567 -0.0625 15.375 C-0.05748522 13.89062648 -0.05292228 12.40625135 -0.04882812 10.921875 C-0.03779677 7.28121685 -0.02053099 3.64061836 0 0 Z " fill="#E48D43" transform="translate(346,376)"/>
<path d="M0 0 C8.27690221 1.60198107 16.48943063 3.85049052 21.46484375 11.05078125 C24.12231443 15.27146997 26.12626985 18.76737915 26.875 23.75 C25.27589132 24.75806851 23.67051738 25.75620385 22.0625 26.75 C21.16917969 27.306875 20.27585937 27.86375 19.35546875 28.4375 C16.875 29.75 16.875 29.75 13.875 29.75 C12.20833333 28.08333333 10.54166667 26.41666667 8.875 24.75 C5.35449932 22.55946624 2.81484895 21.69070488 -1.25 21.5625 C-5.125 20.75 -5.125 20.75 -6.55859375 19.0546875 C-9.28940306 13.9332389 -9.28940306 13.9332389 -8.84765625 10.75390625 C-7.08496262 5.86600447 -5.32047206 1.27691329 0 0 Z " fill="#EFEDF7" transform="translate(458.125,234.25)"/>
<path d="M0 0 C0.99 0.66 1.98 1.32 3 2 C3.1875 5.625 3.1875 5.625 3 9 C1.88625 9.0825 0.7725 9.165 -0.375 9.25 C-4.05753944 9.57873787 -4.05753944 9.57873787 -5.4375 12.0625 C-5.7159375 13.0215625 -5.7159375 13.0215625 -6 14 C-7.11375 13.95875 -8.2275 13.9175 -9.375 13.875 C-13.04366025 13.58878141 -13.04366025 13.58878141 -15 16 C-16.91015625 16.16015625 -16.91015625 16.16015625 -19.0625 16.0625 C-20.361875 16.041875 -21.66125 16.02125 -23 16 C-23.33 16.33 -23.66 16.66 -24 17 C-26.33297433 17.04092937 -28.66705225 17.04241723 -31 17 C-31 16.34 -31 15.68 -31 15 C-31.556875 15.350625 -32.11375 15.70125 -32.6875 16.0625 C-35.53886783 17.21845993 -37.08517222 16.80967438 -40 16 C-40 15.01 -40 14.02 -40 13 C-40.66 13 -41.32 13 -42 13 C-41.8984375 10.76171875 -41.8984375 10.76171875 -41 8 C-38.86482898 6.36774116 -36.94981995 5.09766448 -34.625 3.8125 C-33.45045545 3.13162319 -32.27597422 2.45063715 -31.1015625 1.76953125 C-30.07804687 1.18558594 -29.05453125 0.60164062 -28 0 C-20.68234813 -4.87843458 -8.23660245 -1.61736921 0 0 Z " fill="#FD4757" transform="translate(420,252)"/>
<path d="M0 0 C0.33 0.99 0.66 1.98 1 3 C5.455 2.505 5.455 2.505 10 2 C10 2.99 10 3.98 10 5 C12.31 5 14.62 5 17 5 C17 5.99 17 6.98 17 8 C19.475 8.495 19.475 8.495 22 9 C21.67 10.32 21.34 11.64 21 13 C22.32 13.66 23.64 14.32 25 15 C24.67 15.99 24.34 16.98 24 18 C23.01 18 22.02 18 21 18 C20.505 19.485 20.505 19.485 20 21 C12.0297872 24.9851064 -1.58402958 21.37403599 -10 20 C-11.32 15.71 -12.64 11.42 -14 7 C-5.36697861 -0.29010695 -5.36697861 -0.29010695 0 0 Z " fill="#FE4757" transform="translate(409,225)"/>
<path d="M0 0 C6.4266106 3.42752566 12.16594374 7.65346984 18 12 C17.50353055 15.99895942 16.72536208 17.7512732 13.5625 20.25 C12.94503906 20.75015625 12.32757813 21.2503125 11.69140625 21.765625 C8.54585421 24.06122418 6.88529081 24.04039871 3.0625 23.625 C2.18722656 23.53476562 1.31195313 23.44453125 0.41015625 23.3515625 C-2 23 -2 23 -5 22 C-5 22.66 -5 23.32 -5 24 C-10.23799388 21.99936528 -14.95486211 19.34088051 -19.8125 16.5625 C-20.69615234 16.07201172 -21.57980469 15.58152344 -22.49023438 15.07617188 C-23.32490234 14.59857422 -24.15957031 14.12097656 -25.01953125 13.62890625 C-25.78370361 13.19650635 -26.54787598 12.76410645 -27.33520508 12.31860352 C-27.8845874 11.88346436 -28.43396973 11.4483252 -29 11 C-29 7.38970831 -28.03907418 4.44193324 -27 1 C-26.67 1 -26.34 1 -26 1 C-25.67 4.63 -25.34 8.26 -25 12 C-20.05 11.67 -15.1 11.34 -10 11 C-10 8.69 -10 6.38 -10 4 C-9.04287109 3.69255859 -9.04287109 3.69255859 -8.06640625 3.37890625 C-7.24011719 3.10949219 -6.41382813 2.84007812 -5.5625 2.5625 C-4.73878906 2.29566406 -3.91507812 2.02882813 -3.06640625 1.75390625 C-1.03780412 1.17844506 -1.03780412 1.17844506 0 0 Z " fill="#87BD2B" transform="translate(403,322)"/>
<path d="M0 0 C0.3396019 1.87387477 0.67138691 3.74916697 1 5.625 C1.185625 6.66914063 1.37125 7.71328125 1.5625 8.7890625 C1.98715797 11.90574865 2.07545206 14.85930812 2 18 C1.39671875 18.17015625 0.7934375 18.3403125 0.171875 18.515625 C-5.01614729 20.02783602 -5.01614729 20.02783602 -9.25 23.25 C-9.8275 23.8275 -10.405 24.405 -11 25 C-16.09951804 24.79030019 -20.12595767 21.76637523 -24.3125 19.125 C-25.42334961 18.45404297 -25.42334961 18.45404297 -26.55664062 17.76953125 C-27.25595703 17.33253906 -27.95527344 16.89554687 -28.67578125 16.4453125 C-29.31427002 16.04844238 -29.95275879 15.65157227 -30.6105957 15.24267578 C-31.06909912 14.83259277 -31.52760254 14.42250977 -32 14 C-32 11 -32 11 -30.390625 9.24609375 C-29.33101563 8.35083984 -29.33101563 8.35083984 -28.25 7.4375 C-27.55390625 6.83808594 -26.8578125 6.23867188 -26.140625 5.62109375 C-18.77521089 0.04327102 -8.96355783 -0.34475222 0 0 Z " fill="#E8424E" transform="translate(406,366)"/>
<path d="M0 0 C3.11534712 0.8925837 5.54750299 2.19405188 8.34423828 3.83154297 C9.39740234 4.44642578 10.45056641 5.06130859 11.53564453 5.69482422 C12.62490234 6.34064453 13.71416016 6.98646484 14.83642578 7.65185547 C15.93341797 8.28994141 17.03041016 8.92802734 18.16064453 9.58544922 C27.0249623 14.79527525 27.0249623 14.79527525 29.71142578 17.77685547 C27.66176149 19.17530871 25.6004648 20.54437689 23.52392578 21.90185547 C22.94578125 22.30017578 22.36763672 22.69849609 21.77197266 23.10888672 C20.04345703 24.22216797 20.04345703 24.22216797 16.71142578 25.77685547 C12.89317793 24.66765252 9.87285732 22.68787582 6.62158203 20.44091797 C5.6721875 19.78865234 4.72279297 19.13638672 3.74462891 18.46435547 C2.76429688 17.78373047 1.78396484 17.10310547 0.77392578 16.40185547 C-1.17255629 15.06051733 -3.11916728 13.71936624 -5.06591797 12.37841797 C-5.97196777 11.7509668 -6.87801758 11.12351562 -7.81152344 10.47705078 C-9.85121461 9.07704986 -11.9058033 7.71067329 -13.97998047 6.36279297 C-14.74181641 5.83943359 -15.50365234 5.31607422 -16.28857422 4.77685547 C-16.28857422 4.44685547 -16.28857422 4.11685547 -16.28857422 3.77685547 C-15.69689453 3.73947266 -15.10521484 3.70208984 -14.49560547 3.66357422 C-9.48941252 3.24707203 -4.39939062 -0.42895701 0 0 Z " fill="#F4DE40" transform="translate(373.28857421875,332.22314453125)"/>
<path d="M0 0 C1.16273438 -0.04898438 2.32546875 -0.09796875 3.5234375 -0.1484375 C6.625 0.375 6.625 0.375 8.3515625 2.2734375 C10.10777612 6.55084122 11.40482264 10.91832381 12.625 15.375 C9.40549955 17.22570936 6.17297587 19.05238591 2.9375 20.875 C2.02548828 21.39964844 1.11347656 21.92429688 0.17382812 22.46484375 C-0.71240234 22.96113281 -1.59863281 23.45742187 -2.51171875 23.96875 C-3.32342529 24.42958984 -4.13513184 24.89042969 -4.97143555 25.36523438 C-7.62576551 26.48034953 -9.5250621 26.57017084 -12.375 26.375 C-8.37238324 0.24026707 -8.37238324 0.24026707 0 0 Z " fill="#FE4A59" transform="translate(379.375,231.625)"/>
<path d="M0 0 C6.435 3.465 6.435 3.465 13 7 C11.77654147 13.11729267 9.42071948 15.78892289 5 20 C0.56102413 22.95931725 -2.71083025 23.31735018 -8 23 C-6.68 22.34 -5.36 21.68 -4 21 C-4 20.34 -4 19.68 -4 19 C-4.639375 18.773125 -5.27875 18.54625 -5.9375 18.3125 C-10.13320261 16.51434174 -14.03900556 14.26095979 -18 12 C-16.62496553 9.03838731 -15.22825095 6.40362255 -13 4 C-10.625 3.2421875 -10.625 3.2421875 -8 2.875 C-4.48706971 2.36269767 -3.04266126 2.02844084 0 0 Z " fill="#8DBE2D" transform="translate(440,309)"/>
<path d="M0 0 C3.21105937 1.34363477 5.5139153 3.5673479 8.015625 5.921875 C8.80694824 6.65748657 8.80694824 6.65748657 9.61425781 7.40795898 C13.94121226 11.51007629 18.03295479 15.84290512 21.203125 20.921875 C21.203125 21.581875 21.203125 22.241875 21.203125 22.921875 C19.22871573 24.3850533 17.27073629 25.72900564 15.203125 27.046875 C14.63078125 27.41941406 14.0584375 27.79195313 13.46875 28.17578125 C12.05090718 29.09737908 10.62751775 30.01043321 9.203125 30.921875 C7.39214591 28.20540637 5.90442706 25.4971821 4.390625 22.609375 C0.63526011 15.71696196 -3.03537032 11.01022667 -9.796875 6.921875 C-3.09332594 -0.13449243 -3.09332594 -0.13449243 0 0 Z " fill="#F6DE41" transform="translate(419.796875,340.078125)"/>
<path d="M0 0 C1.32 0.33 2.64 0.66 4 1 C3.67465612 6.368174 0.72524332 9.44049843 -3 13 C-9.77511358 18.70608951 -17.64225285 21.37273552 -26 24 C-27.18464844 24.37382812 -28.36929687 24.74765625 -29.58984375 25.1328125 C-32.72275337 25.92949742 -35.22699436 26.21295906 -38.4375 26.125 C-39.30246094 26.10695313 -40.16742188 26.08890625 -41.05859375 26.0703125 C-41.69925781 26.04710937 -42.33992188 26.02390625 -43 26 C-43 23.69 -43 21.38 -43 19 C-43.99 18.67 -44.98 18.34 -46 18 C-45.3915625 17.97421875 -44.783125 17.9484375 -44.15625 17.921875 C-29.77084646 16.99105477 -13.49499148 13.62416061 -3 3 C-2.34 3 -1.68 3 -1 3 C-0.67 2.01 -0.34 1.02 0 0 Z " fill="#FB7580" transform="translate(440,401)"/>
<path d="M0 0 C4.10878669 1.2380187 7.47400508 2.71638972 11.0625 5.0625 C12.46628906 5.97902344 12.46628906 5.97902344 13.8984375 6.9140625 C19.30642031 10.55116932 24.66372155 14.25866646 30 18 C29.01 18.33 28.02 18.66 27 19 C26.0925 18.443125 25.185 17.88625 24.25 17.3125 C21.24493141 15.68414377 21.24493141 15.68414377 19.125 16.65234375 C17.36406586 17.68322395 15.67767567 18.83853223 14 20 C10.52001083 21.73999458 6.80441806 21.43947588 3 21 C-0.0625 19.625 -0.0625 19.625 -2 17 C-2.97033817 11.06442077 -1.95143859 5.61038594 0 0 Z " fill="#84BB27" transform="translate(352,335)"/>
<path d="M0 0 C7.14631305 0.16108493 12.42940717 1.33117415 18 6 C18.33 6.66 18.66 7.32 19 8 C22.74162909 7.42385534 25.44298421 6.37098904 28.6875 4.4375 C32.79603399 2 32.79603399 2 35 2 C35.67408308 3.26691507 36.33900497 4.53870749 37 5.8125 C37.37125 6.52019531 37.7425 7.22789062 38.125 7.95703125 C39 10 39 10 39 13 C37.25877451 14.03572896 35.50663405 15.0531252 33.75 16.0625 C32.28820312 16.91521484 32.28820312 16.91521484 30.796875 17.78515625 C28 19 28 19 25.81640625 18.83203125 C23.39868876 17.72456066 21.62513499 16.00545655 19.6328125 14.2734375 C15.86561155 11.33538126 12.02451219 10.06945845 7.3125 9.75 C4 9 4 9 2.671875 7.45703125 C1.23865438 5.00945379 0 2.88767971 0 0 Z " fill="#B2A1E7" transform="translate(428,391)"/>
<path d="M0 0 C2.22889881 4.01022758 2.92750247 7.46659508 2 12 C-0.1875 13.9375 -0.1875 13.9375 -3 16 C-6.60043774 21.08649099 -8.60370053 25.79130826 -9 32 C-14.05002222 33.03590199 -18.87416389 33.10251672 -24 33 C-25.20272819 30.59454362 -25.10071472 29.05003047 -25.0625 26.375 C-25.05347656 25.55773437 -25.04445313 24.74046875 -25.03515625 23.8984375 C-25.02355469 23.27195312 -25.01195312 22.64546875 -25 22 C-19.94997778 20.96409801 -15.12583611 20.89748328 -10 21 C-10.061875 19.96875 -10.12375 18.9375 -10.1875 17.875 C-9.80997118 10.07273771 -5.07441286 5.47758539 0 0 Z " fill="#B2A3E6" transform="translate(402,301)"/>
<path d="M0 0 C-2.2680178 2.5751924 -4.21912467 3.67248758 -7.4453125 4.796875 C-8.34419189 5.11221191 -9.24307129 5.42754883 -10.16918945 5.75244141 C-11.14460693 6.08163574 -12.12002441 6.41083008 -13.125 6.75 C-14.1461792 7.09853027 -15.1673584 7.44706055 -16.21948242 7.80615234 C-51.92501532 19.79590336 -89.94897216 29.29594143 -127.8125 29.125 C-128.68841797 29.12886719 -129.56433594 29.13273437 -130.46679688 29.13671875 C-135.73461241 29.12885047 -140.78717229 28.76285284 -146 28 C-146 27.67 -146 27.34 -146 27 C-144.74401001 26.98598145 -144.74401001 26.98598145 -143.46264648 26.97167969 C-95.51084647 26.30672372 -48.63439554 17.30442815 -3.95776367 -0.42700195 C-2 -1 -2 -1 0 0 Z " fill="#E6BE79" transform="translate(262,264)"/>
<path d="M0 0 C0.66644531 0.32613281 1.33289063 0.65226562 2.01953125 0.98828125 C7.82795847 3.74220688 13.42978622 5.84164993 19.6875 7.32421875 C22 8 22 8 25 10 C23.8905928 13.48670834 22.73662334 16.77484237 21 20 C11.9417402 19.38239138 3.21787474 15.41340606 -4 10 C-3.525625 9.0925 -3.05125 8.185 -2.5625 7.25 C-1.3387768 4.70465575 -0.60531546 2.70335058 0 0 Z " fill="#F2DD40" transform="translate(445,300)"/>
<path d="M0 0 C6.78505979 0.17276773 11.69430883 1.65528861 17 6 C17.33 6.66 17.66 7.32 18 8 C22.97209562 6.23570801 27.43438061 3.6060834 32 1 C32.70226141 2.24176695 33.38629109 3.49385599 34.0625 4.75 C34.44535156 5.44609375 34.82820313 6.1421875 35.22265625 6.859375 C36 9 36 9 35.89453125 11.09375 C34.65991856 13.72471503 33.17593848 14.41261477 30.625 15.75 C29.83351563 16.17796875 29.04203125 16.6059375 28.2265625 17.046875 C26 18 26 18 23 18 C21.33333333 16.33333333 19.66666667 14.66666667 18 13 C14.45549154 10.79452807 11.96378668 9.95085875 7.875 9.875 C4 9 4 9 2.6015625 6.94140625 C1.59439856 4.65207262 0.73387691 2.38992811 0 0 Z " fill="#B1A3E6" transform="translate(449,246)"/>
<path d="M0 0 C1.45657709 0.21186576 2.90991889 0.44703735 4.359375 0.703125 C5.10445313 0.8165625 5.84953125 0.93 6.6171875 1.046875 C8.4510961 1.32901479 10.28077067 1.63843495 12.109375 1.953125 C12.152096 3.61924405 12.15001332 5.28695385 12.109375 6.953125 C11.109375 7.953125 11.109375 7.953125 8.546875 8.015625 C7.7425 7.995 6.938125 7.974375 6.109375 7.953125 C5.779375 8.943125 5.449375 9.933125 5.109375 10.953125 C3.995625 11.076875 2.881875 11.200625 1.734375 11.328125 C-1.92166177 11.5997063 -1.92166177 11.5997063 -3.890625 13.953125 C-6.22354311 13.99714232 -8.55762675 13.99266734 -10.890625 13.953125 C-12.2209375 14.2315625 -12.2209375 14.2315625 -13.578125 14.515625 C-16.11966802 14.99645746 -17.43488323 14.64380237 -19.890625 13.953125 C-21.55686139 13.91525599 -23.22460097 13.90684655 -24.890625 13.953125 C-24.890625 12.963125 -24.890625 11.973125 -24.890625 10.953125 C-25.550625 10.623125 -26.210625 10.293125 -26.890625 9.953125 C-25.611875 9.89125 -24.333125 9.829375 -23.015625 9.765625 C-16.79878701 9.07813897 -10.1144791 6.72438934 -6.11328125 1.73828125 C-3.890625 -0.046875 -3.890625 -0.046875 0 0 Z " fill="#FC4957" transform="translate(409.890625,398.046875)"/>
<path d="M0 0 C4.9394489 2.60443669 9.08159456 6.19616424 12 11 C12.55208793 14.68058623 12.85377113 16.78032696 10.6875 19.875 C6.92190429 22.38539714 3.37595487 22.08256519 -1 22 C3.625 17.125 3.625 17.125 7 16 C7 15.34 7 14.68 7 14 C5.68 13.34 4.36 12.68 3 12 C3.66 10.68 4.32 9.36 5 8 C3.02 8 1.04 8 -1 8 C-0.67 6.68 -0.34 5.36 0 4 C-2.31 4 -4.62 4 -7 4 C-7 3.01 -7 2.02 -7 1 C-11.455 1.495 -11.455 1.495 -16 2 C-16.33 1.34 -16.66 0.68 -17 0 C-21.16486198 -0.30017023 -23.65015727 0.54675054 -27.3125 2.5 C-28.19550781 2.9640625 -29.07851563 3.428125 -29.98828125 3.90625 C-30.65214844 4.2671875 -31.31601562 4.628125 -32 5 C-32.11328125 2.609375 -32.11328125 2.609375 -32 0 C-23.58534892 -8.1244907 -9.50253441 -3.76712269 0 0 Z " fill="#B12F3A" transform="translate(426,226)"/>
<path d="M0 0 C3.73487777 0.4979837 5.81237635 0.87491756 9 3 C8.73797271 6.14432746 8.30653932 7.67302472 6.125 10 C-5.34907842 17.34341019 -17.1108632 20.17532657 -30.5625 20.1875 C-31.27857422 20.19974609 -31.99464844 20.21199219 -32.73242188 20.22460938 C-38.16732859 20.23944534 -43.39467613 19.79116016 -48 16.625 C-49 15 -49 15 -49 13 C-47.61287108 10.22574216 -45.7073419 9.38838046 -43 8 C-43 9.65 -43 11.3 -43 13 C-42.34 13 -41.68 13 -41 13 C-40.67 13.99 -40.34 14.98 -40 16 C-37.36 15.67 -34.72 15.34 -32 15 C-32 15.66 -32 16.32 -32 17 C-28.53058454 16.54177532 -25.32604951 16.10868317 -22 15 C-20.5459375 15.0309375 -20.5459375 15.0309375 -19.0625 15.0625 C-15.90906063 14.99814409 -14.71694093 14.40229209 -12 13 C-11.13375 13.020625 -10.2675 13.04125 -9.375 13.0625 C-8.59125 13.041875 -7.8075 13.02125 -7 13 C-6.34 12.01 -5.68 11.02 -5 10 C-1.375 9.3125 -1.375 9.3125 2 9 C1.51515724 4.35413108 1.51515724 4.35413108 0 0 Z " fill="#B12F3A" transform="translate(421,252)"/>
<path d="M0 0 C1.89977415 1.42011486 3.75259484 2.90449271 5.5625 4.4375 C8.65634065 7.04216196 11.73558104 9.61121342 15 12 C13.83709195 15.48872415 12.86032391 16.09976864 9.9375 18.1875 C9.20402344 18.71730469 8.47054688 19.24710937 7.71484375 19.79296875 C7.14894531 20.19128906 6.58304687 20.58960938 6 21 C5.6596875 20.49210937 5.319375 19.98421875 4.96875 19.4609375 C-0.34957408 11.90778575 -6.36569246 7.23786533 -15 4 C-15 3.34 -15 2.68 -15 2 C-13.4473205 1.27039138 -11.88226957 0.56707359 -10.3125 -0.125 C-9.44238281 -0.51945312 -8.57226562 -0.91390625 -7.67578125 -1.3203125 C-4.2531167 -2.18971926 -3.06630027 -1.69979689 0 0 Z " fill="#F5DD41" transform="translate(489,337)"/>
<path d="M0 0 C3.93454093 0.78690819 7.93182431 1.13740611 11.81152344 -0.04858398 C15.34827413 -0.73599783 18.14118857 1.70386848 21.0625 3.5 C21.7121875 3.88607422 22.361875 4.27214844 23.03125 4.66992188 C24.63162129 5.62308418 26.2229742 6.59135924 27.8125 7.5625 C27.8125 8.2225 27.8125 8.8825 27.8125 9.5625 C26.09678776 10.62618149 24.36426399 11.66278172 22.625 12.6875 C21.18060547 13.55761719 21.18060547 13.55761719 19.70703125 14.4453125 C16.8125 15.5625 16.8125 15.5625 14.46875 15.0859375 C10.68625377 12.91656466 7.08517814 10.54232831 3.5 8.0625 C2.75943359 7.56363281 2.01886719 7.06476563 1.25585938 6.55078125 C0.55654297 6.06996094 -0.14277344 5.58914063 -0.86328125 5.09375 C-1.50177002 4.65611328 -2.14025879 4.21847656 -2.7980957 3.76757812 C-3.25659912 3.36990234 -3.71510254 2.97222656 -4.1875 2.5625 C-4.1875 1.9025 -4.1875 1.2425 -4.1875 0.5625 C-2.1875 -0.4375 -2.1875 -0.4375 0 0 Z " fill="#F3DE40" transform="translate(408.1875,320.4375)"/>
<path d="M0 0 C4.37468565 1.26050264 5.37243384 2.58541028 7.7421875 6.2734375 C9.95742588 10.46591345 10.20767168 14.42911895 9.6875 19.0625 C8.5625 21.125 8.5625 21.125 6.6875 22.0625 C3.75 22.0625 3.75 22.0625 0.6875 21.0625 C-3.48522492 16.77386605 -5.59824408 12.92463339 -5.5625 6.9375 C-5.57023437 5.63425781 -5.57023437 5.63425781 -5.578125 4.3046875 C-5.11541306 0.39885434 -3.77683554 0.07126105 0 0 Z " fill="#E7BF7C" transform="translate(129.3125,246.9375)"/>
<path d="M0 0 C3.85865195 0.82685399 5.19141963 2.48850374 7.625 5.5625 C10.42482565 10.70987178 11.13187657 14.76682089 9.625 20.5625 C8.965 21.2225 8.305 21.8825 7.625 22.5625 C3.59469299 22.5625 1.94104101 21.83544451 -1.125 19.1875 C-4.24380473 15.01559238 -5.43730792 9.71848025 -5.375 4.5625 C-3.78016876 1.78334142 -3.15356926 0.74689798 0 0 Z " fill="#E3B673" transform="translate(297.375,385.4375)"/>
<path d="M0 0 C5.68624639 1.32238288 7.67754016 3.44348364 11 8 C12.22691067 10.45382134 12.20175931 12.19984103 12.25 14.9375 C12.28867187 16.25041016 12.28867187 16.25041016 12.328125 17.58984375 C11.94290357 20.4193869 11.19305243 21.25132925 9 23 C4.03419926 21.75854982 1.75755293 20.33329746 -1 16 C-2.91908679 11.58610038 -3.45276669 7.79932693 -3 3 C-1.5 1.0625 -1.5 1.0625 0 0 Z " fill="#EBCA88" transform="translate(246,290)"/>
<path d="M0 0 C0 0.66 0 1.32 0 2 C-72.3785747 33.83441606 -72.3785747 33.83441606 -86 37 C-85.83886719 35.1484375 -85.83886719 35.1484375 -85 33 C-82.68457031 31.7265625 -82.68457031 31.7265625 -79.578125 30.625 C-78.42207764 30.203396 -77.26603027 29.78179199 -76.07495117 29.34741211 C-75.14179581 29.01892776 -75.14179581 29.01892776 -74.18978882 28.68380737 C-70.86544236 27.51192072 -67.56107336 26.28575217 -64.25390625 25.06640625 C-63.56907669 24.81540665 -62.88424713 24.56440704 -62.17866516 24.30580139 C-55.10328819 21.69995753 -48.14436886 18.84425925 -41.1875 15.9375 C-39.40545166 15.1954834 -39.40545166 15.1954834 -37.58740234 14.43847656 C-31.7012026 11.98152991 -25.82394609 9.50376259 -19.94921875 7.01953125 C-18.28499878 6.31872437 -18.28499878 6.31872437 -16.5871582 5.60375977 C-14.49631871 4.72257827 -12.40749528 3.83659263 -10.32104492 2.94506836 C-9.39783447 2.55585205 -8.47462402 2.16663574 -7.5234375 1.765625 C-6.71825684 1.42305664 -5.91307617 1.08048828 -5.08349609 0.72753906 C-3 0 -3 0 0 0 Z " fill="#EFD390" transform="translate(347,229)"/>
<path d="M0 0 C4.34676367 1.25245733 5.35621904 2.5336241 7.7421875 6.17578125 C9.84661787 10.37594599 10.02658132 14.40013182 9.6875 19.0625 C8.5 21.0625 8.5 21.0625 6.6875 22.0625 C4.375 22.1875 4.375 22.1875 1.6875 21.0625 C-2.04325511 17.53850963 -5.07389736 14.17543213 -5.48046875 8.87109375 C-5.48691406 8.08863281 -5.49335937 7.30617187 -5.5 6.5 C-5.51417969 5.71496094 -5.52835937 4.92992187 -5.54296875 4.12109375 C-5.11635778 0.31051777 -3.61589743 0.06822448 0 0 Z " fill="#ECCC8A" transform="translate(99.3125,182.9375)"/>
<path d="M0 0 C0 0.66 0 1.32 0 2 C0.7321875 2.10957031 1.464375 2.21914063 2.21875 2.33203125 C7.94583467 3.70749681 13.04261206 7.76345462 17.25 11.8125 C19 15 19 15 18.734375 17.34375 C18.01346463 19.76723594 17.31197672 21.83614951 16 24 C15.01 24.33 14.02 24.66 13 25 C12.62488281 24.18015625 12.24976563 23.3603125 11.86328125 22.515625 C11.35152344 21.43796875 10.83976562 20.3603125 10.3125 19.25 C9.81363281 18.18265625 9.31476563 17.1153125 8.80078125 16.015625 C5.94568751 11.2344268 2.00729566 8.83974095 -2.8125 6.25 C-3.60269531 5.82203125 -4.39289063 5.3940625 -5.20703125 4.953125 C-5.79871094 4.63859375 -6.39039063 4.3240625 -7 4 C-6.67 3.01 -6.34 2.02 -6 1 C-3.90006779 0.25486277 -2.22568901 0 0 0 Z " fill="#EFA45B" transform="translate(474,339)"/>
<path d="M0 0 C3.66786393 1.50349377 5.68910393 3.63728792 8.25 6.625 C8.95640625 7.44226563 9.6628125 8.25953125 10.390625 9.1015625 C10.92171875 9.72804688 11.4528125 10.35453125 12 11 C10.31847927 14.74020498 8.30960527 16.56134348 5 19 C1.85093585 17.58397787 -0.49523672 15.86264918 -3.0625 13.5625 C-3.73410156 12.96566406 -4.40570313 12.36882812 -5.09765625 11.75390625 C-6.7754479 10.20703058 -8.40159243 8.62828434 -10 7 C-9.44570313 6.66226562 -8.89140625 6.32453125 -8.3203125 5.9765625 C-7.59585937 5.53054688 -6.87140625 5.08453125 -6.125 4.625 C-5.04605469 3.96371094 -5.04605469 3.96371094 -3.9453125 3.2890625 C-1.88206418 2.0146287 -1.88206418 2.0146287 0 0 Z " fill="#F1DC40" transform="translate(486,284)"/>
<path d="M0 0 C2.4375 1.125 2.4375 1.125 4 3 C4.73411424 7.71930581 3.78416403 11.13809505 1 15 C-3.09749063 16.36583021 -5.04284068 16.46839711 -8.9375 14.5625 C-11.42152942 11.47628163 -11.68849662 9.77721542 -11.4140625 5.90625 C-11 4 -11 4 -9.4375 1.5 C-6.0761612 -0.56851618 -3.88040089 -0.48505011 0 0 Z " fill="#E19951" transform="translate(426,378)"/>
<path d="M0 0 C3.44662584 1.92369814 6.52160065 4.14109461 9.6875 6.5 C9.09289047 8.41965309 8.48640739 10.33563079 7.875 12.25 C7.53855469 13.31734375 7.20210938 14.3846875 6.85546875 15.484375 C5.76867623 18.29040787 4.61897463 20.21986376 2.6875 22.5 C2.21699219 21.52417969 1.74648438 20.54835938 1.26171875 19.54296875 C0.63313461 18.25765492 0.00421048 16.97250733 -0.625 15.6875 C-0.93373047 15.04490234 -1.24246094 14.40230469 -1.56054688 13.74023438 C-3.13386035 10.54392384 -4.54066208 7.79422893 -7.3125 5.5 C-6.02758894 1.64526681 -4.36517935 -0.94382256 0 0 Z " fill="#6C3A1A" transform="translate(464.3125,381.5)"/>
<path d="M0 0 C1.65 0 3.3 0 5 0 C5.495 1.98 5.495 1.98 6 4 C-6.6395584 13.36263585 -19.40328366 15.9987225 -35 15 C-37.96656022 14.27624346 -40.24559697 13.34909536 -43 12 C-43 10.68 -43 9.36 -43 8 C-40.03 8.495 -40.03 8.495 -37 9 C-37 9.99 -37 10.98 -37 12 C-35.1746875 11.7215625 -35.1746875 11.7215625 -33.3125 11.4375 C-29.93010471 11.00202406 -27.33767019 11.25829551 -24 12 C-21.98045559 11.66179847 -21.98045559 11.66179847 -20 11 C-19.113125 10.835 -18.22625 10.67 -17.3125 10.5 C-15.04844958 10.22901669 -15.04844958 10.22901669 -14 9 C-12.845 8.855625 -11.69 8.71125 -10.5 8.5625 C-8.7675 8.2840625 -8.7675 8.2840625 -7 8 C-6.67 7.34 -6.34 6.68 -6 6 C-3.4375 5.375 -3.4375 5.375 -1 5 C-0.67 3.35 -0.34 1.7 0 0 Z " fill="#B12E3A" transform="translate(422,400)"/>
<path d="M0 0 C0.33 0.66 0.66 1.32 1 2 C2.65438613 2.69658363 4.32254318 3.36096883 6 4 C6.99 4.66 7.98 5.32 9 6 C11.39388923 5.72197162 11.39388923 5.72197162 14 5 C19.33333333 3.66666667 19.33333333 3.66666667 22.875 5.4375 C23.57625 5.953125 24.2775 6.46875 25 7 C23.80125164 10.59624508 22.96359217 10.94102427 19.75 12.75 C18.59757812 13.42289062 18.59757812 13.42289062 17.421875 14.109375 C14.34820519 15.23969228 13.08346932 15.09892064 10 14 C7.79190471 12.53440099 5.75355543 11.07678821 3.6875 9.4375 C3.13771484 9.01275391 2.58792969 8.58800781 2.02148438 8.15039062 C0.6748173 7.10818741 -0.66346201 6.05516157 -2 5 C-1.34 3.35 -0.68 1.7 0 0 Z " fill="#F2DA40" transform="translate(465,376)"/>
<path d="M0 0 C1.32 0.99 2.64 1.98 4 3 C4.99 2.34 5.98 1.68 7 1 C6.57065417 9.5869166 4.34607951 18.74537912 -1.5625 25.3125 C-4 27 -4 27 -6.3125 26.8125 C-6.869375 26.544375 -7.42625 26.27625 -8 26 C-6.625 24.5 -6.625 24.5 -5 23 C-4.34 23 -3.68 23 -3 23 C-3.11859375 22.26136719 -3.2371875 21.52273438 -3.359375 20.76171875 C-4.36971689 12.8103281 -3.33125256 7.26298841 0 0 Z " fill="#783E18" transform="translate(492,354)"/>
<path d="M0 0 C3.05744074 1.01914691 4.79764777 1.77867725 7 4.1875 C8.83573824 6.25881478 8.83573824 6.25881478 11.3125 6 C13.66163764 5.12590227 15.54514142 4.14619202 17.6875 2.875 C19.3271875 1.946875 19.3271875 1.946875 21 1 C21.66 1.33 22.32 1.66 23 2 C15.69815656 8.98437199 9.10969097 12.22775067 -1.125 12.25 C-3.08408184 12.18665786 -5.04300741 12.11042591 -7 12 C-5.61735163 9.13132769 -4.07851447 6.43975968 -2.375 3.75 C-1.92898438 3.04359375 -1.48296875 2.3371875 -1.0234375 1.609375 C-0.68570312 1.07828125 -0.34796875 0.5471875 0 0 Z " fill="#5C3117" transform="translate(444,403)"/>
<path d="M0 0 C1.56481439 6.5666318 2.88498811 13.23244383 2 20 C1.34 20.66 0.68 21.32 0 22 C-0.62648438 21.30132812 -1.25296875 20.60265625 -1.8984375 19.8828125 C-2.71570313 18.97273438 -3.53296875 18.06265625 -4.375 17.125 C-5.18710937 16.22007812 -5.99921875 15.31515625 -6.8359375 14.3828125 C-8.19076205 12.89103817 -9.57505435 11.42494565 -11 10 C-10.5 7.25 -10.5 7.25 -9 4 C-6.52238884 2.30018361 -3.10727144 0 0 0 Z " fill="#93C130" transform="translate(497,273)"/>
<path d="M0 0 C2.475 0.495 2.475 0.495 5 1 C5.495 3.475 5.495 3.475 6 6 C-4.66195211 13.62625741 -13.81924854 16.1903048 -26.875 16.0625 C-27.75414062 16.05798828 -28.63328125 16.05347656 -29.5390625 16.04882812 C-31.69273803 16.03712337 -33.84637817 16.01919069 -36 16 C-34.25 13.98046875 -34.25 13.98046875 -32 12 C-30 11.86328125 -30 11.86328125 -28 12.3125 C-24.92438469 12.8810056 -23.01913346 12.93697245 -20 12 C-18.33333333 12 -16.66666667 12 -15 12 C-14.67 11.67 -14.34 11.34 -14 11 C-12.845 10.855625 -11.69 10.71125 -10.5 10.5625 C-9.345 10.376875 -8.19 10.19125 -7 10 C-6.67 9.34 -6.34 8.68 -6 8 C-2.9375 7.375 -2.9375 7.375 0 7 C0 4.69 0 2.38 0 0 Z " fill="#B1303A" transform="translate(479,314)"/>
<path d="M0 0 C3.96 0 7.92 0 12 0 C13.3101737 6.19354839 13.3101737 6.19354839 12.0625 9.4375 C9.30547213 11.52615748 7.27744432 11.5729296 3.87890625 11.37890625 C2 11 2 11 -0.0625 9.4375 C-1.36929016 6.03984559 -0.74134177 3.50452474 0 0 Z " fill="#E19951" transform="translate(443,343)"/>
<path d="M0 0 C1.74965358 -0.05429959 3.49979787 -0.09292823 5.25 -0.125 C6.22453125 -0.14820313 7.1990625 -0.17140625 8.203125 -0.1953125 C11.0196498 0.00137219 12.60949036 0.55431084 15 2 C14.75 4.375 14.75 4.375 14 7 C10.58060218 9.43303306 7.33550239 9.20671005 3.25 9.125 C2.07953125 9.10695313 0.9090625 9.08890625 -0.296875 9.0703125 C-1.63492187 9.03550781 -1.63492187 9.03550781 -3 9 C-2.01 6.03 -1.02 3.06 0 0 Z " fill="#F2555B" transform="translate(477,301)"/>
<path d="M0 0 C2.0625 1.625 2.0625 1.625 4 4 C3.9375 7.125 3.9375 7.125 3 10 C0 12 0 12 -2.5 11.8125 C-5.17679414 10.9425419 -6.12759568 10.01936628 -8 8 C-7.50628906 7.59007812 -7.01257813 7.18015625 -6.50390625 6.7578125 C-5.86324219 6.21898437 -5.22257812 5.68015625 -4.5625 5.125 C-3.92441406 4.59132813 -3.28632813 4.05765625 -2.62890625 3.5078125 C-0.89194996 2.0777243 -0.89194996 2.0777243 0 0 Z " fill="#E39854" transform="translate(499,322)"/>
<path d="M0 0 C2.625 0.5625 2.625 0.5625 5 2 C5.8125 4.625 5.8125 4.625 6 7 C3.75 8.625 3.75 8.625 1 10 C-1.3125 9.1875 -1.3125 9.1875 -3 8 C-3.1875 5.125 -3.1875 5.125 -3 2 C-2.01 1.34 -1.02 0.68 0 0 Z " fill="#E19951" transform="translate(449,365)"/>
<path d="M0 0 C2.5625 0.1875 2.5625 0.1875 4.5625 2.1875 C4.00694444 6.74305556 4.00694444 6.74305556 2.5625 8.1875 C0.125 8.375 0.125 8.375 -2.4375 8.1875 C-3.0975 7.5275 -3.7575 6.8675 -4.4375 6.1875 C-3.71780303 0.28598485 -3.71780303 0.28598485 0 0 Z " fill="#E19951" transform="translate(414.4375,354.8125)"/>
<path d="M0 0 C2.4375 2.0625 2.4375 2.0625 4 4 C3.67 4.66 3.34 5.32 3 6 C2.67 5.67 2.34 5.34 2 5 C-0.18292774 4.76518307 -2.37203174 4.58636677 -4.5625 4.4375 C-5.76003906 4.35371094 -6.95757812 4.26992187 -8.19140625 4.18359375 C-9.11824219 4.12300781 -10.04507812 4.06242188 -11 4 C-10.6875 2.0625 -10.6875 2.0625 -10 0 C-6.19426871 -1.2685771 -3.89430952 -0.88817586 0 0 Z " fill="#B7333E" transform="translate(384,228)"/>
<path d="M0 0 C1.32 0.33 2.64 0.66 4 1 C3.75 3.375 3.75 3.375 3 6 C-0.2955753 8.66181082 -3.93339881 8.15640774 -8 8 C-3.25 4.125 -3.25 4.125 -1 3 C-0.67 2.01 -0.34 1.02 0 0 Z " fill="#B13039" transform="translate(488,302)"/>
<path d="M0 0 C0.33 0 0.66 0 1 0 C1.04898437 0.78246094 1.09796875 1.56492187 1.1484375 2.37109375 C1.22320312 3.38300781 1.29796875 4.39492188 1.375 5.4375 C1.47941406 6.95150391 1.47941406 6.95150391 1.5859375 8.49609375 C1.72257812 9.32238281 1.85921875 10.14867187 2 11 C2.66 11.33 3.32 11.66 4 12 C0.73045798 11.43628586 -0.82575883 10.50037734 -3 8 C-2.34 7.01 -1.68 6.02 -1 5 C-0.61500109 3.34450469 -0.27206865 1.6777567 0 0 Z " fill="#8AB647" transform="translate(376,323)"/>
<path d="M0 0 C1.98 0 3.96 0 6 0 C5.67 1.32 5.34 2.64 5 4 C3.35 4 1.7 4 0 4 C0 2.68 0 1.36 0 0 Z " fill="#F7707B" transform="translate(409,262)"/>
<path d="M0 0 C1.65 0 3.3 0 5 0 C5 1.32 5 2.64 5 4 C3.02 4 1.04 4 -1 4 C-0.67 2.68 -0.34 1.36 0 0 Z " fill="#F9727D" transform="translate(428,239)"/>
<path d="M0 0 C2.31 0 4.62 0 7 0 C7 1.32 7 2.64 7 4 C5.35 4 3.7 4 2 4 C2 3.01 2 2.02 2 1 C1.34 0.67 0.68 0.34 0 0 Z " fill="#F66E74" transform="translate(383,408)"/>
<path d="M0 0 C1.65 0.33 3.3 0.66 5 1 C4.67 1.99 4.34 2.98 4 4 C2.02 4 0.04 4 -2 4 C-1.34 2.68 -0.68 1.36 0 0 Z " fill="#FD737F" transform="translate(401,264)"/>
<path d="M0 0 C1.98 0 3.96 0 6 0 C5.34 1.32 4.68 2.64 4 4 C2.35 3.67 0.7 3.34 -1 3 C-0.67 2.01 -0.34 1.02 0 0 Z " fill="#F7727D" transform="translate(381,265)"/>
<path d="M0 0 C1.2065625 0.0309375 1.2065625 0.0309375 2.4375 0.0625 C2.1075 1.3825 1.7775 2.7025 1.4375 4.0625 C-0.2125 4.0625 -1.8625 4.0625 -3.5625 4.0625 C-3.5625 0.08689024 -3.5625 0.08689024 0 0 Z " fill="#FC7580" transform="translate(428.5625,233.9375)"/>
<path d="M0 0 C1.98 0 3.96 0 6 0 C5.34 1.32 4.68 2.64 4 4 C2.35 3.67 0.7 3.34 -1 3 C-0.67 2.01 -0.34 1.02 0 0 Z " fill="#FC747F" transform="translate(413,227)"/>
<path d="M0 0 C1.65 0 3.3 0 5 0 C5 1.32 5 2.64 5 4 C3.02 4 1.04 4 -1 4 C-0.67 2.68 -0.34 1.36 0 0 Z " fill="#F7717C" transform="translate(404,225)"/>
<path d="M0 0 C1.65 0.33 3.3 0.66 5 1 C5 1.99 5 2.98 5 4 C3.02 4 1.04 4 -1 4 C-0.67 2.68 -0.34 1.36 0 0 Z " fill="#FD747F" transform="translate(391,265)"/>
<path d="M0 0 C1.65 0.33 3.3 0.66 5 1 C4.67 1.99 4.34 2.98 4 4 C2.35 3.67 0.7 3.34 -1 3 C-0.67 2.01 -0.34 1.02 0 0 Z " fill="#F56E79" transform="translate(394,409)"/>
<path d="M0 0 C1.98 0 3.96 0 6 0 C6 0.99 6 1.98 6 3 C3.69 3 1.38 3 -1 3 C-0.67 2.01 -0.34 1.02 0 0 Z " fill="#FD7681" transform="translate(417,258)"/>
<path d="M0 0 C1.98 0 3.96 0 6 0 C6 0.99 6 1.98 6 3 C3.69 3 1.38 3 -1 3 C-0.67 2.01 -0.34 1.02 0 0 Z " fill="#FD7681" transform="translate(420,230)"/>
<path d="M0 0 C-0.33 0.99 -0.66 1.98 -1 3 C-2.65 2.67 -4.3 2.34 -6 2 C-6 1.34 -6 0.68 -6 0 C-3.50907189 -1.24546405 -2.58919267 -0.7767578 0 0 Z " fill="#FB717D" transform="translate(422,403)"/>
<path d="M0 0 C1.32 0 2.64 0 4 0 C3.67 1.32 3.34 2.64 3 4 C1.68 4 0.36 4 -1 4 C-0.67 2.68 -0.34 1.36 0 0 Z " fill="#F9707B" transform="translate(403,408)"/>
<path d="M0 0 C1.65 0 3.3 0 5 0 C5 0.99 5 1.98 5 3 C3.02 3 1.04 3 -1 3 C-0.67 2.01 -0.34 1.02 0 0 Z " fill="#FD737F" transform="translate(410,406)"/>
</svg>
