<?xml version="1.0" encoding="UTF-8"?>
<svg version="1.1" xmlns="http://www.w3.org/2000/svg" width="512" height="512">
<path d="M0 0 C3.40764323 2.93109542 6.2113779 6.27608918 9.0390625 9.75390625 C9.6990625 10.41390625 10.3590625 11.07390625 11.0390625 11.75390625 C12.99279171 11.65872041 12.99279171 11.65872041 15.1640625 11.19140625 C20.13087258 10.54564121 23.7498706 11.09912221 28.0390625 13.75390625 C31.71502219 17.06308504 34.90488142 20.87692759 36.0390625 25.75390625 C35.96623339 27.31693108 35.88151655 28.87941939 35.7890625 30.44140625 C35.65232284 35.87077501 37.57525947 38.82440096 40.5078125 43.2578125 C44.03085096 49.00072469 45.06417898 54.79461225 45.1640625 61.44140625 C45.40013954 64.5759847 45.52959426 66.18355034 47.640625 68.546875 C49.14354072 69.65356748 50.67674889 70.71975031 52.23046875 71.75390625 C63.69801858 79.91995008 74.42469884 91.60682546 77.0390625 105.75390625 C77.07035229 107.69126559 77.09115936 109.62882217 77.1015625 111.56640625 C77.17762742 114.33142729 77.17762742 114.33142729 78.0390625 116.75390625 C80.35762242 118.47924088 82.65173899 119.39893378 85.33203125 120.46875 C92.67293507 123.95382555 96.66186273 131.02365396 99.34765625 138.39453125 C103.40281163 152.23246262 101.97588341 169.09428375 98.0390625 182.75390625 C97.79687988 183.61145508 97.55469727 184.46900391 97.30517578 185.35253906 C91.14297617 206.62289058 81.78577077 226.33233537 68.0390625 243.75390625 C67.27851563 244.72328125 66.51796875 245.69265625 65.734375 246.69140625 C57.47376637 256.98143776 48.45804889 266.50158309 39.1184082 275.80493164 C37.47164846 277.44630421 35.83034155 279.09299444 34.18945312 280.74023438 C28.64528479 286.2882669 23.03299963 291.68878341 17.0390625 296.75390625 C15.9207549 297.72657827 14.80353743 298.70050529 13.6875 299.67578125 C6.27596591 306.0953789 -1.28755299 312.26409576 -9.04345703 318.26171875 C-11.09812779 319.86066803 -13.1375572 321.47780207 -15.17578125 323.09765625 C-24.91910299 330.8117921 -34.89632657 338.02580271 -45.23046875 344.92578125 C-48.2221871 346.92882014 -51.20090712 348.95043172 -54.1796875 350.97265625 C-184.78743012 439.28277682 -184.78743012 439.28277682 -236.9609375 429.75390625 C-252.13917535 426.52632927 -264.66472865 420.73966102 -273.9609375 407.75390625 C-279.56499283 397.96484823 -281.76714048 388.95030542 -282.3359375 377.81640625 C-282.67222084 372.08090705 -283.87523575 367.5341551 -286.0390625 362.2421875 C-287.3380313 358.73607256 -287.68051609 355.46948991 -287.9609375 351.75390625 C-288.60417969 351.73972656 -289.24742187 351.72554688 -289.91015625 351.7109375 C-298.84033948 351.23958689 -307.55063399 348.9695049 -314.859375 343.640625 C-318.52062873 341.41343917 -321.61078318 341.11913559 -325.7734375 340.87890625 C-334.63161191 340.0549136 -339.77030871 337.48927654 -345.5234375 330.75390625 C-348.18393843 325.34786555 -347.57218197 318.58915865 -346.9609375 312.75390625 C-345.92578125 310.49609375 -345.92578125 310.49609375 -344.9609375 308.75390625 C-345.27388454 304.26833208 -346.74270788 300.20604033 -348.2421875 296 C-350.53122404 288.84676082 -350.20451639 281.56367809 -350.2109375 274.12890625 C-350.21161224 273.43238953 -350.21228699 272.7358728 -350.21298218 272.01824951 C-350.16528671 241.01976316 -341.35880052 210.56708694 -323.5 184.97265625 C-322.37532618 183.35129907 -321.29221207 181.70089064 -320.234375 180.03515625 C-315.22501888 172.20159523 -309.51508382 165.26368844 -303.35693359 158.32910156 C-302.16847555 156.98808525 -300.99474444 155.6340408 -299.82421875 154.27734375 C-289.65278619 142.64713992 -278.66556066 131.34376927 -266.4765625 121.828125 C-263.56513453 119.42755318 -260.91333835 116.81851424 -258.2734375 114.12890625 C-253.99425454 109.77137205 -249.61445586 105.70258879 -244.9609375 101.75390625 C-243.92237144 100.85248988 -242.88468793 99.95005616 -241.84765625 99.046875 C-233.75108593 92.01621719 -225.47333289 85.27403889 -216.9609375 78.75390625 C-216.32929688 78.26921875 -215.69765625 77.78453125 -215.046875 77.28515625 C-205.86280555 70.25989197 -196.50360228 63.5402674 -186.91796875 57.07421875 C-184.99140167 55.77445892 -183.0698548 54.46751235 -181.1484375 53.16015625 C-142.48932205 26.97528996 -46.68213692 -33.86576842 0 0 Z " fill="#502202" transform="translate(373.9609375,34.24609375)"/>
<path d="M0 0 C6.79478318 5.62169281 11.22963178 12.74560037 12.7421875 21.44140625 C13.60575656 34.0311964 13.00231987 46.24446897 9.7421875 58.44140625 C9.44417236 59.62186523 9.44417236 59.62186523 9.14013672 60.82617188 C0.17279973 96.15815131 -18.93117134 124.47745743 -43.203125 151.16796875 C-45.12717388 153.29685934 -47.00927062 155.45559767 -48.8828125 157.62890625 C-51.63137241 160.78911684 -54.52946484 163.73757107 -57.51953125 166.66796875 C-59.29864275 168.48306228 -60.93145013 170.37433515 -62.5703125 172.31640625 C-66.00836644 176.30948235 -69.8271025 179.73671908 -73.77734375 183.21484375 C-76.06172526 185.26539093 -78.23189925 187.37746114 -80.3828125 189.56640625 C-83.49007629 192.71708491 -86.71518657 195.6518449 -90.0703125 198.53515625 C-92.61292649 200.75086273 -95.08891448 203.03239217 -97.5703125 205.31640625 C-102.97257821 210.2376483 -108.57086921 214.85539685 -114.2578125 219.44140625 C-115.44107799 220.41548491 -116.62331303 221.39081625 -117.8046875 222.3671875 C-128.36867373 231.07210671 -139.24592955 239.31327123 -150.2578125 247.44140625 C-150.97066406 247.97169434 -151.68351563 248.50198242 -152.41796875 249.04833984 C-174.82591283 265.70016356 -198.38644918 280.98310214 -222.2578125 295.44140625 C-223.22170898 296.03139404 -224.18560547 296.62138184 -225.17871094 297.22924805 C-231.9973151 301.32184907 -238.88987506 304.65007217 -246.2578125 307.62890625 C-247.7428125 308.24668945 -247.7428125 308.24668945 -249.2578125 308.87695312 C-263.29629401 314.64406369 -276.36806905 318.84305459 -291.6328125 318.75390625 C-292.64359863 318.7482666 -293.65438477 318.74262695 -294.69580078 318.73681641 C-310.28728203 318.48311259 -319.88388309 314.18009549 -330.82421875 303.17578125 C-332.2578125 301.44140625 -332.2578125 301.44140625 -332.2578125 299.44140625 C-332.9178125 299.44140625 -333.5778125 299.44140625 -334.2578125 299.44140625 C-338.88814768 291.66905791 -340.38838817 283.19190311 -342.2578125 274.44140625 C-342.5878125 274.44140625 -342.9178125 274.44140625 -343.2578125 274.44140625 C-344.89785349 232.04330953 -328.53636104 189.95645978 -300.0703125 158.56640625 C-299.31363281 157.76460937 -298.55695313 156.9628125 -297.77734375 156.13671875 C-295.83304704 154.05677343 -293.97252554 151.9529725 -292.12109375 149.79296875 C-287.53099523 144.52324571 -282.58274374 139.62053946 -277.6328125 134.69140625 C-276.7046875 133.75941406 -275.7765625 132.82742187 -274.8203125 131.8671875 C-273.92054688 130.96871094 -273.02078125 130.07023438 -272.09375 129.14453125 C-271.28470215 128.33661133 -270.4756543 127.52869141 -269.64208984 126.69628906 C-263.0282759 120.44140625 -263.0282759 120.44140625 -260.2578125 120.44140625 C-258.82756024 118.80047368 -257.4635886 117.10149622 -256.1328125 115.37890625 C-252.17146962 110.44449183 -248.12434278 106.4443897 -243.2578125 102.44140625 C-242.1683432 101.50649834 -241.08131128 100.56874617 -239.99609375 99.62890625 C-233.20026139 93.74533495 -226.32653724 87.99616581 -219.2578125 82.44140625 C-218.24847656 81.63574219 -217.23914063 80.83007812 -216.19921875 80 C-202.66080518 69.2227365 -188.79860436 58.83233433 -174.2578125 49.44140625 C-173.2678125 48.78140625 -172.2778125 48.12140625 -171.2578125 47.44140625 C-170.5992627 47.29018311 -169.94071289 47.13895996 -169.26220703 46.9831543 C-166.90207285 46.34525688 -165.93373081 45.46146062 -164.1875 43.7734375 C-159.69518341 39.76713177 -154.6371955 37.01842472 -149.3828125 34.12890625 C-148.37138184 33.5656665 -147.35995117 33.00242676 -146.31787109 32.42211914 C-121.71627206 18.77291418 -121.71627206 18.77291418 -111.2578125 14.44140625 C-110.1853125 13.96703125 -109.1128125 13.49265625 -108.0078125 13.00390625 C-61.84858464 -6.56928107 -61.84858464 -6.56928107 -41.89453125 -5.66796875 C-39.11461525 -5.47128965 -39.11461525 -5.47128965 -35.8203125 -6.05859375 C-23.63334668 -7.76904509 -10.40395941 -7.23096764 0 0 Z " fill="#FE8D5A" transform="translate(370.2578125,39.55859375)"/>
<path d="M0 0 C6.68752905 5.53295565 11.44252886 12.78975705 12.7421875 21.44140625 C12.808161 23.54464159 12.82780995 25.64976349 12.8046875 27.75390625 C12.79566406 28.82253906 12.78664063 29.89117187 12.77734375 30.9921875 C12.75994141 32.20455078 12.75994141 32.20455078 12.7421875 33.44140625 C11.0103944 31.1730012 9.43127518 28.93751388 7.9296875 26.50390625 C2.42728976 18.80054942 -4.55637913 16.34188404 -13.2578125 13.44140625 C-30.96104027 11.77899442 -47.26621472 14.76350039 -64.2578125 19.44140625 C-65.31387695 19.72806152 -66.36994141 20.0147168 -67.45800781 20.31005859 C-70.05903617 21.01659792 -72.65890649 21.72710767 -75.2578125 22.44140625 C-74.66613281 23.50617187 -74.07445312 24.5709375 -73.46484375 25.66796875 C-61.36636088 47.75640026 -61.36636088 47.75640026 -60.8828125 58.00390625 C-60.46251413 64.9913667 -55.92590354 72.17903043 -51.57421875 77.5 C-49.91322853 79.94959091 -49.76328217 81.75826731 -49.5703125 84.69140625 C-49.50457031 85.5834375 -49.43882812 86.47546875 -49.37109375 87.39453125 C-49.33371094 88.07 -49.29632813 88.74546875 -49.2578125 89.44140625 C-49.68449219 88.86777344 -50.11117188 88.29414062 -50.55078125 87.703125 C-52.19313891 85.52709505 -53.87728519 83.39062347 -55.5703125 81.25390625 C-56.80387611 79.65311825 -58.0331141 78.0489868 -59.2578125 76.44140625 C-59.76699219 75.78527344 -60.27617187 75.12914063 -60.80078125 74.453125 C-64.26959144 69.66374899 -66.43670375 64.72465127 -68.5703125 59.25390625 C-72.83020864 48.36777099 -78.95019306 39.00917032 -86.26171875 29.89453125 C-87.2578125 28.44140625 -87.2578125 28.44140625 -87.2578125 26.44140625 C-88.2478125 27.10140625 -89.2378125 27.76140625 -90.2578125 28.44140625 C-89.7440253 32.9676268 -88.0633921 35.27580628 -85.1953125 38.75390625 C-78.52244807 47.20271106 -73.89226629 56.88525414 -70.1328125 66.94140625 C-67.92494331 72.716575 -64.27680255 77.02110055 -60.3515625 81.7265625 C-54.39640565 89.03627347 -54.39640565 89.03627347 -54.2578125 94.44140625 C-60.16536202 93.11220761 -64.27390323 89.86886817 -68.2578125 85.44140625 C-69.65932276 83.12394835 -70.97916521 80.82332758 -72.2578125 78.44140625 C-77.62702451 68.71085928 -82.98230671 60.97704894 -91.2578125 53.44140625 C-94.75446383 50.13664432 -97.46495329 46.9007332 -100.0078125 42.81640625 C-100.60078125 41.87539062 -101.19375 40.934375 -101.8046875 39.96484375 C-103.2578125 37.44140625 -103.2578125 37.44140625 -104.2578125 34.44140625 C-105.2478125 34.11140625 -106.2378125 33.78140625 -107.2578125 33.44140625 C-107.5878125 35.09140625 -107.9178125 36.74140625 -108.2578125 38.44140625 C-109.94681264 35.33511469 -110.96407917 32.28935574 -111.8828125 28.87890625 C-112.14320313 27.92886719 -112.40359375 26.97882813 -112.671875 26 C-113.2578125 23.44140625 -113.2578125 23.44140625 -113.2578125 20.44140625 C-121.1970409 23.17625614 -128.47180336 27.09521991 -135.83129883 31.08740234 C-136.63204834 31.51875488 -137.43279785 31.95010742 -138.2578125 32.39453125 C-138.9796875 32.78801758 -139.7015625 33.18150391 -140.4453125 33.58691406 C-142.2578125 34.44140625 -142.2578125 34.44140625 -144.2578125 34.44140625 C-143.51724609 35.68857422 -143.51724609 35.68857422 -142.76171875 36.9609375 C-142.12105469 38.04761719 -141.48039063 39.13429687 -140.8203125 40.25390625 C-139.86318359 41.87232422 -139.86318359 41.87232422 -138.88671875 43.5234375 C-137.2578125 46.44140625 -137.2578125 46.44140625 -136.2578125 49.44140625 C-137.2478125 49.44140625 -138.2378125 49.44140625 -139.2578125 49.44140625 C-138.86180931 55.55965556 -135.93146107 59.76603512 -132.7578125 64.81640625 C-131.65865591 66.60975838 -130.5610158 68.40404079 -129.46484375 70.19921875 C-128.64814209 71.53001465 -128.64814209 71.53001465 -127.81494141 72.88769531 C-118.19173025 88.66988232 -110.40074216 104.34991943 -106.2578125 122.44140625 C-105.91943359 123.79685547 -105.91943359 123.79685547 -105.57421875 125.1796875 C-104.08665797 131.61210551 -104.0542937 137.86096493 -104.2578125 144.44140625 C-105.9078125 144.44140625 -107.5578125 144.44140625 -109.2578125 144.44140625 C-109.46535156 143.54421875 -109.67289063 142.64703125 -109.88671875 141.72265625 C-116.40644538 115.31639944 -131.21449797 94.01942284 -147.97802734 73.06347656 C-149.20574371 71.50740111 -150.39867858 69.92407348 -151.58984375 68.33984375 C-152.28464844 67.42460938 -152.97945312 66.509375 -153.6953125 65.56640625 C-154.29214844 64.76460938 -154.88898438 63.9628125 -155.50390625 63.13671875 C-157.33060289 60.97807658 -157.33060289 60.97807658 -161.2578125 61.44140625 C-159.11510881 66.1298965 -156.42752827 70.02396859 -153.1953125 74.00390625 C-152.2053826 75.24711996 -151.21580676 76.49061566 -150.2265625 77.734375 C-148.79554968 79.52267761 -147.36330056 81.30997278 -145.9296875 83.09619141 C-133.36816893 98.81262842 -119.32139559 118.3474678 -115.2578125 138.44140625 C-115.66796875 140.76953125 -115.66796875 140.76953125 -116.2578125 142.44140625 C-122.74130008 137.81034369 -125.80643392 131.85811421 -129.6171875 124.9921875 C-132.40626934 120.12696328 -135.45347744 115.93333077 -139.1328125 111.69140625 C-143.92107428 106.12002997 -147.55168227 100.24243946 -151.01806641 93.75 C-152.53951622 90.91683154 -154.09246417 88.10166511 -155.64453125 85.28515625 C-156.84980241 83.08770234 -158.05422554 80.88978308 -159.2578125 78.69140625 C-159.84667236 77.61858398 -160.43553223 76.54576172 -161.04223633 75.44042969 C-161.58775146 74.4352832 -162.1332666 73.43013672 -162.6953125 72.39453125 C-163.18902344 71.48864258 -163.68273437 70.58275391 -164.19140625 69.64941406 C-165.2578125 67.44140625 -165.2578125 67.44140625 -165.2578125 65.44140625 C-168.2278125 66.43140625 -168.2278125 66.43140625 -171.2578125 67.44140625 C-172.09630054 65.98603057 -172.92845184 64.52700252 -173.7578125 63.06640625 C-174.221875 62.25429687 -174.6859375 61.4421875 -175.1640625 60.60546875 C-176.2578125 58.44140625 -176.2578125 58.44140625 -176.2578125 56.44140625 C-182.49622653 59.73596278 -188.26295397 63.39095763 -193.9453125 67.56640625 C-194.71770264 68.12900146 -195.49009277 68.69159668 -196.28588867 69.27124023 C-203.411911 74.49190115 -210.36687017 79.91573764 -217.2578125 85.44140625 C-218.21042969 86.20324219 -219.16304688 86.96507813 -220.14453125 87.75 C-220.84191406 88.30816406 -221.53929687 88.86632812 -222.2578125 89.44140625 C-220.89410951 92.43360893 -219.30873167 94.73167154 -217.1328125 97.19140625 C-216.59398437 97.805 -216.05515625 98.41859375 -215.5 99.05078125 C-215.09007812 99.5096875 -214.68015625 99.96859375 -214.2578125 100.44140625 C-215.2478125 101.43140625 -216.2378125 102.42140625 -217.2578125 103.44140625 C-216.83371094 103.85390625 -216.40960938 104.26640625 -215.97265625 104.69140625 C-201.86327889 118.58371627 -190.23227502 132.78551738 -184.27416992 151.82373047 C-182.23046548 158.06340816 -179.04179969 163.12944323 -175.2578125 168.44140625 C-171.44658331 174.01518587 -170.12753194 177.53653655 -170.2578125 184.44140625 C-173.2578125 181.44140625 -176.2578125 178.44140625 -179.2578125 175.44140625 C-179.94230469 174.80332031 -180.62679687 174.16523438 -181.33203125 173.5078125 C-187.75268765 167.39238255 -192.16614159 160.76195619 -196.6015625 153.12890625 C-203.00009882 142.71268433 -212.91087109 135.49725082 -222.6328125 128.37890625 C-223.39368164 127.81848633 -224.15455078 127.25806641 -224.93847656 126.68066406 C-228.92983191 123.82467444 -232.43165276 121.67475818 -237.2578125 120.44140625 C-237.2578125 121.76140625 -237.2578125 123.08140625 -237.2578125 124.44140625 C-235.0687871 126.32736469 -235.0687871 126.32736469 -232.1328125 128.00390625 C-217.43134061 137.35466575 -203.20089354 148.12667823 -194.828125 163.69921875 C-193.35185424 166.2771841 -191.79232737 168.35591516 -189.8203125 170.56640625 C-187.2578125 173.44140625 -187.2578125 173.44140625 -187.2578125 175.44140625 C-186.67128906 175.70308594 -186.08476562 175.96476563 -185.48046875 176.234375 C-180.28875226 179.05377815 -175.76876969 184.12408515 -173.2578125 189.44140625 C-173.2578125 190.43140625 -173.2578125 191.42140625 -173.2578125 192.44140625 C-184.6832869 189.44456051 -194.23514382 182.081273 -201.5234375 172.8359375 C-206.30840203 166.76825657 -212.45003996 162.40639556 -218.55078125 157.74755859 C-228.71800146 149.96800652 -238.43965263 141.95292986 -246.6640625 132.09375 C-247.19 131.54847656 -247.7159375 131.00320312 -248.2578125 130.44140625 C-248.9178125 130.44140625 -249.5778125 130.44140625 -250.2578125 130.44140625 C-250.9178125 131.10140625 -251.5778125 131.76140625 -252.2578125 132.44140625 C-254.2378125 129.47140625 -256.2178125 126.50140625 -258.2578125 123.44140625 C-262.16192157 124.41743352 -263.03135434 124.8266292 -265.76171875 127.43359375 C-266.74108398 128.35942261 -266.74108398 128.35942261 -267.74023438 129.30395508 C-268.42666016 129.96806396 -269.11308594 130.63217285 -269.8203125 131.31640625 C-270.53123047 131.99533936 -271.24214844 132.67427246 -271.97460938 133.3737793 C-274.07706403 135.38815686 -276.16842661 137.41348795 -278.2578125 139.44140625 C-278.81581543 139.97749512 -279.37381836 140.51358398 -279.94873047 141.06591797 C-286.26428469 147.13864409 -291.96840903 153.45454379 -297.2578125 160.44140625 C-295.39881028 163.5814016 -293.49935842 166.55941864 -291.2578125 169.44140625 C-291.9178125 170.10140625 -292.5778125 170.76140625 -293.2578125 171.44140625 C-292.5829179 178.095867 -285.21589105 182.54925099 -280.4453125 186.50390625 C-276.98252707 189.30756838 -273.47887244 192.04370368 -269.93359375 194.7421875 C-254.25556075 206.69617112 -238.60917543 219.44420793 -233.2578125 239.44140625 C-233.1640625 242.22265625 -233.1640625 242.22265625 -233.2578125 244.44140625 C-236.14764497 241.63914446 -238.81162186 238.7892263 -241.3828125 235.69140625 C-251.36004054 224.25199823 -264.31678355 216.58546862 -278.0078125 210.44140625 C-289.59393966 205.17568128 -296.48981801 197.43145118 -304.2578125 187.44140625 C-304.9178125 188.10140625 -305.5778125 188.76140625 -306.2578125 189.44140625 C-305.9455218 192.91209148 -304.48540724 194.54673554 -302.0078125 196.87890625 C-301.37230469 197.48476562 -300.73679687 198.090625 -300.08203125 198.71484375 C-299.17904297 199.56949219 -299.17904297 199.56949219 -298.2578125 200.44140625 C-297.4534375 201.28703125 -296.6490625 202.13265625 -295.8203125 203.00390625 C-290.21145374 208.33916214 -284.37548446 212.00179939 -277.4453125 215.37890625 C-259.78931322 224.00188681 -244.30663779 235.20614833 -234.2578125 252.44140625 C-262.09769807 251.4696825 -281.27234462 230.58837975 -299.2578125 211.44140625 C-301.79499088 208.58190031 -304.19587102 205.63281187 -306.53125 202.60546875 C-308.30470862 200.38262695 -310.21281039 198.4143378 -312.2578125 196.44140625 C-313.7428125 198.42140625 -313.7428125 198.42140625 -315.2578125 200.44140625 C-316.5778125 198.46140625 -317.8978125 196.48140625 -319.2578125 194.44140625 C-322.51992893 198.18785437 -324.69361311 202.02881512 -326.6328125 206.56640625 C-327.07898926 207.6037793 -327.07898926 207.6037793 -327.53417969 208.66210938 C-337.0084997 231.27562983 -339.77363365 253.06661246 -340.2578125 277.44140625 C-342.66986963 275.2972224 -343.21447273 274.76985376 -343.65625 271.421875 C-343.39216908 228.68477956 -327.21759469 187.33235092 -297.77734375 156.13671875 C-295.83304704 154.05677343 -293.97252554 151.9529725 -292.12109375 149.79296875 C-287.53099523 144.52324571 -282.58274374 139.62053946 -277.6328125 134.69140625 C-276.7046875 133.75941406 -275.7765625 132.82742187 -274.8203125 131.8671875 C-273.92054688 130.96871094 -273.02078125 130.07023438 -272.09375 129.14453125 C-271.28470215 128.33661133 -270.4756543 127.52869141 -269.64208984 126.69628906 C-263.0282759 120.44140625 -263.0282759 120.44140625 -260.2578125 120.44140625 C-258.82756024 118.80047368 -257.4635886 117.10149622 -256.1328125 115.37890625 C-252.17146962 110.44449183 -248.12434278 106.4443897 -243.2578125 102.44140625 C-242.1683432 101.50649834 -241.08131128 100.56874617 -239.99609375 99.62890625 C-233.20026139 93.74533495 -226.32653724 87.99616581 -219.2578125 82.44140625 C-218.24847656 81.63574219 -217.23914063 80.83007812 -216.19921875 80 C-202.66080518 69.2227365 -188.79860436 58.83233433 -174.2578125 49.44140625 C-173.2678125 48.78140625 -172.2778125 48.12140625 -171.2578125 47.44140625 C-170.5992627 47.29018311 -169.94071289 47.13895996 -169.26220703 46.9831543 C-166.90207285 46.34525688 -165.93373081 45.46146062 -164.1875 43.7734375 C-159.69518341 39.76713177 -154.6371955 37.01842472 -149.3828125 34.12890625 C-148.37138184 33.5656665 -147.35995117 33.00242676 -146.31787109 32.42211914 C-121.71627206 18.77291418 -121.71627206 18.77291418 -111.2578125 14.44140625 C-110.1853125 13.96703125 -109.1128125 13.49265625 -108.0078125 13.00390625 C-61.84858464 -6.56928107 -61.84858464 -6.56928107 -41.89453125 -5.66796875 C-39.11461525 -5.47128965 -39.11461525 -5.47128965 -35.8203125 -6.05859375 C-23.63334668 -7.76904509 -10.40395941 -7.23096764 0 0 Z " fill="#652C05" transform="translate(370.2578125,39.55859375)"/>
<path d="M0 0 C5.41457246 0.33841078 9.2883945 3.26664681 13 7 C22.11850287 20.42227902 21.87433149 37.44066098 18.97436523 53.02905273 C16.60769953 63.79780799 12.4741307 73.95450637 8 84 C7.68015137 84.71961914 7.36030273 85.43923828 7.03076172 86.18066406 C-1.26969581 104.5045594 -13.50752205 120.00208373 -27.01171875 134.7890625 C-28.5960382 136.55080083 -30.09390998 138.33088787 -31.5625 140.1875 C-33.4603812 142.37736293 -35.18973395 144.08446926 -37.375 145.9375 C-41.64857159 149.56922339 -45.55857238 153.51697675 -49.5 157.5 C-57.054462 165.10408382 -64.85690985 171.95289257 -73.31591797 178.53881836 C-77.16463776 181.53827352 -80.95875358 184.59399755 -84.72436523 187.69702148 C-142.06500803 234.88307215 -235.14784761 307.51929231 -313 301 C-321.69004848 299.52668199 -329.52861284 296.03456853 -336 290 C-337.299375 288.8553125 -337.299375 288.8553125 -338.625 287.6875 C-344.79951159 280.70055268 -349.06609542 273.21605561 -351 264 C-350.59765625 261.64453125 -350.59765625 261.64453125 -350 260 C-349.6596875 260.44730469 -349.319375 260.89460938 -348.96875 261.35546875 C-343.98999886 267.56566632 -337.92901275 272.32270884 -330 274 C-322.23057287 274.72455203 -315.6992118 274.2527905 -309 270 C-308.57734863 269.48550293 -308.15469727 268.97100586 -307.71923828 268.44091797 C-305.31495303 266.42585243 -303.75608542 266.68529798 -300.65234375 266.77734375 C-299.58097168 266.79756592 -298.50959961 266.81778809 -297.40576172 266.83862305 C-296.26123535 266.87125244 -295.11670898 266.90388184 -293.9375 266.9375 C-283.09620157 267.09016288 -272.71115126 266.62393187 -262 265 C-260.1128125 264.74283203 -260.1128125 264.74283203 -258.1875 264.48046875 C-220.48997332 258.49366892 -182.23416613 238.5651187 -155 212 C-154.12859375 211.20207031 -153.2571875 210.40414062 -152.359375 209.58203125 C-141.64972558 199.5129897 -134.51735622 187.23030328 -130.12890625 173.21875 C-129 171 -129 171 -127.1796875 170.28515625 C-126.41914063 170.21167969 -125.65859375 170.13820313 -124.875 170.0625 C-89.83582446 164.56714729 -57.66265001 135.13018328 -37.29101562 107.7265625 C-36.05331412 106.07130058 -34.78770269 104.44140455 -33.515625 102.8125 C-17.6298576 82.04293248 -4.44342088 54.94869642 -4.8125 28.375 C-4.81314453 27.48554688 -4.81378906 26.59609375 -4.81445312 25.6796875 C-4.84170714 21.56130356 -5.00720011 17.59385898 -5.625 13.51953125 C-6 10 -6 10 -4.1875 7.3125 C-3.1046875 6.1678125 -3.1046875 6.1678125 -2 5 C-0.75983331 2.3205355 -0.75983331 2.3205355 0 0 Z " fill="#FD8D5A" transform="translate(449,157)"/>
<path d="M0 0 C4.61991873 1.42997485 7.55744381 4.05346505 10.875 7.4375 C11.3994873 7.96883545 11.92397461 8.5001709 12.46435547 9.04760742 C22.31940398 19.30859514 26.62094162 29.08323977 26.3671875 43.40625 C25.52393419 51.65936747 20.39574803 55.95266157 14.3359375 61.13671875 C12.21220218 62.83073505 10.04175505 64.38727091 7.8125 65.9375 C2.83553735 69.55077488 -0.27612851 74.55225702 -3 80 C-3.72377154 88.97476711 -1.14637226 96.65239739 2.75 104.6875 C4.70770009 109.87540525 4.86296525 114.57291023 3 119.8125 C-0.49206786 123.63194922 -4.635589 125.69560486 -9.72509766 126.35083008 C-13.78356146 126.51475699 -17.8315279 126.5037323 -21.89257812 126.48828125 C-29.8179698 126.59940848 -37.95858363 127.51178648 -44.17773438 132.87963867 C-49.85251712 138.91106356 -52.61768318 145.51585204 -54.875 153.375 C-57.21936508 161.29067973 -60.60363023 169.62941786 -68 174 C-75.91481921 177.68471415 -82.72751661 179.12436171 -91.43701172 178.93457031 C-102.99628418 178.68421859 -113.24596144 179.17217301 -123 186 C-130.92780269 193.92780269 -131.41754063 202.19712078 -131.52734375 212.75390625 C-131.70343509 219.55931859 -132.78314915 223.87953397 -137.875 228.75 C-142.33194385 231.95899957 -146.35122398 233.20607871 -151.73828125 234.0703125 C-152.80498047 234.24433594 -153.87167969 234.41835938 -154.97070312 234.59765625 C-156.07349609 234.77167969 -157.17628906 234.94570313 -158.3125 235.125 C-159.99569336 235.39763672 -159.99569336 235.39763672 -161.71289062 235.67578125 C-164.47447507 236.12233533 -167.23680295 236.56355527 -170 237 C-170.33772739 234.29215006 -170.67030687 231.58383004 -171 228.875 C-171.09539062 228.11445313 -171.19078125 227.35390625 -171.2890625 226.5703125 C-171.55315128 224.38214835 -171.78335692 222.19331727 -172 220 C-172.11085937 218.91976562 -172.22171875 217.83953125 -172.3359375 216.7265625 C-171.87586828 212.99251228 -170.42911586 211.95036586 -167.625 209.5 C-154.65384017 197.22503237 -144.57879549 180.59574447 -141 163 C-139.25589844 162.5978125 -139.25589844 162.5978125 -137.4765625 162.1875 C-109.65145293 155.49282495 -81.5357767 140.08864438 -63.0546875 117.63671875 C-61 116 -61 116 -58.01171875 116.01171875 C-56.36623047 116.34623047 -56.36623047 116.34623047 -54.6875 116.6875 C-52.94533203 117.01427734 -52.94533203 117.01427734 -51.16796875 117.34765625 C-49.59982422 117.67056641 -49.59982422 117.67056641 -48 118 C-36.7623446 120.110055 -36.7623446 120.110055 -25.86328125 117.98828125 C-22.68273773 115.42382364 -21.48319611 113.02522197 -20.55078125 109.1171875 C-19.73031179 101.39670439 -23.37634707 96.20578719 -27.44262695 89.97802734 C-30.85880119 84.68481422 -30.85880119 84.68481422 -31.546875 81.34765625 C-30.78361129 78.07107416 -29.20876749 75.9867177 -27.25 73.25 C-12.7859059 51.94068586 -4.04945455 28.21596943 -1.29370117 2.75561523 C-1 1 -1 1 0 0 Z " fill="#AFCD44" transform="translate(419,110)"/>
<path d="M0 0 C0.66 0 1.32 0 2 0 C1.98889694 0.55312363 1.97779388 1.10624725 1.96635437 1.6761322 C1.45904296 28.20758735 1.48708917 53.77502138 6.44165039 79.90063477 C8.59190915 91.83659235 8.59190915 91.83659235 6.1875 96.5625 C3.98038859 99.02185271 3.15718296 99.86105017 -0.05761719 100.24707031 C-6.8821123 100.46928808 -11.29955984 98.94195797 -17.25 95.75 C-25.73130683 91.48245351 -34.31113696 87.65657615 -43.125 84.125 C-43.74019501 83.87836609 -44.35539001 83.63173218 -44.98922729 83.37762451 C-57.49143121 78.39181341 -70.20826353 74.04019581 -82.99072266 69.83251953 C-84.08312004 69.46885284 -84.08312004 69.46885284 -85.19758606 69.09783936 C-86.56839337 68.64198762 -87.94128142 68.19233162 -89.31645203 67.74981689 C-93.88766414 66.22467172 -93.88766414 66.22467172 -95 64 C-94.49476807 63.72027344 -93.98953613 63.44054687 -93.46899414 63.15234375 C-73.88169795 52.25615752 -54.77151203 40.51551472 -36.70166016 27.23486328 C-34.80975591 25.86194339 -32.8978263 24.52072809 -30.98046875 23.18359375 C-14.78793006 12.45304577 -14.78793006 12.45304577 0 0 Z " fill="#F9C26F" transform="translate(240,278)"/>
<path d="M0 0 C6.10796526 20.34346495 -4.26431456 45.48667403 -13.625 63.16796875 C-34.6439975 101.33058609 -69.04745958 136.25011661 -111.4375 149.32421875 C-122.98141453 152.36857426 -133.7790754 151.80969677 -144.5625 146.8125 C-146.50232488 144.36663385 -146.49335114 142.23489006 -146.30859375 139.18359375 C-145.50098139 133.46896959 -144.03258717 129.44917583 -139.5 125.6875 C-129.62293747 119.26430778 -118.49384895 119.57107581 -107.11523438 119.6484375 C-96.84074117 119.50777131 -88.60396197 116.60115605 -80 111 C-75.26737403 104.76252983 -71.57571751 97.39682444 -70.1875 89.6875 C-68.49819858 81.52021628 -63.85120743 74.66465187 -57 70 C-53.32815273 68.25301983 -50.44646714 67.76001411 -46.39453125 67.76171875 C-44.79448242 67.73754883 -44.79448242 67.73754883 -43.16210938 67.71289062 C-40.94862517 67.69611203 -38.73502242 67.69069726 -36.52148438 67.69726562 C-27.79835875 67.53485308 -20.80913922 65.71623338 -14.4375 59.5 C-11.6528097 54.65706035 -11.51536414 49.49932213 -12 44 C-12.7411866 41.28154441 -13.79617801 38.76004499 -14.9375 36.1875 C-15.48867472 34.88948993 -16.0394706 33.5913189 -16.58984375 32.29296875 C-17.05519531 31.20628906 -17.52054688 30.11960938 -18 29 C-19.50332369 24.49002893 -19.97373538 20.3360916 -18.12890625 15.91015625 C-15.21934088 10.94004623 -11.5178503 7.49435561 -7 4 C-6.071875 3.21625 -5.14375 2.4325 -4.1875 1.625 C-2 0 -2 0 0 0 Z " fill="#A87E51" transform="translate(439,173)"/>
<path d="M0 0 C3.22558594 1.18334961 3.22558594 1.18334961 6.484375 2.65234375 C7.66644531 3.18150391 8.84851563 3.71066406 10.06640625 4.25585938 C10.6711377 4.53196045 11.27586914 4.80806152 11.89892578 5.0925293 C13.7554485 5.93998711 15.61727843 6.77473984 17.48046875 7.60742188 C26.52762442 11.68508295 26.52762442 11.68508295 30 14 C28.36160527 19.58543658 26.68653685 24.39182894 23 29 C22.5875 29.56074219 22.175 30.12148438 21.75 30.69921875 C18.9466569 33.83107862 16.72061341 34.87758549 12.55078125 35.5859375 C4.04138034 35.93598142 -2.32430909 34.4325478 -10.12304688 31.16210938 C-16.72320694 28.48953224 -22.9210744 27.66718483 -30 29 C-33.49207247 30.5334753 -36.17016823 32.46290944 -39 35 C-39.845625 35.721875 -40.69125 36.44375 -41.5625 37.1875 C-44.65546992 40.75631145 -47.33553217 44.57124103 -50.08203125 48.41015625 C-53.93101616 53.60746175 -58.75366905 58.91788968 -65 61 C-73.95720644 62.04326864 -80.59123825 60.19858218 -87.7109375 54.671875 C-94.81793513 47.52727421 -102 31.04441985 -102 21 C-100.10894531 20.94392578 -100.10894531 20.94392578 -98.1796875 20.88671875 C-68.79324484 19.85860507 -24.9134738 -4.79959263 0 0 Z " fill="#B0CE44" transform="translate(195,366)"/>
<path d="M0 0 C0.66 0.33 1.32 0.66 2 1 C-6.55740083 15.0777283 -15.9384937 28.06338899 -26.72167969 40.52197266 C-27.8854962 41.86760772 -29.04087546 43.22052834 -30.1953125 44.57421875 C-33.7434082 48.67192143 -37.39673933 52.2980415 -41.53515625 55.7890625 C-44.99380877 58.89143544 -48.23266027 62.19829246 -51.5 65.5 C-59.05446823 73.10407198 -66.85691088 79.95289337 -75.31591797 86.53881836 C-79.16463776 89.53827352 -82.95875358 92.59399755 -86.72436523 95.69702148 C-144.06500803 142.88307215 -237.14784761 215.51929231 -315 209 C-323.69004848 207.52668199 -331.52861284 204.03456853 -338 198 C-339.299375 196.8553125 -339.299375 196.8553125 -340.625 195.6875 C-346.79951159 188.70055268 -351.06609542 181.21605561 -353 172 C-352.59765625 169.64453125 -352.59765625 169.64453125 -352 168 C-351.63648438 168.45890625 -351.27296875 168.9178125 -350.8984375 169.390625 C-347.58254366 173.43771595 -344.3900612 176.10442772 -340 179 C-339.29875 179.928125 -338.5975 180.85625 -337.875 181.8125 C-330.60943115 190.86581134 -318.08944037 194.46158053 -307 196 C-295.79076322 197.09686508 -284.89662001 195.69104787 -274 193 C-273.26507324 192.82259277 -272.53014648 192.64518555 -271.77294922 192.46240234 C-256.31926913 188.60797272 -242.26763555 181.95779266 -228 175 C-226.96762207 174.50161621 -225.93524414 174.00323242 -224.87158203 173.48974609 C-209.90215235 166.24786282 -195.38331263 158.33926105 -181 150 C-179.54166667 149.16145833 -178.08333333 148.32291667 -176.625 147.484375 C-159.30688398 137.46493177 -142.25878362 126.89386266 -125.9140625 115.34912109 C-123.8972018 113.927543 -121.87114596 112.51978719 -119.84375 111.11328125 C-106.17036594 101.59163949 -92.92491283 91.51518332 -80 81 C-79.15695312 80.319375 -78.31390625 79.63875 -77.4453125 78.9375 C-52.58159326 58.7582496 -26.79869741 37.06927376 -8 11 C-7.19114778 9.90027332 -6.38125223 8.80131325 -5.5703125 7.703125 C-3.69575331 5.14749759 -1.83866263 2.58150341 0 0 Z " fill="#E88152" transform="translate(451,249)"/>
<path d="M0 0 C0.68964844 0.20496094 1.37929688 0.40992188 2.08984375 0.62109375 C8.0949719 2.34272857 13.77409051 3.48967955 20 4 C19.48307845 15.37227404 12.21478857 24.73554606 5 33 C4.31035156 33.82242188 3.62070312 34.64484375 2.91015625 35.4921875 C-16.79946446 58.37388098 -45.35318524 73.02321423 -73 84 C-73.70318359 84.27956543 -74.40636719 84.55913086 -75.13085938 84.84716797 C-86.0722824 89.08822414 -97.47373721 91.04868953 -109 93 C-109.94302979 93.17942139 -110.88605957 93.35884277 -111.85766602 93.54370117 C-115.26039926 94.03781262 -118.49187672 94.1128678 -121.9296875 94.09765625 C-123.86328125 94.09282227 -123.86328125 94.09282227 -125.8359375 94.08789062 C-127.18229236 94.07953733 -128.52864652 94.07107241 -129.875 94.0625 C-131.24479004 94.0574783 -132.61458185 94.05291657 -133.984375 94.04882812 C-137.3229619 94.03707254 -140.66145815 94.02063964 -144 94 C-141.184974 86.70480648 -136.46926886 79.70141504 -129.484375 75.81640625 C-120.23293534 72.7762319 -111.0906537 74.62770386 -102.5859375 78.80859375 C-95.58942352 82.03206318 -86.40386623 82.52210131 -79.140625 80.01171875 C-70.26845387 75.23956609 -66.53778173 67.04099777 -63 58 C-61.948125 58.08701172 -61.948125 58.08701172 -60.875 58.17578125 C-54.79312529 58.46500084 -50.57545671 58.13747738 -45.59375 54.47265625 C-42.48285444 51.59812775 -41.17765701 48.97130947 -40.796875 44.74609375 C-40.68521782 38.80034918 -41.29726738 32.89793448 -42 27 C-37.00681054 24.99515878 -32.58217857 23.87229795 -27.1875 23.6875 C-18.92977508 23.14964052 -11.21853901 19.77369991 -5.4375 13.75 C-2.32989047 9.67068956 -1.13200225 4.93513261 0 0 Z " fill="#A87E51" transform="translate(293,325)"/>
<path d="M0 0 C2 1 2 1 2.72680664 2.63208008 C2.95231201 3.33743896 3.17781738 4.04279785 3.41015625 4.76953125 C3.67280273 5.56552734 3.93544922 6.36152344 4.20605469 7.18164062 C4.48868164 8.04982422 4.77130859 8.91800781 5.0625 9.8125 C14.15118984 37.84071045 14.15118984 37.84071045 30 62 C30.48861275 66.23464382 30.4375146 68.33667142 28.0625 71.9375 C22.82166993 75.46703862 17.04299763 74.28595475 11.01953125 73.1953125 C9.28212774 72.84704623 7.5464286 72.49017391 5.8125 72.125 C-8.33535442 69.20680237 -22.49801868 67.5815028 -36.875 66.375 C-38.44924971 66.23994372 -40.02346871 66.10452898 -41.59765625 65.96875 C-45.39809759 65.64171663 -49.19891638 65.31947797 -53 65 C-49.7060041 61.07907112 -46.39184261 57.29389085 -42.6875 53.75 C-38.55304656 49.67085698 -34.92242498 45.32784216 -31.30078125 40.79296875 C-29.04984619 38.06050939 -26.68490027 35.50614277 -24.25 32.9375 C-15.01661013 22.91061569 -7.48928986 11.35440594 0 0 Z " fill="#F8C26F" transform="translate(364,151)"/>
<path d="M0 0 C1.1451709 0.02191406 2.2903418 0.04382813 3.47021484 0.06640625 C13.31297323 0.31889022 23.05896412 1.18386022 32.8125 2.5 C32.8125 5.5 32.8125 5.5 30.71484375 7.8125 C29.73680952 8.7195095 28.74758644 9.61454053 27.75 10.5 C27.21342773 10.98130371 26.67685547 11.46260742 26.12402344 11.95849609 C10.83530519 25.42254476 -6.05013193 35.5652046 -25.1875 42.5 C-25.99832031 42.8403125 -26.80914062 43.180625 -27.64453125 43.53125 C-33.5191422 45.75351964 -39.35341937 45.77386915 -45.5625 45.8125 C-46.44381592 45.81813965 -47.32513184 45.8237793 -48.2331543 45.82958984 C-52.5067473 45.7811243 -55.4067068 45.65165787 -59.1875 43.5 C-55.50980574 39.71919282 -51.65767982 36.27091137 -47.625 32.875 C-41.96815714 28.07026196 -36.45496617 23.14199536 -31.0078125 18.1015625 C-27.55437284 14.91597965 -24.05155475 11.78817235 -20.5390625 8.66796875 C-18.26671478 6.70162269 -18.26671478 6.70162269 -16.99389648 4.92236328 C-12.30427003 -0.88923677 -7.04406117 -0.26892728 0 0 Z " fill="#F7536D" transform="translate(315.1875,221.5)"/>
<path d="M0 0 C2.88595246 1.29434348 4.7608178 2.60047157 6.875 4.9375 C13.85187218 12.10776096 22.13922459 18.07008981 30.36816406 23.72436523 C47.9040621 35.8332976 61.28975341 51.68359279 65.6171875 73.046875 C65.99759307 75.98143227 66.13317063 78.79223036 66.125 81.75 C66.12886719 83.16539062 66.12886719 83.16539062 66.1328125 84.609375 C66 87 66 87 65 89 C45.0550047 89.80736863 29.93278097 84.37066381 15 71 C13.19583848 69.266663 11.43758584 67.50227416 9.69921875 65.703125 C7.93265113 63.93249631 6.08894558 62.31188864 4.1875 60.6875 C-4.43765799 53.21125301 -11.97835743 44.98885123 -19 36 C-19.58523437 35.29101562 -20.17046875 34.58203125 -20.7734375 33.8515625 C-22 32 -22 32 -21.6875 29.25 C-21.460625 28.5075 -21.23375 27.765 -21 27 C-20.01 27 -19.02 27 -18 27 C-16.125 28.984375 -16.125 28.984375 -14 31.75 C-8.9560458 38.11189062 -3.5895692 44.11431889 2 50 C2.51079102 50.53947266 3.02158203 51.07894531 3.54785156 51.63476562 C16.52390322 65.24243039 32.28126614 80.27152422 52 82 C53.66653316 82.02109536 55.33354178 82.02635874 57 82 C54.69679084 78.97572535 52.35704707 75.98248134 50 73 C49.48308594 72.33097656 48.96617188 71.66195312 48.43359375 70.97265625 C37.82525164 57.97145502 22.38771711 49.97154107 7.5 42.875 C-0.42525472 38.97135627 -5.90481085 33.38709599 -11.5546875 26.69921875 C-13.04252706 24.90381734 -13.04252706 24.90381734 -15 23 C-14.625 19.875 -14.625 19.875 -14 17 C-9.48783685 18.5824648 -7.24722361 22.15001078 -4.375 25.75 C0.52818171 31.64481974 5.01437495 35.67166895 12 39 C14.62833633 40.28490098 17.25202883 41.57918587 19.875 42.875 C20.56529297 43.21539307 21.25558594 43.55578613 21.96679688 43.90649414 C36.040803 50.93520667 49.29554758 60.6760794 58 74 C57.47364392 68.50171284 56.10121736 64.23536976 53.625 59.3125 C53.27630859 58.61842041 52.92761719 57.92434082 52.56835938 57.20922852 C48.78577504 50.05767721 43.81015161 44.5616348 38 39 C37.33226562 38.35933594 36.66453125 37.71867187 35.9765625 37.05859375 C31.6235064 33.10043514 26.8986054 29.60892607 22.21728516 26.0534668 C17.8663843 22.72538509 13.65938749 19.25150687 9.5 15.6875 C8.92491699 15.19612549 8.34983398 14.70475098 7.75732422 14.19848633 C4.36376725 11.26759657 1.02656709 8.31562125 -2 5 C-1.87165745 2.68983403 -1.63394255 1.63394255 0 0 Z " fill="#532505" transform="translate(78,209)"/>
<path d="M0 0 C1.77880859 0.18017578 1.77880859 0.18017578 4 1 C5.76416016 3.19873047 5.76416016 3.19873047 7.5390625 6.1171875 C8.19720947 7.18960693 8.85535645 8.26202637 9.53344727 9.36694336 C10.23161251 10.53571013 10.92877534 11.7050762 11.625 12.875 C12.34474076 14.06857945 13.06471306 15.26201929 13.78491211 16.45532227 C29.45166963 42.54889948 41.82053816 67.87579961 40 99 C37.71074321 101.28925679 32.9453667 100.37227443 29.86108398 100.38061523 C23.85066343 100.23861432 20.33144347 99.09134128 16 95 C14.98873047 94.05253906 14.98873047 94.05253906 13.95703125 93.0859375 C9.24354387 88.22211375 6.52347621 83.18910747 3.68359375 77.09375 C1.54593852 73.16562252 -1.19192285 70.04511679 -4.12109375 66.6875 C-14.26855307 54.84879746 -20.77942797 39.9993799 -27.81420898 26.21386719 C-29.05154855 23.81854906 -29.05154855 23.81854906 -31 21 C-30.625 18.8125 -30.625 18.8125 -30 17 C-28.68 16.67 -27.36 16.34 -26 16 C-25.49662109 16.97235596 -24.99324219 17.94471191 -24.47460938 18.9465332 C-22.57511427 22.60980844 -20.66374211 26.26678131 -18.74902344 29.92211914 C-17.92749484 31.49436045 -17.10904478 33.06821486 -16.29394531 34.64379883 C-10.69095629 45.4677549 -5.0595978 55.80381668 3.4375 64.6875 C7.39479004 69.03418013 10.01140883 74.09709937 12.71655273 79.27807617 C14.98986571 83.54888246 17.37363764 86.70494982 21 90 C21.99 90.99 21.99 90.99 23 92 C18.6563892 67.24141846 2.654315 46.09076666 -12.90332031 27.08422852 C-22 15.96940082 -22 15.96940082 -22 12 C-20.68 11.67 -19.36 11.34 -18 11 C28.72252301 64.71250677 28.72252301 64.71250677 30.15234375 93.015625 C30.10207031 93.67046875 30.05179687 94.3253125 30 95 C31.65 95 33.3 95 35 95 C32.12053942 64.72777625 21.603828 40.07452417 5.26171875 14.5859375 C-1.0643429 4.62734324 -1.0643429 4.62734324 -0.75 1.5625 C-0.5025 1.046875 -0.255 0.53125 0 0 Z " fill="#532505" transform="translate(231,89)"/>
<path d="M0 0 C13.99961202 5.11238486 26.90812216 27.16042015 33 40 C34.10114947 43.25408654 35.03375695 46.52058387 35.9453125 49.83203125 C38.06268194 56.19198169 41.84325706 61.70278043 45.4921875 67.28125 C50.41839612 74.8600325 51.88854908 81.98573395 51 91 C50.22411439 93.85238872 49.22498165 96.2948322 48 99 C35.22233713 98.74444674 24.59523499 90.75430265 16 82 C13.23182056 79.18486554 10.4621037 76.37130529 7.6875 73.5625 C6.95418457 72.81887207 6.22086914 72.07524414 5.46533203 71.30908203 C0.25334941 66.0878767 -5.14139777 61.55790339 -11.07421875 57.19140625 C-19.88550663 50.59176339 -29.93446372 42.29147436 -36 33 C-35.6875 30.75 -35.6875 30.75 -35 29 C-30.68144428 30.58996707 -28.23603382 33.94173107 -25.3125 37.3125 C-19.2280427 44.1030245 -12.51913063 49.43707338 -5.21484375 54.84765625 C3.44283728 61.26243519 11.50236081 68.10022198 18.5625 76.25 C25.06864685 83.59471689 32.78189736 88.56447097 42 92 C39.09855635 85.22996481 35.3793592 80.9697086 30 76 C24.39332137 70.66030607 20.05080943 64.95512914 16.3125 58.1875 C7.26451662 42.95246371 -9.67399879 32.78025083 -24 23 C-23.34 21.68 -22.68 20.36 -22 19 C-16.02580484 20.47676734 -11.77319322 23.74350915 -6.9375 27.375 C-6.10130127 27.99987305 -5.26510254 28.62474609 -4.40356445 29.26855469 C14.93824739 43.91643676 14.93824739 43.91643676 20.6171875 54.4921875 C24.90564041 62.26955124 30.53816721 68.96370254 37 75 C39.33333333 77.33333333 41.66666667 79.66666667 44 82 C43.62741573 75.48694034 42.12239109 71.97058891 38.25 66.8125 C33.11755869 59.56830612 29.71303068 52.24996649 27.35546875 43.6484375 C23.79929515 31.02975697 13.80491606 21.26833269 5 12 C3.59367112 10.48886672 2.1962135 8.96936868 0.8125 7.4375 C-0.01314453 6.53837891 -0.01314453 6.53837891 -0.85546875 5.62109375 C-2 4 -2 4 -2 1 C-1.34 0.67 -0.68 0.34 0 0 Z " fill="#532505" transform="translate(155,140)"/>
<path d="M0 0 C2.91174859 1.32710455 5.08924444 2.79686493 7.42578125 4.9765625 C8.05387695 5.56050781 8.68197266 6.14445313 9.32910156 6.74609375 C10.31088379 7.67615234 10.31088379 7.67615234 11.3125 8.625 C11.98893555 9.26308594 12.66537109 9.90117187 13.36230469 10.55859375 C17.85840365 14.83478666 22.12266023 19.14897849 26 24 C26.89317387 25.08077487 27.78640891 26.16149918 28.6796875 27.2421875 C36.46935574 36.7769184 41.29459111 45.59452479 44.98364258 57.38232422 C47.02734702 63.62200191 50.21601281 68.68803698 54 74 C57.81122919 79.57377962 59.13028056 83.0951303 59 90 C56 87 53 84 50 81 C49.31550781 80.36191406 48.63101563 79.72382813 47.92578125 79.06640625 C41.50512485 72.9509763 37.09167091 66.32054994 32.65625 58.6875 C21.54616287 40.60131165 -0.27686797 28.6966587 -18 18 C-16.36603288 13.5786772 -12.97614635 10.94168557 -9.5625 7.875 C-8.97662109 7.33746094 -8.39074219 6.79992187 -7.78710938 6.24609375 C-5.25456286 3.94064278 -2.86140011 1.90760008 0 0 Z " fill="#F7C06E" transform="translate(141,134)"/>
<path d="M0 0 C6.68752905 5.53295565 11.44252886 12.78975705 12.7421875 21.44140625 C12.808161 23.54464159 12.82780995 25.64976349 12.8046875 27.75390625 C12.79566406 28.82253906 12.78664063 29.89117187 12.77734375 30.9921875 C12.76574219 31.80042969 12.75414062 32.60867187 12.7421875 33.44140625 C11.0103944 31.1730012 9.43127518 28.93751388 7.9296875 26.50390625 C2.42728976 18.80054942 -4.55637913 16.34188404 -13.2578125 13.44140625 C-29.98909742 11.87026417 -45.49052288 14.36887646 -61.58666992 18.77709961 C-64.46076855 19.49188092 -67.33197159 19.9888626 -70.2578125 20.44140625 C-71.21907153 19.02672314 -72.17669575 17.60956985 -73.1328125 16.19140625 C-73.93332031 15.00804687 -73.93332031 15.00804687 -74.75 13.80078125 C-78.2578125 8.31187257 -78.2578125 8.31187257 -78.2578125 4.44140625 C-19.85617508 -13.80045363 -19.85617508 -13.80045363 0 0 Z " fill="#FCAA72" transform="translate(370.2578125,39.55859375)"/>
<path d="M0 0 C1.34350586 1.72387695 1.34350586 1.72387695 2.71484375 3.98828125 C3.23014648 4.8297168 3.74544922 5.67115234 4.27636719 6.53808594 C4.82454102 7.45364258 5.37271484 8.36919922 5.9375 9.3125 C6.51016602 10.25512695 7.08283203 11.19775391 7.67285156 12.16894531 C8.86701784 14.1377769 10.05722504 16.10901474 11.24365234 18.08251953 C12.88629916 20.8111308 14.54386776 23.52995506 16.20703125 26.24609375 C30.72104112 50.03800287 46.08296 76.01213995 44 105 C42.35 105 40.7 105 39 105 C38.79246094 104.1028125 38.58492188 103.205625 38.37109375 102.28125 C31.86434542 75.92755803 17.09874294 54.72272491 0.41308594 33.78076172 C-1.04340746 31.9452982 -2.48812629 30.10111608 -3.9296875 28.25390625 C-4.89059255 27.02341216 -5.85152947 25.79294296 -6.8125 24.5625 C-7.27108398 23.9749292 -7.72966797 23.3873584 -8.20214844 22.78198242 C-10.61314215 19.70924226 -13.08309894 16.72258194 -15.6875 13.8125 C-18 11 -18 11 -18 8 C-15.58671111 6.25459549 -13.24994119 4.74181608 -10.6875 3.25 C-9.99720703 2.82589844 -9.30691406 2.40179688 -8.59570312 1.96484375 C-3.38284509 -1.12761503 -3.38284509 -1.12761503 0 0 Z " fill="#F7C06E" transform="translate(222,79)"/>
<path d="M0 0 C3 1 3 1 4.38671875 2.87890625 C13.22558205 21.11403864 7.90972938 43.9230756 1.62182617 62.19677734 C-3.92516427 77.64633403 -11.8456023 91.80530771 -20 106 C-20.66 106 -21.32 106 -22 106 C-35 76.03225806 -35 76.03225806 -35 68 C-34.16597656 67.78085938 -33.33195312 67.56171875 -32.47265625 67.3359375 C-21.33055434 64.19623868 -12.65111305 59.72524628 -6 50 C-0.48225165 39.62156108 -0.40012012 30.25333555 -0.75 18.8125 C-0.8000775 16.42394793 -0.8428901 14.03541324 -0.88165283 11.64665222 C-0.90795247 10.17408182 -0.94209215 8.70162514 -0.98504639 7.22944641 C-1.10844692 2.21689384 -1.10844692 2.21689384 0 0 Z " fill="#F6536D" transform="translate(405,77)"/>
<path d="M0 0 C11.18957392 21.89028297 11.18957392 21.89028297 13.4375 32.5 C15.30644788 41.09716023 19.23943459 48.07862051 23.984375 55.40625 C26.60518117 59.51889968 26.54032892 63.22349236 26 68 C24.66686069 72.44169162 23.31470813 76.68529187 20 80 C12.00393393 79.83341529 3.60995703 75.60995703 -2 70 C-6.11878105 64.58771746 -9.35535088 58.68683095 -12.5078125 52.67578125 C-15.76975551 46.82648554 -19.21258238 42.72025653 -24.25 38.4375 C-30.4654702 32.90844915 -35.96871759 26.87539058 -39 19 C-38.6953125 15.11328125 -38.6953125 15.11328125 -38 12 C-36.15234375 12.20703125 -36.15234375 12.20703125 -34 13 C-32.69140625 15.07421875 -32.69140625 15.07421875 -31.5625 17.6875 C-30.04154751 20.989195 -28.5897354 23.7652518 -26.1875 26.5 C-24 29 -24 29 -24 31 C-23.13955078 31.38091797 -23.13955078 31.38091797 -22.26171875 31.76953125 C-11.94447377 37.38254018 -6.35195714 48.96371551 -0.96875 58.90429688 C2.87332777 65.8892237 7.70619006 69.79783954 15 73 C13.48835727 67.55808619 11.59253252 64.29633051 7.6875 60.1875 C1.69572268 53.82610005 -2.06731638 47.02231671 -4.8125 38.75 C-8.1894995 28.9015956 -14.29166921 19.45006321 -21.1015625 11.61328125 C-22 10 -22 10 -21.8359375 7.85546875 C-21.56007813 7.24316406 -21.28421875 6.63085938 -21 6 C-20.01 5.67 -19.02 5.34 -18 5 C-9.078803 17.54562195 -1.14066498 29.6394449 4.3125 44.125 C6.76375803 50.25314509 10.46413145 54.61692801 14.79296875 59.50390625 C17 62 17 62 19 65 C18.83758829 57.69147303 14.97281705 52.91850194 11 47 C8.61386044 43.1328083 7.80106839 39.99907146 7.1875 35.5625 C5.54170675 24.59961272 0.64172577 14.57772958 -4.8984375 5.07421875 C-6 3 -6 3 -6 1 C-4 0 -4 0 0 0 Z " fill="#532505" transform="translate(301,61)"/>
<path d="M0 0 C2.59277877 2.58335049 5.17155395 5.17597798 7.7265625 7.796875 C15.41497947 15.65996857 23.5567856 22.62052678 32.3046875 29.28125 C47.98461916 41.2503743 63.64498668 53.98916075 69 74 C69.09375 76.78125 69.09375 76.78125 69 79 C66.11016753 76.19773821 63.44619064 73.34782005 60.875 70.25 C50.89777196 58.81059198 37.94102895 51.14406237 24.25 45 C11.62537134 39.26229132 4.2636045 30.17453468 -4.07421875 19.29296875 C-5.97122714 16.81666871 -5.97122714 16.81666871 -9 15 C-8.4887988 10.49656089 -6.82478642 8.12474574 -3.9375 4.6875 C-3.20402344 3.80449219 -2.47054687 2.92148438 -1.71484375 2.01171875 C-1.14894531 1.34785156 -0.58304688 0.68398437 0 0 Z " fill="#F8C16F" transform="translate(68,205)"/>
<path d="M0 0 C6.14621761 -0.40612175 10.89002132 1.01228382 16.65234375 3.0625 C18.00254356 3.52861694 18.00254356 3.52861694 19.38002014 4.00415039 C22.2361229 4.99271603 25.08675836 5.99609233 27.9375 7 C29.88051665 7.67546583 31.82387289 8.34995566 33.76757812 9.0234375 C38.5157244 10.67101895 43.25902629 12.33189722 48 14 C35.27379103 24.06006908 16.45354223 27.41635931 1 31 C0.2682959 31.17934082 -0.4634082 31.35868164 -1.21728516 31.54345703 C-13.15615066 34.44812907 -24.79121621 34.36656134 -37 34 C-37.76973145 33.98453125 -38.53946289 33.9690625 -39.33251953 33.953125 C-48.74932913 33.7498388 -57.12583561 32.2670297 -66 29 C-66 28.34 -66 27.68 -66 27 C-59.60985214 26.65902373 -55.75901407 27.05650392 -50 30 C-45.9864305 29.85134928 -43.16016916 29.07039621 -39.48046875 27.453125 C-34.25270762 25.46016164 -29.21043569 25.70596804 -23.6875 25.875 C-21.7331632 25.91834472 -19.77873005 25.95759438 -17.82421875 25.9921875 C-16.54164185 26.02868408 -16.54164185 26.02868408 -15.2331543 26.06591797 C-12.82642967 26.10219832 -12.82642967 26.10219832 -10 25 C-9.30622969 23.02275461 -8.63005818 21.03812615 -8.02734375 19.03125 C-6.68176699 15.06103112 -5.01067225 11.26769956 -3.3125 7.4375 C-2.99055664 6.71038818 -2.66861328 5.98327637 -2.33691406 5.23413086 C-1.5610558 3.48803398 -0.78097255 1.74381542 0 0 Z " fill="#F7536D" transform="translate(134,347)"/>
<path d="M0 0 C3.18459646 1.51992104 5.73579966 3.28295959 8 6 C9.35312842 10.05938526 9.98813099 13.88667033 8.10766602 17.90844727 C7.74342529 18.62057373 7.37918457 19.3327002 7.00390625 20.06640625 C3.46753296 28.62563635 4.5339122 38.31035271 4.66015625 47.40869141 C4.80712212 60.93742496 3.0613028 70.32752059 -6 81 C-11.57319161 85.19885014 -17.16571963 87.73439252 -24 89 C-21.70629514 81.96765214 -19.19371131 75.0338211 -16.60546875 68.10546875 C-15.72684452 65.74053744 -14.85976447 63.37184952 -14 61 C-13.73276123 60.26894043 -13.46552246 59.53788086 -13.19018555 58.78466797 C-8.71846558 46.05235369 -6.63994092 32.09627298 -6.625 18.625 C-6.62346924 17.8839502 -6.62193848 17.14290039 -6.62036133 16.37939453 C-6.72807644 11.07307133 -7.69184059 6.13478912 -9 1 C-5.93570224 -0.53214888 -3.3834358 -0.22938548 0 0 Z " fill="#AECB43" transform="translate(395,51)"/>
<path d="M0 0 C4.2741089 0.91479906 7.59341384 2.9994289 11.25 5.3125 C11.94947754 5.75327881 12.64895508 6.19405762 13.36962891 6.64819336 C30.34042183 17.51139701 47.37010589 29.85666771 57.51171875 47.59765625 C58.96777829 49.94798858 60.54210275 51.93530778 62.375 54 C65 57 65 57 65 59 C65.58652344 59.26167969 66.17304688 59.52335937 66.77734375 59.79296875 C71.96906024 62.6123719 76.48904281 67.6826789 79 73 C79 73.99 79 74.98 79 76 C67.5745256 73.00315426 58.02266868 65.63986675 50.734375 56.39453125 C45.94941047 50.32685032 39.80777254 45.96498931 33.70703125 41.30615234 C6.15712097 20.22605795 6.15712097 20.22605795 2 9 C1.443125 8.154375 0.88625 7.30875 0.3125 6.4375 C-1 4 -1 4 -0.6875 1.6875 C-0.460625 1.130625 -0.23375 0.57375 0 0 Z " fill="#FAF0BF" transform="translate(118,156)"/>
<path d="M0 0 C4.32584603 2.27676107 7.35750416 5.25659971 10.5625 8.875 C11.03107422 9.39191406 11.49964844 9.90882813 11.98242188 10.44140625 C14.10082651 12.79387238 16.13443607 15.17342507 18.07421875 17.67578125 C23.25941961 23.93378229 30.75252132 27.49570874 37.9375 31 C55.54598473 39.59849272 70.98119112 50.81622477 81 68 C53.07863699 67.02543236 34.0915621 46.10722874 16 27 C12.7834585 23.4915984 9.81648237 19.83803438 7 16 C5.83984375 14.42025391 5.83984375 14.42025391 4.65625 12.80859375 C-1.07963273 4.64674692 -1.07963273 4.64674692 -0.7109375 1.65234375 C-0.47632813 1.10707031 -0.24171875 0.56179687 0 0 Z " fill="#F9EFBF" transform="translate(55,224)"/>
<path d="M0 0 C1.59643555 1.5378418 1.59643555 1.5378418 3.13671875 3.69921875 C3.70962646 4.48981689 4.28253418 5.28041504 4.87280273 6.0949707 C5.77107788 7.37827271 5.77107788 7.37827271 6.6875 8.6875 C7.30890869 9.55656982 7.93031738 10.42563965 8.57055664 11.32104492 C9.81791172 13.07018906 11.05945428 14.82349395 12.29492188 16.58105469 C13.73484356 18.62383019 15.19472213 20.6481968 16.671875 22.6640625 C23.13217539 31.64165235 28.18617405 41.00106212 32.0625 51.375 C34.30475307 57.19915734 37.94334618 61.53454409 41.90625 66.28515625 C47.86140685 73.59486722 47.86140685 73.59486722 48 79 C42.09245048 77.67080136 37.98390927 74.42746192 34 70 C32.59848974 67.6825421 31.27864729 65.38192133 30 63 C24.63078799 53.26945303 19.27550579 45.53564269 11 38 C1.62785051 29.01125662 -5.55394817 16.29974224 -6.12890625 3.0234375 C-6.08636719 2.35570312 -6.04382813 1.68796875 -6 1 C-4 0 -4 0 0 0 Z " fill="#F9EFBE" transform="translate(268,55)"/>
<path d="M0 0 C0.86883706 1.57533086 1.71959068 3.16064509 2.5625 4.75 C3.03816406 5.63171875 3.51382813 6.5134375 4.00390625 7.421875 C5 10 5 10 5.0546875 12.03125 C3.36062944 15.19349171 0.48802393 16.82885381 -2.4375 18.75 C-3.03626953 19.16121094 -3.63503906 19.57242188 -4.25195312 19.99609375 C-8.70791373 23 -8.70791373 23 -11 23 C-11.226875 23.61875 -11.45375 24.2375 -11.6875 24.875 C-13 27 -13 27 -15.21484375 27.86328125 C-18.56362023 29.23003294 -21.01507244 31.10255598 -23.875 33.3125 C-28.19998074 36.62297909 -32.54792884 39.8633135 -37 43 C-41.29238623 41.34908222 -43.8793915 38.26245434 -47 35 C-45.4617036 30.85328797 -42.47476568 28.70646974 -39.0625 26.125 C-38.45639893 25.65811768 -37.85029785 25.19123535 -37.22583008 24.71020508 C-31.92154893 20.64759135 -26.55708233 16.66320377 -21.1875 12.6875 C-20.41220947 12.11338379 -19.63691895 11.53926758 -18.83813477 10.94775391 C-14.96801203 8.10475129 -11.06657175 5.30835585 -7.11328125 2.58203125 C-6.39567627 2.08550049 -5.67807129 1.58896973 -4.9387207 1.07739258 C-3 0 -3 0 0 0 Z " fill="#FDAB72" transform="translate(194,96)"/>
<path d="M0 0 C3.61524247 3.53071342 6.99353282 7.19621409 10.25 11.0625 C10.72816162 11.62904297 11.20632324 12.19558594 11.69897461 12.77929688 C15.55674287 17.39041027 19.19508284 22.14109126 22.7578125 26.984375 C24.68674597 29.57868971 26.66897693 32.11923988 28.67797852 34.65161133 C40.36251396 49.47980547 53.19818633 68.20048045 57 87 C56.58984375 89.328125 56.58984375 89.328125 56 91 C49.51651242 86.36893744 46.45137858 80.41670796 42.640625 73.55078125 C39.85154316 68.68555703 36.80433506 64.49192452 33.125 60.25 C28.35091257 54.68847064 24.7174562 48.83953642 21.26074219 42.359375 C19.722814 39.48126927 18.16171899 36.6161158 16.6015625 33.75 C0 3.15369583 0 3.15369583 0 0 Z " fill="#F8EEBE" transform="translate(198,91)"/>
<path d="M0 0 C1.71411133 2.52172852 1.71411133 2.52172852 3.58203125 5.87890625 C4.08478073 6.77805 4.08478073 6.77805 4.59768677 7.69535828 C5.68121515 9.64476367 6.74829545 11.60248582 7.8125 13.5625 C8.3554924 14.55449402 8.3554924 14.55449402 8.90945435 15.56652832 C21.94267827 39.43479365 21.94267827 39.43479365 22.53515625 51.7109375 C23.77940338 57.83807041 27.74906554 64.2476973 31.68359375 69.05859375 C33.34458397 71.50818466 33.49453033 73.31686106 33.6875 76.25 C33.78611328 77.58804688 33.78611328 77.58804688 33.88671875 78.953125 C33.94279297 79.96632812 33.94279297 79.96632812 34 81 C33.57332031 80.42636719 33.14664063 79.85273437 32.70703125 79.26171875 C31.06467359 77.0856888 29.38052731 74.94921722 27.6875 72.8125 C26.45393639 71.211712 25.2246984 69.60758055 24 68 C23.49082031 67.34386719 22.98164063 66.68773438 22.45703125 66.01171875 C18.98789474 61.2218922 16.82283395 56.28285496 14.6875 50.8125 C9.29801325 37.14534489 0.54665123 25.81500035 -8.08203125 14.03125 C-10.48193692 10.74366558 -12.77350227 7.40713453 -15 4 C-13.06767179 3.13419713 -11.12892806 2.28270059 -9.1875 1.4375 C-8.10855469 0.96183594 -7.02960938 0.48617187 -5.91796875 -0.00390625 C-3 -1 -3 -1 0 0 Z " fill="#F4BE6D" transform="translate(287,48)"/>
<path d="M0 0 C6.29597173 1.29148138 10.79212394 5.32925757 15 10 C16.265625 12.76171875 16.265625 12.76171875 17 15 C17.66 15 18.32 15 19 15 C19 15.66 19 16.32 19 17 C19.54011719 16.6803125 20.08023437 16.360625 20.63671875 16.03125 C25.22354132 14.02972743 30.11851556 14.25980105 35 15 C39.26575683 17.26136506 42.29537367 20.45987329 44 25 C43.96389121 26.79432893 43.85152891 28.58781936 43.6875 30.375 C43.52827706 37.22996639 46.14342565 41.99389001 49.30859375 47.81640625 C53.15318173 55.05275545 53.26688678 61.93408851 53 70 C53.69480469 70.226875 54.38960938 70.45375 55.10546875 70.6875 C58.63939182 72.28992666 61.3933174 74.49433958 64.3125 77 C64.88355469 77.48911865 65.45460938 77.9782373 66.04296875 78.48217773 C78.08942557 89.04497167 84.19460921 99.84213037 85.640625 115.65625 C85.7891611 118.86921657 85.7891611 118.86921657 87 121 C87.825 121.04125 88.65 121.0825 89.5 121.125 C95.76531255 122.69132814 100.24359282 127.22213617 103.65234375 132.61328125 C106.43978441 138.06696951 108.23487858 142.59543796 107.87890625 148.765625 C107.83056641 149.65507812 107.78222656 150.54453125 107.73242188 151.4609375 C107.67634766 152.38132813 107.62027344 153.30171875 107.5625 154.25 C107.51029297 155.18585938 107.45808594 156.12171875 107.40429688 157.0859375 C107.27493175 159.39098887 107.13997966 161.69557289 107 164 C106.67 164 106.34 164 106 164 C105.96261719 162.80503906 105.92523438 161.61007813 105.88671875 160.37890625 C105.61566063 148.34308359 105.61566063 148.34308359 102 137 C101.66097656 136.29617187 101.32195312 135.59234375 100.97265625 134.8671875 C97.54609554 128.61400263 92.71050974 125.23683658 86 123 C85.34 124.98 84.68 126.96 84 129 C83.67 129 83.34 129 83 129 C83 127.35 83 125.7 83 124 C82.34 123.67 81.68 123.34 81 123 C81.04640625 122.04480469 81.0928125 121.08960938 81.140625 120.10546875 C81.52675081 106.27389079 78.47805823 97.40694234 69 87 C67.95005859 85.84564453 67.95005859 85.84564453 66.87890625 84.66796875 C63.18997077 80.79772453 61.143884 79.0575536 56 77 C55.34 80.96 54.68 84.92 54 89 C53.67 89 53.34 89 53 89 C52.86722656 88.09636719 52.73445313 87.19273438 52.59765625 86.26171875 C52.42105469 85.08222656 52.24445313 83.90273437 52.0625 82.6875 C51.88847656 81.51574219 51.71445312 80.34398438 51.53515625 79.13671875 C51.07906969 75.98358597 51.07906969 75.98358597 50 73 C49.92557536 71.10010429 49.85456114 69.19992687 49.81103516 67.29907227 C49.57998248 58.832378 48.50473857 51.40808164 44 44 C43.01 43.34 42.02 42.68 41 42 C41 41.34 41 40.68 41 40 C40.01 39.67 39.02 39.34 38 39 C38.33 38.154375 38.66 37.30875 39 36.4375 C40.38826182 31.66534998 40.81215799 27.88078694 38.8125 23.25 C36.63983568 20.55289946 35.21907121 19.32961637 32 18 C28.97755968 17.76633235 26.02381569 17.85297986 23 18 C23.21438721 18.53294678 23.42877441 19.06589355 23.6496582 19.61499023 C25.87064645 25.58999821 26.37921456 30.72608813 26.1875 37.0625 C26.16719727 38.3609082 26.16719727 38.3609082 26.14648438 39.68554688 C26.1115933 41.79064174 26.05780665 43.89540974 26 46 C25.67 46 25.34 46 25 46 C24.67 43.03 24.34 40.06 24 37 C22.68 37.66 21.36 38.32 20 39 C19.92523438 37.90042969 19.85046875 36.80085938 19.7734375 35.66796875 C18.86139151 24.65479506 17.0482367 15.35504005 8.5625 7.5 C5.27545253 4.9613428 1.88659153 3.4277275 -2 2 C-1.34 1.34 -0.68 0.68 0 0 Z " fill="#642D03" transform="translate(363,34)"/>
<path d="M0 0 C0.61875 0.680625 1.2375 1.36125 1.875 2.0625 C14.12275409 14.20675194 29.02504942 18.41578302 45.83959961 18.3684082 C59.69875812 18.01940072 72.14046413 13.96259163 84.71875 8.390625 C88 7 88 7 90 7 C89.37183502 10.94949704 88.1354471 14.19892028 86.4375 17.8125 C85.98246094 18.78832031 85.52742188 19.76414062 85.05859375 20.76953125 C84.53458984 21.87361328 84.53458984 21.87361328 84 23 C83.13890625 22.84015625 82.2778125 22.6803125 81.390625 22.515625 C72.28992807 21.13164805 63.56876268 21.46630086 55 25 C54.505 25.495 54.505 25.495 54 26 C50.16447227 26.38355277 47.91448846 25.96450636 44.3203125 24.47265625 C39.90456867 22.95131838 35.77105457 22.80782364 31.1484375 22.91796875 C30.08662262 22.94272781 30.08662262 22.94272781 29.00335693 22.96798706 C26.04532123 23.05106215 23.08906506 23.15554434 20.1328125 23.2878418 C6.02190866 23.87734337 6.02190866 23.87734337 1.5703125 20.1328125 C-1.38174339 16.91372661 -3.04850426 14.28374209 -2.953125 9.79296875 C-2.61156283 5.72706521 -2.31247846 3.46871769 0 0 Z " fill="#A0BB3E" transform="translate(35,346)"/>
<path d="M0 0 C0.58265625 0.20496094 1.1653125 0.40992188 1.765625 0.62109375 C8.50503996 2.83577571 14.92947835 3.64768878 22 4 C18.44179634 20.60495042 9.51308261 36.49422128 -4 47 C-4.0501139 42.66244955 -4.08605039 38.32506056 -4.10986328 33.98730469 C-4.11980927 32.51722267 -4.13337091 31.04715984 -4.15087891 29.57714844 C-4.41702984 6.62554475 -4.41702984 6.62554475 0 0 Z " fill="#F7536D" transform="translate(250,269)"/>
<path d="M0 0 C2.52131344 1.16522852 3.3417147 2.4195562 4.7734375 4.78125 C5.21300781 5.47992188 5.65257812 6.17859375 6.10546875 6.8984375 C6.9609375 8.90625 6.9609375 8.90625 5.9609375 11.90625 C4.5703125 13.30859375 4.5703125 13.30859375 2.7109375 14.84375 C-1.1353689 18.10204193 -4.84952248 21.47341523 -8.5390625 24.90625 C-12.1098278 28.2261933 -15.69502779 31.50158242 -19.4140625 34.65625 C-23.36197756 38.05817681 -26.71295032 41.90452128 -30.0390625 45.90625 C-34.83186252 45.09720897 -36.17426363 42.64640409 -39.0390625 38.90625 C-36.25086724 34.50418172 -33.17540054 30.64286957 -29.6015625 26.84375 C-28.82474121 26.01109619 -28.82474121 26.01109619 -28.03222656 25.16162109 C-22.18071616 18.92970992 -16.17089453 12.86182037 -10.0390625 6.90625 C-9.22824219 6.1121875 -8.41742188 5.318125 -7.58203125 4.5 C-6.88722656 3.8503125 -6.19242188 3.200625 -5.4765625 2.53125 C-4.89777344 1.98726562 -4.31898437 1.44328125 -3.72265625 0.8828125 C-2.0390625 -0.09375 -2.0390625 -0.09375 0 0 Z " fill="#FDAB72" transform="translate(111.0390625,162.09375)"/>
<path d="M0 0 C0.50980881 1.70543184 1.00738268 3.41452318 1.5 5.125 C1.7784375 6.07632813 2.056875 7.02765625 2.34375 8.0078125 C3 11 3 11 3 17 C-9.375 22.94 -9.375 22.94 -22 29 C-24.47465284 25.90668395 -26.67832574 23.11822714 -28.75 19.8125 C-29.17796875 19.13832031 -29.6059375 18.46414062 -30.046875 17.76953125 C-31 16 -31 16 -31 14 C-27.23349704 11.99566603 -23.4615017 10.00220605 -19.68408203 8.01855469 C-18.40029714 7.34246903 -17.11805005 6.66345479 -15.83740234 5.98144531 C-13.99454484 5.00068484 -12.14638316 4.03064752 -10.296875 3.0625 C-9.18666992 2.47597656 -8.07646484 1.88945313 -6.93261719 1.28515625 C-4 0 -4 0 0 0 Z " fill="#FDAA71" transform="translate(257,60)"/>
<path d="M0 0 C3.26464457 3.3528782 4.88908846 5.77997302 5.3125 10.4375 C5.21104808 16.6147948 3.31468022 22.84483071 -0.35546875 27.84765625 C-3.05064498 30.44167305 -4.91436783 30.99557075 -8.625 31.1875 C-12 30 -12 30 -14.4375 27.5625 C-16.90802257 21.92970853 -17.08667444 17.10860147 -15.046875 11.2734375 C-11.91554623 4.55495361 -8.33653235 -1.59635726 0 0 Z " fill="#552606" transform="translate(190,120)"/>
<path d="M0 0 C3.98607969 0.83043327 5.46255435 2.50756677 8 5.625 C10.06502086 11.82006258 9.59872527 17.03314802 6.8125 22.9375 C4.71737499 26.7052038 2.95928007 29.64535997 -1 31.625 C-4.5625 31.8125 -4.5625 31.8125 -8 30.625 C-11.55496124 26.24966309 -12.66459187 22.57589088 -12.38671875 16.9609375 C-11.21059946 9.85670181 -7.61091983 1.5856083 0 0 Z " fill="#572807" transform="translate(188,253.375)"/>
<path d="M0 0 C6.40701599 2.19885756 11.43768734 5.181556 15 11 C15.5625 14.125 15.5625 14.125 15 17 C12.75680132 19.7666117 10.7916634 21.72970595 7.1875 22.2734375 C-0.17422108 22.61523169 -6.08419155 20.27488016 -11.7421875 15.54296875 C-14.02589767 13.09797962 -14.97120034 11.15999809 -15.5625 7.875 C-14.87629917 4.36775132 -13.76519697 3.19589172 -11 1 C-7.46582777 -0.76708611 -3.85840923 -0.51445456 0 0 Z " fill="#582908" transform="translate(234,197)"/>
<path d="M0 0 C3.92005077 0.70560914 6.44407788 1.64785646 9.125 4.5625 C13.19090903 10.87487018 16.56188649 16.9861894 15.125 24.5625 C13.72350024 27.31819152 12.55683032 28.44786494 10.125 30.5625 C6.89724621 31.40452273 5.23742598 31.18642587 2.328125 29.5546875 C-3.54865963 25.15965626 -6.15617481 19.24597958 -7.25390625 12.09375 C-7.45576032 8.18689708 -7.10719267 6.00009388 -5.25 2.5 C-2.875 0.5625 -2.875 0.5625 0 0 Z " fill="#552606" transform="translate(335.875,53.4375)"/>
<path d="M0 0 C5.38145958 2.09986007 9.8459991 5.11412516 12.5625 10.33984375 C12.75 14.08984375 12.75 14.08984375 11.5625 17.33984375 C8.5464162 20.45646368 5.40521219 20.59292379 1.25 20.77734375 C-5.73003405 20.5706671 -9.96284709 18.19583343 -15.4375 14.08984375 C-17.41891378 11.3653998 -17.83631171 10.48564602 -18.0625 7.27734375 C-17.4375 3.33984375 -17.4375 3.33984375 -15.5625 0.83984375 C-10.36778499 -1.65361946 -5.52263235 -1.49571293 0 0 Z " fill="#522405" transform="translate(113.4375,196.66015625)"/>
<path d="M0 0 C2.875 1.625 2.875 1.625 5 5 C5.99630707 11.51616961 6.21192243 17.92415876 2.6875 23.6875 C1.38671875 25.44921875 1.38671875 25.44921875 0 27 C-0.46921875 27.55300781 -0.9384375 28.10601562 -1.421875 28.67578125 C-3.75849562 30.63646043 -6.10543929 30.54290552 -9.05859375 30.390625 C-11 30 -11 30 -13.5 28.25 C-16.21937704 22.3580164 -16.09863135 16.22207298 -14.01171875 10.1015625 C-10.94424294 3.62472503 -7.89455381 -1.28890674 0 0 Z " fill="#532505" transform="translate(315,157)"/>
<path d="M0 0 C4.66193048 2.17281716 8.89938043 4.29876086 11.2734375 9.046875 C11.3359375 12.671875 11.3359375 12.671875 10.2734375 16.046875 C5.5439628 19.70456227 1.28921352 19.60218472 -4.4921875 19.46484375 C-10.56730526 18.67977418 -13.97738194 15.71072967 -18.2890625 11.609375 C-19.7265625 9.046875 -19.7265625 9.046875 -19.8515625 5.984375 C-16.62141534 -2.44989814 -7.4502927 -2.60440031 0 0 Z " fill="#532405" transform="translate(64.7265625,303.953125)"/>
<path d="M0 0 C4.62036791 1.43011388 7.55649455 4.0540823 10.875 7.4375 C11.39876221 7.96593506 11.92252441 8.49437012 12.4621582 9.03881836 C20.10085833 16.96773011 25.19806818 24.51876745 25.0625 35.6875 C25.05798828 36.38939453 25.05347656 37.09128906 25.04882812 37.81445312 C25.03706927 39.54300538 25.01913454 41.27151365 25 43 C23.00294696 40.51813898 21.02297568 38.03028827 19.09765625 35.4921875 C13.20635343 27.91603992 5.73046998 19.36523499 -3 15 C-2.69257097 12.68682039 -2.37892298 10.37446648 -2.0625 8.0625 C-1.88847656 6.77472656 -1.71445312 5.48695312 -1.53515625 4.16015625 C-1 1 -1 1 0 0 Z " fill="#C4DA56" transform="translate(419,110)"/>
<path d="M0 0 C5.41457246 0.33841078 9.2883945 3.26664681 13 7 C17.97825495 14.32790546 20.15957156 20.47898771 20.0625 29.3125 C20.05347656 30.38113281 20.04445313 31.44976562 20.03515625 32.55078125 C20.02355469 33.35902344 20.01195312 34.16726562 20 35 C19.46375 34.319375 18.9275 33.63875 18.375 32.9375 C17.59125 31.968125 16.8075 30.99875 16 30 C15.61070312 29.44570312 15.22140625 28.89140625 14.8203125 28.3203125 C10.41399789 22.45391731 4.60282258 19.91678085 -2 17 C-2.05441656 15.10448978 -2.09298035 13.2085208 -2.125 11.3125 C-2.14820313 10.25675781 -2.17140625 9.20101562 -2.1953125 8.11328125 C-1.99858729 4.97748141 -1.33057654 2.82354627 0 0 Z " fill="#FDAA72" transform="translate(449,157)"/>
<path d="M0 0 C4.29238623 1.65091778 6.8793915 4.73754566 10 8 C8.49483965 11.7798128 6.31698386 13.60457771 3.125 16.0625 C2.26132813 16.73410156 1.39765625 17.40570313 0.5078125 18.09765625 C-0.31976563 18.72542969 -1.14734375 19.35320312 -2 20 C-2.71800781 20.5775 -3.43601563 21.155 -4.17578125 21.75 C-6 23 -6 23 -8.3125 22.9375 C-11.85540622 21.70160248 -14.79297334 19.94936915 -18 18 C-16.36603288 13.5786772 -12.97614635 10.94168557 -9.5625 7.875 C-8.97662109 7.33746094 -8.39074219 6.79992187 -7.78710938 6.24609375 C-5.25456286 3.94064278 -2.86140011 1.90760008 0 0 Z " fill="#FAD28E" transform="translate(141,134)"/>
<path d="M0 0 C1.60546875 1.92578125 1.60546875 1.92578125 3.1875 4.3125 C3.71730469 5.09238281 4.24710938 5.87226562 4.79296875 6.67578125 C6 9 6 9 6 13 C1.38 15.64 -3.24 18.28 -8 21 C-12.2244093 17.62047256 -14.86542494 15.20928651 -18 11 C-18 10.01 -18 9.02 -18 8 C-15.58671111 6.25459549 -13.24994119 4.74181608 -10.6875 3.25 C-9.99720703 2.82589844 -9.30691406 2.40179688 -8.59570312 1.96484375 C-3.38284509 -1.12761503 -3.38284509 -1.12761503 0 0 Z " fill="#F9D18D" transform="translate(222,79)"/>
<path d="M0 0 C2.5625 2.1875 2.5625 2.1875 5 5 C4.86103317 9.88989536 1.95926839 13.61666657 -0.5625 17.625 C-7.56497879 29.11058063 -12.33293322 41.4260372 -17 54 C-17.33 54 -17.66 54 -18 54 C-19.4385616 36.37762034 -9.25330037 16.11968249 -1 1 C-0.67 0.67 -0.34 0.34 0 0 Z " fill="#FAA870" transform="translate(50,233)"/>
<path d="M0 0 C-0.62816498 3.94949704 -1.8645529 7.19892028 -3.5625 10.8125 C-4.01753906 11.78832031 -4.47257812 12.76414062 -4.94140625 13.76953125 C-5.46541016 14.87361328 -5.46541016 14.87361328 -6 16 C-6.85722656 15.83757812 -7.71445313 15.67515625 -8.59765625 15.5078125 C-11.93607929 15.0095404 -15.06508886 14.86690297 -18.4375 14.875 C-19.50871094 14.87242187 -20.57992187 14.86984375 -21.68359375 14.8671875 C-25.03230931 14.92772807 -25.03230931 14.92772807 -28.4140625 15.59765625 C-32.59607169 16.0668795 -35.87890318 15.49848651 -39.9375 14.5625 C-40.62134766 14.41490234 -41.30519531 14.26730469 -42.00976562 14.11523438 C-43.67551872 13.75412706 -45.33812923 13.37857288 -47 13 C-47 12.67 -47 12.34 -47 12 C-46.09121094 11.90203125 -45.18242188 11.8040625 -44.24609375 11.703125 C-30.4504165 10.06179314 -17.74026916 6.57331313 -4.94921875 1.171875 C-2 0 -2 0 0 0 Z " fill="#ADC942" transform="translate(125,353)"/>
<path d="M0 0 C3.18459646 1.51992104 5.73579966 3.28295959 8 6 C9.88016491 11.64049474 9.19471528 15.5132118 7 21 C2.71 20.34 -1.58 19.68 -6 19 C-7 13 -8 7 -9 1 C-5.93570224 -0.53214888 -3.3834358 -0.22938548 0 0 Z " fill="#C3D956" transform="translate(395,51)"/>
<path d="M0 0 C1.82421875 2.6171875 1.82421875 2.6171875 3.6875 5.875 C4.31011719 6.94492187 4.93273437 8.01484375 5.57421875 9.1171875 C7 12 7 12 7 15 C3.04 15.99 -0.92 16.98 -5 18 C-8.3 13.71 -11.6 9.42 -15 5 C-12.01668605 2.76251454 -10.24674484 1.49973408 -6.9375 0.25 C-6.26589844 -0.01296875 -5.59429687 -0.2759375 -4.90234375 -0.546875 C-3 -1 -3 -1 0 0 Z " fill="#F8CF8C" transform="translate(287,48)"/>
<path d="M0 0 C3.12613393 2.96160056 5.04783565 5.09567131 7 9 C4.03 12.63 1.06 16.26 -2 20 C-4.31 18.35 -6.62 16.7 -9 15 C-8.4887988 10.49656089 -6.82478642 8.12474574 -3.9375 4.6875 C-3.20402344 3.80449219 -2.47054687 2.92148438 -1.71484375 2.01171875 C-1.14894531 1.34785156 -0.58304688 0.68398437 0 0 Z " fill="#F9D08C" transform="translate(68,205)"/>
<path d="M0 0 C2.140625 2.30078125 2.140625 2.30078125 4.25 5.3125 C4.95640625 6.29863281 5.6628125 7.28476562 6.390625 8.30078125 C8 11 8 11 8 14 C3.05 15.485 3.05 15.485 -2 17 C-4.23891142 11.54873741 -5.47606294 6.86809507 -6 1 C-4 0 -4 0 0 0 Z " fill="#F8F1CC" transform="translate(268,55)"/>
<path d="M0 0 C3.09912803 0.21373297 3.99210353 0.99140679 6.125 3.3125 C8.89684114 7.2854723 10.26914723 9.84899434 10.125 14.75 C10.10695313 15.54921875 10.08890625 16.3484375 10.0703125 17.171875 C10.03550781 18.07679687 10.03550781 18.07679687 10 19 C6.96499013 18.66277668 5.25341293 18.19548997 2.8125 16.3125 C-0.90685914 11.56711076 -1.34740608 6.90590332 -1 1 C-0.67 0.67 -0.34 0.34 0 0 Z " fill="#F6ECBB" transform="translate(335,59)"/>
<path d="M0 0 C5.49338316 0.07875818 9.70237357 1.748925 13.8125 5.4375 C14.328125 6.035625 14.84375 6.63375 15.375 7.25 C15.045 8.24 14.715 9.23 14.375 10.25 C7.81085958 10.85529983 3.43658752 10.36258422 -2.12890625 6.734375 C-3.92114066 4.95617898 -4.3321388 3.73675127 -4.625 1.25 C-3.625 0.25 -3.625 0.25 0 0 Z " fill="#F7EDBC" transform="translate(228.625,202.75)"/>
<path d="M0 0 C2.125 0.375 2.125 0.375 4 1 C4.35312069 7.50003644 4.12763464 12.22590528 1 18 C0.34 18.66 -0.32 19.32 -1 20 C-1.99 20 -2.98 20 -4 20 C-5.96120593 16.07758814 -5.5997898 11.07200113 -4.3984375 6.921875 C-3.25076256 4.16281807 -2.12118505 2.12118505 0 0 Z " fill="#F7ECBC" transform="translate(187,259)"/>
<path d="M0 0 C3 1 3 1 4 3 C3.94811678 9.48540297 2.7216579 15.2783421 -2 20 C-2.99 20 -3.98 20 -5 20 C-6.46039926 15.61880222 -6.9497345 11.31357125 -5.17578125 6.9921875 C-3.69648586 4.36355108 -2.13425601 2.13425601 0 0 Z " fill="#F4E9B9" transform="translate(311,162)"/>
<path d="M0 0 C3.875 0.875 3.875 0.875 5 2 C5.61261534 8.0036303 4.13750133 12.01893037 1 17 C0.34 17.66 -0.32 18.32 -1 19 C-3.125 18.625 -3.125 18.625 -5 18 C-5.69328371 10.48172337 -4.67241975 5.97402239 0 0 Z " fill="#F4E9B9" transform="translate(185,126)"/>
<path d="M0 0 C3.3049232 1.38205879 5.47823538 2.47823538 8 5 C8 5.99 8 6.98 8 8 C4.48827715 9.75586142 0.83194209 9.54655275 -3 9 C-6.01421275 7.75856147 -8.72310666 6.35754624 -11 4 C-11 2.68 -11 1.36 -11 0 C-7.51980278 -1.74009861 -3.72422894 -0.71980895 0 0 Z " fill="#F5EABA" transform="translate(62,309)"/>
<path d="M0 0 C6.72337003 -0.56028084 11.4629913 1.27035198 16.796875 5.38671875 C18 7 18 7 17.6875 9.1875 C17.460625 9.785625 17.23375 10.38375 17 11 C9.14233921 10.68942052 4.65702274 9.65702274 -1 4 C-0.625 1.875 -0.625 1.875 0 0 Z " fill="#F4E9B9" transform="translate(102,201)"/>
<path d="M0 0 C3 1 3 1 4.38671875 3.23046875 C7.95886773 11.35093955 8.58676718 18.18545299 8 27 C7.34 26.01 6.68 25.02 6 24 C5.58621094 23.51144531 5.17242187 23.02289063 4.74609375 22.51953125 C-0.39343481 15.8151313 0.10809901 8.09759887 0 0 Z " fill="#F86787" transform="translate(405,77)"/>
<path d="M0 0 C6.20272583 1.88297034 10.71269725 6.23577295 14.15234375 11.67578125 C16.93978441 17.12946951 18.73487858 21.65793796 18.37890625 27.828125 C18.33056641 28.71757812 18.28222656 29.60703125 18.23242188 30.5234375 C18.17634766 31.44382813 18.12027344 32.36421875 18.0625 33.3125 C18.01029297 34.24835938 17.95808594 35.18421875 17.90429688 36.1484375 C17.77493175 38.45348887 17.63997966 40.75807289 17.5 43.0625 C17.17 43.0625 16.84 43.0625 16.5 43.0625 C16.46261719 41.86753906 16.42523438 40.67257813 16.38671875 39.44140625 C16.11566063 27.40558359 16.11566063 27.40558359 12.5 16.0625 C12.16097656 15.35867187 11.82195312 14.65484375 11.47265625 13.9296875 C8.50571136 8.51526282 4.8488373 5.94952934 -0.5 3.0625 C-1.49 2.4025 -2.48 1.7425 -3.5 1.0625 C-2.5 0.0625 -2.5 0.0625 0 0 Z " fill="#71330B" transform="translate(452.5,154.9375)"/>
<path d="M0 0 C6.39014786 -0.34097627 10.24098593 0.05650392 16 3 C19.79114906 2.73854144 23.34523974 2.02333287 27 1 C27.33 2.65 27.66 4.3 28 6 C17.77506877 6.50912521 9.69618393 5.66263946 0 2 C0 1.34 0 0.68 0 0 Z " fill="#D5485B" transform="translate(68,374)"/>
<path d="M0 0 C4.62 0 9.24 0 14 0 C14 0.33 14 0.66 14 1 C11.36 1 8.72 1 6 1 C6.33 1.66 6.66 2.32 7 3 C7.15067214 4.4465242 7.24861036 5.8987934 7.31640625 7.3515625 C7.35830078 8.20234375 7.40019531 9.053125 7.44335938 9.9296875 C7.48267578 10.81914062 7.52199219 11.70859375 7.5625 12.625 C7.60568359 13.5221875 7.64886719 14.419375 7.69335938 15.34375 C7.79956861 17.56234283 7.90161194 19.7810488 8 22 C2.78353508 16.78353508 0.50664756 7.2619483 0 0 Z " fill="#9FB83C" transform="translate(93,387)"/>
<path d="M0 0 C3.98264458 0.44251606 6.7971409 2.74344018 10 5 C8.95125002 7.62187494 8.35068687 8.79371361 5.875 10.25 C5.25625 10.4975 4.6375 10.745 4 11 C1.11670417 7.744666 -0.63331529 5.40021656 -1 1 C-0.67 0.67 -0.34 0.34 0 0 Z " fill="#F9F2CD" transform="translate(118,156)"/>
<path d="M0 0 C0.91523438 -0.00128906 1.83046875 -0.00257812 2.7734375 -0.00390625 C3.72734375 -0.00003906 4.68125 0.00382812 5.6640625 0.0078125 C7.08332031 0.00201172 7.08332031 0.00201172 8.53125 -0.00390625 C9.4490625 -0.00261719 10.366875 -0.00132813 11.3125 0 C12.14700684 0.00112793 12.98151367 0.00225586 13.84130859 0.00341797 C16.40566146 0.13897622 18.7864229 0.57065366 21.2890625 1.1328125 C21.6190625 2.1228125 21.9490625 3.1128125 22.2890625 4.1328125 C21.2578125 3.9678125 20.2265625 3.8028125 19.1640625 3.6328125 C9.9060058 2.48172197 0.50945096 2.86103478 -8.7109375 4.1328125 C-8.3809375 3.1428125 -8.0509375 2.1528125 -7.7109375 1.1328125 C-4.8300498 0.1725166 -2.99322577 0.00405665 0 0 Z " fill="#612801" transform="translate(337.7109375,30.8671875)"/>
<path d="M0 0 C3.26460973 1.80412643 4.88929795 2.83394693 7 6 C5.68 7.32 4.36 8.64 3 10 C-1.06153846 4.58461538 -1.06153846 4.58461538 -0.75 1.625 C-0.5025 1.08875 -0.255 0.5525 0 0 Z " fill="#F2E9C5" transform="translate(55,224)"/>
<path d="M0 0 C0.33 1.65 0.66 3.3 1 5 C-2.63 5 -6.26 5 -10 5 C-10.33 4.34 -10.66 3.68 -11 3 C-9.54293274 2.49632243 -8.08429904 1.99717444 -6.625 1.5 C-5.81289062 1.2215625 -5.00078125 0.943125 -4.1640625 0.65625 C-2 0 -2 0 0 0 Z " fill="#E24C63" transform="translate(95,375)"/>
<path d="M0 0 C-3.20010388 1.8133922 -6.13283843 2.52213974 -9.75 3.125 C-10.73484375 3.29257812 -11.7196875 3.46015625 -12.734375 3.6328125 C-13.48203125 3.75398438 -14.2296875 3.87515625 -15 4 C-14.67 3.01 -14.34 2.02 -14 1 C-9.00174442 -1.43817345 -5.29180261 -0.91237976 0 0 Z " fill="#6D3109" transform="translate(326,35)"/>
<path d="M0 0 C0.33 0 0.66 0 1 0 C1.36256858 1.4562672 1.71479793 2.91511185 2.0625 4.375 C2.35833984 5.59316406 2.35833984 5.59316406 2.66015625 6.8359375 C3 9 3 9 2 11 C1.77532169 12.53668865 1.59203195 14.07968054 1.4375 15.625 C1.35371094 16.44226563 1.26992188 17.25953125 1.18359375 18.1015625 C1.12300781 18.72804688 1.06242187 19.35453125 1 20 C0.67 20 0.34 20 0 20 C-0.19421438 17.04196565 -0.38066186 14.08379837 -0.5625 11.125 C-0.61857422 10.28324219 -0.67464844 9.44148438 -0.73242188 8.57421875 C-0.78076172 7.76855469 -0.82910156 6.96289062 -0.87890625 6.1328125 C-0.9260376 5.38918457 -0.97316895 4.64555664 -1.02172852 3.87939453 C-1 2 -1 2 0 0 Z " fill="#712D11" transform="translate(413,85)"/>
<path d="M0 0 C2.875 -0.125 2.875 -0.125 6 0 C6.66 0.66 7.32 1.32 8 2 C3.545 2.495 3.545 2.495 -1 3 C-0.67 2.01 -0.34 1.02 0 0 Z " fill="#6B2F07" transform="translate(330,32)"/>
</svg>
