<?xml version="1.0" encoding="UTF-8"?>
<svg version="1.1" xmlns="http://www.w3.org/2000/svg" width="512" height="512">
<path d="M0 0 C17.16 0 34.32 0 52 0 C52 5.94 52 11.88 52 18 C46.39 18 40.78 18 35 18 C35 25.92 35 33.84 35 42 C40.0428125 42.37125 40.0428125 42.37125 45.1875 42.75 C104.14662091 47.69159975 156.16428511 76.09082532 195.47265625 119.74609375 C197.73357256 122.44195947 199.88358956 125.18908527 202 128 C202.44520996 128.59055176 202.89041992 129.18110352 203.34912109 129.78955078 C232.39713185 168.68068185 249.02559907 215.28404402 248 264 C248.82201904 263.98428955 249.64403809 263.9685791 250.4909668 263.95239258 C254.22307428 263.88994927 257.95507172 263.85097864 261.6875 263.8125 C262.98107422 263.78736328 264.27464844 263.76222656 265.60742188 263.73632812 C266.85458984 263.72666016 268.10175781 263.71699219 269.38671875 263.70703125 C270.53358154 263.6913208 271.68044434 263.67561035 272.86206055 263.65942383 C276.35237798 264.03824533 278.20644999 264.91158098 281 267 C284.22593669 273.45187337 282.3050542 284.07889978 280.375 290.75 C274.69669487 306.91437383 264.45571036 319.57987547 249.08984375 327.5 C241.95200945 330.65983179 234.6398023 332.4843618 227 334 C227.433125 334.94746094 227.433125 334.94746094 227.875 335.9140625 C231.9248723 345.67312978 232.75312107 355.19197042 229.125 365.25 C224.73536401 374.5486092 216.65113135 380.68991199 208.6953125 386.875 C205.58762015 389.32512267 202.57373101 391.87056344 199.5625 394.4375 C194.77386475 398.51030475 189.9438143 402.52482916 185.0703125 406.49609375 C175.48848079 414.31028475 165.94429692 422.16693174 156.52294922 430.17407227 C152.41063951 433.66484345 148.25032928 437.09170805 144.06640625 440.49609375 C140.99511963 443.00398512 137.93941483 445.52986201 134.88549805 448.05883789 C131.95916968 450.47680487 129.02184003 452.88121707 126.08398438 455.28515625 C124.1644699 456.86466301 122.26090097 458.46143615 120.359375 460.0625 C107.61753248 470.63176199 93.85029285 478.36273105 76.95166016 478.24050903 C75.63671208 478.24307231 75.63671208 478.24307231 74.29519939 478.24568737 C71.37640225 478.24896495 68.45783824 478.23800721 65.5390625 478.22705078 C63.43938706 478.22648629 61.33971122 478.22680396 59.24003601 478.22793579 C53.55263986 478.22850883 47.86532833 478.21676227 42.17795181 478.20278788 C36.22956015 478.19027252 30.28116647 478.18910938 24.33276367 478.18673706 C13.07427541 478.18052467 1.81582606 478.16411708 -9.44264507 478.14403808 C-22.26241196 478.12167162 -35.08218073 478.11068376 -47.90196228 478.10064721 C-74.26799641 478.07975067 -100.63399602 478.04457933 -127 478 C-126.98952637 478.76143311 -126.97905273 479.52286621 -126.96826172 480.30737305 C-126.92660981 483.7673816 -126.9006444 487.22733731 -126.875 490.6875 C-126.85824219 491.88568359 -126.84148437 493.08386719 -126.82421875 494.31835938 C-126.81777344 495.47529297 -126.81132813 496.63222656 -126.8046875 497.82421875 C-126.79421387 498.88729248 -126.78374023 499.95036621 -126.77294922 501.0456543 C-127.07220163 504.9394752 -127.99390383 507.68542732 -130.36992359 510.78995228 C-132.4193995 512.31133106 -133.54385058 512.37051018 -136.08122253 512.36076355 C-136.90821498 512.36489604 -137.73520742 512.36902853 -138.58726025 512.37328625 C-139.49456544 512.36249192 -140.40187063 512.3516976 -141.33666992 512.34057617 C-142.79430362 512.34111858 -142.79430362 512.34111858 -144.28138447 512.34167194 C-147.43128779 512.33943027 -150.58066053 512.31657287 -153.73046875 512.29296875 C-155.67337793 512.28855869 -157.61629065 512.28549767 -159.5592041 512.28381348 C-166.76869037 512.26807565 -173.97810038 512.2261921 -181.1875 512.1875 C-197.295625 512.125625 -213.40375 512.06375 -230 512 C-230 458.21 -230 404.42 -230 349 C-214.4075 348.979375 -198.815 348.95875 -182.75 348.9375 C-177.82674805 348.928396 -172.90349609 348.91929199 -167.83105469 348.90991211 C-161.81884766 348.90539551 -161.81884766 348.90539551 -159.00421143 348.90455627 C-157.03855157 348.90302077 -155.07289266 348.89950388 -153.10723877 348.89442444 C-150.12974409 348.88711498 -147.15230698 348.88609368 -144.17480469 348.88647461 C-143.29920269 348.8828765 -142.42360069 348.87927839 -141.5214653 348.87557125 C-140.71828495 348.87694875 -139.9151046 348.87832624 -139.08758545 348.87974548 C-138.04227221 348.87836279 -138.04227221 348.87836279 -136.97584152 348.87695217 C-135 349 -135 349 -132.84827042 349.56530094 C-130.96819741 350.22648614 -130.96819741 350.22648614 -129.34008789 349.07543945 C-128.80633545 348.59292725 -128.27258301 348.11041504 -127.72265625 347.61328125 C-127.12646484 347.08669922 -126.53027344 346.56011719 -125.91601562 346.01757812 C-124.99852539 345.17356445 -124.99852539 345.17356445 -124.0625 344.3125 C-122.84560079 343.22464631 -121.62816253 342.13739527 -120.41015625 341.05078125 C-119.60783569 340.31855347 -119.60783569 340.31855347 -118.78930664 339.5715332 C-116.58625202 337.63660858 -114.29343969 335.82634355 -112 334 C-112.82748245 333.99413376 -113.6549649 333.98826752 -114.50752258 333.98222351 C-122.34798564 333.92405391 -130.18817114 333.85184055 -138.02836323 333.76428509 C-142.05803192 333.71976741 -146.08760383 333.68047174 -150.11743164 333.65356445 C-154.01448284 333.627344 -157.91115781 333.58681326 -161.80797386 333.53681374 C-163.28648343 333.52027055 -164.76505789 333.50867885 -166.24364662 333.50238609 C-184.903179 333.41502256 -201.03370222 328.2380969 -214.37109375 314.8984375 C-225.60571919 302.51197082 -230.09605828 288.77701914 -230.4609375 272.390625 C-229.92787117 268.46942521 -229.09069841 267.36685454 -226 265 C-223.18175808 263.59087904 -220.82748718 263.88816447 -217.6796875 263.90234375 C-216.42285156 263.90556641 -215.16601562 263.90878906 -213.87109375 263.91210938 C-211.89302734 263.92467773 -211.89302734 263.92467773 -209.875 263.9375 C-208.53515789 263.94251511 -207.195314 263.94707799 -205.85546875 263.95117188 C-202.57026794 263.96298914 -199.28515603 263.97946383 -196 264 C-196.05220703 262.45119141 -196.05220703 262.45119141 -196.10546875 260.87109375 C-197.4092513 204.22898527 -172.3016041 150.13355234 -133.83984375 109.5859375 C-124.27462676 99.67652753 -114.29657834 90.87832816 -103 83 C-102.32146973 82.5251416 -101.64293945 82.0502832 -100.94384766 81.56103516 C-65.72218248 57.21553821 -25.61160194 44.34129681 17 42 C17 34.08 17 26.16 17 18 C11.39 18 5.78 18 0 18 C0 12.06 0 6.12 0 0 Z M66 333 C66.99 337.455 66.99 337.455 68 342 C68.71881073 351.05701524 66.53074473 359.14410609 60.734375 366.24609375 C53.00619751 374.06130027 44.25673052 375.21432116 33.70417786 375.32775879 C33.04768564 375.33032181 32.39119343 375.33288483 31.71480751 375.33552551 C29.64206149 375.34388601 27.56974118 375.36445138 25.49711609 375.38806152 C20.35518444 375.44417738 15.21314976 375.47970082 10.07104492 375.51568604 C5.71203772 375.5469611 1.35324201 375.58615282 -3.00559425 375.63594055 C-5.04409782 375.65595428 -7.08243634 375.66431406 -9.12101746 375.67224121 C-10.35942886 375.68565552 -11.59784027 375.69906982 -12.8737793 375.71289062 C-14.50756783 375.72382751 -14.50756783 375.72382751 -16.17436218 375.73498535 C-18.99576428 375.99960273 -20.63372805 376.480044 -23 378 C-24.92199114 380.56265486 -25.01028636 381.83198949 -24.8125 385.0625 C-23.98370706 388.05890525 -23.42883312 389.15408683 -21 391 C-18.75679981 392.1216001 -17.49160133 392.15086549 -15.00157166 392.20100403 C-13.74693367 392.2290789 -13.74693367 392.2290789 -12.46694946 392.25772095 C-11.54707245 392.27297821 -10.62719543 392.28823547 -9.67944336 392.30395508 C-8.22766945 392.33308739 -8.22766945 392.33308739 -6.74656677 392.36280823 C2.22844171 392.53218482 11.20465916 392.62847881 20.18090153 392.70387745 C26.20452403 392.75509847 32.22583111 392.82917274 38.24829102 392.96020508 C44.07992581 393.08658099 49.90947893 393.15238009 55.74239922 393.17746544 C57.95313199 393.19694595 60.16379365 393.2370668 62.37373543 393.29932594 C77.55318425 393.70671346 86.83831222 391.52035025 98.38672447 381.39635277 C100.48665283 379.57878303 102.71931293 377.98801296 105 376.40625 C106.33388161 375.43825507 107.66723122 374.46952655 109 373.5 C114.8048921 369.29208695 120.63520785 365.12400098 126.5 361 C134.71343673 355.22280086 142.85819555 349.35347269 150.98632812 343.45703125 C152.84614301 342.1113262 154.71082944 340.77279649 156.578125 339.4375 C158.08632813 338.3546875 158.08632813 338.3546875 159.625 337.25 C160.48351562 336.63640625 161.34203125 336.0228125 162.2265625 335.390625 C162.81179688 334.93171875 163.39703125 334.4728125 164 334 C164 333.67 164 333.34 164 333 C131.66 333 99.32 333 66 333 Z " fill="#020101" transform="translate(230,0)"/>
<path d="M0 0 C2.29885307 0.0107184 4.59692231 0.00003109 6.89575195 -0.01269531 C16.87681394 -0.02248785 26.49430326 0.76711204 36.36645508 2.26074219 C37.32221436 2.40141113 38.27797363 2.54208008 39.26269531 2.68701172 C80.1010178 9.04301913 117.71524692 29.90570681 147.36645508 58.26074219 C148.29329102 59.13472656 149.22012695 60.00871094 150.17504883 60.90917969 C157.32410883 67.82500794 163.43582478 75.29342773 169.36645508 83.26074219 C170.00325195 84.11410156 170.64004883 84.96746094 171.29614258 85.84667969 C191.2452817 113.51806621 203.68877261 145.5666984 208.24145508 179.32324219 C208.36157959 180.20117432 208.4817041 181.07910645 208.60546875 181.98364258 C209.55364404 189.86750383 209.36645508 197.16027613 209.36645508 205.26074219 C74.06645508 205.26074219 -61.23354492 205.26074219 -200.63354492 205.26074219 C-200.63354492 195.35935163 -200.45253762 186.36550999 -199.00854492 176.69824219 C-198.83033203 175.49296875 -198.65211914 174.28769531 -198.46850586 173.04589844 C-192.03603581 131.86067564 -172.80692493 93.83047406 -144.0456543 63.74023438 C-143.10919932 62.75909379 -142.17812261 61.77278972 -141.25268555 60.78125 C-129.07870061 47.7573183 -114.76149337 37.5814517 -99.63354492 28.26074219 C-99.0326001 27.86870605 -98.43165527 27.47666992 -97.8125 27.07275391 C-69.42521736 8.71813927 -33.546925 -0.18520438 0 0 Z " fill="#E1E1E1" transform="translate(251.633544921875,59.7392578125)"/>
<path d="M0 0 C1.76041626 -0.00832352 1.76041626 -0.00832352 3.55639648 -0.01681519 C7.40675636 -0.028555 11.25592497 -0.00439862 15.10620117 0.02148438 C17.79279756 0.02319649 20.47934792 0.02323167 23.16593933 0.0213623 C28.78183271 0.02141569 34.39738748 0.04106727 40.01318359 0.07324219 C46.49812242 0.11021693 52.98261974 0.11890353 59.46765023 0.11194468 C65.72437589 0.10563504 71.98095088 0.11639663 78.2376461 0.13591003 C80.89341177 0.14294211 83.54919075 0.14606432 86.20496559 0.1452179 C89.91032729 0.14701332 93.61505951 0.16837185 97.3203125 0.1953125 C98.41806503 0.1923819 99.51581757 0.18945129 100.64683533 0.18643188 C107.45948555 0.262948 111.04754763 1.05225713 116.14916992 5.74023438 C118.50213603 9.74899144 118.51399028 13.07223197 117.83666992 17.61523438 C116.07155348 21.88867418 113.91705681 23.56933736 109.83666992 25.61523438 C106.91769409 25.98704529 106.91769409 25.98704529 103.66040039 25.98413086 C101.82226273 25.99445595 101.82226273 25.99445595 99.94699097 26.00498962 C97.97038986 25.99575218 97.97038986 25.99575218 95.95385742 25.98632812 C94.57486974 25.99302961 93.19589004 26.00161112 91.81692505 26.01197815 C85.98074675 26.05190089 80.14464185 26.05329575 74.30834961 26.05102539 C70.72972554 26.05097384 67.15158455 26.07036743 63.57309341 26.10035896 C61.56876151 26.11104864 59.56434912 26.09909429 57.56002808 26.08653259 C48.47482949 26.15980447 40.15638439 27.12269927 32.89916992 32.99023438 C26.33546324 41.34404287 25.15300288 47.11162257 25.83666992 57.61523438 C27.26245648 64.67680716 31.12681401 68.55338749 36.71166992 72.80273438 C43.3893977 76.67581649 49.69300877 76.9439395 57.24389648 77.04858398 C58.26778473 77.06975784 59.29167297 77.0909317 60.34658813 77.11274719 C71.05091224 77.31793518 81.75773157 77.40352041 92.46362305 77.48022461 C97.52538085 77.5201914 102.58453504 77.59659267 107.64526367 77.70581055 C113.78750162 77.83811032 119.92732342 77.90467092 126.07091522 77.92651558 C128.39443583 77.94530871 130.71790039 77.98615449 133.04059601 78.05085564 C149.28080649 78.47919563 159.26798859 75.8125871 171.81713104 65.2959156 C174.47101327 63.08732725 177.22978444 61.03643468 180.00131607 58.97889614 C181.92609028 57.54879535 183.83519375 56.09922237 185.74291992 54.64648438 C190.95780876 50.73531774 196.37055973 47.11962024 201.77026367 43.47070312 C206.90201107 39.98577256 211.90428959 36.37625193 216.83666992 32.61523438 C223.36930288 27.63712764 230.07423719 22.96226594 236.87353516 18.35644531 C242.52993487 14.52305767 248.11608202 10.60573069 253.6496582 6.59716797 C258.54371742 3.0616553 261.7522429 2.0113493 267.83666992 2.61523438 C273.125908 4.41357532 277.27623868 7.61713229 279.83666992 12.61523438 C280.79041339 18.00533006 280.63753488 22.75868379 278.46166992 27.80273438 C272.12652252 34.59039231 264.94932306 40.41033521 257.74291992 46.24023438 C254.63274708 48.781881 251.57754999 51.38105748 248.52416992 53.99023438 C244.08834017 57.77336817 239.57065241 61.42057032 234.96166992 64.99023438 C229.21639838 69.44575108 223.70571551 74.12666843 218.23608398 78.91503906 C213.76043949 82.83035248 209.20437674 86.62652677 204.58276367 90.36914062 C201.44676896 92.93414341 198.35930862 95.5520272 195.27416992 98.17773438 C190.74132096 102.02791341 186.17301807 105.81989587 181.50463867 109.50585938 C179.45332672 111.12768727 177.41754041 112.76408282 175.38745117 114.41210938 C163.815554 123.75031814 154.01659843 128.96823616 138.81993103 128.85574341 C137.95877876 128.85745226 137.0976265 128.85916111 136.21037871 128.86092174 C133.34996362 128.86419309 130.48978769 128.85325206 127.62939453 128.84228516 C125.56897996 128.84172053 123.50856498 128.8420386 121.44815063 128.84317017 C115.87237963 128.84374268 110.29669512 128.83200471 104.72094417 128.81802225 C98.88733661 128.80549805 93.05372696 128.80434306 87.22010803 128.80197144 C76.18123168 128.79576164 65.14239506 128.77935757 54.10353619 128.75927246 C41.5328346 128.7368979 28.96213108 128.72591611 16.39141452 128.71588159 C-9.46018902 128.69499092 -35.31175732 128.65982465 -61.16333008 128.61523438 C-61.41882602 117.0539243 -61.61396289 105.49329153 -61.73326397 93.92972755 C-61.7905409 88.55939258 -61.86814849 83.19099643 -61.99316406 77.82177734 C-62.11318079 72.63445544 -62.17855616 67.44899108 -62.20697975 62.26038742 C-62.22721876 60.28668354 -62.26674522 58.31307515 -62.3263607 56.340168 C-62.79784049 40.08218091 -62.79784049 40.08218091 -58.76939392 35.2180481 C-56.16254006 32.6217429 -53.25757017 30.60300973 -50.16333008 28.61523438 C-48.93821605 27.64103274 -47.72150688 26.65602866 -46.51879883 25.65429688 C-45.47336914 24.85765625 -44.42793945 24.06101562 -43.35083008 23.24023438 C-39.64630276 20.39844756 -36.00985789 17.52119748 -32.51098633 14.42773438 C-31.90810791 13.89583496 -31.30522949 13.36393555 -30.68408203 12.81591797 C-29.55059237 11.80729502 -28.42462357 10.79011583 -27.30859375 9.76220703 C-18.97392948 2.35559687 -11.04989524 -0.13474921 0 0 Z " fill="#FCC8A2" transform="translate(163.163330078125,332.384765625)"/>
<path d="M0 0 C157.08 0 314.16 0 476 0 C472.18191331 12.72695564 467.10764167 21.75378535 455.328125 28.5390625 C444.10384727 33.96095937 433.0392065 34.29281388 420.77531433 34.26069641 C419.13427647 34.26372042 417.49324003 34.26761115 415.85220605 34.27228898 C411.36204668 34.28254561 406.87196736 34.28039312 402.38180149 34.27610838 C397.5316405 34.27363691 392.68149857 34.28266058 387.8313446 34.29014587 C378.33664457 34.30288331 368.84197283 34.30468774 359.34726568 34.30234561 C351.62783713 34.30056117 343.90841716 34.30231479 336.18898964 34.30657005 C334.53976142 34.30746284 334.53976142 34.30746284 332.85721547 34.30837366 C330.62345931 34.30958543 328.38970316 34.31079957 326.15594701 34.31201603 C305.21608583 34.32288796 284.27624076 34.32073076 263.33637867 34.31463119 C244.19192509 34.30946272 225.04752239 34.32071625 205.90307888 34.33972941 C186.23256884 34.35911484 166.56208288 34.36736254 146.89156324 34.36360615 C135.85329692 34.36169514 124.81507392 34.364172 113.77681541 34.37832069 C104.37945696 34.39024446 94.98216847 34.39162821 85.58480903 34.37953053 C80.79332806 34.37364878 76.00197501 34.37252294 71.21050262 34.38453293 C66.81785242 34.39541499 62.4254366 34.39226084 58.03279725 34.37827124 C56.4501029 34.3756307 54.86739004 34.37797051 53.28471389 34.38600711 C36.47509896 34.46538838 22.82202916 32.19460117 10.3359375 20.49609375 C4.38968761 14.14215783 2.11886539 8.47546154 0 0 Z " fill="#CCCCCC" transform="translate(18,282)"/>
<path d="M0 0 C28.05 0 56.1 0 85 0 C85 42.24 85 84.48 85 128 C56.95 128 28.9 128 0 128 C0 85.76 0 43.52 0 0 Z " fill="#4297D0" transform="translate(0,367)"/>
<path d="M0 0 C0 5.61 0 11.22 0 17 C-1.92199219 17.15855469 -3.84398437 17.31710938 -5.82421875 17.48046875 C-43.28358016 20.7623409 -76.00105713 31.14527097 -105.9609375 54.62109375 C-109.60051314 57.47006748 -113.29384376 60.23855025 -117 63 C-120.63 59.37 -124.26 55.74 -128 52 C-125.95275296 47.90550593 -123.74074568 45.71777485 -120.3125 42.875 C-119.45289673 42.15703247 -119.45289673 42.15703247 -118.57592773 41.42456055 C-112.06235194 36.08808409 -105.14037436 31.44924997 -98 27 C-97.43200684 26.64309082 -96.86401367 26.28618164 -96.27880859 25.91845703 C-86.35260797 19.75187368 -75.86954617 15.21568165 -65 11 C-64.34918457 10.74589355 -63.69836914 10.49178711 -63.02783203 10.22998047 C-43.45068985 2.73955037 -20.92703161 -0.59791519 0 0 Z " fill="#030303" transform="translate(256,77)"/>
<path d="M0 0 C6.05259984 3.73837049 10.32914582 9.58747237 12.2578125 16.39453125 C13.12968866 24.17602594 12.48527761 30.70219235 8.2578125 37.39453125 C3.47635883 43.05677901 -2.81942118 47.67615521 -10.28515625 48.765625 C-18.47993011 48.97140219 -24.656624 47.07230781 -30.81640625 41.52734375 C-36.65194847 35.2391494 -39.48884599 29.02003398 -39.21484375 20.37109375 C-38.04656983 13.01386462 -34.58189568 6.37258165 -28.6796875 1.76953125 C-19.88320766 -4.16674349 -9.59153957 -4.3639963 0 0 Z " fill="#010203" transform="translate(55.7421875,429.60546875)"/>
<path d="M0 0 C1.17317276 -0.00525696 2.34634552 -0.01051392 3.55506897 -0.01593018 C7.4214521 -0.02910236 11.28742149 -0.02040264 15.15380859 -0.01025391 C17.84467908 -0.01092239 20.53554224 -0.01518256 23.22640991 -0.01895142 C28.86013249 -0.02439896 34.49373681 -0.0172422 40.12744141 -0.00292969 C46.63445067 0.01341087 53.14117811 0.00809428 59.6481806 -0.0084089 C65.24498102 -0.02203351 70.84169674 -0.02393918 76.43850839 -0.0160929 C79.77703076 -0.01142369 83.11531442 -0.01195448 86.45384598 -0.02070236 C90.17385237 -0.02831214 93.89331538 -0.01671902 97.61328125 0 C98.71574692 -0.00607269 99.81821259 -0.01214539 100.9540863 -0.0184021 C107.40812813 0.03539573 111.01720748 0.66401237 115.98974609 4.95068359 C117.17724609 6.38818359 117.17724609 6.38818359 117.17724609 8.38818359 C70.64724609 8.38818359 24.11724609 8.38818359 -23.82275391 8.38818359 C-15.89106465 0.45649434 -10.76450311 -0.05951247 0 0 Z " fill="#F6BA8E" transform="translate(162.82275390625,332.61181640625)"/>
<path d="M0 0 C5.03681497 3.07122864 8.94510767 6.72916666 13 11 C10.50573612 15.45221846 7.48547614 19.33706795 4.3125 23.3125 C3.80138672 23.95767578 3.29027344 24.60285156 2.76367188 25.26757812 C1.51173116 26.8471295 0.25622486 28.42385369 -1 30 C-4.62276315 28.6744419 -7.63505348 27.05653045 -10.8125 24.875 C-11.60269531 24.33617187 -12.39289063 23.79734375 -13.20703125 23.2421875 C-13.79871094 22.83226562 -14.39039062 22.42234375 -15 22 C-13.53801587 17.72408943 -11.36920183 14.57384425 -8.625 11 C-7.85414062 9.989375 -7.08328125 8.97875 -6.2890625 7.9375 C-4.21364993 5.27417193 -2.11749287 2.62994548 0 0 Z " fill="#040404" transform="translate(115,140)"/>
<path d="M0 0 C3.34729173 2.42144508 4.76049116 3.87430846 5.625 7.9375 C4.76419058 12.15546616 3.16041435 14.11440429 0 17 C-3.78500971 17.78854369 -5.41586124 17.31154067 -8.8125 15.5 C-11.3516966 12.59806103 -12.01661263 10.76800708 -12.2578125 6.97265625 C-12 5 -12 5 -10 2 C-6.24375652 -0.50416232 -4.43262088 -0.79153944 0 0 Z " fill="#DADADA" transform="translate(46,444)"/>
<path d="M0 0 C2.625 1.6875 2.625 1.6875 4.625 4.6875 C-3.295 4.6875 -11.215 4.6875 -19.375 4.6875 C-13.32465285 -1.36284715 -8.20743658 -3.19178089 0 0 Z " fill="#E7AF86" transform="translate(434.375,336.3125)"/>
</svg>
