<?xml version="1.0" encoding="UTF-8"?>
<svg version="1.1" xmlns="http://www.w3.org/2000/svg" width="512" height="512">
<path d="M0 0 C3.04747497 1.571796 5.63250823 3.49513837 8.3125 5.625 C10.76649376 7.5293763 11.90005179 8.33098839 15 8.9375 C18.67543666 8.2759214 22.12004375 7.17039674 25.6796875 6.0546875 C32.11711469 4.26537068 38.26265929 5.35835812 44.125 8.375 C51.0225791 13.70113064 54.69061781 19.53477851 56 28.1875 C56.6671914 37.54237521 53.11424233 44.43600727 47.125 51.375 C47.84945313 51.62121094 48.57390625 51.86742187 49.3203125 52.12109375 C58.44371517 56.19994091 66.87317196 66.08629383 70.8125 75.1875 C73.9312529 79.48632157 76.98382867 79.92612679 81.9609375 81.3671875 C91.66299938 84.45747388 99.53583544 90.88329366 104.47265625 99.8125 C109.04481561 109.77620213 109.76839012 121.19218268 107.32421875 131.875 C103.09060341 143.04825287 94.89268832 151.33520115 84.125 156.375 C82.7962883 156.72630344 81.46339208 157.06259717 80.125 157.375 C80.12612793 157.97860352 80.12725586 158.58220703 80.12841797 159.20410156 C80.02152198 183.58568249 80.02152198 183.58568249 71.04296875 193.7265625 C62.50878231 201.94688219 53.65615343 204.02049048 42.125 205.375 C42.91261719 205.98730469 43.70023437 206.59960938 44.51171875 207.23046875 C48.34258938 210.37418769 49.8303461 212.81333433 50.75 217.6875 C49.08784917 227.49418988 37.36279055 234.53103208 30.13330078 240.66503906 C26.92248664 243.39887595 23.74424483 246.16995172 20.5625 248.9375 C15.08061323 253.69505339 9.56949232 258.41735466 4.04931641 263.13037109 C0.63109717 266.05762923 -2.73383168 269.03309681 -6.0625 272.0625 C-9.39727114 275.09212868 -12.80787639 277.98108092 -16.3125 280.8125 C-21.086403 284.67325137 -25.60888428 288.74937075 -30.125 292.90625 C-33.68684229 296.10381296 -37.40065833 299.08888343 -41.125 302.09375 C-44.91405407 305.23694258 -48.50769352 308.57658595 -52.12890625 311.91015625 C-54.79375166 314.30207297 -57.52331825 316.56754884 -60.3125 318.8125 C-64.30723986 322.03443101 -68.12054349 325.38155495 -71.875 328.875 C-76.48504336 333.16455113 -81.25282956 337.17910672 -86.16015625 341.12890625 C-88.98173495 343.4633059 -91.68090712 345.89490598 -94.375 348.375 C-98.82227112 352.46851091 -103.42217463 356.29942499 -108.125 360.09375 C-110.95599578 362.44218968 -113.66883598 364.88409902 -116.375 367.375 C-120.82227112 371.46851091 -125.42217463 375.29942499 -130.125 379.09375 C-133.91405407 382.23694258 -137.50769352 385.57658595 -141.12890625 388.91015625 C-143.79375166 391.30207297 -146.52331825 393.56754884 -149.3125 395.8125 C-153.30723986 399.03443101 -157.12054349 402.38155495 -160.875 405.875 C-165.48504336 410.16455113 -170.25282956 414.17910672 -175.16015625 418.12890625 C-177.98173495 420.4633059 -180.68090712 422.89490598 -183.375 425.375 C-187.82227112 429.46851091 -192.42217463 433.29942499 -197.125 437.09375 C-199.95599578 439.44218968 -202.66883598 441.88409902 -205.375 444.375 C-209.82227112 448.46851091 -214.42217463 452.29942499 -219.125 456.09375 C-222.91405407 459.23694258 -226.50769352 462.57658595 -230.12890625 465.91015625 C-232.79375166 468.30207297 -235.52331825 470.56754884 -238.3125 472.8125 C-242.83962534 476.463823 -247.11657955 480.30711055 -251.37011719 484.2668457 C-255.69651872 488.26996968 -260.198413 492.00126339 -264.79296875 495.6953125 C-266.74318205 497.20773177 -266.74318205 497.20773177 -267.875 498.375 C-274.97585552 499.10902102 -279.18936465 497.17401532 -285.25 493.625 C-286.11995605 493.12911377 -286.98991211 492.63322754 -287.88623047 492.12231445 C-309.45434014 479.65600183 -329.06530684 464.7764077 -346.875 447.375 C-347.52130371 446.74916016 -348.16760742 446.12332031 -348.83349609 445.47851562 C-356.71623397 437.82972704 -364.15463263 430.08519682 -370.875 421.375 C-371.66003906 420.3953125 -372.44507813 419.415625 -373.25390625 418.40625 C-383.11491751 406.01393502 -391.38507287 392.63147689 -399 378.765625 C-400.14317425 376.69838489 -401.3266394 374.65196261 -402.578125 372.6484375 C-404.09168494 369.99514869 -404.66397708 367.73741925 -404.54296875 364.671875 C-402.9935587 359.34407905 -398.55021023 355.36906409 -394.875 351.375 C-393.74384766 350.11816406 -393.74384766 350.11816406 -392.58984375 348.8359375 C-391.10427404 347.18530449 -389.61330927 345.53951225 -388.1171875 343.8984375 C-385.82984096 341.32417642 -383.65951729 338.68210511 -381.5 336 C-377.81928153 331.44719493 -373.94851352 327.14082589 -369.96362305 322.8581543 C-366.16114986 318.74739043 -362.63236701 314.45233477 -359.12109375 310.08984375 C-356.7866941 307.26826505 -354.35509402 304.56909288 -351.875 301.875 C-348.58168301 298.29707537 -345.42848679 294.65960334 -342.375 290.875 C-338.53664586 286.11760332 -334.47877641 281.61716082 -330.33984375 277.12109375 C-327.94792703 274.45624834 -325.68245116 271.72668175 -323.4375 268.9375 C-319.77993736 264.40263839 -315.92882973 260.11963817 -311.96337891 255.85791016 C-308.16101193 251.74720724 -304.63229408 247.45224416 -301.12109375 243.08984375 C-298.7866941 240.26826505 -296.35509402 237.56909288 -293.875 234.875 C-290.58168301 231.29707537 -287.42848679 227.65960334 -284.375 223.875 C-280.53780969 219.11904581 -276.48114899 214.61995199 -272.34375 210.125 C-269.93121896 207.43762366 -267.6424379 204.68534556 -265.375 201.875 C-261.53664586 197.11760332 -257.47877641 192.61716082 -253.33984375 188.12109375 C-250.94792703 185.45624834 -248.68245116 182.72668175 -246.4375 179.9375 C-242.77993736 175.40263839 -238.92882973 171.11963817 -234.96337891 166.85791016 C-231.16101193 162.74720724 -227.63229408 158.45224416 -224.12109375 154.08984375 C-221.7866941 151.26826505 -219.35509402 148.56909288 -216.875 145.875 C-213.58168301 142.29707537 -210.42848679 138.65960334 -207.375 134.875 C-203.53664586 130.11760332 -199.47877641 125.61716082 -195.33984375 121.12109375 C-192.94792703 118.45624834 -190.68245116 115.72668175 -188.4375 112.9375 C-184.77993736 108.40263839 -180.92882973 104.11963817 -176.96337891 99.85791016 C-173.16101193 95.74720724 -169.63229408 91.45224416 -166.12109375 87.08984375 C-163.7866941 84.26826505 -161.35509402 81.56909288 -158.875 78.875 C-154.78839309 74.43522953 -150.96306661 69.8438641 -147.17578125 65.1484375 C-143.95960929 61.27155789 -140.56029427 57.57652522 -137.13671875 53.8828125 C-134.83747578 51.40496174 -134.83747578 51.40496174 -132.83203125 48.6796875 C-130.87035766 46.36953297 -129.72640104 45.3145421 -126.875 44.375 C-124.5859375 44.328125 -124.5859375 44.328125 -122.25 44.625 C-121.47398437 44.71265625 -120.69796875 44.8003125 -119.8984375 44.890625 C-117.875 45.375 -117.875 45.375 -115.875 47.375 C-115.00101562 46.59576172 -115.00101562 46.59576172 -114.109375 45.80078125 C-107.11385431 39.85018897 -100.02405761 36.25642808 -91.2578125 33.57421875 C-88.09487676 31.9823806 -86.96597495 30.02390628 -85.0625 27.0625 C-80.13634615 19.97477581 -75.12105607 16.73832376 -66.875 14.375 C-57.0531504 13.30307225 -49.09153718 14.89730855 -40.875 20.375 C-40.730625 19.42625 -40.58625 18.4775 -40.4375 17.5 C-38.58103714 11.035296 -33.12149758 5.51321047 -27.609375 1.8828125 C-19.21392287 -2.3771021 -8.88400746 -3.74308706 0 0 Z " fill="#FEE9BA" transform="translate(403.875,7.625)"/>
<path d="M0 0 C0.52714725 0.68966701 1.05429451 1.37933401 1.59741592 2.08990002 C4.37091832 5.44927019 7.35593318 8.49118586 10.44134521 11.56159973 C11.40814834 12.5296845 11.40814834 12.5296845 12.39448285 13.51732653 C14.54935772 15.6738452 16.70778112 17.82677621 18.86621094 19.97973633 C20.41379412 21.52703737 21.96115701 23.07455878 23.50831604 24.62228394 C27.70612225 28.82037709 31.9070049 33.01537952 36.10844326 37.2098372 C40.49980306 41.59494645 44.88833182 45.98288707 49.27716064 50.37052917 C57.11474974 58.20518668 64.95448099 66.03769612 72.7953476 73.86907341 C79.91207946 80.977238 87.02764884 88.08656401 94.14208984 95.19702148 C94.60999726 95.66466617 95.07790467 96.13231086 95.55999109 96.6141266 C97.90742496 98.96025539 100.25483701 101.306406 102.60224104 103.65256464 C122.06500175 123.10487235 141.53132792 142.55360877 161 162 C159.27063965 165.76254711 157.35173005 167.56723431 154.0625 170.125 C150.07609331 173.29541471 146.2415477 176.54377896 142.5 180 C138.05272888 184.09351091 133.45282537 187.92442499 128.75 191.71875 C125.91900422 194.06718968 123.20616402 196.50909902 120.5 199 C116.05272888 203.09351091 111.45282537 206.92442499 106.75 210.71875 C102.96094593 213.86194258 99.36730648 217.20158595 95.74609375 220.53515625 C93.08124834 222.92707297 90.35168175 225.19254884 87.5625 227.4375 C83.56776014 230.65943101 79.75445651 234.00655495 76 237.5 C71.38995664 241.78955113 66.62217044 245.80410672 61.71484375 249.75390625 C58.89326505 252.0883059 56.19409288 254.51990598 53.5 257 C49.05272888 261.09351091 44.45282537 264.92442499 39.75 268.71875 C36.91900422 271.06718968 34.20616402 273.50909902 31.5 276 C27.05272888 280.09351091 22.45282537 283.92442499 17.75 287.71875 C13.96094593 290.86194258 10.36730648 294.20158595 6.74609375 297.53515625 C4.08124834 299.92707297 1.35168175 302.19254884 -1.4375 304.4375 C-5.96462534 308.088823 -10.24157955 311.93211055 -14.49511719 315.8918457 C-18.82151872 319.89496968 -23.323413 323.62626339 -27.91796875 327.3203125 C-29.86818205 328.83273177 -29.86818205 328.83273177 -31 330 C-38.10085552 330.73402102 -42.31436465 328.79901532 -48.375 325.25 C-49.24495605 324.75411377 -50.11491211 324.25822754 -51.01123047 323.74731445 C-72.57934014 311.28100183 -92.19030684 296.4014077 -110 279 C-110.64630371 278.37416016 -111.29260742 277.74832031 -111.95849609 277.10351562 C-119.84123397 269.45472704 -127.27963263 261.71019682 -134 253 C-134.78503906 252.0203125 -135.57007813 251.040625 -136.37890625 250.03125 C-146.23991751 237.63893502 -154.51007287 224.25647689 -162.125 210.390625 C-163.26817425 208.32338489 -164.4516394 206.27696261 -165.703125 204.2734375 C-167.21668494 201.62014869 -167.78897708 199.36241925 -167.66796875 196.296875 C-166.1185587 190.96907905 -161.67521023 186.99406409 -158 183 C-156.86884766 181.74316406 -156.86884766 181.74316406 -155.71484375 180.4609375 C-154.22927404 178.81030449 -152.73830927 177.16451225 -151.2421875 175.5234375 C-148.95484096 172.94917642 -146.78451729 170.30710511 -144.625 167.625 C-140.94428153 163.07219493 -137.07351352 158.76582589 -133.08862305 154.4831543 C-129.28614986 150.37239043 -125.75736701 146.07733477 -122.24609375 141.71484375 C-119.9116941 138.89326505 -117.48009402 136.19409288 -115 133.5 C-111.70668301 129.92207537 -108.55348679 126.28460334 -105.5 122.5 C-101.66164586 117.74260332 -97.60377641 113.24216082 -93.46484375 108.74609375 C-91.07292703 106.08124834 -88.80745116 103.35168175 -86.5625 100.5625 C-82.90493736 96.02763839 -79.05382973 91.74463817 -75.08837891 87.48291016 C-71.28601193 83.37220724 -67.75729408 79.07724416 -64.24609375 74.71484375 C-61.9116941 71.89326505 -59.48009402 69.19409288 -57 66.5 C-53.70668301 62.92207537 -50.55348679 59.28460334 -47.5 55.5 C-43.66280969 50.74404581 -39.60614899 46.24495199 -35.46875 41.75 C-33.05621896 39.06262366 -30.7674379 36.31034556 -28.5 33.5 C-25.44651321 29.71539666 -22.29331699 26.07792463 -19 22.5 C-14.10338869 17.17693421 -9.53850869 11.6284655 -5 6 C-3.34160134 3.99287264 -1.67210227 1.99573497 0 0 Z " fill="#EBF2FE" transform="translate(167,176)"/>
<path d="M0 0 C3.04747497 1.571796 5.63250823 3.49513837 8.3125 5.625 C10.76649376 7.5293763 11.90005179 8.33098839 15 8.9375 C18.67543666 8.2759214 22.12004375 7.17039674 25.6796875 6.0546875 C32.11711469 4.26537068 38.26265929 5.35835812 44.125 8.375 C51.0225791 13.70113064 54.69061781 19.53477851 56 28.1875 C56.6671914 37.54237521 53.11424233 44.43600727 47.125 51.375 C47.84945312 51.62121094 48.57390625 51.86742187 49.3203125 52.12109375 C58.44371517 56.19994091 66.87317196 66.08629383 70.8125 75.1875 C73.9312529 79.48632157 76.98382867 79.92612679 81.9609375 81.3671875 C91.66299938 84.45747388 99.53583544 90.88329366 104.47265625 99.8125 C109.04481561 109.77620213 109.76839012 121.19218268 107.32421875 131.875 C103.09060341 143.04825287 94.89268832 151.33520115 84.125 156.375 C82.7962883 156.72630344 81.46339208 157.06259717 80.125 157.375 C80.12669189 158.28040527 80.12669189 158.28040527 80.12841797 159.20410156 C80.02152198 183.58568249 80.02152198 183.58568249 71.04296875 193.7265625 C64.99470715 199.55238366 58.37209167 202.93743356 50.125 204.375 C49.29742187 204.52324219 48.46984375 204.67148438 47.6171875 204.82421875 C43.15134849 205.23081006 40.24057538 205.15623379 36.4921875 202.53125 C34.69044172 200.83169279 32.92232744 199.09600056 31.18359375 197.33203125 C27.74898532 193.87654374 23.88799552 191.08447588 19.9375 188.25 C19.26493164 187.76490967 18.59236328 187.27981934 17.89941406 186.7800293 C16.31180131 185.6396285 14.71897755 184.50648744 13.125 183.375 C13.99589875 178.90999219 16.53224206 176.30153328 19.5 173 C23.67465138 168.25254038 27.70512684 163.44616823 31.5625 158.4375 C36.00780973 152.68932455 40.69088921 147.18915553 45.4777832 141.72363281 C49.84729495 136.72651825 54.06348628 131.6269574 58.125 126.375 C58.67542969 125.68664062 59.22585938 124.99828125 59.79296875 124.2890625 C61.32364403 122.34071983 61.32364403 122.34071983 61.8125 119.4375 C61.40831322 116.03749417 61.40831322 116.03749417 57.9140625 114.1015625 C52.63811612 110.97851531 47.13936365 108.28720856 41.63937378 105.58517456 C38.52074139 104.05276603 35.4086013 102.50731098 32.296875 100.9609375 C31.68013412 100.65463913 31.06339325 100.34834076 30.42796326 100.03276062 C25.094257 97.37605707 19.81979536 94.61664363 14.5625 91.8125 C8.1877369 88.41557447 1.77292732 85.21344088 -4.875 82.375 C-5.19210937 82.89449219 -5.50921875 83.41398437 -5.8359375 83.94921875 C-10.53997649 90.97928806 -16.62917281 94.57003783 -24.875 96.375 C-24.16214844 96.87128906 -23.44929688 97.36757812 -22.71484375 97.87890625 C-7.8171768 108.44562292 2.12694376 121.08929982 6.125 139.375 C7.21301596 151.89093529 5.86019991 163.43570029 2.125 175.375 C-1.84960813 174.11713411 -5.56818015 172.66570653 -9.31640625 170.84375 C-10.31220703 170.36292969 -11.30800781 169.88210937 -12.33398438 169.38671875 C-13.35814453 168.88785156 -14.38230469 168.38898438 -15.4375 167.875 C-17.47976193 166.88395879 -19.52270744 165.89432473 -21.56640625 164.90625 C-22.46560791 164.46861328 -23.36480957 164.03097656 -24.29125977 163.58007812 C-26.78830201 162.41543667 -29.30701617 161.37200577 -31.875 160.375 C-31.71644531 159.53453125 -31.55789063 158.6940625 -31.39453125 157.828125 C-29.92731787 148.07612027 -29.5570875 138.00288163 -34.875 129.375 C-39.62399351 123.14720598 -45.54639451 119.8178685 -52.875 117.375 C-55.22505495 117.20123836 -57.58146995 117.10803873 -59.9375 117.0625 C-61.18660156 117.02511719 -62.43570313 116.98773438 -63.72265625 116.94921875 C-68.8308313 117.15567363 -73.27600237 119.29289016 -77.875 121.375 C-78.25269531 120.12589844 -78.63039063 118.87679687 -79.01953125 117.58984375 C-86.86807333 92.4412774 -98.47092011 69.27151602 -115.875 49.375 C-112.67105703 43.2507418 -107.90760281 40.48615365 -101.875 37.375 C-99.84509136 36.77144394 -97.80279444 36.20792676 -95.75 35.6875 C-89.14130033 33.74075126 -86.70397796 29.78169693 -82.96484375 24.23046875 C-78.83005498 18.58087886 -73.47213424 16.27157391 -66.875 14.375 C-57.0531504 13.30307225 -49.09153718 14.89730855 -40.875 20.375 C-40.730625 19.42625 -40.58625 18.4775 -40.4375 17.5 C-38.58103714 11.035296 -33.12149758 5.51321047 -27.609375 1.8828125 C-19.21392287 -2.3771021 -8.88400746 -3.74308706 0 0 Z " fill="#A0D84C" transform="translate(403.875,7.625)"/>
<path d="M0 0 C4.09283507 1.62419151 6.83385252 4.56062056 9.87188721 7.63137817 C10.45516934 8.21295146 11.03845148 8.79452474 11.63940883 9.39372146 C13.59414392 11.34516032 15.54164142 13.30366528 17.48925781 15.26220703 C18.88841524 16.66192855 20.2880131 18.06120993 21.6880188 19.46008301 C25.48967304 23.26116263 29.28512248 27.06838417 33.07950687 30.876719 C37.04510007 34.85480127 41.01634482 38.82723337 44.98699951 42.80026245 C52.50614796 50.32563103 60.02018294 57.85608406 67.53240466 65.38836658 C76.08462056 73.9629249 84.64250544 82.53181562 93.20087671 91.1002295 C110.80691003 108.72717688 128.40579431 126.36124751 146 144 C144.27927995 147.73860232 142.39808868 149.52467037 139.125 152.0625 C134.92609147 155.40079673 130.91950555 158.8393237 127 162.5 C122.39086198 166.7904724 117.62208576 170.80417488 112.71484375 174.75390625 C109.89326505 177.0883059 107.19409288 179.51990598 104.5 182 C100.06022953 186.08660691 95.4688641 189.91193339 90.7734375 193.69921875 C86.89655789 196.91539071 83.20152522 200.31470573 79.5078125 203.73828125 C78.26644531 204.85783203 78.26644531 204.85783203 77 206 C76.23429688 206.75667969 75.46859375 207.51335937 74.6796875 208.29296875 C71.06026657 210.59863485 68.10887646 210.81113149 64 210 C60.68282818 208.72785951 57.68663083 207.04284416 54.625 205.25 C53.32006592 204.50617065 53.32006592 204.50617065 51.98876953 203.74731445 C30.42065986 191.28100183 10.80969316 176.4014077 -7 159 C-7.64630371 158.37416016 -8.29260742 157.74832031 -8.95849609 157.10351562 C-16.84123397 149.45472704 -24.27963263 141.71019682 -31 133 C-31.78503906 132.0203125 -32.57007812 131.040625 -33.37890625 130.03125 C-43.23991751 117.63893502 -51.51007287 104.25647689 -59.125 90.390625 C-60.26817425 88.32338489 -61.4516394 86.27696261 -62.703125 84.2734375 C-64.21668494 81.62014869 -64.78897708 79.36241925 -64.66796875 76.296875 C-63.1185587 70.96907905 -58.67521023 66.99406409 -55 63 C-53.86884766 61.74316406 -53.86884766 61.74316406 -52.71484375 60.4609375 C-51.22927404 58.81030449 -49.73830927 57.16451225 -48.2421875 55.5234375 C-45.95484096 52.94917642 -43.78451729 50.30710511 -41.625 47.625 C-37.94428153 43.07219493 -34.07351352 38.76582589 -30.08862305 34.4831543 C-26.28935383 30.37585417 -22.76377951 26.08407957 -19.25390625 21.7265625 C-16.08811818 17.89689167 -12.73754333 14.25051587 -9.375 10.59375 C-6.18938675 7.114725 -3.08653482 3.56688957 0 0 Z " fill="#FEDB97" transform="translate(64,296)"/>
<path d="M0 0 C0.495 0.99 0.495 0.99 1 2 C2.99903219 2.66956312 4.99934502 3.33530151 7 4 C10.44250773 5.57354688 13.81185123 7.28851109 17.1875 9 C18.1571167 9.48839355 19.1267334 9.97678711 20.12573242 10.47998047 C28.70049218 14.81459745 37.21050876 19.26701928 45.69335938 23.77832031 C48.08766469 25.04643037 50.48830062 26.30184184 52.890625 27.5546875 C53.67590576 27.9657373 54.46118652 28.37678711 55.27026367 28.80029297 C56.76122166 29.58062821 58.25350581 30.35843658 59.74731445 31.13330078 C62.4806765 32.56932187 64.80300575 33.80300575 67 36 C67.61556877 39.10561385 67.52814773 41.13524551 65.85693359 43.87158203 C64.20279456 46.00420409 62.47076445 48.03660671 60.6875 50.0625 C60.05247559 50.80765869 59.41745117 51.55281738 58.76318359 52.32055664 C57.46824918 53.83780924 56.16714842 55.34982121 54.85986328 56.85644531 C52.71503468 59.32843207 50.59895032 61.82344857 48.48754883 64.32397461 C47.58169904 65.39667865 46.67399181 66.467817 45.7644043 67.53735352 C42.46245439 71.42354627 39.27547845 75.38984022 36.109375 79.38671875 C33.08916419 83.12842437 29.97604152 86.78911519 26.85546875 90.44726562 C25.56562307 91.96086005 24.28266753 93.48031781 23 95 C22.21109375 95.87011719 21.4221875 96.74023438 20.609375 97.63671875 C18.84585188 99.80380813 18.84585188 99.80380813 18.84765625 102.01953125 C20.65298594 105.12225041 23.50325056 106.75572861 26.4375 108.6875 C31.92457193 112.43865175 36.88373549 116.41880026 41.74609375 120.96875 C43.88987545 122.90075431 46.0880084 124.57849237 48.4375 126.25 C52.74286345 129.42466194 54.61636986 131.96676027 55.625 137.3125 C53.96284917 147.11918988 42.23779055 154.15603208 35.00830078 160.29003906 C31.79748664 163.02387595 28.61924483 165.79495172 25.4375 168.5625 C19.95561323 173.32005339 14.44449232 178.04235466 8.92431641 182.75537109 C5.50609717 185.68262923 2.14116832 188.65809681 -1.1875 191.6875 C-4.52227114 194.71712868 -7.93287639 197.60608092 -11.4375 200.4375 C-16.211403 204.29825137 -20.73388428 208.37437075 -25.25 212.53125 C-28.81184229 215.72881296 -32.52565833 218.71388343 -36.25 221.71875 C-39.08099578 224.06718968 -41.79383598 226.50909902 -44.5 229 C-48.97878606 233.12150398 -53.60478783 236.99429637 -58.33984375 240.81640625 C-62.3320325 244.09340113 -66.17330843 247.53235604 -70 251 C-75.63568661 246.31179066 -80.83103966 241.30014592 -85.99609375 236.1015625 C-86.82963882 235.26660248 -87.6631839 234.43164246 -88.52198792 233.57138062 C-91.16286524 230.92494152 -93.80022896 228.27503241 -96.4375 225.625 C-98.23609649 223.82138357 -100.03492227 222.01799575 -101.83398438 220.21484375 C-106.22531248 215.81253739 -110.61376729 211.40738286 -115 207 C-113.48577286 203.82872516 -111.86442403 201.61689883 -109.4375 199.0625 C-97.10888877 185.41853966 -88.22709762 168.8073038 -81 152 C-80.73445313 151.38463379 -80.46890625 150.76926758 -80.1953125 150.13525391 C-75.25946736 138.46454581 -72.43671214 126.40751425 -70 114 C-69.75121094 112.76121094 -69.50242187 111.52242188 -69.24609375 110.24609375 C-65.44604423 87.31292776 -67.78674459 63.4959667 -73 41 C-64.92681686 35.68119699 -57.52644994 34.89032561 -48 36 C-39.5496177 38.09411806 -32.74398063 43.98419027 -28.0625 51.1875 C-25.03867643 56.22037245 -24.8416951 60.5243019 -24.8125 66.375 C-24.79832031 67.66148437 -24.78414063 68.94796875 -24.76953125 70.2734375 C-24.99285859 73.88452711 -25.68706968 76.64761667 -27 80 C-26.13689209 80.21716675 -26.13689209 80.21716675 -25.25634766 80.4387207 C-17.81125627 82.47422313 -11.21730989 85.65826482 -4.375 89.1875 C-3.27542969 89.74630859 -2.17585938 90.30511719 -1.04296875 90.88085938 C1.64185274 92.24661639 4.32261294 93.61974207 7 95 C7.67807604 91.66886918 8.34203101 88.33515703 9 85 C9.19980469 84.00097656 9.39960938 83.00195312 9.60546875 81.97265625 C11.22254474 69.78854902 10.92788454 57.36966464 6 46 C5.59910156 45.071875 5.19820313 44.14375 4.78515625 43.1875 C-0.5390467 32.32303948 -9.07231718 23.68005854 -19.19921875 17.20703125 C-19.79347656 16.80871094 -20.38773437 16.41039063 -21 16 C-21 15.67 -21 15.34 -21 15 C-20.35933594 14.84144531 -19.71867187 14.68289062 -19.05859375 14.51953125 C-11.50927849 12.48312877 -5.60839493 10.16561146 -1.5625 3.1875 C-0.7890625 1.6096875 -0.7890625 1.6096875 0 0 Z " fill="#FEDA97" transform="translate(399,88)"/>
<path d="M0 0 C7.09543108 4.05453205 12.53901682 12.4986513 15.078125 20.1875 C15.2734375 22.64453125 15.2734375 22.64453125 15.203125 25 C15.18507813 25.79019531 15.16703125 26.58039062 15.1484375 27.39453125 C15.12523437 27.98621094 15.10203125 28.57789062 15.078125 29.1875 C15.779375 29.14109375 16.480625 29.0946875 17.203125 29.046875 C23.79037047 28.79627327 28.72067002 29.14392404 34.078125 33.1875 C40.02721878 38.70567351 44.03388479 44.60486708 44.640625 52.875 C44.38565115 60.13621189 41.16080518 66.89801528 36.21484375 72.17578125 C31.67028601 75.8460353 26.68435912 77.70807711 21.078125 79.1875 C21.79097656 79.68378906 22.50382812 80.18007812 23.23828125 80.69140625 C38.1359482 91.25812292 48.08006876 103.90179982 52.078125 122.1875 C53.16614096 134.70343529 51.81332491 146.24820029 48.078125 158.1875 C44.10351687 156.92963411 40.38494485 155.47820653 36.63671875 153.65625 C35.64091797 153.17542969 34.64511719 152.69460937 33.61914062 152.19921875 C32.59498047 151.70035156 31.57082031 151.20148438 30.515625 150.6875 C28.47336307 149.69645879 26.43041756 148.70682473 24.38671875 147.71875 C23.48751709 147.28111328 22.58831543 146.84347656 21.66186523 146.39257812 C19.16482299 145.22793667 16.64610883 144.18450577 14.078125 143.1875 C14.23667969 142.34703125 14.39523437 141.5065625 14.55859375 140.640625 C16.02580713 130.88862027 16.3960375 120.81538163 11.078125 112.1875 C6.32913149 105.95970598 0.40673049 102.6303685 -6.921875 100.1875 C-9.27192995 100.01373836 -11.62834495 99.92053873 -13.984375 99.875 C-15.23347656 99.83761719 -16.48257813 99.80023438 -17.76953125 99.76171875 C-22.8777063 99.96817363 -27.32287737 102.10539016 -31.921875 104.1875 C-32.29957031 102.93839844 -32.67726563 101.68929687 -33.06640625 100.40234375 C-40.91494833 75.2537774 -52.51779511 52.08401602 -69.921875 32.1875 C-66.71793203 26.0632418 -61.95447781 23.29865365 -55.921875 20.1875 C-53.89196636 19.58394394 -51.84966944 19.02042676 -49.796875 18.5 C-43.18817533 16.55325126 -40.75085296 12.59419693 -37.01171875 7.04296875 C-28.66175608 -4.36604566 -12.14777107 -5.64283559 0 0 Z " fill="#D88A53" transform="translate(357.921875,24.8125)"/>
<path d="M0 0 C5.0743445 4.2492875 9.83009549 8.69105485 14.49584961 13.38232422 C15.20888245 14.09521103 15.92191528 14.80809784 16.65655518 15.54258728 C18.99086557 17.87758914 21.3216231 20.21610295 23.65234375 22.5546875 C25.27879819 24.18300884 26.90547491 25.81110818 28.53236389 27.43899536 C32.79735497 31.70779016 37.05933336 35.9795804 41.32067871 40.25201416 C45.67615322 44.61774903 50.03448773 48.98062671 54.39257812 53.34375 C62.93117747 61.89304882 71.46659493 70.44551677 80 79 C71.31042291 85.64510691 61.32215192 89.4646791 51 92.8125 C49.68539795 93.2470752 49.68539795 93.2470752 48.34423828 93.69042969 C35.67316796 97.64475378 22.86431871 98.38329731 9.6875 98.3125 C8.96255341 98.31034485 8.23760681 98.3081897 7.49069214 98.30596924 C-19.4601314 98.17752415 -41.85450263 90.37031299 -65 77 C-63.58080168 72.53966242 -61.13383357 69.67150822 -57.9375 66.375 C-54.28237631 62.50427013 -50.7749192 58.59139497 -47.4375 54.4375 C-43.62277387 49.69799178 -39.58430568 45.22101003 -35.46484375 40.74609375 C-33.07292703 38.08124834 -30.80745116 35.35168175 -28.5625 32.5625 C-24.90923511 28.03296699 -21.06411339 23.75346743 -17.1015625 19.49829102 C-13.19555777 15.27801795 -9.55477763 10.87441227 -5.97265625 6.375 C-4.09147784 4.1101357 -2.11586019 2.04485817 0 0 Z " fill="#FEE9BA" transform="translate(85,316)"/>
<path d="M0 0 C3.36335594 1.45745424 5.54534005 3.31117854 8.109375 5.9140625 C9.24052734 7.05488281 9.24052734 7.05488281 10.39453125 8.21875 C11.17183594 9.0128125 11.94914062 9.806875 12.75 10.625 C13.93916016 11.82769531 13.93916016 11.82769531 15.15234375 13.0546875 C17.10614493 15.03202846 19.05512103 17.01388909 21 19 C19.38182825 22.40829937 17.52234036 24.79530758 14.9375 27.5625 C11.70801662 31.08042208 8.61539482 34.65182375 5.625 38.375 C1.94428153 42.92780507 -1.92648648 47.23417411 -5.91137695 51.5168457 C-9.71385014 55.62760957 -13.24263299 59.92266523 -16.75390625 64.28515625 C-19.0883059 67.10673495 -21.51990598 69.80590712 -24 72.5 C-28.18445242 77.04888373 -32.13806167 81.73797463 -36.01953125 86.546875 C-37.65616417 88.57410473 -39.31612028 90.57465346 -41 92.5625 C-43.00138513 94.81808601 -43.00138513 94.81808601 -44 97 C-42.98873047 97.37898438 -42.98873047 97.37898438 -41.95703125 97.765625 C-39.11962198 98.95006533 -36.41203744 100.29906437 -33.68481445 101.71606445 C-18.43004484 109.61289239 -3.13510181 114.98736412 14 117 C14.26103516 117.81976318 14.52207031 118.63952637 14.79101562 119.48413086 C25.31620555 152.33387533 39.00112039 181.58942159 63 207 C62.34 207.33 61.68 207.66 61 208 C58.41463254 206.85812937 55.98114 205.65363438 53.5 204.3125 C52.74388428 203.90604248 51.98776855 203.49958496 51.20874023 203.08081055 C29.74111297 191.30381581 10.47318943 176.07261829 -7 159 C-7.64630371 158.37416016 -8.29260742 157.74832031 -8.95849609 157.10351562 C-16.84123397 149.45472704 -24.27963263 141.71019682 -31 133 C-31.78503906 132.0203125 -32.57007812 131.040625 -33.37890625 130.03125 C-43.23991751 117.63893502 -51.51007287 104.25647689 -59.125 90.390625 C-60.26817425 88.32338489 -61.4516394 86.27696261 -62.703125 84.2734375 C-64.21668494 81.62014869 -64.78897708 79.36241925 -64.66796875 76.296875 C-63.1185587 70.96907905 -58.67521023 66.99406409 -55 63 C-53.86884766 61.74316406 -53.86884766 61.74316406 -52.71484375 60.4609375 C-51.22927404 58.81030449 -49.73830927 57.16451225 -48.2421875 55.5234375 C-45.95484096 52.94917642 -43.78451729 50.30710511 -41.625 47.625 C-37.94428153 43.07219493 -34.07351352 38.76582589 -30.08862305 34.4831543 C-26.28935383 30.37585417 -22.76377951 26.08407957 -19.25390625 21.7265625 C-16.08811818 17.89689167 -12.73754333 14.25051587 -9.375 10.59375 C-6.18938675 7.114725 -3.08653482 3.56688957 0 0 Z " fill="#F7CB86" transform="translate(64,296)"/>
<path d="M0 0 C2.83814078 2.26792727 4.86886788 4.95041534 7 7.875 C7.57105469 8.60847656 8.14210938 9.34195313 8.73046875 10.09765625 C11.00925073 13.06927456 12.80778577 15.42335732 14 19 C12.96101562 19.52980469 11.92203125 20.05960938 10.8515625 20.60546875 C6.83527225 22.90812838 4.2516599 25.73580119 1.375 29.3125 C0.33009166 30.57086464 -0.71550491 31.82865805 -1.76171875 33.0859375 C-2.29458496 33.73272461 -2.82745117 34.37951172 -3.37646484 35.04589844 C-6.01349864 38.21985611 -8.72668314 41.32657916 -11.4375 44.4375 C-12.52886459 45.6951227 -13.62000939 46.95293616 -14.7109375 48.2109375 C-16.35569624 50.10587939 -18.00060206 52.00069353 -19.64550781 53.89550781 C-21.28484859 55.78420762 -22.92379418 57.67324926 -24.5625 59.5625 C-25.09834717 60.18012207 -25.63419434 60.79774414 -26.1862793 61.43408203 C-30.39920119 66.29490073 -34.57870757 71.18371733 -38.75537109 76.07568359 C-41.68262923 79.49390283 -44.65809681 82.85883168 -47.6875 86.1875 C-50.71712868 89.52227114 -53.60608092 92.93287639 -56.4375 96.4375 C-60.29825137 101.211403 -64.37437075 105.73388428 -68.53125 110.25 C-70.94378104 112.93737634 -73.2325621 115.68965444 -75.5 118.5 C-79.37721602 123.30199369 -83.44952291 127.87673594 -87.640625 132.40625 C-90.35508606 135.39035951 -92.91461957 138.48340494 -95.4296875 141.63671875 C-97 143 -97 143 -101 143 C-104.25279089 140.62718741 -106.98082419 137.66752021 -109.8125 134.8125 C-111.01422852 133.65911133 -111.01422852 133.65911133 -112.24023438 132.48242188 C-112.99240234 131.73154297 -113.74457031 130.98066406 -114.51953125 130.20703125 C-115.21151611 129.5210083 -115.90350098 128.83498535 -116.61645508 128.12817383 C-118 126 -118 126 -117.84057617 123.39379883 C-116.69984869 120.14522695 -114.88851209 118.34460355 -112.5 115.875 C-111.58097824 114.90587375 -110.66436444 113.93445913 -109.75 112.9609375 C-109.28722656 112.46948242 -108.82445312 111.97802734 -108.34765625 111.47167969 C-106.29499348 109.23011244 -104.40152696 106.87011753 -102.5 104.5 C-98.66164586 99.74260332 -94.60377641 95.24216082 -90.46484375 90.74609375 C-88.07292703 88.08124834 -85.80745116 85.35168175 -83.5625 82.5625 C-79.90493736 78.02763839 -76.05382973 73.74463817 -72.08837891 69.48291016 C-68.28601193 65.37220724 -64.75729408 61.07724416 -61.24609375 56.71484375 C-58.9116941 53.89326505 -56.48009402 51.19409288 -54 48.5 C-50.70668301 44.92207537 -47.55348679 41.28460334 -44.5 37.5 C-41.44651321 33.71539666 -38.29331699 30.07792463 -35 26.5 C-31.66836245 22.87955177 -28.47321421 19.19719554 -25.375 15.375 C-22.52267708 11.85629367 -19.65213511 8.36244814 -16.6875 4.9375 C-16.07261719 4.22464844 -15.45773437 3.51179688 -14.82421875 2.77734375 C-10.39311968 -1.5398941 -5.74595358 -1.95508505 0 0 Z " fill="#FEDB97" transform="translate(286,53)"/>
<path d="M0 0 C0.48984375 0.65355469 0.9796875 1.30710938 1.484375 1.98046875 C4.83727136 6.00498566 8.5270538 9.63230849 12.25 13.3125 C12.99507813 14.05306641 13.74015625 14.79363281 14.5078125 15.55664062 C16.33628521 17.37339236 18.16705936 19.18775796 20 21 C18.70809268 23.79058063 17.30263565 26.01067907 15.27734375 28.3203125 C14.74334961 28.93293945 14.20935547 29.54556641 13.65917969 30.17675781 C13.09102539 30.81967773 12.52287109 31.46259766 11.9375 32.125 C11.35258789 32.79370117 10.76767578 33.46240234 10.16503906 34.15136719 C6.89405492 37.88219315 3.5861592 41.57727252 0.25 45.25 C-2.75760608 48.56439286 -5.62429696 51.95659083 -8.4375 55.4375 C-12.29825137 60.211403 -16.37437075 64.73388428 -20.53125 69.25 C-22.94378104 71.93737634 -25.2325621 74.68965444 -27.5 77.5 C-31.33719031 82.25595419 -35.39385101 86.75504801 -39.53125 91.25 C-41.94378104 93.93737634 -44.2325621 96.68965444 -46.5 99.5 C-50.33835414 104.25739668 -54.39622359 108.75783918 -58.53515625 113.25390625 C-60.92707297 115.91875166 -63.19254884 118.64831825 -65.4375 121.4375 C-70.35951554 127.54150493 -75.65154204 133.27165157 -81 139 C-84.22489963 137.58379789 -86.35676723 135.87907436 -88.8203125 133.375 C-89.52027344 132.66859375 -90.22023438 131.9621875 -90.94140625 131.234375 C-91.66199219 130.49703125 -92.38257812 129.7596875 -93.125 129 C-93.85332031 128.26265625 -94.58164063 127.5253125 -95.33203125 126.765625 C-96.67953125 125.4006897 -98.02496843 124.03371267 -99.36767578 122.6640625 C-100.57198729 121.43633482 -101.78392404 120.21607596 -103 119 C-101.85724609 117.78376953 -101.85724609 117.78376953 -100.69140625 116.54296875 C-94.98983535 110.44057138 -89.50751814 104.26253164 -84.27734375 97.74609375 C-81.78173453 94.73680853 -79.16233195 91.86062978 -76.5 89 C-72.21039593 84.39001057 -68.19588878 79.62216484 -64.24609375 74.71484375 C-61.9116941 71.89326505 -59.48009402 69.19409288 -57 66.5 C-53.70668301 62.92207537 -50.55348679 59.28460334 -47.5 55.5 C-43.66280969 50.74404581 -39.60614899 46.24495199 -35.46875 41.75 C-33.05621896 39.06262366 -30.7674379 36.31034556 -28.5 33.5 C-25.44651321 29.71539666 -22.29331699 26.07792463 -19 22.5 C-14.10338869 17.17693421 -9.53850869 11.6284655 -5 6 C-3.34160134 3.99287264 -1.67210227 1.99573497 0 0 Z " fill="#DBEAFB" transform="translate(167,176)"/>
<path d="M0 0 C1.40819817 1.06721118 2.80422618 2.15067505 4.1875 3.25 C6.64149376 5.1543763 7.77505179 5.95598839 10.875 6.5625 C14.55043666 5.9009214 17.99504375 4.79539674 21.5546875 3.6796875 C27.99211469 1.89037068 34.13765929 2.98335812 40 6 C46.8975791 11.32613064 50.56561781 17.15977851 51.875 25.8125 C52.39320085 33.06731187 50.57343243 39.37036856 46.1875 45.1875 C43.95762658 47.51028481 43.50179374 47.97769806 40.1875 48.125 C38.47253535 47.51971836 36.75980662 46.90654095 35.06494141 46.24707031 C29.32974289 44.13005946 24.27652563 43.52346705 18.1875 43.625 C17.31456299 43.63370117 16.44162598 43.64240234 15.54223633 43.65136719 C7.15248064 43.84096619 -0.70664848 44.84646701 -8 49.25 C-11 51 -11 51 -13 51 C-16.08168369 49.45915815 -19.03497586 47.75705134 -22 46 C-24.56893838 44.71553081 -26.76576337 44.67022856 -29.625 44.4375 C-30.62789063 44.35371094 -31.63078125 44.26992188 -32.6640625 44.18359375 C-33.43492187 44.12300781 -34.20578125 44.06242187 -35 44 C-35.11214844 42.87464844 -35.11214844 42.87464844 -35.2265625 41.7265625 C-36.32018901 33.21343064 -38.82843147 26.17156853 -45 20 C-45 12.68757487 -41.2409919 8.36215048 -36.328125 3.265625 C-26.45763964 -5.88042107 -11.47183772 -7.32244961 0 0 Z " fill="#96C542" transform="translate(408,10)"/>
<path d="M0 0 C0.33 0.66 0.66 1.32 1 2 C2.99903219 2.66956312 4.99934502 3.33530151 7 4 C10.44250773 5.57354688 13.81185123 7.28851109 17.1875 9 C18.1571167 9.48839355 19.1267334 9.97678711 20.12573242 10.47998047 C28.70049218 14.81459745 37.21050876 19.26701928 45.69335938 23.77832031 C48.08766469 25.04643037 50.48830062 26.30184184 52.890625 27.5546875 C53.67590576 27.9657373 54.46118652 28.37678711 55.27026367 28.80029297 C56.76122166 29.58062821 58.25350581 30.35843658 59.74731445 31.13330078 C62.4806765 32.56932187 64.80300575 33.80300575 67 36 C67.61556877 39.10561385 67.52814773 41.13524551 65.85693359 43.87158203 C64.20279456 46.00420409 62.47076445 48.03660671 60.6875 50.0625 C60.05247559 50.80765869 59.41745117 51.55281738 58.76318359 52.32055664 C57.46824918 53.83780924 56.16714842 55.34982121 54.85986328 56.85644531 C52.71503468 59.32843207 50.59895032 61.82344857 48.48754883 64.32397461 C47.58169904 65.39667865 46.67399181 66.467817 45.7644043 67.53735352 C42.46245439 71.42354627 39.27547845 75.38984022 36.109375 79.38671875 C33.08916419 83.12842437 29.97604152 86.78911519 26.85546875 90.44726562 C23.38710792 94.51728088 19.96814134 98.54778798 17 103 C15.53977837 102.04454634 14.08188532 101.08553322 12.625 100.125 C11.81289063 99.59132813 11.00078125 99.05765625 10.1640625 98.5078125 C8 97 8 97 6 95 C6.53423306 92.64814642 7.16394524 90.4234679 7.875 88.125 C11.7267957 74.21982559 11.7926879 59.36494763 6 46 C5.59910156 45.071875 5.19820313 44.14375 4.78515625 43.1875 C-0.5390467 32.32303948 -9.07231718 23.68005854 -19.19921875 17.20703125 C-19.79347656 16.80871094 -20.38773437 16.41039063 -21 16 C-21 15.67 -21 15.34 -21 15 C-20.35933594 14.84144531 -19.71867187 14.68289062 -19.05859375 14.51953125 C-11.50927849 12.48312877 -5.60839493 10.16561146 -1.5625 3.1875 C-0.7890625 1.6096875 -0.7890625 1.6096875 0 0 Z " fill="#FBD157" transform="translate(399,88)"/>
<path d="M0 0 C12.96329948 10.39030578 22.97465198 23.27732802 26 40 C26.31064329 43.17233728 26.3799884 46.31365804 26.375 49.5 C26.37628906 50.36206055 26.37757813 51.22412109 26.37890625 52.11230469 C26.24371017 60.46066257 24.4818535 68.06693255 22 76 C18.02539187 74.74213411 14.30681985 73.29070653 10.55859375 71.46875 C9.06489258 70.74751953 9.06489258 70.74751953 7.54101562 70.01171875 C6.51685547 69.51285156 5.49269531 69.01398438 4.4375 68.5 C2.39523807 67.50895879 0.35229256 66.51932473 -1.69140625 65.53125 C-2.59060791 65.09361328 -3.48980957 64.65597656 -4.41625977 64.20507812 C-6.91330201 63.04043667 -9.43201617 61.99700577 -12 61 C-11.76216797 59.73929688 -11.76216797 59.73929688 -11.51953125 58.453125 C-10.05231787 48.70112027 -9.6820875 38.62788163 -15 30 C-19.74899351 23.77220598 -25.67139451 20.4428685 -33 18 C-35.35005495 17.82623836 -37.70646995 17.73303873 -40.0625 17.6875 C-41.31160156 17.65011719 -42.56070312 17.61273438 -43.84765625 17.57421875 C-48.9558313 17.78067363 -53.40100237 19.91789016 -58 22 C-59.17908109 18.60834995 -60.34103966 15.21107288 -61.5 11.8125 C-61.83386719 10.85279297 -62.16773438 9.89308594 -62.51171875 8.90429688 C-62.82753906 7.97294922 -63.14335937 7.04160156 -63.46875 6.08203125 C-63.76201172 5.22843018 -64.05527344 4.3748291 -64.35742188 3.49536133 C-65.02681173 0.89588043 -65.11719018 -1.32764529 -65 -4 C-45.31590285 -15.64977178 -18.43589341 -13.02326896 0 0 Z " fill="#E94542" transform="translate(384,107)"/>
<path d="M0 0 C3.36335594 1.45745424 5.54534005 3.31117854 8.109375 5.9140625 C9.24052734 7.05488281 9.24052734 7.05488281 10.39453125 8.21875 C11.17183594 9.0128125 11.94914062 9.806875 12.75 10.625 C13.93916016 11.82769531 13.93916016 11.82769531 15.15234375 13.0546875 C17.10614493 15.03202846 19.05512103 17.01388909 21 19 C19.38182825 22.40829937 17.52234036 24.79530758 14.9375 27.5625 C11.70801662 31.08042208 8.61539482 34.65182375 5.625 38.375 C1.94428153 42.92780507 -1.92648648 47.23417411 -5.91137695 51.5168457 C-9.71385014 55.62760957 -13.24263299 59.92266523 -16.75390625 64.28515625 C-19.0883059 67.10673495 -21.51990598 69.80590712 -24 72.5 C-28.16214245 77.02406788 -32.0870852 81.69129376 -35.94921875 86.47265625 C-38.57126504 89.70401615 -41.27476207 92.8554947 -44 96 C-47.96870385 94.6251276 -50.77279987 92.79752511 -54 90.125 C-54.825 89.44695312 -55.65 88.76890625 -56.5 88.0703125 C-57.325 87.38710938 -58.15 86.70390625 -59 86 C-60.36511719 84.99259766 -60.36511719 84.99259766 -61.7578125 83.96484375 C-64 82 -64 82 -64.875 78.4375 C-64.45627303 71.98910473 -59.14797156 67.50784124 -55 63 C-53.86884766 61.74316406 -53.86884766 61.74316406 -52.71484375 60.4609375 C-51.22927404 58.81030449 -49.73830927 57.16451225 -48.2421875 55.5234375 C-45.95484096 52.94917642 -43.78451729 50.30710511 -41.625 47.625 C-37.94428153 43.07219493 -34.07351352 38.76582589 -30.08862305 34.4831543 C-26.28935383 30.37585417 -22.76377951 26.08407957 -19.25390625 21.7265625 C-16.08811818 17.89689167 -12.73754333 14.25051587 -9.375 10.59375 C-6.18938675 7.114725 -3.08653482 3.56688957 0 0 Z " fill="#FEDB97" transform="translate(64,296)"/>
<path d="M0 0 C4.07471721 2.35664615 6.51988064 5.35013347 9.09375 9.2109375 C8.22363281 9.72140625 8.22363281 9.72140625 7.3359375 10.2421875 C1.51632259 13.85303767 -2.07121398 17.59663712 -5.90625 23.2109375 C-8.4671629 26.59500098 -10.5456442 27.49951847 -14.53125 28.5859375 C-25.38361578 31.58629745 -32.94754115 37.90569679 -39.21875 47.14453125 C-41.99834891 52.05992491 -42.72441636 57.11248268 -43.4140625 62.671875 C-43.90625 65.2109375 -43.90625 65.2109375 -45.90625 67.2109375 C-46.2779834 66.57704102 -46.6497168 65.94314453 -47.03271484 65.29003906 C-57.26727074 47.88363695 -57.26727074 47.88363695 -69.90625 32.2109375 C-66.70230703 26.0866793 -61.93885281 23.32209115 -55.90625 20.2109375 C-53.87634136 19.60738144 -51.83404444 19.04386426 -49.78125 18.5234375 C-43.17255033 16.57668876 -40.73522796 12.61763443 -36.99609375 7.06640625 C-28.63337166 -4.36004206 -12.17535376 -5.57378208 0 0 Z " fill="#C27742" transform="translate(357.90625,24.7890625)"/>
<path d="M0 0 C10.74950678 8.61591315 19.56902206 18.70706618 24 32 C24.12890625 34.82421875 24.12890625 34.82421875 24 37 C21.4259052 35.01426972 19.04945197 33.0522778 16.8125 30.6875 C4.43360783 18.85878082 -10.53255012 13.50750897 -27.44921875 13.81640625 C-37.58376432 14.34041466 -45.77676821 16.85748431 -55 21 C-56.485 21.495 -56.485 21.495 -58 22 C-59.17908109 18.60834995 -60.34103966 15.21107288 -61.5 11.8125 C-61.83386719 10.85279297 -62.16773438 9.89308594 -62.51171875 8.90429688 C-62.82753906 7.97294922 -63.14335937 7.04160156 -63.46875 6.08203125 C-63.76201172 5.22843018 -64.05527344 4.3748291 -64.35742188 3.49536133 C-65.02681173 0.89588043 -65.11719018 -1.32764529 -65 -4 C-45.31590285 -15.64977178 -18.43589341 -13.02326896 0 0 Z " fill="#CF3736" transform="translate(384,107)"/>
<path d="M0 0 C7.84581579 4.21103107 14.70094592 10.65176864 17.6796875 19.2109375 C18.2352753 22.44241754 18.23376234 25.59824059 18.25 28.875 C18.26417969 30.17308594 18.27835937 31.47117188 18.29296875 32.80859375 C18.07807702 36.19222799 17.53416218 38.41855663 16.0625 41.4375 C10.36341978 40.31803781 4.8980376 38.78702066 -0.625 37 C-7.11089681 34.9068591 -13.54859532 33.32689818 -20.2421875 32.015625 C-22.9375 31.4375 -22.9375 31.4375 -24.9375 30.4375 C-25.51586914 28.49145508 -25.51586914 28.49145508 -25.97265625 25.95703125 C-26.14216797 25.03986328 -26.31167969 24.12269531 -26.48632812 23.17773438 C-26.65583984 22.21158203 -26.82535156 21.24542969 -27 20.25 C-27.17337891 19.30318359 -27.34675781 18.35636719 -27.52539062 17.38085938 C-28.37067301 12.73990286 -29.17847012 8.09340492 -29.9375 3.4375 C-20.94582511 -2.48642699 -10.19797689 -4.05801849 0 0 Z " fill="#FE959A" transform="translate(355.9375,125.5625)"/>
<path d="M0 0 C4.01501864 2.36127423 6.81368849 5.73076933 9.5625 9.4375 C1.84916384 17.23377526 -6.31391033 24.43271208 -14.84375 31.3203125 C-18.45584231 34.26873725 -21.95683426 37.33581792 -25.4375 40.4375 C-31.6692711 36.33019632 -33.60272655 31.57043949 -35.4375 24.4375 C-36.43551224 17.20191126 -33.40124914 11.76076777 -29.8125 5.6875 C-21.79652403 -1.9065825 -10.34112839 -4.54772377 0 0 Z " fill="#F7CB86" transform="translate(377.4375,278.5625)"/>
<path d="M0 0 C4.51367434 2.61406466 7.64423584 5.27476288 9.91015625 10.08984375 C10.56084411 15.94603448 9.83515358 19.84502095 6.91015625 25.08984375 C2.08227883 29.6763273 -2.04510378 30.50916188 -8.515625 30.43359375 C-12.65825516 29.8804049 -15.25131103 28.08607273 -18.08984375 25.08984375 C-21.04619296 20.70300298 -21.64149647 17.33054456 -21.08984375 12.08984375 C-19.41738095 6.89640662 -17.6510663 4.09357567 -13.08984375 1.08984375 C-12.16171875 0.47109375 -12.16171875 0.47109375 -11.21484375 -0.16015625 C-7.29292518 -1.5443628 -3.86247923 -1.68216385 0 0 Z " fill="#FFDB97" transform="translate(270.08984375,135.91015625)"/>
<path d="M0 0 C4.93731454 1.46290801 4.93731454 1.46290801 6.375 4 C6.875 7.375 6.875 7.375 6.375 11 C4.08908345 14.06965937 2.61997671 15.68875582 -1.125 16.625 C-4.83364386 15.69783903 -6.33485284 14.0099077 -8.625 11 C-9.25 8 -9.25 8 -8.625 5 C-5.91953265 1.14675862 -4.77773264 0 0 0 Z " fill="#FFDB98" transform="translate(292.625,207)"/>
<path d="M0 0 C3.375 1.0625 3.375 1.0625 5.3125 2.75 C6.7363395 5.8489448 6.92653827 7.68432812 6.375 11.0625 C4.3125 14 4.3125 14 1.375 16.0625 C-2.47710127 16.12891554 -4.62348005 15.93479157 -7.5625 13.375 C-8.9863395 10.2760552 -9.17653827 8.44067188 -8.625 5.0625 C-5.92665364 1.21940065 -4.75860157 0.08204485 0 0 Z " fill="#FFDB98" transform="translate(236.625,193.9375)"/>
<path d="M0 0 C2.92837227 2.11493553 3.86062938 3.52215788 4.875 7 C5.00658928 10.15814262 4.8163322 11.45713491 3 14 C0 16 0 16 -3.5 15.8125 C-7 15 -7 15 -8.9375 13.9375 C-10.69816113 10.72688264 -10.75353146 7.50004798 -10 4 C-7.02237714 0.59700244 -4.52746552 -0.92871088 0 0 Z " fill="#FFDB98" transform="translate(72,341)"/>
<path d="M0 0 C2.4375 1.625 2.4375 1.625 4 4 C4.64250722 7.77472994 4.26836859 9.50620179 2.4375 12.875 C0 15 0 15 -3.5 15.5625 C-7 15 -7 15 -9.4375 13.4375 C-11.60396028 10.05782196 -11.56288002 7.94016013 -11 4 C-8.11188513 -0.5054592 -5.11821063 -0.73117295 0 0 Z " fill="#F7CB86" transform="translate(132,461)"/>
<path d="M0 0 C2 1.625 2 1.625 3 4 C2.87870614 7.45687503 2.69088179 9.96367732 0.75 12.875 C-1.5983187 14.38463345 -3.19924148 14.86663055 -6 15 C-9.87426496 13.55841304 -10.81229578 12.40544111 -12.5625 8.625 C-13 5 -13 5 -11.25 2.125 C-7.35329034 -1.55522579 -5.17840331 -1.18103935 0 0 Z " fill="#F7CB86" transform="translate(407,216)"/>
<path d="M0 0 C2.4375 1.5625 2.4375 1.5625 4 4 C4.5625 7.5 4.5625 7.5 4 11 C1.9375 13.5 1.9375 13.5 -1 15 C-4.8137751 15 -7.02424548 14.84985071 -9.9375 12.3125 C-11.33817538 9.26397123 -11.4842732 7.32073048 -11 4 C-8.05899778 -0.47032338 -5.13105401 -0.73300772 0 0 Z " fill="#F7CB86" transform="translate(161,430)"/>
<path d="M0 0 C2.875 1 2.875 1 4.75 2.625 C6.3522351 6.00749632 6.40271588 8.30598881 5.875 12 C3.8125 14.5 3.8125 14.5 0.875 16 C-2.75 16.0625 -2.75 16.0625 -6.125 15 C-8.67009667 12.21630052 -9.125 10.70121165 -9.125 6.9375 C-7.4976102 2.15704246 -5.1223321 0 0 0 Z " fill="#F7CB86" transform="translate(364.125,226)"/>
</svg>
