<?xml version="1.0" encoding="iso-8859-1"?>
<svg version="1.1" id="Capa_1" xmlns="http://www.w3.org/2000/svg" xmlns:xlink="http://www.w3.org/1999/xlink" 
	 viewBox="0 0 408.113 408.113" xml:space="preserve">
    <defs>
        <!-- Plate Surface Gradient: Radial for 3D effect -->
        <radialGradient id="plateGradient" cx="50%" cy="50%" r="50%" fx="50%" fy="50%">
            <stop offset="70%" style="stop-color:#FFFFFF" />
            <stop offset="95%" style="stop-color:#ECF0F1" />
            <stop offset="100%" style="stop-color:#BDC3C7" />
        </radialGradient>
        
        <!-- Metallic Gradient for Utensils -->
        <linearGradient id="metalGradient" x1="0%" y1="0%" x2="100%" y2="100%">
            <stop offset="0%" style="stop-color:#95A5A6" />
            <stop offset="40%" style="stop-color:#ECF0F1" /> <!-- Shine -->
            <stop offset="60%" style="stop-color:#BDC3C7" />
            <stop offset="100%" style="stop-color:#7F8C8D" />
        </linearGradient>

        <!-- Inner Rim Shadow -->
        <radialGradient id="innerRimGradient" cx="50%" cy="50%" r="50%" fx="50%" fy="50%">
            <stop offset="85%" style="stop-color:#FFFFFF;stop-opacity:0" />
            <stop offset="100%" style="stop-color:#BDC3C7;stop-opacity:0.5" />
        </radialGradient>
    </defs>

    <!-- Base Shadow/Outer Rim for depth -->
    <path fill="#BDC3C7" d="M203.174,342.483c-76.33,0-138.429-62.097-138.429-138.424c0-76.33,62.099-138.429,138.429-138.429
	c76.327,0,138.424,62.099,138.424,138.429C341.598,280.387,279.501,342.483,203.174,342.483z"/>

    <!-- Main Plate Surface with Gradient -->
    <path fill="url(#plateGradient)" d="M203.174,75.63
	c-70.815,0-128.429,57.613-128.429,128.429c0,70.813,57.613,128.424,128.429,128.424c70.813,0,128.424-57.611,128.424-128.424
	C331.598,133.243,273.987,75.63,203.174,75.63z"/>

    <!-- Inner Well Edge (Subtle Definition) -->
    <path fill="none" stroke="#BDC3C7" stroke-width="2" d="M203.174,299.064
	c-52.389,0-95.01-42.619-95.01-95.005c0-52.389,42.621-95.01,95.01-95.01c52.386,0,95.005,42.622,95.005,95.01
	C298.179,256.445,255.56,299.064,203.174,299.064z"/>
    
    <!-- Inner Plate Bottom (Center) -->
     <circle cx="203.174" cy="204.059" r="85.005" fill="#FFFFFF" fill-opacity="0.6"/>

    <!-- Utensils (Silver/Metallic Gradient) -->
    <g fill="url(#metalGradient)">
        <!-- Fork Handle & Body -->
        <path d="M35.277,336.753H21.132c-2.762,0-5-2.239-5-5V176.161
        C6.603,171.921,0,162.824,0,152.311V82.113c0-2.761,2.238-5,5-5s5,2.239,5,5v65.198h5.468V82.113c0-2.761,2.238-5,5-5s5,2.239,5,5
        v65.198h5.474V82.113c0-2.761,2.238-5,5-5s5,2.239,5,5v65.198h5.469V82.113c0-2.761,2.238-5,5-5s5,2.239,5,5v70.198
        c0,10.513-6.604,19.61-16.133,23.851v155.591C40.277,334.514,38.039,336.753,35.277,336.753z"/>
        
        <!-- Fork Detail -->
        <path d="M26.132,326.753h4.146V178.703h-4.146
        V326.753z" opacity="0.5" fill="#7F8C8D"/>
        
        <!-- Fork Tines Tip -->
        <path d="M10.866,157.311c2.353,6.602,9.236,11.393,17.339,11.393s14.986-4.791,17.339-11.393H10.866z"/>
        
        <!-- Knife/Spoon Body -->
        <path d="M384.691,335.464h-14.6
        c-2.762,0-5-2.239-5-5V79.242c0-2.063,1.268-3.916,3.191-4.662c1.928-0.747,4.108-0.234,5.501,1.29
        c1.122,1.229,27.53,30.567,32.242,72.151c4.586,40.435,0.21,107.148,0.021,109.968c-0.176,2.626-2.357,4.667-4.989,4.667h-11.367
        v67.808C389.691,333.225,387.453,335.464,384.691,335.464z"/>
        
        <!-- Knife Blade Gradient Variation (Separate path for blade) -->
        <path d="M375.092,252.656h21.26
        c0.916-16.083,3.539-70.003-0.261-103.508c-2.673-23.579-13.229-43.257-20.999-54.955V252.656z" fill="#BDC3C7"/>
    </g>

    <!-- Glossy Reflection on Plate (Top Left) -->
    <path fill="#FFFFFF" fill-opacity="0.8" d="M104.805,140.978c-0.894,0-1.799-0.239-2.615-0.742c-2.353-1.447-3.085-4.527-1.638-6.879
	c16.541-26.879,47.096-41.172,48.388-41.767c2.509-1.156,5.479-0.059,6.634,2.45c1.154,2.507,0.059,5.475-2.447,6.631l0,0
	c-0.289,0.134-29.134,13.675-44.059,37.927C108.123,140.133,106.483,140.978,104.805,140.978z"/>
</svg>