<?xml version="1.0" encoding="UTF-8"?>
<svg version="1.1" xmlns="http://www.w3.org/2000/svg" width="512" height="512">
<path d="M0 0 C0.74636719 -0.01675781 1.49273437 -0.03351562 2.26171875 -0.05078125 C4.89184427 0.4151267 5.58679596 1.3078943 7.3125 3.3125 C8.65530101 5.96196637 9.57668143 8.76296667 10.5625 11.5625 C10.98402344 12.67044922 10.98402344 12.67044922 11.4140625 13.80078125 C13.13124252 18.62078655 13.86566298 22.25855697 12.3125 27.3125 C7.83803424 32.0357121 1.78274311 33.47076229 -4.23046875 35.4375 C-5.96336906 36.01890747 -5.96336906 36.01890747 -7.73127747 36.61206055 C-11.44265992 37.8553512 -15.15851568 39.08455366 -18.875 40.3125 C-40.23181466 47.41935666 -61.45719393 54.8194508 -82.6875 62.3125 C-83.0175 87.0625 -83.3475 111.8125 -83.6875 137.3125 C-73.48779297 137.24289063 -73.48779297 137.24289063 -63.08203125 137.171875 C-58.77537537 137.15143793 -54.46877924 137.13218224 -50.16210938 137.1171875 C-43.32563874 137.09327191 -36.4893823 137.06497338 -29.65307617 137.01074219 C-24.14175252 136.96729522 -18.63065855 136.94336503 -13.11917686 136.93299103 C-11.01600211 136.92559765 -8.91283999 136.91116019 -6.80976295 136.88957977 C-3.86484187 136.8605615 -0.92087103 136.85654339 2.02416992 136.85839844 C2.8945137 136.84401733 3.76485748 136.82963623 4.66157532 136.81481934 C8.64451014 136.84198419 10.79362058 137.00210865 14.27722168 139.08598328 C16.23734344 141.2302816 17.23276889 142.67241412 18.1652832 145.39086914 C18.44519608 146.18171402 18.72510895 146.9725589 19.01350403 147.78736877 C19.29393051 148.63226364 19.57435699 149.47715851 19.86328125 150.34765625 C20.16695114 151.22272324 20.47062103 152.09779022 20.78349304 152.99937439 C21.42021792 154.84344305 22.04928781 156.69017051 22.67114258 158.53930664 C23.62460231 161.37381772 24.60012164 164.19994355 25.58007812 167.02539062 C26.19660565 168.81986873 26.81188357 170.61477676 27.42578125 172.41015625 C27.71632889 173.25707535 28.00687653 174.10399445 28.30622864 174.97657776 C28.57038071 175.76427048 28.83453278 176.5519632 29.10668945 177.36352539 C29.34031693 178.05539444 29.5739444 178.74726349 29.81465149 179.46009827 C30.3125 181.3125 30.3125 181.3125 30.3125 184.3125 C30.91723145 184.29155273 31.52196289 184.27060547 32.14501953 184.24902344 C34.90900771 184.16541055 37.67272913 184.11369946 40.4375 184.0625 C41.38882812 184.02898437 42.34015625 183.99546875 43.3203125 183.9609375 C49.20467683 183.87921022 52.68344705 184.29137648 57.3125 188.3125 C60.74167072 192.01239473 61.61219749 194.8917349 61.8125 199.8125 C61.61219749 204.7332651 60.74167072 207.61260527 57.3125 211.3125 C52.62758297 214.92379021 49.05397233 216.45448085 43.203125 216.41015625 C42.44902344 216.40693359 41.69492187 216.40371094 40.91796875 216.40039062 C40.14066406 216.39201172 39.36335938 216.38363281 38.5625 216.375 C37.76972656 216.37048828 36.97695313 216.36597656 36.16015625 216.36132812 C34.21090492 216.34958565 32.26169262 216.33165146 30.3125 216.3125 C30.27214599 217.15660588 30.23179197 218.00071177 30.19021511 218.87039661 C29.4533565 232.33131937 27.99383184 245.70754201 26.56860352 259.11010742 C26.28571763 261.79394751 26.00309367 264.47781408 25.72076416 267.16171265 C25.03679062 273.65732012 24.34904593 280.15252274 23.65973014 286.64756527 C23.09960044 291.92545253 22.54054291 297.20345228 21.9822216 302.48153114 C20.39667447 317.46915848 18.80818179 332.45646948 17.21597505 347.44339081 C17.08767702 348.6510254 17.08767702 348.6510254 16.95678711 349.88305664 C16.8711494 350.6891349 16.7855117 351.49521315 16.69727891 352.32571802 C15.30578558 365.42512519 13.92146194 378.52527903 12.54031325 391.62578055 C11.11967551 405.10003212 9.69363266 418.5737022 8.26196235 432.04678613 C7.45921665 439.60229989 6.65872301 447.15803667 5.86407661 454.71440697 C5.18858088 461.13738252 4.50808988 467.55980419 3.82106561 473.98155727 C3.47081663 477.25677268 3.12371013 480.53226749 2.78133965 483.80831718 C2.4099968 487.35788203 2.02976668 490.90638416 1.64723206 494.45475769 C1.54090236 495.49150845 1.43457266 496.52825921 1.32502085 497.59642667 C1.22063698 498.54748172 1.11625311 499.49853677 1.00870609 500.47841167 C0.92191249 501.29714911 0.83511889 502.11588655 0.74569517 502.95943421 C0.2512569 505.6451654 -0.48026313 507.86120171 -1.6875 510.3125 C-5.33390461 512.74343641 -8.02041643 512.59507884 -12.23448181 512.57319641 C-13.01009777 512.57702196 -13.78571373 512.58084751 -14.5848332 512.58478898 C-17.19195907 512.59513367 -19.79886532 512.59112408 -22.40600586 512.5871582 C-24.27185775 512.59150386 -26.13770786 512.59668652 -28.0035553 512.60264587 C-33.07788459 512.61606275 -38.15213953 512.61661156 -43.22648311 512.61408257 C-47.45877675 512.61301469 -51.69105522 512.61789153 -55.92334563 512.622688 C-65.90585843 512.63379246 -75.88833361 512.63421529 -85.87084961 512.62817383 C-96.17792143 512.62213197 -106.48485681 512.6344483 -116.79190534 512.6557439 C-125.63357762 512.67334187 -134.47520639 512.67936411 -143.31689554 512.67610615 C-148.60098481 512.67429029 -153.88497676 512.67695964 -159.16905022 512.69082069 C-164.13733072 512.70336512 -169.10539805 512.70148711 -174.07367516 512.68840981 C-175.89902568 512.68603708 -177.72439106 512.6888035 -179.54972458 512.69703293 C-182.03791101 512.70744348 -184.52537461 512.69944602 -187.01353455 512.6867218 C-187.739117 512.69409609 -188.46469945 512.70147037 -189.21226925 512.70906812 C-193.40373591 512.66384682 -195.6989141 512.28652283 -198.6875 509.3125 C-199.46846426 506.59344947 -199.46846426 506.59344947 -199.85365868 503.36752129 C-200.00087765 502.20135206 -200.14809663 501.03518283 -200.29977679 499.83367515 C-200.42772545 498.67168735 -200.55567411 497.50969955 -200.6875 496.3125 C-200.8067821 495.32730196 -200.92606421 494.34210392 -201.04896092 493.3270514 C-201.39886463 490.36418467 -201.71754096 487.39930878 -202.02896118 484.43215942 C-202.14909305 483.31118107 -202.26922492 482.19020271 -202.39299715 481.03525531 C-202.79044364 477.31954144 -203.18356666 473.60338373 -203.57666016 469.88720703 C-203.86241472 467.20699902 -204.1484062 464.52681724 -204.43467712 461.84666443 C-205.12816852 455.34856851 -205.8183669 448.85012699 -206.50732352 442.35154887 C-207.06735082 437.06958066 -207.62853629 431.78773668 -208.19053268 426.50597763 C-208.27074718 425.75208644 -208.35096168 424.99819525 -208.43360692 424.22145887 C-208.59659493 422.68965773 -208.75958487 421.1578568 -208.92257671 419.62605606 C-210.44732833 405.29499027 -211.96824697 390.96351967 -213.48789994 376.63191245 C-214.79111148 364.34247959 -216.09790417 352.05343169 -217.40722656 339.76464844 C-218.92996035 325.47286804 -220.45027374 311.18083337 -221.96688497 296.88840187 C-222.12861898 295.36431008 -222.29035692 293.84021872 -222.45209885 292.31612778 C-222.53166807 291.5663455 -222.61123729 290.81656322 -222.6932177 290.04406027 C-223.25339606 284.76714038 -223.8153234 279.49040843 -224.37794876 274.21374893 C-225.06329304 267.78579414 -225.74603843 261.35756971 -226.42545034 254.92898507 C-226.77196227 251.6509454 -227.1200422 248.37308586 -227.47052956 245.09546852 C-227.85042105 241.5409755 -228.22578752 237.98603281 -228.6000061 234.43093872 C-228.71147936 233.39796728 -228.82295263 232.36499584 -228.93780386 231.30072224 C-229.46220693 226.27196808 -229.81000927 221.36853507 -229.6875 216.3125 C-230.821875 216.34730469 -231.95625 216.38210937 -233.125 216.41796875 C-251.00303128 216.81041334 -251.00303128 216.81041334 -256.23046875 211.84765625 C-260.57856835 206.86622002 -261.04042459 203.49859033 -260.96484375 197.07421875 C-260.45125892 191.96007118 -257.96417449 189.42150996 -254.21875 186.16796875 C-249.33030453 183.59937185 -245.23854228 183.87133862 -239.8125 184.0625 C-238.83796875 184.08054688 -237.8634375 184.09859375 -236.859375 184.1171875 C-234.46772193 184.16408266 -232.07813403 184.22969093 -229.6875 184.3125 C-229.57954102 183.49861816 -229.47158203 182.68473633 -229.36035156 181.84619141 C-228.56460254 177.66706538 -227.30391504 173.78988904 -225.921875 169.7734375 C-225.64659973 168.97016022 -225.37132446 168.16688293 -225.08770752 167.33926392 C-224.50544821 165.64903575 -223.92033095 163.9597897 -223.33251953 162.27148438 C-222.4396489 159.69370403 -221.5694085 157.10894764 -220.69921875 154.5234375 C-220.128989 152.87712385 -219.55741919 151.23127362 -218.984375 149.5859375 C-218.72895935 148.81607513 -218.4735437 148.04621277 -218.21038818 147.25302124 C-217.95372375 146.53192169 -217.69705933 145.81082214 -217.43261719 145.06787109 C-217.21579285 144.43754974 -216.99896851 143.80722839 -216.77557373 143.1578064 C-215.10269847 140.32071242 -213.52392379 139.02466367 -210.6875 137.3125 C-207.58569764 136.7552501 -204.54315875 136.80644882 -201.39916992 136.85839844 C-200.47185059 136.85781433 -199.54453125 136.85723022 -198.58911133 136.85662842 C-195.53167971 136.85940955 -192.47522954 136.89050337 -189.41796875 136.921875 C-187.29519686 136.92933727 -185.17241808 136.93503027 -183.04963684 136.93902588 C-177.46815909 136.95428319 -171.88709907 136.99356624 -166.30578613 137.0378418 C-160.60821178 137.07879216 -154.91056979 137.09703642 -149.21289062 137.1171875 C-138.03757709 137.16006007 -126.86257331 137.2283129 -115.6875 137.3125 C-115.69638245 136.30740387 -115.70526489 135.30230774 -115.7144165 134.26675415 C-115.79574187 124.76330386 -115.85557992 115.2599248 -115.89474869 105.75620461 C-115.91556323 100.87101282 -115.94376803 95.98610349 -115.98925781 91.10107422 C-116.03293535 86.38075383 -116.05668316 81.66070397 -116.06700897 76.94019699 C-116.0743612 75.1453768 -116.08871788 73.35057028 -116.11042023 71.55586624 C-116.32048233 53.45343207 -116.32048233 53.45343207 -111.6875 45.3125 C-111.31039383 44.64495193 -110.93328766 43.97740387 -110.54475403 43.28962708 C-103.74357015 32.04630234 -89.44435024 29.17766745 -77.8125 25.375 C-74.87965653 24.39946422 -71.94847209 23.41904706 -69.01730347 22.43849182 C-66.99448053 21.76218182 -64.97113792 21.08742431 -62.94729614 20.41416931 C-51.86282802 16.72251723 -40.83699391 12.86632523 -29.8125 9 C-27.08827411 8.04593708 -24.3639087 7.09227482 -21.6394043 6.13900757 C-20.02590738 5.57429543 -18.41260991 5.00901295 -16.79956055 4.44302368 C-4.18259763 0.02189842 -4.18259763 0.02189842 0 0 Z " fill="#FF6C4A" transform="translate(355.6875,-0.3125)"/>
<path d="M0 0 C0.74636719 -0.01675781 1.49273437 -0.03351562 2.26171875 -0.05078125 C4.89184427 0.4151267 5.58679596 1.3078943 7.3125 3.3125 C8.65530101 5.96196637 9.57668143 8.76296667 10.5625 11.5625 C10.98402344 12.67044922 10.98402344 12.67044922 11.4140625 13.80078125 C13.13124252 18.62078655 13.86566298 22.25855697 12.3125 27.3125 C7.83803424 32.0357121 1.78274311 33.47076229 -4.23046875 35.4375 C-5.96336906 36.01890747 -5.96336906 36.01890747 -7.73127747 36.61206055 C-11.44265992 37.8553512 -15.15851568 39.08455366 -18.875 40.3125 C-40.23181466 47.41935666 -61.45719393 54.8194508 -82.6875 62.3125 C-83.0175 87.0625 -83.3475 111.8125 -83.6875 137.3125 C-73.48779297 137.24289063 -73.48779297 137.24289063 -63.08203125 137.171875 C-58.77537537 137.15143793 -54.46877924 137.13218224 -50.16210938 137.1171875 C-43.32563874 137.09327191 -36.4893823 137.06497338 -29.65307617 137.01074219 C-24.14175252 136.96729522 -18.63065855 136.94336503 -13.11917686 136.93299103 C-11.01600211 136.92559765 -8.91283999 136.91116019 -6.80976295 136.88957977 C-3.86484187 136.8605615 -0.92087103 136.85654339 2.02416992 136.85839844 C2.8945137 136.84401733 3.76485748 136.82963623 4.66157532 136.81481934 C8.64451014 136.84198419 10.79362058 137.00210865 14.27722168 139.08598328 C16.23734344 141.2302816 17.23276889 142.67241412 18.1652832 145.39086914 C18.44519608 146.18171402 18.72510895 146.9725589 19.01350403 147.78736877 C19.29393051 148.63226364 19.57435699 149.47715851 19.86328125 150.34765625 C20.16695114 151.22272324 20.47062103 152.09779022 20.78349304 152.99937439 C21.42021792 154.84344305 22.04928781 156.69017051 22.67114258 158.53930664 C23.62460231 161.37381772 24.60012164 164.19994355 25.58007812 167.02539062 C26.19660565 168.81986873 26.81188357 170.61477676 27.42578125 172.41015625 C27.71632889 173.25707535 28.00687653 174.10399445 28.30622864 174.97657776 C28.57038071 175.76427048 28.83453278 176.5519632 29.10668945 177.36352539 C29.34031693 178.05539444 29.5739444 178.74726349 29.81465149 179.46009827 C30.3125 181.3125 30.3125 181.3125 30.3125 184.3125 C30.91723145 184.29155273 31.52196289 184.27060547 32.14501953 184.24902344 C34.90900771 184.16541055 37.67272913 184.11369946 40.4375 184.0625 C41.38882812 184.02898437 42.34015625 183.99546875 43.3203125 183.9609375 C49.20467683 183.87921022 52.68344705 184.29137648 57.3125 188.3125 C60.74167072 192.01239473 61.61219749 194.8917349 61.8125 199.8125 C61.61219749 204.7332651 60.74167072 207.61260527 57.3125 211.3125 C52.22039123 215.23766718 48.56863251 216.4350523 42.25114822 216.44392776 C40.71042487 216.44968948 40.71042487 216.44968948 39.13857579 216.4555676 C38.01174532 216.45470112 36.88491484 216.45383463 35.72393799 216.45294189 C34.52560042 216.45591302 33.32726285 216.45888414 32.09261203 216.4619453 C28.76501579 216.46912557 25.43747119 216.47180461 22.10987091 216.47254276 C18.52147341 216.47439411 14.93308708 216.48194186 11.34469604 216.48867798 C3.49754013 216.50225858 -4.34961068 216.50828559 -12.19677639 216.51268864 C-17.09685563 216.51545152 -21.9969329 216.51968895 -26.8970108 216.52419281 C-40.46468863 216.53638511 -54.03236488 216.54668451 -67.60004807 216.5500679 C-68.46837279 216.55028747 -69.33669752 216.55050703 -70.23133512 216.55073325 C-71.10173375 216.55095153 -71.97213239 216.55116981 -72.86890674 216.5513947 C-74.63265658 216.55183817 -76.39640641 216.55228473 -78.16015625 216.55273438 C-79.0350365 216.5529558 -79.90991676 216.55317723 -80.81130853 216.55340537 C-94.98676599 216.5573532 -109.16217203 216.5748069 -123.33760962 216.5980939 C-137.89233665 216.62181093 -152.44703789 216.63426991 -167.00178456 216.63543582 C-175.17332462 216.63635238 -183.34479768 216.64209996 -191.51631927 216.66025543 C-198.47472427 216.67566116 -205.43304158 216.68077411 -212.39146039 216.67251733 C-215.9408124 216.66861248 -219.48998784 216.66953218 -223.03931808 216.68357468 C-226.88995592 216.69866974 -230.74034571 216.69044214 -234.59100342 216.67999268 C-235.70891101 216.68804908 -236.82681859 216.69610548 -237.97860217 216.70440602 C-244.46734819 216.66319491 -251.21027462 216.56120313 -256.24156642 211.86056638 C-260.55350768 206.8406885 -261.04063907 203.51682086 -260.96484375 197.07421875 C-260.45125892 191.96007118 -257.96417449 189.42150996 -254.21875 186.16796875 C-249.33030453 183.59937185 -245.23854228 183.87133862 -239.8125 184.0625 C-238.83796875 184.08054688 -237.8634375 184.09859375 -236.859375 184.1171875 C-234.46772193 184.16408266 -232.07813403 184.22969093 -229.6875 184.3125 C-229.57954102 183.49861816 -229.47158203 182.68473633 -229.36035156 181.84619141 C-228.56460254 177.66706538 -227.30391504 173.78988904 -225.921875 169.7734375 C-225.64659973 168.97016022 -225.37132446 168.16688293 -225.08770752 167.33926392 C-224.50544821 165.64903575 -223.92033095 163.9597897 -223.33251953 162.27148438 C-222.4396489 159.69370403 -221.5694085 157.10894764 -220.69921875 154.5234375 C-220.128989 152.87712385 -219.55741919 151.23127362 -218.984375 149.5859375 C-218.72895935 148.81607513 -218.4735437 148.04621277 -218.21038818 147.25302124 C-217.95372375 146.53192169 -217.69705933 145.81082214 -217.43261719 145.06787109 C-217.21579285 144.43754974 -216.99896851 143.80722839 -216.77557373 143.1578064 C-215.10269847 140.32071242 -213.52392379 139.02466367 -210.6875 137.3125 C-207.58569764 136.7552501 -204.54315875 136.80644882 -201.39916992 136.85839844 C-200.47185059 136.85781433 -199.54453125 136.85723022 -198.58911133 136.85662842 C-195.53167971 136.85940955 -192.47522954 136.89050337 -189.41796875 136.921875 C-187.29519686 136.92933727 -185.17241808 136.93503027 -183.04963684 136.93902588 C-177.46815909 136.95428319 -171.88709907 136.99356624 -166.30578613 137.0378418 C-160.60821178 137.07879216 -154.91056979 137.09703642 -149.21289062 137.1171875 C-138.03757709 137.16006007 -126.86257331 137.2283129 -115.6875 137.3125 C-115.69638245 136.30740387 -115.70526489 135.30230774 -115.7144165 134.26675415 C-115.79574187 124.76330386 -115.85557992 115.2599248 -115.89474869 105.75620461 C-115.91556323 100.87101282 -115.94376803 95.98610349 -115.98925781 91.10107422 C-116.03293535 86.38075383 -116.05668316 81.66070397 -116.06700897 76.94019699 C-116.0743612 75.1453768 -116.08871788 73.35057028 -116.11042023 71.55586624 C-116.32048233 53.45343207 -116.32048233 53.45343207 -111.6875 45.3125 C-111.31039383 44.64495193 -110.93328766 43.97740387 -110.54475403 43.28962708 C-103.74357015 32.04630234 -89.44435024 29.17766745 -77.8125 25.375 C-74.87965653 24.39946422 -71.94847209 23.41904706 -69.01730347 22.43849182 C-66.99448053 21.76218182 -64.97113792 21.08742431 -62.94729614 20.41416931 C-51.86282802 16.72251723 -40.83699391 12.86632523 -29.8125 9 C-27.08827411 8.04593708 -24.3639087 7.09227482 -21.6394043 6.13900757 C-20.02590738 5.57429543 -18.41260991 5.00901295 -16.79956055 4.44302368 C-4.18259763 0.02189842 -4.18259763 0.02189842 0 0 Z " fill="#FFF09F" transform="translate(355.6875,-0.3125)"/>
<path d="M0 0 C1.85118895 -0.00935994 1.85118895 -0.00935994 3.73977566 -0.01890898 C7.15822247 -0.0320941 10.57578898 -0.02736207 13.99418211 -0.0149641 C17.6834181 -0.00591096 21.37257736 -0.01988462 25.0617981 -0.03088379 C32.2860933 -0.04867084 39.51022229 -0.04482824 46.73452401 -0.03323323 C52.60581594 -0.02419989 58.47706127 -0.02297447 64.34835815 -0.02732849 C65.60177888 -0.02824789 65.60177888 -0.02824789 66.88052124 -0.02918586 C68.57805166 -0.03046476 70.27558207 -0.03176161 71.97311246 -0.03307623 C87.89109122 -0.04448257 103.80897783 -0.03136749 119.72694147 -0.00987476 C133.38547132 0.00799628 147.04386518 0.00489219 160.70239258 -0.0135498 C176.56338395 -0.03495557 192.42429455 -0.04338393 208.28529835 -0.03110075 C209.97658601 -0.02982655 211.66787369 -0.02856907 213.35916138 -0.02732849 C214.19130848 -0.02671139 215.02345558 -0.02609429 215.88081926 -0.02545848 C221.74509999 -0.0220047 227.6093295 -0.02783453 233.47360229 -0.0372467 C240.62016937 -0.04846481 247.7665607 -0.04543068 254.91310763 -0.02412373 C258.55947082 -0.01361066 262.20554099 -0.00949557 265.85190201 -0.02272034 C269.80394024 -0.03683698 273.75549859 -0.01998213 277.70751953 0 C278.86101615 -0.00892289 280.01451277 -0.01784577 281.20296383 -0.02703905 C287.4063076 0.03399197 291.1532688 0.32068973 295.85375977 4.50793457 C299.28293049 8.2078293 300.15345725 11.08716947 300.35375977 16.00793457 C300.15345725 20.92869967 299.28293049 23.80803984 295.85375977 27.50793457 C290.761651 31.43310175 287.10989227 32.63048687 280.79240799 32.63936234 C279.25168464 32.64512405 279.25168464 32.64512405 277.67983556 32.65100217 C276.55300508 32.65013569 275.42617461 32.6492692 274.26519775 32.64837646 C272.4676914 32.65283315 272.4676914 32.65283315 270.63387179 32.65737987 C267.30627556 32.66456014 263.97873095 32.66723918 260.65113068 32.66797733 C257.06273317 32.66982868 253.47434685 32.67737643 249.88595581 32.68411255 C242.03879989 32.69769315 234.19164909 32.70372016 226.34448338 32.70812321 C221.44440414 32.71088609 216.54432687 32.71512353 211.64424896 32.71962738 C198.07657114 32.73181968 184.50889489 32.74211908 170.9412117 32.74550247 C170.07288697 32.74572204 169.20456225 32.7459416 168.30992465 32.74616782 C167.43952601 32.7463861 166.56912738 32.74660438 165.67235303 32.74682927 C163.90860319 32.74727274 162.14485335 32.7477193 160.38110352 32.74816895 C159.50622326 32.74839038 158.63134301 32.7486118 157.72995123 32.74883994 C143.55449378 32.75278777 129.37908774 32.77024147 115.20365015 32.79352847 C100.64892311 32.8172455 86.09422187 32.82970448 71.5394752 32.83087039 C63.36793515 32.83178695 55.19646209 32.83753453 47.02494049 32.85569 C40.06653549 32.87109573 33.10821819 32.87620868 26.14979938 32.8679519 C22.60044737 32.86404705 19.05127193 32.86496675 15.50194168 32.87900925 C11.65130385 32.89410431 7.80091405 32.88587671 3.95025635 32.87542725 C2.83234876 32.88348365 1.71444117 32.89154006 0.56265759 32.89984059 C-5.92608842 32.85862948 -12.66901486 32.7566377 -17.70030665 28.05600095 C-22.01224792 23.03612307 -22.4993793 19.71225543 -22.42358398 13.26965332 C-21.91316757 8.1870561 -19.43727238 5.65799905 -15.75694275 2.37952423 C-10.99255233 -0.68114043 -5.46697691 -0.04228987 0 0 Z " fill="#FFF8D5" transform="translate(117.146240234375,183.4920654296875)"/>
<path d="M0 0 C10.23 0 20.46 0 31 0 C30.29161681 14.70228269 28.81457981 29.27724146 27.25610352 43.91113281 C26.97317278 46.59511583 26.69054565 49.27912932 26.40826416 51.96318054 C25.72471412 58.4553544 25.03685125 64.94706399 24.34723014 71.4385955 C23.78687683 76.71357486 23.22784464 81.9886926 22.6697216 87.26390839 C21.08451084 102.24566374 19.49615788 117.22708071 17.90347505 132.20804361 C17.81794303 133.01256793 17.73241101 133.81709225 17.64428711 134.64599609 C17.5586494 135.45150885 17.4730117 136.2570216 17.38477891 137.08694384 C15.9930111 150.17979195 14.60872498 163.27341891 13.22781325 176.36741605 C11.80719143 189.83718118 10.38117889 203.30636596 8.94946235 216.77495646 C8.14677339 224.3271076 7.34629087 231.87947736 6.55157661 239.43247223 C5.87610154 245.85176632 5.19560827 252.2705037 4.50856561 258.68857047 C4.15831995 261.96176767 3.81121248 265.23524404 3.46883965 268.50927544 C3.09749776 272.05659783 2.71726846 275.60285678 2.33473206 279.14898682 C2.22840236 280.18505546 2.12207266 281.2211241 2.01252085 282.28858876 C1.90813698 283.23902712 1.80375311 284.18946547 1.69620609 285.16870499 C1.60941249 285.98690035 1.52261889 286.80509572 1.43319517 287.64808488 C0.93861874 290.3332528 0.20693115 292.54913829 -1 295 C-4.54013225 297.36008817 -6.01121955 297.23463644 -10.19921875 297.1953125 C-11.40771484 297.18886719 -12.61621094 297.18242188 -13.86132812 297.17578125 C-15.12396484 297.15902344 -16.38660156 297.14226562 -17.6875 297.125 C-18.96173828 297.11597656 -20.23597656 297.10695313 -21.54882812 297.09765625 C-24.69940627 297.07405641 -27.84960983 297.04113194 -31 297 C-30.58240995 278.41724269 -28.549174 260.04849301 -26.50537109 241.59130859 C-26.04922351 237.46450954 -25.60922027 233.33627824 -25.17578125 229.20703125 C-23.90997196 217.15675712 -22.54042583 205.12614828 -21.05664062 193.10083008 C-20.09504293 185.15556552 -19.34614367 177.20306595 -18.73413086 169.22338867 C-18.3473109 164.34817843 -17.81291586 159.52636768 -17.12890625 154.68359375 C-15.46972077 142.56472536 -14.39055682 130.37725909 -13.19787598 118.20550537 C-12.614414 112.25516504 -12.02629724 106.3052832 -11.4375 100.35546875 C-11.31202286 99.08701614 -11.18654572 97.81856354 -11.05726624 96.51167297 C-10.24741849 88.36868521 -9.38342281 80.23410607 -8.46044922 72.10327148 C-7.95893506 67.67442859 -7.49480376 63.24195231 -7.03515625 58.80859375 C-6.95589401 58.044935 -6.87663177 57.28127625 -6.79496765 56.49447632 C-6.63350146 54.93828779 -6.47207916 53.38209471 -6.31069946 51.82589722 C-5.04933558 39.6879258 -3.76115531 27.55477415 -2.3125 15.4375 C-2.19334229 14.43452881 -2.07418457 13.43155762 -1.95141602 12.39819336 C-1.44067956 8.20351666 -0.83063134 4.1531567 0 0 Z " fill="#FF4C3B" transform="translate(355,215)"/>
<path d="M0 0 C0.74636719 -0.01675781 1.49273437 -0.03351562 2.26171875 -0.05078125 C4.89184427 0.4151267 5.58679596 1.3078943 7.3125 3.3125 C8.65530101 5.96196637 9.57668143 8.76296667 10.5625 11.5625 C10.84351563 12.30113281 11.12453125 13.03976562 11.4140625 13.80078125 C13.13124252 18.62078655 13.86566298 22.25855697 12.3125 27.3125 C7.83803424 32.0357121 1.78274311 33.47076229 -4.23046875 35.4375 C-5.38573563 35.82510498 -6.5410025 36.21270996 -7.73127747 36.61206055 C-11.44265992 37.8553512 -15.15851568 39.08455366 -18.875 40.3125 C-40.23181466 47.41935666 -61.45719393 54.8194508 -82.6875 62.3125 C-83.0175 87.3925 -83.3475 112.4725 -83.6875 138.3125 C-94.2475 138.3125 -104.8075 138.3125 -115.6875 138.3125 C-115.77810721 127.66336455 -115.85139215 117.0144879 -115.89474869 106.36505318 C-115.91556459 101.41932909 -115.94377195 96.47388392 -115.98925781 91.52832031 C-116.03293039 86.74964557 -116.05668215 81.97123801 -116.06700897 77.192379 C-116.07436208 75.37523065 -116.08872049 73.55809582 -116.11042023 71.74106216 C-116.32038321 53.42011139 -116.32038321 53.42011139 -111.6875 45.3125 C-111.31039383 44.64523392 -110.93328766 43.97796783 -110.54475403 43.29048157 C-103.74625062 32.0460276 -89.44329716 29.17732318 -77.8125 25.375 C-74.87965653 24.39946422 -71.94847209 23.41904706 -69.01730347 22.43849182 C-66.99448053 21.76218182 -64.97113792 21.08742431 -62.94729614 20.41416931 C-51.86282802 16.72251723 -40.83699391 12.86632523 -29.8125 9 C-27.08827411 8.04593708 -24.3639087 7.09227482 -21.6394043 6.13900757 C-20.02590738 5.57429543 -18.41260991 5.00901295 -16.79956055 4.44302368 C-4.18259763 0.02189842 -4.18259763 0.02189842 0 0 Z " fill="#8DE5FE" transform="translate(355.6875,-0.3125)"/>
<path d="M0 0 C4.18084291 -0.09922585 8.36105371 -0.17163374 12.54272461 -0.21972656 C13.96374457 -0.23978421 15.38468259 -0.26703778 16.80541992 -0.30175781 C18.85355895 -0.35054011 20.90060275 -0.37302539 22.94921875 -0.390625 C24.17987061 -0.41157227 25.41052246 -0.43251953 26.6784668 -0.45410156 C30.80795991 0.11045979 32.21483042 0.89857775 35 4 C36.48700154 6.91603215 37.52098052 9.93247728 38.55078125 13.03515625 C38.85445114 13.91022324 39.15812103 14.78529022 39.47099304 15.68687439 C40.10771792 17.53094305 40.73678781 19.37767051 41.35864258 21.22680664 C42.31210231 24.06131772 43.28762164 26.88744355 44.26757812 29.71289062 C44.88410565 31.50736873 45.49938357 33.30227676 46.11328125 35.09765625 C46.40382889 35.94457535 46.69437653 36.79149445 46.99372864 37.66407776 C47.25788071 38.45177048 47.52203278 39.2394632 47.79418945 40.05102539 C48.02781693 40.74289444 48.2614444 41.43476349 48.50215149 42.14759827 C49 44 49 44 49 47 C38.11 47 27.22 47 16 47 C13.31342354 39.48484693 10.62726053 31.96958581 7.94628906 24.45243835 C6.6345877 20.77554019 5.31888356 17.10010842 4 13.42578125 C3.45818177 11.9089083 2.91650088 10.39198627 2.375 8.875 C2.1279834 8.19058838 1.8809668 7.50617676 1.62646484 6.80102539 C0 2.22771173 0 2.22771173 0 0 Z " fill="#FFE341" transform="translate(337,137)"/>
<path d="M0 0 C4.58978038 -0.0992963 9.17892788 -0.17166748 13.76953125 -0.21972656 C15.32921244 -0.23977222 16.88881913 -0.26701657 18.44824219 -0.30175781 C20.69745314 -0.35059126 22.9456659 -0.37303815 25.1953125 -0.390625 C26.23161301 -0.42159271 26.23161301 -0.42159271 27.28884888 -0.45318604 C32.33672179 -0.45549596 35.10075904 0.87001653 39 4 C42.42917072 7.69989473 43.29969749 10.5792349 43.5 15.5 C43.29969749 20.4207651 42.42917072 23.30010527 39 27 C32.93440939 31.67555943 28.49032632 32.17132339 21 32.125 C20.25049072 32.12306641 19.50098145 32.12113281 18.72875977 32.11914062 C12.4537507 32.07091769 6.24006849 31.67330219 0 31 C0.99 30.34 1.98 29.68 3 29 C8.40679211 24.97220894 8.40679211 24.97220894 11 19 C11.46121468 14.15724585 11.5309553 12.00502253 9.25 7.6875 C7.26095087 5.31169131 5.58320588 3.66658444 3 2 C2.01 1.34 1.02 0.68 0 0 Z " fill="#FFF0A0" transform="translate(374,184)"/>
<path d="M0 0 C3.71903852 2.90916351 4.73258613 6.94083927 6.25 11.25 C6.53101563 11.98863281 6.81203125 12.72726562 7.1015625 13.48828125 C8.81874252 18.30828655 9.55316298 21.94605697 8 27 C3.94247233 31.81778022 -2.48233987 33.01176928 -8.3125 34.75 C-9.33923828 35.06582031 -10.36597656 35.38164063 -11.42382812 35.70703125 C-13.94634712 36.48138592 -16.47154128 37.24531218 -19 38 C-20.43024742 34.06948228 -21.85423081 30.13676931 -23.27246094 26.2019043 C-23.75577135 24.86371832 -24.24078598 23.52614657 -24.72753906 22.18920898 C-25.42702345 20.26705444 -26.12034277 18.34277196 -26.8125 16.41796875 C-27.23144531 15.26063232 -27.65039062 14.1032959 -28.08203125 12.91088867 C-29 10 -29 10 -29 7 C-25.86274297 5.80933518 -22.71410123 4.65210264 -19.5625 3.5 C-18.68400391 3.16613281 -17.80550781 2.83226562 -16.90039062 2.48828125 C-11.43342603 0.51129774 -5.84031473 -1.28527655 0 0 Z " fill="#53D8FF" transform="translate(360,0)"/>
</svg>
