<?xml version="1.0" encoding="UTF-8"?>
<svg version="1.1" xmlns="http://www.w3.org/2000/svg" width="512" height="512">
<path d="M0 0 C1.641241 3.02998339 2.21816283 5.38702961 2.2890625 8.83984375 C1.24045261 12.25091005 -0.68128045 14.73258624 -3.375 17 C-6.21951311 18.08896214 -9.04586316 18.40410526 -12.0637207 18.7199707 C-12.90189237 18.82937894 -13.74006403 18.93878717 -14.60363483 19.05151081 C-16.3437545 19.27712853 -18.08528417 19.49211614 -19.82800674 19.69665909 C-22.92756722 20.06580946 -26.01453596 20.50450726 -29.10425091 20.94740582 C-32.85161265 21.48088891 -36.60378927 21.9784237 -40.35546875 22.48046875 C-41.99067224 22.70034235 -43.62587007 22.92025804 -45.26106262 23.14021301 C-48.64460942 23.59470402 -52.02840164 24.04731482 -55.41235352 24.4987793 C-59.73095403 25.07529748 -64.04858017 25.65880664 -68.36602306 26.24392223 C-71.72425744 26.69788622 -75.08311559 27.1470945 -78.44216347 27.5949955 C-80.03507706 27.80817552 -81.62776433 28.02305439 -83.22020531 28.23973656 C-85.44068268 28.54137554 -87.66195895 28.83629169 -89.88354492 29.12963867 C-91.76948616 29.38253914 -91.76948616 29.38253914 -93.69352722 29.64054871 C-97.63184896 30.02507819 -101.42115744 30.06089825 -105.375 30 C-105.51228516 31.88332031 -105.51228516 31.88332031 -105.65234375 33.8046875 C-106.50506337 42.33188371 -108.30942285 50.71954118 -109.9375 59.125 C-110.27058453 60.86190208 -110.6032702 62.59888069 -110.93554688 64.3359375 C-111.74409971 68.5581886 -112.55805169 72.77936563 -113.375 77 C-112.44341064 76.98952637 -111.51182129 76.97905273 -110.55200195 76.96826172 C-107.03130523 76.93378146 -103.51079293 76.90891033 -99.98999023 76.89013672 C-98.47824233 76.88019839 -96.96651301 76.86664302 -95.45483398 76.84912109 C-75.80990905 76.62743923 -58.97238249 79.01473954 -43.375 92 C-42.72917969 92.53238281 -42.08335937 93.06476563 -41.41796875 93.61328125 C-33.85817992 100.49047064 -28.40882358 110.32968732 -25.375 120 C-24.4571875 120.02578125 -23.539375 120.0515625 -22.59375 120.078125 C-14.34672837 120.45928987 -7.71194756 120.81556049 -1.59765625 126.71484375 C3.53562926 132.42788856 4.0319629 137.08711599 3.97265625 144.6953125 C3.33504983 150.75615551 0.43634791 154.18865209 -3.75 158.375 C-9.44642449 161.90135802 -14.02609304 162.09275442 -20.62890625 162.046875 C-21.89162354 162.04010742 -23.15434082 162.03333984 -24.45532227 162.02636719 C-25.41881592 162.01766602 -26.38230957 162.00896484 -27.375 162 C-27.43549404 162.60254388 -27.49598808 163.20508776 -27.55831528 163.82589054 C-32.97384172 217.7331068 -38.55589958 271.6230863 -44.18144989 325.50874901 C-45.62126747 339.30153119 -47.057061 353.09471788 -48.48581997 366.8886494 C-49.62508116 377.88651712 -50.7702363 388.88375927 -51.92063594 399.88046747 C-52.55991497 405.9928968 -53.19669704 412.10556059 -53.82706451 418.21891594 C-54.41477698 423.91758597 -55.0097089 429.61545698 -55.61009598 435.31280518 C-55.82758605 437.38851743 -56.04251552 439.46449997 -56.25458145 441.54077339 C-58.50558979 463.54918974 -60.99851098 483.30510669 -78.375 499 C-88.93943441 507.30283995 -100.24586216 510.61928979 -113.5625 510.51757812 C-115.29185791 510.52809204 -115.29185791 510.52809204 -117.05615234 510.53881836 C-120.82935387 510.55627991 -124.60179217 510.54481702 -128.375 510.53125 C-131.01954054 510.5339483 -133.66405879 510.53782867 -136.30859375 510.54284668 C-141.83602004 510.55009215 -147.36323145 510.5406176 -152.890625 510.52148438 C-159.25055668 510.49972136 -165.60997515 510.50677496 -171.96989441 510.52879 C-177.46331627 510.5470332 -182.95658505 510.54945913 -188.45002747 510.53903532 C-191.7166211 510.53284895 -194.98292535 510.53343587 -198.24951172 510.54518127 C-201.89585336 510.55541702 -205.54122967 510.53974623 -209.1875 510.51757812 C-210.24759277 510.52567505 -211.30768555 510.53377197 -212.39990234 510.54211426 C-226.3807287 510.38580411 -238.29336898 504.78581225 -248.5625 495.4375 C-258.94948914 484.43071109 -263.29196676 470.8663242 -264.74438477 456.12670898 C-264.91767083 454.49142966 -264.91767083 454.49142966 -265.09445763 452.8231144 C-265.48997602 449.06916151 -265.87167061 445.31392083 -266.25390625 441.55859375 C-266.54542851 438.75592212 -266.84005604 435.95357914 -267.13465881 433.15122986 C-267.72692442 427.5064022 -268.31499209 421.86115678 -268.89921063 416.21549064 C-270.34206027 402.27332708 -271.81247896 388.33411127 -273.28466797 374.39501953 C-275.48799066 353.52503179 -277.68564413 332.65445541 -279.87695312 311.78320312 C-279.94701206 311.11592895 -280.01707099 310.44865477 -280.08925292 309.76116017 C-280.65913927 304.33324268 -281.22901516 298.90532409 -281.79884417 293.47740059 C-282.96455986 282.37342874 -284.13154176 271.26959037 -285.29908376 260.16581041 C-286.51147168 248.63543968 -287.72307909 237.10498724 -288.93386847 225.57444853 C-289.6084832 219.15003433 -290.28339053 212.72565123 -290.95905876 206.30134773 C-291.58797286 200.32122536 -292.21589151 194.3409993 -292.84301758 188.36068916 C-293.0732557 186.16674547 -293.30385142 183.97283928 -293.53482246 181.77897263 C-293.848507 178.7989199 -294.16092586 175.81873721 -294.4730072 172.83851624 C-294.56550607 171.96263401 -294.65800494 171.08675178 -294.75330681 170.18432766 C-295.375 164.22830103 -295.375 164.22830103 -295.375 162 C-296.2928125 162.03480469 -297.210625 162.06960937 -298.15625 162.10546875 C-306.94342481 162.29930349 -313.4803997 162.12351239 -320.6875 156.6875 C-325.51829109 151.85670891 -326.5660489 148.24487352 -326.75 141.5 C-326.58280089 135.60790349 -326.04148852 131.7191599 -321.79296875 127.38671875 C-316.40767805 122.47073442 -311.88835141 120.81899099 -304.5625 120.375 C-302.82033203 120.26285156 -302.82033203 120.26285156 -301.04296875 120.1484375 C-300.16253906 120.09945312 -299.28210938 120.05046875 -298.375 120 C-298.09527344 119.24976562 -297.81554687 118.49953125 -297.52734375 117.7265625 C-291.12982544 101.39334855 -281.05047565 90.01546431 -265.375 82 C-254.72420991 77.80972317 -244.59534604 76.84615301 -233.27734375 76.88647461 C-232.19352921 76.88632858 -231.10971466 76.88618256 -229.99305725 76.8860321 C-226.4328507 76.88672531 -222.87269734 76.89448992 -219.3125 76.90234375 C-216.83528675 76.90421003 -214.35807313 76.90563294 -211.88085938 76.90663147 C-205.37732922 76.91044008 -198.87382158 76.9202562 -192.37030029 76.93133545 C-185.72733829 76.94158521 -179.08437408 76.94613672 -172.44140625 76.95117188 C-159.41926126 76.96187999 -146.39713183 76.97874283 -133.375 77 C-133.31209715 76.26706097 -133.2491943 75.53412193 -133.1843853 74.77897263 C-133.05599864 73.31887709 -133.05599864 73.31887709 -132.92501831 71.82928467 C-132.84149046 70.86947063 -132.75796261 69.9096566 -132.67190361 68.92075729 C-132.20740883 64.35133996 -131.43361706 59.84880726 -130.6328125 55.328125 C-130.37925491 53.87814117 -130.37925491 53.87814117 -130.12057495 52.39886475 C-129.76490305 50.37502597 -129.40681505 48.3516104 -129.04638672 46.32861328 C-128.49918637 43.24541561 -127.96609535 40.15998468 -127.43359375 37.07421875 C-127.08418949 35.09620274 -126.7339577 33.11833269 -126.3828125 31.140625 C-126.14825851 29.77009979 -126.14825851 29.77009979 -125.90896606 28.37188721 C-124.97372568 23.21024495 -124.06814904 18.53865645 -121.375 14 C-116.01004817 11.16744006 -110.87072534 10.23549185 -104.89819336 9.46606445 C-103.97356293 9.33882996 -103.0489325 9.21159546 -102.09628296 9.08050537 C-99.05374296 8.66464674 -96.00947477 8.26352053 -92.96484375 7.86328125 C-90.83354005 7.57672386 -88.70232074 7.28953819 -86.57118225 7.00175476 C-82.10599745 6.40112819 -77.63992834 5.8077251 -73.1730957 5.21948242 C-67.48150854 4.46942673 -61.79239814 3.70220543 -56.10384274 2.92953205 C-51.70092197 2.33335167 -47.29683976 1.74613987 -42.89236641 1.16155052 C-40.7963071 0.88234008 -38.70059649 0.60049764 -36.60526848 0.31585121 C-6.37269257 -3.77641041 -6.37269257 -3.77641041 0 0 Z " fill="#F1F0F0" transform="translate(417.375,2)"/>
<path d="M0 0 C1.641241 3.02998339 2.21816283 5.38702961 2.2890625 8.83984375 C1.24045261 12.25091005 -0.68128045 14.73258624 -3.375 17 C-6.21951311 18.08896214 -9.04586316 18.40410526 -12.0637207 18.7199707 C-12.90189237 18.82937894 -13.74006403 18.93878717 -14.60363483 19.05151081 C-16.3437545 19.27712853 -18.08528417 19.49211614 -19.82800674 19.69665909 C-22.92756722 20.06580946 -26.01453596 20.50450726 -29.10425091 20.94740582 C-32.85161265 21.48088891 -36.60378927 21.9784237 -40.35546875 22.48046875 C-41.99067224 22.70034235 -43.62587007 22.92025804 -45.26106262 23.14021301 C-48.64460942 23.59470402 -52.02840164 24.04731482 -55.41235352 24.4987793 C-59.73095403 25.07529748 -64.04858017 25.65880664 -68.36602306 26.24392223 C-71.72425744 26.69788622 -75.08311559 27.1470945 -78.44216347 27.5949955 C-80.03507706 27.80817552 -81.62776433 28.02305439 -83.22020531 28.23973656 C-85.44068268 28.54137554 -87.66195895 28.83629169 -89.88354492 29.12963867 C-91.76948616 29.38253914 -91.76948616 29.38253914 -93.69352722 29.64054871 C-97.63184896 30.02507819 -101.42115744 30.06089825 -105.375 30 C-105.51228516 31.88332031 -105.51228516 31.88332031 -105.65234375 33.8046875 C-106.50506337 42.33188371 -108.30942285 50.71954118 -109.9375 59.125 C-110.27058453 60.86190208 -110.6032702 62.59888069 -110.93554688 64.3359375 C-111.74409971 68.5581886 -112.55805169 72.77936563 -113.375 77 C-112.44341064 76.98952637 -111.51182129 76.97905273 -110.55200195 76.96826172 C-107.03130523 76.93378146 -103.51079293 76.90891033 -99.98999023 76.89013672 C-98.47824233 76.88019839 -96.96651301 76.86664302 -95.45483398 76.84912109 C-75.80990905 76.62743923 -58.97238249 79.01473954 -43.375 92 C-42.72917969 92.53238281 -42.08335937 93.06476563 -41.41796875 93.61328125 C-33.85817992 100.49047064 -28.40882358 110.32968732 -25.375 120 C-24.4571875 120.02578125 -23.539375 120.0515625 -22.59375 120.078125 C-14.34672837 120.45928987 -7.71194756 120.81556049 -1.59765625 126.71484375 C3.53562926 132.42788856 4.0319629 137.08711599 3.97265625 144.6953125 C3.33504983 150.75615551 0.43634791 154.18865209 -3.75 158.375 C-9.44642449 161.90135802 -14.02609304 162.09275442 -20.62890625 162.046875 C-21.89162354 162.04010742 -23.15434082 162.03333984 -24.45532227 162.02636719 C-25.41881592 162.01766602 -26.38230957 162.00896484 -27.375 162 C-27.4560347 162.80226013 -27.5370694 163.60452026 -27.62055969 164.43109131 C-28.39874017 172.13371536 -29.17775568 179.83625435 -29.95762348 187.53870773 C-30.35816775 191.49499987 -30.75843056 195.45131998 -31.15795898 199.40771484 C-32.14875006 209.2174982 -33.14572572 219.02662548 -34.15283966 228.83474731 C-34.37356866 230.98604969 -34.593506 233.13743208 -34.81341553 235.28881836 C-35.2179664 239.23997756 -35.62988755 243.19034804 -36.04296875 247.140625 C-36.1634407 248.31953308 -36.28391266 249.49844116 -36.40803528 250.71307373 C-36.52112534 251.78261292 -36.63421539 252.8521521 -36.75073242 253.95410156 C-36.8477092 254.88595276 -36.94468597 255.81780396 -37.04460144 256.77789307 C-37.375 259 -37.375 259 -38.375 261 C-44.01118612 260.39528791 -49.33546211 259.3874229 -54.81640625 257.9609375 C-55.60884735 257.75935028 -56.40128845 257.55776306 -57.21774292 257.35006714 C-58.91279534 256.91886507 -60.6073649 256.48576107 -62.30148315 256.05090332 C-77.02412912 252.27585715 -91.77359701 248.70332611 -106.61010742 245.40600586 C-117.57574087 242.96815507 -128.49676514 240.36711989 -139.41259766 237.71630859 C-142.2981555 237.01858099 -145.1856839 236.32982014 -148.07421875 235.64453125 C-161.28270133 232.50632203 -174.45684838 229.23996244 -187.625 225.9375 C-209.3711222 220.48679239 -231.1740542 215.33900084 -253.02270508 210.31640625 C-262.90506051 208.04303719 -272.78133207 205.74905274 -282.62695312 203.3203125 C-285.62068534 202.59217816 -288.28083136 202 -291.375 202 C-292.695 188.8 -294.015 175.6 -295.375 162 C-299.995 162 -304.615 162 -309.375 162 C-316.36301833 160.15593961 -320.91749998 157.2766667 -325.25 151.5 C-327.33191701 145.02292485 -327.32119061 138.06120492 -325.3125 131.5625 C-321.55466357 126.59245827 -317.3637944 122.92404104 -311.375 121 C-309.11203593 120.71878758 -306.83869338 120.51295111 -304.5625 120.375 C-302.82033203 120.26285156 -302.82033203 120.26285156 -301.04296875 120.1484375 C-300.16253906 120.09945312 -299.28210938 120.05046875 -298.375 120 C-298.09527344 119.24976562 -297.81554687 118.49953125 -297.52734375 117.7265625 C-291.12982544 101.39334855 -281.05047565 90.01546431 -265.375 82 C-254.72420991 77.80972317 -244.59534604 76.84615301 -233.27734375 76.88647461 C-232.19352921 76.88632858 -231.10971466 76.88618256 -229.99305725 76.8860321 C-226.4328507 76.88672531 -222.87269734 76.89448992 -219.3125 76.90234375 C-216.83528675 76.90421003 -214.35807313 76.90563294 -211.88085938 76.90663147 C-205.37732922 76.91044008 -198.87382158 76.9202562 -192.37030029 76.93133545 C-185.72733829 76.94158521 -179.08437408 76.94613672 -172.44140625 76.95117188 C-159.41926126 76.96187999 -146.39713183 76.97874283 -133.375 77 C-133.31209715 76.26706097 -133.2491943 75.53412193 -133.1843853 74.77897263 C-133.05599864 73.31887709 -133.05599864 73.31887709 -132.92501831 71.82928467 C-132.84149046 70.86947063 -132.75796261 69.9096566 -132.67190361 68.92075729 C-132.20740883 64.35133996 -131.43361706 59.84880726 -130.6328125 55.328125 C-130.37925491 53.87814117 -130.37925491 53.87814117 -130.12057495 52.39886475 C-129.76490305 50.37502597 -129.40681505 48.3516104 -129.04638672 46.32861328 C-128.49918637 43.24541561 -127.96609535 40.15998468 -127.43359375 37.07421875 C-127.08418949 35.09620274 -126.7339577 33.11833269 -126.3828125 31.140625 C-126.14825851 29.77009979 -126.14825851 29.77009979 -125.90896606 28.37188721 C-124.97372568 23.21024495 -124.06814904 18.53865645 -121.375 14 C-116.01004817 11.16744006 -110.87072534 10.23549185 -104.89819336 9.46606445 C-103.97356293 9.33882996 -103.0489325 9.21159546 -102.09628296 9.08050537 C-99.05374296 8.66464674 -96.00947477 8.26352053 -92.96484375 7.86328125 C-90.83354005 7.57672386 -88.70232074 7.28953819 -86.57118225 7.00175476 C-82.10599745 6.40112819 -77.63992834 5.8077251 -73.1730957 5.21948242 C-67.48150854 4.46942673 -61.79239814 3.70220543 -56.10384274 2.92953205 C-51.70092197 2.33335167 -47.29683976 1.74613987 -42.89236641 1.16155052 C-40.7963071 0.88234008 -38.70059649 0.60049764 -36.60526848 0.31585121 C-6.37269257 -3.77641041 -6.37269257 -3.77641041 0 0 Z " fill="#EBEFF1" transform="translate(417.375,2)"/>
<path d="M0 0 C7.23949334 1.38537803 14.40128458 3.00758962 21.5625 4.75 C23.7825397 5.28650959 26.00259214 5.82296645 28.22265625 6.359375 C29.34816895 6.63201172 30.47368164 6.90464844 31.63330078 7.18554688 C36.92039306 8.46457079 42.21026317 9.73196676 47.5 11 C49.58334812 11.49993837 51.66668142 11.99993851 53.75 12.5 C54.78125 12.7475 55.8125 12.995 56.875 13.25 C66.25 15.5 66.25 15.5 69.37158203 16.24926758 C71.46625548 16.75193036 73.56098253 17.25436986 75.65576172 17.7565918 C80.69104313 18.96407555 85.72550509 20.17470819 90.7578125 21.39453125 C103.65283647 24.51429511 116.57073101 27.52611591 129.5 30.5 C152.16956613 35.71729781 174.77425494 41.15559228 197.33081055 46.84179688 C198.07181503 47.02813187 198.81281952 47.21446686 199.57627869 47.40644836 C200.94329783 47.75025948 202.31007868 48.09502062 203.67652893 48.44108582 C210.09586065 50.05406165 216.54806564 51.52382561 223 53 C222.27916643 60.58218369 221.54931303 68.16345571 220.80852795 75.74371529 C220.46467115 79.26510954 220.12370969 82.78673 219.78979492 86.30908203 C219.40409642 90.37623872 219.00503454 94.44199454 218.60546875 98.5078125 C218.48970993 99.74798126 218.37395111 100.98815002 218.25468445 102.26589966 C216.29753063 121.85716476 212.10813973 138.35393831 197 152 C186.43556559 160.30283995 175.12913784 163.61928979 161.8125 163.51757812 C160.65959473 163.5245874 159.50668945 163.53159668 158.31884766 163.53881836 C154.54564613 163.55627991 150.77320783 163.54481702 147 163.53125 C144.35545946 163.5339483 141.71094121 163.53782867 139.06640625 163.54284668 C133.53897996 163.55009215 128.01176855 163.5406176 122.484375 163.52148438 C116.12444332 163.49972136 109.76502485 163.50677496 103.40510559 163.52879 C97.91168373 163.5470332 92.41841495 163.54945913 86.92497253 163.53903532 C83.6583789 163.53284895 80.39207465 163.53343587 77.12548828 163.54518127 C73.47914664 163.55541702 69.83377033 163.53974623 66.1875 163.51757812 C65.12740723 163.52567505 64.06731445 163.53377197 62.97509766 163.54211426 C48.9942713 163.38580411 37.08163102 157.78581225 26.8125 148.4375 C15.59146032 136.54689211 11.92818907 122.26632248 10.3515625 106.45703125 C10.21378891 105.1543631 10.07601532 103.85169495 9.93406677 102.509552 C9.56325663 99.00250817 9.20401993 95.49437163 8.84718704 91.98588181 C8.47435567 88.33893236 8.09115116 84.69307437 7.70874023 81.04711914 C7.16909311 75.89422881 6.63274445 70.74101604 6.10053921 65.5873518 C5.23756886 57.23502917 4.34550245 48.88620381 3.43359375 40.5390625 C3.19769081 38.37004267 2.96184888 36.2010162 2.72607422 34.03198242 C2.39801429 31.01475473 2.06912287 27.9976353 1.73687744 24.98086548 C1.43646763 22.24677476 1.14141771 19.5121556 0.84765625 16.77734375 C0.76051865 15.99690704 0.67338104 15.21647034 0.58360291 14.41238403 C0.0708304 9.58009982 -0.07459789 4.85986363 0 0 Z " fill="#F34336" transform="translate(142,349)"/>
<path d="M0 0 C88.44 0 176.88 0 268 0 C263.20945265 49.10311031 263.20945265 49.10311031 261.18969727 68.33618164 C260.79772705 72.07854579 260.41163545 75.82149417 260.02539062 79.56445312 C259.77378948 81.96878686 259.52185146 84.37308537 259.26953125 86.77734375 C259.15599808 87.88520737 259.0424649 88.99307098 258.92549133 90.13450623 C258.81835312 91.14320267 258.7112149 92.15189911 258.60083008 93.19116211 C258.46237419 94.51790199 258.46237419 94.51790199 258.32112122 95.8714447 C258 98 258 98 257 100 C251.36381388 99.39528791 246.03953789 98.3874229 240.55859375 96.9609375 C239.76615265 96.75935028 238.97371155 96.55776306 238.15725708 96.35006714 C236.46220466 95.91886507 234.7676351 95.48576107 233.07351685 95.05090332 C218.35087088 91.27585715 203.60140299 87.70332611 188.76489258 84.40600586 C177.79925913 81.96815507 166.87823486 79.36711989 155.96240234 76.71630859 C153.0768445 76.01858099 150.1893161 75.32982014 147.30078125 74.64453125 C134.09229867 71.50632203 120.91815162 68.23996244 107.75 64.9375 C86.0038778 59.48679239 64.2009458 54.33900084 42.35229492 49.31640625 C32.46993949 47.04303719 22.59366793 44.74905274 12.74804688 42.3203125 C9.75431466 41.59217816 7.09416864 41 4 41 C2.68 27.47 1.36 13.94 0 0 Z " fill="#F34337" transform="translate(122,163)"/>
<path d="M0 0 C1.05004032 -0.00644889 2.10008065 -0.01289778 3.18194038 -0.0195421 C4.90283536 -0.01489629 4.90283536 -0.01489629 6.6584959 -0.01015663 C7.88218921 -0.01468774 9.10588251 -0.01921886 10.36665744 -0.02388728 C13.76045815 -0.03436006 17.15404699 -0.0358567 20.54784882 -0.03349853 C24.20917697 -0.03309039 27.8704735 -0.04412922 31.53178692 -0.05361366 C38.70403624 -0.07022538 45.8762527 -0.07572329 53.04851965 -0.07683842 C58.87880994 -0.07778883 64.70908939 -0.08189876 70.53937626 -0.08823967 C87.07057424 -0.10585268 103.60174625 -0.11507847 120.13295368 -0.11357872 C121.46970849 -0.11345885 121.46970849 -0.11345885 122.83346844 -0.11333656 C124.1718561 -0.11321392 124.1718561 -0.11321392 125.53728189 -0.1130888 C139.99722395 -0.11227592 154.45706183 -0.13141395 168.91697375 -0.1596133 C183.76554105 -0.18834201 198.61405754 -0.20215359 213.46265334 -0.20042574 C221.79851536 -0.19976183 230.13426818 -0.20525471 238.47010517 -0.22678185 C245.56758143 -0.2449935 252.66489899 -0.24934117 259.76238851 -0.235763 C263.38267682 -0.22923315 267.00266068 -0.22911634 270.62292004 -0.2464695 C274.55020281 -0.26510047 278.47704109 -0.25264595 282.40434551 -0.23720741 C283.54491667 -0.24749454 284.68548783 -0.25778167 285.86062175 -0.26838052 C293.46517986 -0.20226272 298.90523524 0.88962691 304.78048992 6.07367516 C305.23552898 6.64988609 305.69056805 7.22609703 306.15939617 7.81976891 C306.63248211 8.39855797 307.10556805 8.97734703 307.59298992 9.57367516 C311.00599433 14.66365751 310.3360058 21.41977739 309.72189617 27.25726891 C307.77723739 32.40536975 304.40160037 36.36030916 299.72189617 39.25726891 C293.40209593 41.61219437 287.38778293 41.54042608 280.69664288 41.51796532 C278.88304096 41.52370364 278.88304096 41.52370364 277.03280061 41.52955788 C273.68911948 41.53807467 270.34565891 41.53766055 267.00198424 41.53337729 C263.39113854 41.53090694 259.78031849 41.53992803 256.16948223 41.54741478 C249.10044082 41.5601549 242.0314374 41.56195635 234.96238644 41.55961452 C229.21604987 41.55783054 223.46972482 41.5595827 217.72338963 41.56383896 C216.90514091 41.56443415 216.0868922 41.56502934 215.24384807 41.56564256 C213.58151265 41.56685433 211.91917724 41.56806846 210.25684183 41.56928494 C194.6726521 41.58015769 179.08848402 41.57799915 163.50429308 41.57190009 C149.2514245 41.56673035 134.99862427 41.57798837 120.74576921 41.59699831 C106.10506184 41.61637564 91.46438679 41.62463295 76.82366651 41.62087506 C68.60634578 41.61896296 60.38908322 41.62145149 52.17177296 41.6355896 C45.17683661 41.64750298 38.18199425 41.64890874 31.18705661 41.63679943 C27.61946133 41.63091062 24.05203798 41.62981129 20.48445415 41.64180183 C16.61426196 41.65465812 12.74433026 41.64419629 8.87413311 41.63149071 C7.75048998 41.63886499 6.62684686 41.64623928 5.46915394 41.65383703 C-3.72783435 41.59027252 -10.6310864 39.90428633 -17.27810383 33.25726891 C-21.47371744 27.66311743 -20.88385222 20.93756456 -20.27810383 14.25726891 C-18.5987448 8.82404851 -14.91276941 5.3974913 -10.27810383 2.25726891 C-6.71329279 0.59925372 -3.92076636 0.00610298 0 0 Z " fill="#CED7DB" transform="translate(111.27810382843018,122.74273109436035)"/>
<path d="M0 0 C9.58748201 0.5588683 18.55594489 2.97840748 27.8125 5.375 C30.17897018 5.98115106 32.54596185 6.58520748 34.91325378 7.18814087 C36.37438582 7.56097375 37.83498856 7.93589161 39.2948761 8.31356812 C45.835598 9.99499034 52.41593881 11.49863 59 13 C58.27916643 20.58218369 57.54931303 28.16345571 56.80852795 35.74371529 C56.46467115 39.26510954 56.12370969 42.78673 55.78979492 46.30908203 C55.40409642 50.37623872 55.00503454 54.44199454 54.60546875 58.5078125 C54.48970993 59.74798126 54.37395111 60.98815002 54.25468445 62.26589966 C52.29753063 81.85716476 48.10813973 98.35393831 33 112 C22.43556559 120.30283995 11.12913784 123.61928979 -2.1875 123.51757812 C-3.91685791 123.52809204 -3.91685791 123.52809204 -5.68115234 123.53881836 C-9.45435387 123.55627991 -13.22679217 123.54481702 -17 123.53125 C-19.64454054 123.5339483 -22.28905879 123.53782867 -24.93359375 123.54284668 C-30.46102004 123.55009215 -35.98823145 123.5406176 -41.515625 123.52148438 C-47.87555668 123.49972136 -54.23497515 123.50677496 -60.59489441 123.52879 C-66.08831627 123.5470332 -71.58158505 123.54945913 -77.07502747 123.53903532 C-80.3416211 123.53284895 -83.60792535 123.53343587 -86.87451172 123.54518127 C-90.52085336 123.55541702 -94.16622967 123.53974623 -97.8125 123.51757812 C-98.87259277 123.52567505 -99.93268555 123.53377197 -101.02490234 123.54211426 C-115.04355556 123.38538119 -127.02220752 117.77320804 -137.25 108.3125 C-142.43740571 102.83571422 -148 95.71185607 -148 88 C-146.19834381 87.99120064 -146.19834381 87.99120064 -144.36029053 87.98222351 C-133.00303532 87.92484002 -121.64596872 87.85199735 -110.2889061 87.76428509 C-104.45108184 87.71968836 -98.61332565 87.68040883 -92.77539062 87.65356445 C-87.13423912 87.62742458 -81.49335107 87.58694719 -75.85236359 87.53681374 C-73.70759628 87.52021704 -71.56278347 87.5086582 -69.41796112 87.50238609 C-49.76585849 87.43913909 -34.23582266 85.62448461 -19.2890625 71.484375 C-10.10159412 61.51299293 -5.75136421 49.91749366 -4.375 36.625 C-4.19735107 35.07474121 -4.19735107 35.07474121 -4.01611328 33.49316406 C-3.14258314 25.75347363 -2.3549849 18.00117813 -1.64599609 10.24462891 C-1.31949641 6.73862667 -0.91639485 3.39888863 0 0 Z " fill="#D42E30" transform="translate(306,389)"/>
<path d="M0 0 C3.62293668 0.78002653 7.24523233 1.56299263 10.86743164 2.34643555 C11.87962013 2.56432487 12.89180862 2.7822142 13.93466949 3.00670624 C23.48784653 5.075618 32.9650791 7.40479769 42.4375 9.8125 C44.06697072 10.22365053 45.69652803 10.63445808 47.32617188 11.04492188 C51.2185979 12.02542656 55.10939106 13.01231071 59 14 C58.34918968 28.58361727 56.84664301 43.05701527 55.3125 57.5703125 C55.04698441 60.10754335 54.78177171 62.64480591 54.5168457 65.18209839 C53.96441716 70.46539783 53.40959971 75.7484376 52.85253906 81.03125 C52.13933939 87.79493608 51.43099949 94.5591221 50.72413635 101.32347298 C50.1781347 106.54808325 49.63032138 111.77250321 49.0821228 116.99688339 C48.82032995 119.4918846 48.55879176 121.98691253 48.29751587 124.48196793 C47.93280008 127.96094486 47.56628956 131.43972789 47.19921875 134.91845703 C47.09217621 135.94191727 46.98513367 136.9653775 46.87484741 138.01985168 C46.34412008 143.03093162 45.75436307 148.01750992 45 153 C36.77998244 152.01123667 29.00532092 150.29260203 21.03857422 148.10986328 C9.46211495 144.97966918 -2.28315672 142.540816 -14 140 C-13.38035278 125.41709986 -11.83214061 110.94692829 -10.27352786 96.43902469 C-9.90896178 93.03746085 -9.54899245 89.63541035 -9.18849182 86.2334137 C-8.50817498 79.81980703 -7.82384989 73.40663497 -7.13800722 66.99361712 C-6.35610831 59.68051866 -5.57879541 52.36693493 -4.80182731 45.05331123 C-3.20624475 30.0350035 -1.6050342 15.01730079 0 0 Z " fill="#CDCFD1" transform="translate(320,249)"/>
<path d="M0 0 C19.8 0 39.6 0 60 0 C58.37336495 16.09700215 58.37336495 16.09700215 57.65820312 23.16015625 C57.17734563 27.90929505 56.69663596 32.65844835 56.21704102 37.40771484 C55.22624994 47.2174982 54.22927428 57.02662548 53.22216034 66.83474731 C53.00143134 68.98604969 52.781494 71.13743208 52.56158447 73.28881836 C52.1570336 77.23997756 51.74511245 81.19034804 51.33203125 85.140625 C51.2115593 86.31953308 51.09108734 87.49844116 50.96696472 88.71307373 C50.85387466 89.78261292 50.74078461 90.8521521 50.62426758 91.95410156 C50.5272908 92.88595276 50.43031403 93.81780396 50.33039856 94.77789307 C50 97 50 97 49 99 C43.11086035 98.37852246 37.54912517 97.26541413 31.8203125 95.78515625 C30.96750702 95.5693541 30.11470154 95.35355194 29.23605347 95.13121033 C26.53119632 94.44616063 23.82800851 93.75480461 21.125 93.0625 C18.42894019 92.37457162 15.73253003 91.68810335 13.03536987 91.00450134 C11.36502628 90.58089799 9.69531614 90.15478504 8.02639771 89.7256012 C2.3850275 88.29146584 -3.28318056 87.0936888 -9 86 C-8.66362002 73.25119892 -7.33969515 60.67190097 -5.78973389 48.02423096 C-4.53748003 37.80520032 -3.41905876 27.6015362 -2.68383789 17.32910156 C-2.22667306 11.32597407 -1.20195642 6.0097821 0 0 Z " fill="#D42E30" transform="translate(330,164)"/>
<path d="M0 0 C108.9 0 217.8 0 330 0 C328.90734752 6.55591488 327.38547745 9.67899491 322.6875 14.25 C315.91926356 18.65722373 308.79186216 18.28693684 300.9747467 18.26069641 C299.16114478 18.26643473 299.16114478 18.26643473 297.31090444 18.27228898 C293.96722331 18.28080576 290.62376274 18.28039165 287.28008807 18.27610838 C283.66924236 18.27363803 280.05842232 18.28265913 276.44758606 18.29014587 C269.37854465 18.302886 262.30954123 18.30468745 255.24049027 18.30234561 C249.49415369 18.30056164 243.74782865 18.30231379 238.00149345 18.30657005 C237.18324474 18.30716524 236.36499603 18.30776043 235.5219519 18.30837366 C233.85961648 18.30958542 232.19728107 18.31079956 230.53494566 18.31201603 C214.95075593 18.32288878 199.36658785 18.32073025 183.78239691 18.31463119 C169.52952833 18.30946144 155.27672809 18.32071946 141.02387304 18.33972941 C126.38316567 18.35910674 111.74249062 18.36736404 97.10177034 18.36360615 C88.88444961 18.36169406 80.66718705 18.36418259 72.44987679 18.37832069 C65.45494044 18.39023407 58.46009808 18.39163983 51.46516044 18.37953053 C47.89756516 18.37364171 44.33014181 18.37254239 40.76255798 18.38453293 C36.89236579 18.39738922 33.02243408 18.38692739 29.15223694 18.3742218 C28.02859381 18.38159609 26.90495069 18.38897037 25.74725777 18.39656812 C16.55026948 18.33300361 9.64701743 16.64701743 3 10 C0.6822871 6.21440226 0 4.4858015 0 0 Z " fill="#AFBBC0" transform="translate(91,146)"/>
<path d="M0 0 C1.641241 3.02998339 2.21816283 5.38702961 2.2890625 8.83984375 C1.24045261 12.25091005 -0.68128045 14.73258624 -3.375 17 C-6.21951311 18.08896214 -9.04586316 18.40410526 -12.0637207 18.7199707 C-12.90189237 18.82937894 -13.74006403 18.93878717 -14.60363483 19.05151081 C-16.3437545 19.27712853 -18.08528417 19.49211614 -19.82800674 19.69665909 C-22.92756722 20.06580946 -26.01453596 20.50450726 -29.10425091 20.94740582 C-32.85161265 21.48088891 -36.60378927 21.9784237 -40.35546875 22.48046875 C-41.99067224 22.70034235 -43.62587007 22.92025804 -45.26106262 23.14021301 C-48.64460942 23.59470402 -52.02840164 24.04731482 -55.41235352 24.4987793 C-59.73095403 25.07529748 -64.04858017 25.65880664 -68.36602306 26.24392223 C-71.72425744 26.69788622 -75.08311559 27.1470945 -78.44216347 27.5949955 C-80.03507706 27.80817552 -81.62776433 28.02305439 -83.22020531 28.23973656 C-85.44068268 28.54137554 -87.66195895 28.83629169 -89.88354492 29.12963867 C-91.14083908 29.29823898 -92.39813324 29.46683929 -93.69352722 29.64054871 C-97.63184896 30.02507819 -101.42115744 30.06089825 -105.375 30 C-105.46652344 31.24523438 -105.55804688 32.49046875 -105.65234375 33.7734375 C-106.52218886 42.47188862 -108.32082347 51.04142577 -109.9375 59.625 C-110.2705625 61.41008535 -110.60324804 63.19524108 -110.93554688 64.98046875 C-111.74365588 69.32128369 -112.55948884 73.66054377 -113.375 78 C-119.975 78 -126.575 78 -133.375 78 C-133.375 73.47067341 -133.35720374 70.02170913 -132.59643555 65.7265625 C-132.42593185 64.74864746 -132.25542816 63.77073242 -132.07975769 62.76318359 C-131.89230484 61.72758301 -131.70485199 60.69198242 -131.51171875 59.625 C-131.22274467 58.00005615 -131.22274467 58.00005615 -130.92793274 56.34228516 C-130.51989651 54.05901751 -130.10871458 51.77631006 -129.69458008 49.49414062 C-129.06494985 46.01354275 -128.45085858 42.53044097 -127.83789062 39.046875 C-127.43844049 36.82274755 -127.03808014 34.59878334 -126.63671875 32.375 C-126.45533859 31.33939941 -126.27395844 30.30379883 -126.08708191 29.23681641 C-124.1203808 18.54963745 -124.1203808 18.54963745 -121.375 14 C-116.00616328 11.17303007 -110.87216915 10.23567786 -104.89819336 9.46606445 C-103.97356293 9.33882996 -103.0489325 9.21159546 -102.09628296 9.08050537 C-99.05374296 8.66464674 -96.00947477 8.26352053 -92.96484375 7.86328125 C-90.83354005 7.57672386 -88.70232074 7.28953819 -86.57118225 7.00175476 C-82.10599745 6.40112819 -77.63992834 5.8077251 -73.1730957 5.21948242 C-67.48150854 4.46942673 -61.79239814 3.70220543 -56.10384274 2.92953205 C-51.70092197 2.33335167 -47.29683976 1.74613987 -42.89236641 1.16155052 C-40.7963071 0.88234008 -38.70059649 0.60049764 -36.60526848 0.31585121 C-6.37269257 -3.77641041 -6.37269257 -3.77641041 0 0 Z " fill="#F44336" transform="translate(417.375,2)"/>
</svg>
