<?xml version="1.0" encoding="UTF-8"?>
<svg version="1.1" xmlns="http://www.w3.org/2000/svg" width="512" height="512">
<path d="M0 0 C5.98249684 4.98214491 8.98510542 9.85375375 11.4453125 17.234375 C12.44994512 29.87839414 10.88730154 38.32913279 2.4453125 48.234375 C0.18139648 50.04858398 0.18139648 50.04858398 -2.30859375 51.73046875 C-3.69957275 52.68107178 -3.69957275 52.68107178 -5.11865234 53.65087891 C-6.10816895 54.31780762 -7.09768555 54.98473633 -8.1171875 55.671875 C-10.2057613 57.10352425 -12.29298157 58.53714995 -14.37890625 59.97265625 C-15.42095215 60.6888916 -16.46299805 61.40512695 -17.53662109 62.14306641 C-30.3812942 71.04352505 -42.66428374 80.56047029 -54.62402344 90.61230469 C-56.50501619 92.19264306 -58.39185979 93.76565328 -60.28125 95.3359375 C-63.04270594 97.63107173 -65.80013608 99.93095435 -68.5546875 102.234375 C-65.81283636 105.42653016 -62.28084265 107.23894249 -58.6796875 109.296875 C-46.37969249 116.52306629 -35.87134148 125.43737471 -25.5546875 135.234375 C-24.92175781 135.80285156 -24.28882813 136.37132812 -23.63671875 136.95703125 C-9.3677399 150.20921826 0.09760516 168.44343648 4.4453125 187.234375 C4.6196582 187.93651123 4.79400391 188.63864746 4.97363281 189.36206055 C5.62148899 193.30720956 5.64710141 197.18735242 5.68359375 201.1796875 C5.6933876 202.05412506 5.70318146 202.92856262 5.71327209 203.82949829 C5.88897763 223.62988299 5.67334956 242.79634463 1.4453125 262.234375 C1.23100586 263.22195801 1.01669922 264.20954102 0.79589844 265.22705078 C-7.24782745 300.95547807 -22.81242588 333.58713211 -45.5546875 362.234375 C-45.9868457 362.78367676 -46.41900391 363.33297852 -46.86425781 363.89892578 C-58.91178777 379.08665236 -72.89494506 392.81762263 -88.5546875 404.234375 C-89.68142021 405.07885283 -90.80771953 405.92390921 -91.93359375 406.76953125 C-125.27153055 431.50966419 -165.32890322 446.72366578 -206.5546875 451.234375 C-207.48539062 451.34523438 -208.41609375 451.45609375 -209.375 451.5703125 C-252.03497391 455.77942993 -297.13616461 448.39857313 -335.5546875 429.234375 C-336.41465332 428.80721191 -337.27461914 428.38004883 -338.16064453 427.93994141 C-348.72728734 422.64626977 -358.98313217 417.19666325 -368.5546875 410.234375 C-369.15023437 409.8110791 -369.74578125 409.3877832 -370.359375 408.95166016 C-380.17385132 401.96278734 -389.1448213 394.37464496 -397.77294922 385.96923828 C-399.50331877 384.28439229 -401.24872959 382.61640561 -402.99609375 380.94921875 C-410.09036657 374.10386778 -416.3810435 366.87859361 -422.26367188 358.96972656 C-423.10475863 357.83915836 -423.95213264 356.71323204 -424.80664062 355.59277344 C-455.10769515 315.8556536 -470.93378012 265.84211122 -470.92529297 216.10742188 C-470.92968244 213.23768403 -470.96620162 210.36946961 -471.00390625 207.5 C-471.09334367 193.04146839 -469.46740219 179.7477488 -462.9296875 166.609375 C-462.58977783 165.91046143 -462.24986816 165.21154785 -461.8996582 164.49145508 C-447.18813223 135.2706576 -420.0265619 114.88749367 -391.5546875 100.234375 C-390.81557129 99.8518457 -390.07645508 99.46931641 -389.31494141 99.07519531 C-360.42173736 84.30433964 -328.52716462 75.25017336 -296.5546875 70.234375 C-295.30574707 70.03682617 -294.05680664 69.83927734 -292.77001953 69.63574219 C-254.8763647 63.82853907 -214.46433401 63.48053561 -176.5546875 69.234375 C-175.41676758 69.40066406 -174.27884766 69.56695312 -173.10644531 69.73828125 C-154.54234497 72.52521875 -136.58706546 77.12011812 -118.5546875 82.234375 C-118.27036865 81.47318359 -117.9860498 80.71199219 -117.69311523 79.92773438 C-116.20946766 76.41763358 -113.99288213 73.67181429 -111.6171875 70.734375 C-110.88520142 69.81797241 -110.88520142 69.81797241 -110.13842773 68.88305664 C-97.09173608 52.63279601 -83.41718579 36.80798931 -67.5546875 23.234375 C-66.64203125 22.43257812 -65.729375 21.63078125 -64.7890625 20.8046875 C-58.49719427 15.32219289 -51.98856436 10.2102845 -45.2421875 5.296875 C-44.50178223 4.75337402 -43.76137695 4.20987305 -42.99853516 3.64990234 C-29.53402073 -6.02442207 -14.68308685 -10.14794382 0 0 Z " fill="#382E49" transform="translate(485.5546875,32.765625)"/>
<path d="M0 0 C5.98249684 4.98214491 8.98510542 9.85375375 11.4453125 17.234375 C12.44994512 29.87839414 10.88730154 38.32913279 2.4453125 48.234375 C0.18139648 50.04858398 0.18139648 50.04858398 -2.30859375 51.73046875 C-3.69957275 52.68107178 -3.69957275 52.68107178 -5.11865234 53.65087891 C-6.10816895 54.31780762 -7.09768555 54.98473633 -8.1171875 55.671875 C-10.2057613 57.10352425 -12.29298157 58.53714995 -14.37890625 59.97265625 C-15.42095215 60.6888916 -16.46299805 61.40512695 -17.53662109 62.14306641 C-34.60713576 73.97173722 -50.56403606 87.04842563 -66.33203125 100.5390625 C-68.12013163 102.05894782 -69.93056215 103.52682261 -71.78320312 104.96826172 C-78.36908234 110.10167778 -84.30416438 115.6823122 -90.1796875 121.609375 C-91.06914062 122.49109375 -91.95859375 123.3728125 -92.875 124.28125 C-98.53680642 129.95970879 -103.68802653 135.86157081 -108.5546875 142.234375 C-107.81766602 142.36400635 -107.08064453 142.4936377 -106.32128906 142.62719727 C-77.24566209 149.00833778 -43.53330435 174.33281957 -27.5546875 199.234375 C-24.85625015 203.74816947 -22.60623065 208.3884886 -20.5546875 213.234375 C-20.20921875 214.04648438 -19.86375 214.85859375 -19.5078125 215.6953125 C-17.64061191 221.44214097 -19.3042649 225.66710388 -21.81640625 230.99609375 C-27.76001151 242.06856288 -34.68845525 251.35544041 -43.5546875 260.234375 C-44.31007813 261.00136719 -45.06546875 261.76835937 -45.84375 262.55859375 C-97.27171438 311.77745313 -179.61839196 321.57704008 -247.2885437 320.44178772 C-291.04128005 319.475579 -336.33310042 309.99795432 -375.5546875 290.234375 C-376.28220215 289.87649902 -377.0097168 289.51862305 -377.75927734 289.14990234 C-394.87722153 280.70352479 -409.87844674 270.56924314 -423.5546875 257.234375 C-424.53115234 256.35072266 -424.53115234 256.35072266 -425.52734375 255.44921875 C-435.17731749 246.50265995 -445.57443271 231.55533746 -446.5546875 218.234375 C-438.91951898 189.84109205 -412.39793832 169.52668137 -388.15405273 155.43310547 C-359.88279894 139.40310908 -328.51020695 129.99618575 -296.6171875 124.546875 C-295.4401123 124.34425049 -294.26303711 124.14162598 -293.05029297 123.93286133 C-274.76686759 120.94870154 -256.64144688 119.90280043 -238.12695312 119.97363281 C-234.82142615 119.98432088 -231.51644784 119.97368116 -228.2109375 119.9609375 C-206.13557692 119.94272004 -184.65185565 121.5703318 -162.9921875 125.859375 C-161.27562536 126.18872582 -159.55882772 126.51685155 -157.84179688 126.84375 C-153.74327156 127.62669352 -149.64818373 128.42556764 -145.5546875 129.234375 C-145.27488037 128.34339111 -144.99507324 127.45240723 -144.70678711 126.53442383 C-143.02105708 121.70585574 -140.57635988 117.39460829 -138.1171875 112.921875 C-137.58585205 111.95145264 -137.0545166 110.98103027 -136.50708008 109.98120117 C-131.93737564 101.7348787 -126.95394402 93.83197662 -121.71533203 85.99902344 C-120.13567921 83.59731317 -118.66551249 81.13243038 -117.1796875 78.671875 C-110.49036275 68.12332443 -101.95985954 58.57405327 -93.53125 49.39453125 C-91.66343252 47.35322084 -89.85521359 45.27248877 -88.0546875 43.171875 C-81.75330313 35.95366104 -74.84299895 29.43826641 -67.5546875 23.234375 C-66.64460938 22.43515625 -65.73453125 21.6359375 -64.796875 20.8125 C-58.50307611 15.32650459 -51.99158937 10.21248762 -45.2421875 5.296875 C-44.50178223 4.75337402 -43.76137695 4.20987305 -42.99853516 3.64990234 C-29.53402073 -6.02442207 -14.68308685 -10.14794382 0 0 Z " fill="#FBCA4F" transform="translate(485.5546875,32.765625)"/>
<path d="M0 0 C5.98249684 4.98214491 8.98510542 9.85375375 11.4453125 17.234375 C12.44994512 29.87839414 10.88730154 38.32913279 2.4453125 48.234375 C0.18139648 50.04858398 0.18139648 50.04858398 -2.30859375 51.73046875 C-3.23591309 52.3642041 -4.16323242 52.99793945 -5.11865234 53.65087891 C-6.10816895 54.31780762 -7.09768555 54.98473633 -8.1171875 55.671875 C-10.2057613 57.10352425 -12.29298157 58.53714995 -14.37890625 59.97265625 C-15.42095215 60.6888916 -16.46299805 61.40512695 -17.53662109 62.14306641 C-34.60713576 73.97173722 -50.56403606 87.04842563 -66.33203125 100.5390625 C-68.12091271 102.05956789 -69.93217041 103.52815644 -71.78540039 104.97045898 C-78.34686684 110.0858403 -84.26309618 115.64116789 -90.1171875 121.546875 C-90.99826172 122.42021484 -91.87933594 123.29355469 -92.78710938 124.19335938 C-98.80616414 130.23018257 -104.22926741 136.58481818 -109.5546875 143.234375 C-110.42894005 144.26272508 -111.30885036 145.28635257 -112.19921875 146.30078125 C-131.18041917 168.154812 -148.28077423 196.32609376 -151.796875 225.46484375 C-152.70928576 228.79937585 -153.84056358 230.12994558 -156.5546875 232.234375 C-163.54154037 233.31854182 -168.73118602 231.08669127 -174.5546875 227.234375 C-178.07090548 223.95096597 -180.37571717 220.81845282 -180.921875 215.984375 C-180.82378708 209.37384391 -178.01340408 203.32527605 -175.6796875 197.234375 C-175.17525198 195.89261422 -174.67135287 194.55065167 -174.16796875 193.20849609 C-160.59203333 157.22013141 -145.04526235 121.29668512 -123.79443359 89.12792969 C-122.12013815 86.57065607 -120.53011115 83.9633277 -118.9296875 81.359375 C-105.22347067 59.90616604 -86.84115342 39.7378945 -67.5546875 23.234375 C-66.64203125 22.43257812 -65.729375 21.63078125 -64.7890625 20.8046875 C-58.49719427 15.32219289 -51.98856436 10.2102845 -45.2421875 5.296875 C-44.50178223 4.75337402 -43.76137695 4.20987305 -42.99853516 3.64990234 C-29.53402073 -6.02442207 -14.68308685 -10.14794382 0 0 Z " fill="#FE3D46" transform="translate(485.5546875,32.765625)"/>
<path d="M0 0 C1.62112953 -0.0049926 1.62112953 -0.0049926 3.27500916 -0.01008606 C5.55841653 -0.0151252 7.84183121 -0.01749532 10.12524414 -0.01733398 C13.52829038 -0.01949221 16.93099654 -0.03760189 20.33398438 -0.05664062 C42.43872224 -0.11722106 63.92030815 1.37015868 85.58984375 5.79296875 C87.25821049 6.12237801 88.92683124 6.45050334 90.59570312 6.77734375 C94.57596647 7.55962936 98.55250865 8.35857366 102.52734375 9.16796875 C101.21061454 13.3279968 99.65817999 17.24279806 97.8125 21.1953125 C97.03036133 22.87850586 97.03036133 22.87850586 96.23242188 24.59570312 C95.69037109 25.75392578 95.14832031 26.91214844 94.58984375 28.10546875 C93.51736195 30.40584588 92.44572301 32.7066162 91.375 35.0078125 C90.87323242 36.08192383 90.37146484 37.15603516 89.85449219 38.26269531 C88.79458002 40.58295925 87.80605942 42.90610115 86.859375 45.2734375 C80.86195172 58.3059614 59.41340393 67.64038499 46.90625 72.60546875 C24.90837244 80.42693633 1.22813157 81.8802585 -21.47265625 76.16796875 C-22.63539063 75.90113281 -23.798125 75.63429688 -24.99609375 75.359375 C-49.12020104 69.26058383 -70.55530573 54.43272779 -83.47265625 33.16796875 C-86.73934349 27.55114681 -89.04716819 22.69211905 -89.47265625 16.16796875 C-73.98405858 3.17516407 -40.82327746 3.21541432 -21.47265625 1.16796875 C-20.76190445 1.08463791 -20.05115265 1.00130707 -19.31886292 0.91545105 C-12.86508939 0.19928093 -6.49022549 0.00716944 0 0 Z " fill="#FED769" transform="translate(236.47265625,152.83203125)"/>
<path d="M0 0 C5.00882624 4.17128481 8.16414625 8.11670188 10.4453125 14.234375 C10.1153125 15.224375 9.7853125 16.214375 9.4453125 17.234375 C8.78144531 16.88503906 8.11757813 16.53570312 7.43359375 16.17578125 C6.55058594 15.72074219 5.66757812 15.26570313 4.7578125 14.796875 C3.88769531 14.34441406 3.01757812 13.89195313 2.12109375 13.42578125 C-4.69688923 10.39003701 -11.64216967 10.40497603 -18.6796875 12.609375 C-30.2924098 17.16117612 -40.12677002 26.31708235 -49.5546875 34.234375 C-50.46605469 34.96011719 -51.37742187 35.68585938 -52.31640625 36.43359375 C-60.09150737 42.74514642 -67.21273938 49.67666699 -74.3046875 56.734375 C-75.039151 57.46107391 -75.039151 57.46107391 -75.78845215 58.20245361 C-82.50482626 64.86282511 -88.71615001 71.78749656 -94.5546875 79.234375 C-95.09802734 79.92370117 -95.64136719 80.61302734 -96.20117188 81.32324219 C-108.4557878 97.05244044 -118.81307422 113.86089282 -128.5546875 131.234375 C-128.92770996 131.89244141 -129.30073242 132.55050781 -129.68505859 133.22851562 C-142.87004305 156.62297868 -152.82252839 181.75821988 -162.27099609 206.83886719 C-164.08217808 211.62964678 -165.94019704 216.40164712 -167.8046875 221.171875 C-168.35173553 222.57675555 -168.89863407 223.98169434 -169.4453125 225.38671875 C-169.81140625 226.32644531 -170.1775 227.26617187 -170.5546875 228.234375 C-175.18565929 227.43456964 -176.76877548 224.92382606 -179.5546875 221.234375 C-181.70349729 216.93675543 -180.94522414 212.60976213 -179.68066406 208.15625 C-178.41504854 204.48816331 -177.06779302 200.8572714 -175.6796875 197.234375 C-175.17525198 195.89261422 -174.67135287 194.55065167 -174.16796875 193.20849609 C-160.59203333 157.22013141 -145.04526235 121.29668512 -123.79443359 89.12792969 C-122.12013815 86.57065607 -120.53011115 83.9633277 -118.9296875 81.359375 C-105.22347067 59.90616604 -86.84115342 39.7378945 -67.5546875 23.234375 C-66.64203125 22.43257812 -65.729375 21.63078125 -64.7890625 20.8046875 C-58.49719427 15.32219289 -51.98856436 10.2102845 -45.2421875 5.296875 C-44.50178223 4.75337402 -43.76137695 4.20987305 -42.99853516 3.64990234 C-29.53402073 -6.02442207 -14.68308685 -10.14794382 0 0 Z " fill="#F72D40" transform="translate(485.5546875,32.765625)"/>
</svg>
