<?xml version="1.0" encoding="UTF-8"?>
<svg version="1.1" xmlns="http://www.w3.org/2000/svg" width="512" height="512">
<path d="M0 0 C2.53841281 0.98656184 2.53841281 0.98656184 5.05859375 -0.140625 C5.89261719 -0.61886719 6.72664062 -1.09710938 7.5859375 -1.58984375 C16.54328725 -6.62749038 28.03787576 -6.8253681 37.9765625 -4.453125 C41.44384982 -3.17894428 44.71834342 -1.69258943 48 0 C50.53841281 0.98656184 50.53841281 0.98656184 53.05859375 -0.140625 C53.89261719 -0.61886719 54.72664062 -1.09710938 55.5859375 -1.58984375 C64.61222105 -6.666259 75.77947086 -6.59750703 85.8359375 -4.62890625 C93.19024455 -2.18443487 100.02426965 2.09483195 104.4609375 8.53515625 C107.78152592 12.05699246 111.82673271 12.34889446 116.5234375 12.72265625 C119.94721458 12.61164641 123.18617698 12.07927005 126.50366211 11.19458008 C136.38363078 8.88610922 148.66084596 9.81994604 157.5234375 14.72265625 C164.12867419 18.84159221 169.35254858 24.13774802 173.5234375 30.72265625 C173.5234375 31.38265625 173.5234375 32.04265625 173.5234375 32.72265625 C174.23628906 32.99078125 174.94914062 33.25890625 175.68359375 33.53515625 C216.58841779 50.63978694 250.53231092 93.01964949 267.12036133 133.0144043 C270.56601717 141.66757473 273.49281096 150.41209912 275.8984375 159.41015625 C276.12499023 160.25022217 276.35154297 161.09028809 276.58496094 161.95581055 C280.63261539 178.10534313 282.04323844 194.24425024 281.96948242 210.85327148 C281.9608506 213.81497182 281.9900902 216.77481052 282.02148438 219.73632812 C282.07480109 233.95843098 280.74084582 245.01966813 270.5234375 255.72265625 C259.58813443 266.16183971 247.83750639 267.31492705 233.40576172 267.23059082 C231.67993584 267.2352055 229.95411389 267.24156222 228.22830009 267.2494998 C223.50842381 267.26613834 218.78887265 267.25797173 214.06899548 267.24555492 C208.97006762 267.23648429 203.87119469 267.25048414 198.77227783 267.26147461 C188.79240611 267.27924292 178.81265486 267.27542735 168.83277845 267.26382405 C160.72051983 267.25478337 152.60829493 267.25356848 144.49603271 267.25791931 C143.34059806 267.25853224 142.1851634 267.25914518 140.99471557 267.25977668 C138.64732948 267.26105561 136.2999434 267.26235246 133.95255733 267.26366705 C111.95116769 267.2750679 89.94984476 267.26196688 67.94846606 267.24046558 C49.07824085 267.22259507 30.20811406 267.22569931 11.33789062 267.24414062 C-10.58581856 267.26555605 -32.5094693 267.27396931 -54.43318748 267.26169157 C-56.77184422 267.2604174 -59.11050096 267.25915992 -61.44915771 267.25791931 C-63.17506581 267.25699366 -63.17506581 267.25699366 -64.93584073 267.25604931 C-73.03652611 267.25259843 -81.13717437 267.25841911 -89.237854 267.26783752 C-99.11250498 267.27906632 -108.9870288 267.27599885 -118.86166525 267.25471455 C-123.89798829 267.24421608 -128.93409946 267.24006187 -133.97042084 267.25331116 C-138.58442673 267.26526569 -143.19802517 267.2586221 -147.81199431 267.23740095 C-149.47739122 267.23294785 -151.14282284 267.23517199 -152.80819726 267.2449041 C-166.40576522 267.31824483 -177.29581149 265.44152063 -187.4765625 255.72265625 C-199.17482837 243.46843319 -199.14897537 230.11767167 -198.9765625 214.09765625 C-198.97069122 213.09199615 -198.96481995 212.08633606 -198.95877075 211.05020142 C-198.85293967 195.62543611 -198.17766498 180.76353289 -194.4765625 165.72265625 C-194.24050293 164.74216309 -194.00444336 163.76166992 -193.76123047 162.75146484 C-186.1430272 132.08709154 -170.1133797 93.9727279 -144.6875 73.265625 C-142.73838723 70.78207808 -143.09726119 68.31745732 -143.0390625 65.22265625 C-142.37239581 53.00881936 -138.25063542 44.18939883 -129.41015625 35.75 C-119.1558537 27.10997048 -108.70026196 25.94650096 -95.7734375 26.47851562 C-93.26758908 26.74486856 -90.97160605 27.34379895 -88.53515625 27.98046875 C-82.71517614 29.23029921 -78.82338782 27.49988581 -73.6015625 24.97265625 C-72.36019531 24.41191406 -72.36019531 24.41191406 -71.09375 23.83984375 C-68.87249118 22.82952925 -66.67042463 21.79096259 -64.4765625 20.72265625 C-63.76387207 20.39966553 -63.05118164 20.0766748 -62.31689453 19.74389648 C-59.62831449 18.251945 -58.73171442 16.18378524 -57.2265625 13.53515625 C-51.6673121 4.5058005 -43.9252107 -1.85397007 -33.5793457 -4.8215332 C-21.97102668 -7.33781459 -10.39586269 -5.36190394 0 0 Z " fill="#F9A019" transform="translate(214.4765625,117.27734375)"/>
<path d="M0 0 C-0.16371094 0.98097656 -0.32742187 1.96195313 -0.49609375 2.97265625 C-1.09159852 7.14118966 -1.11249575 11.23401136 -1.0625 15.4375 C-1.05573242 16.53481445 -1.05573242 16.53481445 -1.04882812 17.65429688 C-1.03718148 19.43623419 -1.01925191 21.21812863 -1 23 C-0.32195312 22.96519531 0.35609375 22.93039063 1.0546875 22.89453125 C9.47870957 22.64951122 16.51988006 24.08103055 24 28 C22.8387441 31.48376769 21.9623468 32.01509389 19.0625 34.125 C13.75724401 38.13527224 8.84861148 42.45051376 4 47 C3.50483887 47.46116211 3.00967773 47.92232422 2.49951172 48.39746094 C-26.5498583 75.6623826 -46.05294885 113.12703426 -54 152 C-54.15839355 152.74958984 -54.31678711 153.49917969 -54.47998047 154.27148438 C-56.39483661 163.7447662 -57.07568912 173.15404055 -57.26171875 182.80078125 C-57.27899017 183.6788443 -57.2962616 184.55690735 -57.3140564 185.46157837 C-57.39368929 189.90424747 -57.44147047 194.34471118 -57.44628906 198.78808594 C-57.54084817 213.1277419 -59.84971623 224.95428147 -69.7421875 235.93359375 C-79.05827454 244.9211051 -91.06415498 247.41629232 -103.62109375 247.2734375 C-113.99856246 246.43364234 -121.91743637 241.3241112 -128.97265625 233.93359375 C-139.00600711 222.02564656 -138.65926604 209.17345726 -138.5 194.375 C-138.49412872 193.3693399 -138.48825745 192.36367981 -138.48220825 191.32754517 C-138.37637717 175.90277986 -137.70110248 161.04087664 -134 146 C-133.76394043 145.01950684 -133.52788086 144.03901367 -133.28466797 143.02880859 C-125.6664647 112.36443529 -109.6368172 74.25007165 -84.2109375 53.54296875 C-82.26182473 51.05942183 -82.62069869 48.59480107 -82.5625 45.5 C-81.89583331 33.28616311 -77.77407292 24.46674258 -68.93359375 16.02734375 C-58.67863394 7.38676044 -48.22390542 6.2250551 -35.29663086 6.75561523 C-32.7913161 7.02220608 -30.49792148 7.62321963 -28.0625 8.26171875 C-22.21582912 9.51865409 -18.29881346 7.73681277 -13.0625 5.1875 C-11.40760751 4.43086835 -9.7526619 3.67435286 -8.09765625 2.91796875 C-7.38101807 2.57531982 -6.66437988 2.2326709 -5.92602539 1.87963867 C-1.81043575 0 -1.81043575 0 0 0 Z " fill="#EF6322" transform="translate(154,137)"/>
<path d="M0 0 C2.53841281 0.98656184 2.53841281 0.98656184 5.05859375 -0.140625 C5.89261719 -0.61886719 6.72664063 -1.09710938 7.5859375 -1.58984375 C16.54328725 -6.62749038 28.03787576 -6.8253681 37.9765625 -4.453125 C41.44384982 -3.17894428 44.71834342 -1.69258943 48 0 C50.53841281 0.98656184 50.53841281 0.98656184 53.05859375 -0.140625 C53.89261719 -0.61886719 54.72664062 -1.09710938 55.5859375 -1.58984375 C64.61222105 -6.666259 75.77947086 -6.59750703 85.8359375 -4.62890625 C94.15376017 -1.86417542 101.58347815 3.42010764 106.5234375 10.72265625 C106.5234375 11.05265625 106.5234375 11.38265625 106.5234375 11.72265625 C99.9234375 11.72265625 93.3234375 11.72265625 86.5234375 11.72265625 C87.5134375 13.04265625 88.5034375 14.36265625 89.5234375 15.72265625 C89.7734375 17.7578125 89.7734375 17.7578125 89.5234375 19.78515625 C89.4615625 20.45675781 89.3996875 21.12835938 89.3359375 21.8203125 C88.11498364 24.67898813 86.25352973 25.3368843 83.5234375 26.72265625 C80.83886719 27.19921875 80.83886719 27.19921875 77.9453125 27.34765625 C76.87563232 27.41243164 75.80595215 27.47720703 74.70385742 27.54394531 C73.57181885 27.60291992 72.43978027 27.66189453 71.2734375 27.72265625 C46.62182744 29.34538841 23.76825051 34.75528329 1.5234375 45.72265625 C0.79640625 46.07730957 0.069375 46.43196289 -0.6796875 46.79736328 C-43.48714136 67.88800378 -76.4732968 105.97208073 -92.15429688 150.99414062 C-93.33354158 154.55006362 -94.4255266 158.12700712 -95.4765625 161.72265625 C-95.78078125 162.728125 -96.085 163.73359375 -96.3984375 164.76953125 C-101.15702261 181.95870602 -101.88935224 199.53681393 -102.01025391 217.25830078 C-102.02041534 217.97849396 -102.03057678 218.69868713 -102.04104614 219.44070435 C-102.06864859 221.41607832 -102.08072099 223.39165173 -102.09179688 225.3671875 C-102.503718 228.95947424 -103.31212133 230.85820864 -105.4765625 233.72265625 C-107.34375 234.60546875 -107.34375 234.60546875 -109.3515625 234.84765625 C-110.00898437 234.95335937 -110.66640625 235.0590625 -111.34375 235.16796875 C-114.85893329 234.43402938 -116.25471544 232.46081308 -118.4765625 229.72265625 C-118.95529995 226.89734538 -119.13405554 224.69193823 -119.0703125 221.87890625 C-119.07171234 221.12151154 -119.07311218 220.36411682 -119.07455444 219.58377075 C-119.06969579 217.12895757 -119.02566876 214.6769551 -118.9765625 212.22265625 C-118.95703492 210.52783386 -118.93766704 208.83300962 -118.91845703 207.13818359 C-118.73360833 195.15505244 -118.06180895 183.45498312 -115.4765625 171.72265625 C-115.27788574 170.8095166 -115.07920898 169.89637695 -114.87451172 168.95556641 C-106.55749841 131.94329967 -88.67953004 99.03972492 -62.4765625 71.72265625 C-61.9619043 71.1807666 -61.44724609 70.63887695 -60.91699219 70.08056641 C-54.29818342 63.1414927 -47.58527112 56.96296246 -39.7421875 51.4296875 C-37.39035053 49.9212672 -37.39035053 49.9212672 -36.4765625 47.72265625 C-44.65877108 44.50821716 -52.79880954 43.62769797 -61.4765625 42.72265625 C-64.21727536 34.50051768 -63.05897682 24.53307898 -59.4765625 16.72265625 C-53.52429542 6.37155614 -45.27989091 -1.45731175 -33.57714844 -4.82373047 C-21.96494565 -7.33134004 -10.39942045 -5.36373894 0 0 Z " fill="#FED03B" transform="translate(214.4765625,117.27734375)"/>
<path d="M0 0 C2.53841281 0.98656184 2.53841281 0.98656184 5.05859375 -0.140625 C5.89261719 -0.61886719 6.72664063 -1.09710938 7.5859375 -1.58984375 C16.54328725 -6.62749038 28.03787576 -6.8253681 37.9765625 -4.453125 C41.44384982 -3.17894428 44.71834342 -1.69258943 48 0 C50.53841281 0.98656184 50.53841281 0.98656184 53.05859375 -0.140625 C53.89261719 -0.61886719 54.72664063 -1.09710938 55.5859375 -1.58984375 C64.61222105 -6.666259 75.77947086 -6.59750703 85.8359375 -4.62890625 C94.15376017 -1.86417542 101.58347815 3.42010764 106.5234375 10.72265625 C106.5234375 11.05265625 106.5234375 11.38265625 106.5234375 11.72265625 C105.2952832 11.7069458 104.06712891 11.69123535 102.80175781 11.67504883 C98.14232226 11.61978191 93.48291401 11.58596324 88.82324219 11.55786133 C86.82579643 11.54299081 84.82838199 11.52268829 82.83105469 11.49633789 C65.13572853 11.26913204 48.15760354 12.7768469 31.0234375 17.41015625 C30.07331787 17.66361816 29.12319824 17.91708008 28.14428711 18.17822266 C7.64172859 23.85983932 -11.32204082 33.12981128 -29.1484375 44.62109375 C-34.68644683 48.11809964 -34.68644683 48.11809964 -36.4765625 48.72265625 C-38.2734375 48.11328125 -38.2734375 48.11328125 -40.2265625 46.97265625 C-46.87977224 43.66282418 -54.17982596 43.40308812 -61.4765625 42.72265625 C-64.21727536 34.50051768 -63.05897682 24.53307898 -59.4765625 16.72265625 C-53.52429542 6.37155614 -45.27989091 -1.45731175 -33.57714844 -4.82373047 C-21.96494565 -7.33134004 -10.39942045 -5.36373894 0 0 Z " fill="#5FA945" transform="translate(214.4765625,117.27734375)"/>
<path d="M0 0 C-0.23009766 1.45599609 -0.23009766 1.45599609 -0.46484375 2.94140625 C-1.08209985 7.26219894 -1.33480395 11.58141318 -1.5625 15.9375 C-1.60568359 16.71673828 -1.64886719 17.49597656 -1.69335938 18.29882812 C-1.79828077 20.19907117 -1.8995245 22.09951669 -2 24 C-2.65226562 24.30292969 -3.30453125 24.60585937 -3.9765625 24.91796875 C-12.80514977 28.90269771 -12.80514977 28.90269771 -19 36 C-18.4225 36.226875 -17.845 36.45375 -17.25 36.6875 C-13.85777937 38.66629537 -11.74506529 41.50986942 -10 45 C-9.14104555 50.91451492 -9.91966078 55.3682911 -13.3828125 60.26953125 C-17.07007123 64.21507622 -21.21868695 65.6761249 -26.4375 66.625 C-32.68848005 65.52833683 -37.42961431 62.23660992 -41.0625 57.0625 C-42.13230817 53.5677933 -42.21809205 50.63486756 -42 47 C-51.83548537 48.23743634 -60.57580442 51.54424371 -67 59.375 C-69.84242686 63.38984273 -71.55127111 67.31293596 -73 72 C-80.85132491 63.58786617 -82.38902142 52.6981003 -82.2734375 41.63671875 C-81.48276478 31.12077156 -76.42794022 23.18168206 -68.93359375 16.02734375 C-58.67863394 7.38676044 -48.22390542 6.2250551 -35.29663086 6.75561523 C-32.7913161 7.02220608 -30.49792148 7.62321963 -28.0625 8.26171875 C-22.21582912 9.51865409 -18.29881346 7.73681277 -13.0625 5.1875 C-11.40760751 4.43086835 -9.7526619 3.67435286 -8.09765625 2.91796875 C-7.38101807 2.57531982 -6.66437988 2.2326709 -5.92602539 1.87963867 C-1.81043575 0 -1.81043575 0 0 0 Z " fill="#E0322C" transform="translate(154,137)"/>
<path d="M0 0 C0.22042969 0.88751953 0.22042969 0.88751953 0.4453125 1.79296875 C2.06984273 7.51617007 3.6440728 10.88382417 9 14 C15.09106199 15.51773987 20.15912986 15.15858244 26 13 C26.81567174 14.43570266 27.62742093 15.87363434 28.4375 17.3125 C28.88996094 18.11300781 29.34242187 18.91351563 29.80859375 19.73828125 C33.29000736 26.34725988 32.75692377 34.05118065 30.875 41.125 C27.73132194 50.294061 22.68960507 56.61301492 14 61 C6.58971863 64.16555709 -1.54540248 65.5622391 -9.4140625 63.30859375 C-19.05636842 59.34895266 -25.62954291 53.54241669 -30 44 C-30.66015625 41.19140625 -30.66015625 41.19140625 -31 39 C-30.278125 39.763125 -29.55625 40.52625 -28.8125 41.3125 C-24.87010493 45.07967751 -22.63737471 46.84154438 -17.125 47.375 C-11.64213291 47.13706426 -7.44183046 45.51771628 -3.625 41.5 C-0.6129082 36.86601261 -0.3286089 32.38032592 -1 27 C-3.07580259 22.99666643 -5.23108889 20.42627912 -9 18 C-13.8478806 16.71697632 -18.01021908 16.7079335 -22.8125 18.125 C-26.11392817 20.06701657 -28.45763108 22.14946515 -31 25 C-30.09891131 17.33518384 -26.34161673 11.87252542 -20.5234375 6.87109375 C-13.73762228 1.96111567 -8.49367853 -0.33974714 0 0 Z " fill="#A65023" transform="translate(64,304)"/>
<path d="M0 0 C2.53841281 0.98656184 2.53841281 0.98656184 5.05859375 -0.140625 C5.89261719 -0.61886719 6.72664063 -1.09710938 7.5859375 -1.58984375 C16.61222105 -6.666259 27.77947086 -6.59750703 37.8359375 -4.62890625 C46.15376017 -1.86417542 53.58347815 3.42010764 58.5234375 10.72265625 C58.5234375 11.05265625 58.5234375 11.38265625 58.5234375 11.72265625 C57.2952832 11.7069458 56.06712891 11.69123535 54.80175781 11.67504883 C50.14232226 11.61978191 45.48291401 11.58596324 40.82324219 11.55786133 C38.82579643 11.54299081 36.82838199 11.52268829 34.83105469 11.49633789 C17.13513253 11.26912439 0.15835923 12.77813197 -16.9765625 17.41015625 C-17.92378174 17.66216797 -18.87100098 17.91417969 -19.84692383 18.17382812 C-33.24297777 21.87914339 -46.09667407 27.16056269 -58.359375 33.69140625 C-60.4765625 34.72265625 -60.4765625 34.72265625 -62.4765625 34.72265625 C-61.905413 21.30064295 -56.8492202 11.72552317 -47.2890625 2.47265625 C-33.78088903 -8.88852276 -15.00363157 -7.73846612 0 0 Z " fill="#91C73B" transform="translate(262.4765625,117.27734375)"/>
<path d="M0 0 C0.495 1.485 0.495 1.485 1 3 C1.67804688 2.96519531 2.35609375 2.93039063 3.0546875 2.89453125 C11.47870957 2.64951122 18.51988006 4.08103055 26 8 C24.8387441 11.48376769 23.9623468 12.01509389 21.0625 14.125 C13.34366975 19.95970633 6.34517549 26.55075428 -0.5625 33.3125 C-1.12251709 33.85688721 -1.68253418 34.40127441 -2.25952148 34.9621582 C-4.94620428 37.64963015 -7.27835653 40.25206945 -9.265625 43.5 C-11.32163827 46.82728865 -13.02495962 49.45126114 -16 52 C-19.49489521 52.54052405 -22.41408896 52.54652424 -25.9074707 52.27416992 C-35.3875445 51.54116879 -42.89859395 55.67610761 -50.28125 61.375 C-52.1705217 63.03384302 -52.1705217 63.03384302 -53.734375 65.66796875 C-56 68 -56 68 -59.671875 68.48828125 C-61.0321116 68.4552658 -62.39192338 68.39593571 -63.75 68.3125 C-64.44738281 68.28994141 -65.14476563 68.26738281 -65.86328125 68.24414062 C-67.57644935 68.18547048 -69.28850623 68.09579256 -71 68 C-73.29827327 57.6110574 -72.18223759 49.91531078 -66.71484375 40.875 C-62.05885749 34.02719848 -55.18821722 28.78004722 -47 27 C-44.66787973 26.92477031 -42.3314689 26.90674124 -40 27 C-39.89042969 27.59167969 -39.78085938 28.18335938 -39.66796875 28.79296875 C-38.37554323 35.23408132 -37.31890057 39.35001305 -31.75 43.3125 C-27.37521584 45.55950654 -23.6712239 45.84856549 -18.921875 44.33984375 C-14.53739981 42.4642627 -11.71046287 40.33069509 -9.625 35.9921875 C-7.97517065 30.73335643 -8.22039006 26.50353346 -10.75 21.625 C-12.71534113 19.33210202 -14.47078947 17.62592106 -17 16 C-15.51492933 12.24169267 -13.47928611 10.58763253 -10.1875 8.3125 C-9.33542969 7.71050781 -8.48335937 7.10851562 -7.60546875 6.48828125 C-4.99774548 4.99871219 -2.95636381 4.39807412 0 4 C0 2.68 0 1.36 0 0 Z " fill="#A65023" transform="translate(152,157)"/>
<path d="M0 0 C0.24234375 0.60328125 0.4846875 1.2065625 0.734375 1.828125 C1.06953125 2.62734375 1.4046875 3.4265625 1.75 4.25 C2.23726562 5.43335938 2.23726562 5.43335938 2.734375 6.640625 C3.89010809 9.10705349 3.89010809 9.10705349 6.05078125 10.87890625 C8.6407536 13.69725292 8.83906093 15.9359061 9.4375 19.6875 C11.42372107 29.81827836 14.57151486 35.53736249 22.9140625 41.6875 C25.05641488 43.15079341 25.05641488 43.15079341 28 44 C27.85866501 45.77119803 27.71176792 47.54195287 27.5625 49.3125 C27.48128906 50.29863281 27.40007812 51.28476562 27.31640625 52.30078125 C27 55 27 55 26 58 C25.01 58.33 24.02 58.66 23 59 C22.4121875 57.63875 22.4121875 57.63875 21.8125 56.25 C19.7987064 52.63905975 18.5813981 51.05739891 15 49 C8.5694378 47.40600665 3.69284762 47.58429143 -2 51 C-4.34528245 53.53544049 -6.08530555 56.12795832 -8 59 C-16.48891049 53.24944773 -21.08221559 48.0092392 -23.4921875 37.8984375 C-25.370297 27.17876634 -23.36423047 19.71309523 -17.3125 10.8125 C-13.3741114 5.78904515 -6.7222012 0 0 0 Z " fill="#A55023" transform="translate(72,241)"/>
<path d="M0 0 C1.67206259 3.02664494 2.46290158 5.81738791 3.1875 9.1875 C5.08469473 16.38143129 8.84267836 21.78315715 14.9375 26.0625 C15.618125 26.371875 16.29875 26.68125 17 27 C17.556875 26.0925 18.11375 25.185 18.6875 24.25 C21.46321451 20.34899583 23.50205342 17.62023844 28.296875 16.4296875 C33.97931113 15.62037084 37.96827554 15.94150082 43 19 C45.44937513 21.39211701 47.46013074 23.92026149 49 27 C49.66 27 50.32 27 51 27 C50.34 36.9 49.68 46.8 49 57 C47.41028035 54.61542052 46.13258407 52.3695876 44.875 49.8125 C44.52179688 49.09707031 44.16859375 48.38164062 43.8046875 47.64453125 C43.40636719 46.83048828 43.40636719 46.83048828 43 46 C42.05125 46.350625 41.1025 46.70125 40.125 47.0625 C34.62666046 48.58734315 29.01773932 48.55324818 23.875 45.90625 C19.39148574 42.54361431 18.04763022 39.21962015 17.19140625 33.7578125 C17.12824219 33.17773438 17.06507812 32.59765625 17 32 C8.48415371 33.07140799 -0.04455906 35.61032902 -5.95703125 42.171875 C-6.97584356 43.5699532 -7.95565992 44.99798931 -8.87890625 46.4609375 C-9.24886719 46.96882813 -9.61882813 47.47671875 -10 48 C-10.66 48 -11.32 48 -12 48 C-15.85155507 35.73463118 -16.36018299 25.14480857 -10.67578125 13.22265625 C-7.71873398 8.06140576 -4.40382307 3.98441134 0 0 Z " fill="#D16D27" transform="translate(47,272)"/>
<path d="M0 0 C1.12921875 -0.00515625 2.2584375 -0.0103125 3.421875 -0.015625 C6.25 0.25 6.25 0.25 8.25 2.25 C7.63253906 3.1471875 7.01507813 4.044375 6.37890625 4.96875 C-7.58000179 25.43477639 -17.11102362 46.64769002 -24.75 70.25 C-31.70965591 65.4445233 -35.78964369 58.27901624 -38.125 50.1875 C-39.9740115 38.53872754 -37.81694489 27.86645596 -32.75 17.25 C-32.09 17.25 -31.43 17.25 -30.75 17.25 C-30.49476562 16.6621875 -30.23953125 16.074375 -29.9765625 15.46875 C-25.85080961 8.00560465 -17.55802799 4.10794987 -9.9296875 1.16015625 C-6.48210005 0.17331611 -3.57968764 -0.01649626 0 0 Z " fill="#E0332C" transform="translate(126.75,207.75)"/>
<path d="M0 0 C3.69659384 3.06887036 6.47542643 5.96398345 7.1640625 10.8828125 C7.19407846 16.58584553 6.6268422 20.87792124 2.46875 25.17578125 C-2.2938683 29.40788004 -5.80926221 30.09382982 -12.109375 30.0234375 C-16.51613112 29.39511389 -20.40412895 26.15011225 -23.13671875 22.734375 C-25.379407 18.60310716 -25.97580468 14.34510978 -25.13671875 9.734375 C-23.13653626 5.27181645 -20.50914845 1.13215903 -16.13671875 -1.265625 C-10.84237719 -2.92436721 -4.84479103 -2.86967512 0 0 Z " fill="#F08838" transform="translate(57.13671875,322.265625)"/>
<path d="M0 0 C5.00230198 2.45567552 8.49851535 5.9970307 11 11 C11.85895445 16.91451492 11.08033922 21.3682911 7.6171875 26.26953125 C3.92992877 30.21507622 -0.21868695 31.6761249 -5.4375 32.625 C-11.64701716 31.53561102 -16.35116262 28.2484146 -20.0625 23.1875 C-21.71064954 17.58379157 -22.0235815 13.04716299 -19.375 7.75 C-13.26806487 0.67881196 -9.53291368 -1.53435869 0 0 Z " fill="#D16D27" transform="translate(133,171)"/>
<path d="M0 0 C3.91969154 2.98643165 5.68717371 6.44209097 7.12109375 11.0625 C7.67431565 16.31810805 7.01245256 19.62908316 4.12109375 24.0625 C0.41903105 27.81513733 -2.77482711 29.90064776 -8.12890625 30.3125 C-13.86679361 29.92997418 -17.46655714 28.3213329 -21.75390625 24.5 C-24.78431262 20.46614781 -25.13691411 15.9881047 -24.87890625 11.0625 C-23.23813834 5.17503869 -20.75292361 2.44447123 -15.87890625 -0.9375 C-10.84696897 -2.6460667 -4.77417731 -2.38212589 0 0 Z " fill="#F57827" transform="translate(240.87890625,305.9375)"/>
<path d="M0 0 C1.19882813 0.15275391 1.19882813 0.15275391 2.421875 0.30859375 C3.02515625 0.39238281 3.6284375 0.47617188 4.25 0.5625 C3.75647235 3.72107693 2.91528547 6.53846962 1.75 9.5 C-2.04161073 19.43217054 -1.8308218 29.76245953 2.25 39.5625 C4.5261909 43.9873641 6.76497309 48.2010063 10.45703125 51.5859375 C12.25 53.5625 12.25 53.5625 12.421875 55.703125 C12.03125 57.65625 11.640625 59.609375 11.25 61.5625 C3.02545782 58.54123961 -2.59859162 54.10240596 -6.70703125 46.2578125 C-7.95998676 43.0198376 -8.56066291 39.8506823 -9.1875 36.4375 C-10.20155457 30.99794718 -11.36297209 27.74956549 -15.4453125 23.9921875 C-18.249564 20.9192652 -18.09069529 16.58363311 -18.03125 12.5859375 C-17.40029179 8.04654371 -14.48354247 5.24102679 -11.25 2.25 C-7.37892125 -0.36297816 -4.57842195 -0.60596761 0 0 Z " fill="#F18838" transform="translate(89.75,224.4375)"/>
<path d="M0 0 C1.67206259 3.02664494 2.46290158 5.81738791 3.1875 9.1875 C5.03446591 16.19096972 8.63442413 21.99497608 14.9375 25.75 C15.618125 26.1625 16.29875 26.575 17 27 C17.12890625 29.578125 17.12890625 29.578125 17 32 C16.40574219 32.07476562 15.81148437 32.14953125 15.19921875 32.2265625 C6.19864485 33.65433628 -2.05556878 36.81804329 -7.5625 44.375 C-7.99691406 45.06335938 -8.43132813 45.75171875 -8.87890625 46.4609375 C-9.24886719 46.96882813 -9.61882813 47.47671875 -10 48 C-10.66 48 -11.32 48 -12 48 C-15.85155507 35.73463118 -16.36018299 25.14480857 -10.67578125 13.22265625 C-7.71873398 8.06140576 -4.40382307 3.98441134 0 0 Z " fill="#E0322C" transform="translate(47,272)"/>
<path d="M0 0 C5.07797053 3.31718818 9.57186802 6.93232664 13 12 C13 12.33 13 12.66 13 13 C6.15033893 13.20337138 -0.69854024 13.34315635 -7.55053711 13.43945312 C-9.87960908 13.47960675 -12.20848037 13.53414347 -14.53686523 13.60351562 C-17.89096604 13.70092278 -21.24239589 13.7460082 -24.59765625 13.78125 C-25.63334244 13.82254028 -26.66902863 13.86383057 -27.73609924 13.90637207 C-31.95966758 13.90897494 -34.83403925 13.89074112 -38.26290894 11.27124023 C-43 6.08994262 -43 6.08994262 -43 2 C-41.41925436 1.18247697 -39.83528777 0.37118003 -38.25 -0.4375 C-37.36828125 -0.88996094 -36.4865625 -1.34242187 -35.578125 -1.80859375 C-25.26513804 -6.57444379 -9.79469156 -5.4556751 0 0 Z " fill="#5FAA46" transform="translate(308,116)"/>
<path d="M0 0 C3.209381 1.53175002 5.70326101 3.29086312 8 6 C9.2179198 10.11626061 9.47377742 13.81555644 7.875 17.8125 C4.46078671 21.79574884 2.44957186 23.76619809 -2.875 24.625 C-7.19954173 24.41985096 -9.55101375 22.46660462 -12.65234375 19.60546875 C-14.71006082 17.15410146 -15.0156376 14.88383497 -15.4375 11.75 C-14.8560227 6.76590888 -12.62718402 4.32648483 -9 1 C-5.93570224 -0.53214888 -3.3834358 -0.22938548 0 0 Z " fill="#F57827" transform="translate(407,256)"/>
<path d="M0 0 C3.209381 1.53175002 5.70326101 3.29086312 8 6 C9.2179198 10.11626061 9.47377742 13.81555644 7.875 17.8125 C4.46078671 21.79574884 2.44957186 23.76619809 -2.875 24.625 C-7.19954173 24.41985096 -9.55101375 22.46660462 -12.65234375 19.60546875 C-14.71006082 17.15410146 -15.0156376 14.88383497 -15.4375 11.75 C-14.8560227 6.76590888 -12.62718402 4.32648483 -9 1 C-5.93570224 -0.53214888 -3.3834358 -0.22938548 0 0 Z " fill="#F57827" transform="translate(343,224)"/>
<path d="M0 0 C5.48973016 3.954077 9.9577794 8.77029793 13.58203125 14.4921875 C13.58203125 15.1521875 13.58203125 15.8121875 13.58203125 16.4921875 C9.34612262 15.14584173 5.32814741 13.55033746 1.26953125 11.7421875 C-11.94551781 5.99419282 -25.37741721 1.70469593 -39.41796875 -1.5078125 C-38.41796875 -3.5078125 -38.41796875 -3.5078125 -35.40234375 -4.609375 C-23.60646031 -7.66957106 -10.33499622 -6.44476339 0 0 Z " fill="#E1342C" transform="translate(374.41796875,133.5078125)"/>
<path d="M0 0 C-0.15339844 0.97066406 -0.30679688 1.94132813 -0.46484375 2.94140625 C-1.08209985 7.26219894 -1.33480395 11.58141318 -1.5625 15.9375 C-1.60568359 16.71673828 -1.64886719 17.49597656 -1.69335938 18.29882812 C-1.79828077 20.19907117 -1.8995245 22.09951669 -2 24 C-3.98 24.66 -5.96 25.32 -8 26 C-8.556875 25.33613281 -9.11375 24.67226562 -9.6875 23.98828125 C-14.40754506 18.52674263 -18.65730699 14.45965073 -25 11 C-22.21045738 8.75390072 -19.59714981 7.26843246 -16.26953125 5.95703125 C-15.38458984 5.60576172 -14.49964844 5.25449219 -13.58789062 4.89257812 C-12.21407227 4.35793945 -12.21407227 4.35793945 -10.8125 3.8125 C-9.88501953 3.44447266 -8.95753906 3.07644531 -8.00195312 2.69726562 C-1.1612071 0 -1.1612071 0 0 0 Z " fill="#EF6323" transform="translate(154,137)"/>
<path d="M0 0 C3.34942932 0.02918893 6.01419141 0.43648537 9 2 C10.70793637 4.87324712 11.72239489 7.72604978 12.8125 10.8828125 C14.22643727 14.59439783 16.14972151 17.25137997 18.66796875 20.28125 C21.13120439 23.45961857 22.09481336 25.17828419 21.625 29.25 C21.315625 30.61125 21.315625 30.61125 21 32 C12.47848176 28.86964636 7.14843795 24.3772367 3 16.23046875 C0.53189087 10.72542847 -0.24544478 6.0133971 0 0 Z " fill="#D16D28" transform="translate(80,254)"/>
<path d="M0 0 C2.0625 1.5625 2.0625 1.5625 3 4 C3.17821261 6.85140177 2.92914963 9.292848 2 12 C-0.93837168 14.85194898 -2.53597436 15 -6.625 15 C-10 14 -10 14 -12 11.875 C-13.30782688 8.11499772 -13.06090617 5.81926223 -12 2 C-8.81688665 -2.07438508 -4.54417813 -1.38635943 0 0 Z " fill="#F57927" transform="translate(213,257)"/>
<path d="M0 0 C0.66 0 1.32 0 2 0 C1.34 9.9 0.68 19.8 0 30 C-1.52730192 27.70904712 -2.9352021 25.47450601 -4.25 23.0625 C-4.62640625 22.39347656 -5.0028125 21.72445313 -5.390625 21.03515625 C-6 19 -6 19 -5.20703125 16.9140625 C-4.80871094 16.28242188 -4.41039063 15.65078125 -4 15 C-1.08462045 9.98554717 -0.36630402 5.68402795 0 0 Z " fill="#DF342C" transform="translate(96,299)"/>
<path d="M0 0 C2.625 0.375 2.625 0.375 5 1 C5.625 3.375 5.625 3.375 6 6 C5.34 6.66 4.68 7.32 4 8 C1.375 7.625 1.375 7.625 -1 7 C-1.625 4.625 -1.625 4.625 -2 2 C-1.34 1.34 -0.68 0.68 0 0 Z " fill="#F57A27" transform="translate(362,320)"/>
</svg>
